<?xml version="1.0" encoding="UTF-8" standalone="no"?>
<!DOCTYPE svg PUBLIC "-//W3C//DTD SVG 1.1//EN"
 "http://www.w3.org/Graphics/SVG/1.1/DTD/svg11.dtd">
<!-- Generated by graphviz version 2.38.0 (20140413.2041)
 -->
<!-- Title: output_alpha_e_spectra Pages: 1 -->
<svg width="365pt" height="28pt"
 viewBox="0.00 0.00 365.00 28.00" xmlns="http://www.w3.org/2000/svg" xmlns:xlink="http://www.w3.org/1999/xlink">
<g id="graph0" class="graph" transform="scale(1 1) rotate(0) translate(4 24)">
<title>output_alpha_e_spectra</title>
<polygon fill="white" stroke="none" points="-4,4 -4,-24 361,-24 361,4 -4,4"/>
<!-- Node1 -->
<g id="node1" class="node"><title>Node1</title>
<polygon fill="#bfbfbf" stroke="black" points="0,-0.5 0,-19.5 124,-19.5 124,-0.5 0,-0.5"/>
<text text-anchor="middle" x="62" y="-7.5" font-family="Helvetica,sans-Serif" font-size="10.00">output_alpha_e_spectra</text>
</g>
<!-- Node2 -->
<g id="node2" class="node"><title>Node2</title>
<g id="a_node2"><a xlink:href="decchains_8f90.html#a4fcdff641fab56d3f1873338894797d0" target="_top" xlink:title="Top subroutine to set up decay chains. ">
<polygon fill="white" stroke="black" points="160,-0.5 160,-19.5 268,-19.5 268,-0.5 160,-0.5"/>
<text text-anchor="middle" x="214" y="-7.5" font-family="Helvetica,sans-Serif" font-size="10.00">setup_decay_chains</text>
</a>
</g>
</g>
<!-- Node1&#45;&gt;Node2 -->
<g id="edge1" class="edge"><title>Node1&#45;&gt;Node2</title>
<path fill="none" stroke="midnightblue" d="M134.089,-10C142.726,-10 151.431,-10 159.746,-10"/>
<polygon fill="midnightblue" stroke="midnightblue" points="134.011,-6.5001 124.011,-10 134.011,-13.5001 134.011,-6.5001"/>
</g>
<!-- Node3 -->
<g id="node3" class="node"><title>Node3</title>
<g id="a_node3"><a xlink:href="argon39_8f90.html#a53921723df12bf3ddfe3fd2c80826bcb" target="_top" xlink:title="Main program. ">
<polygon fill="white" stroke="black" points="304,-0.5 304,-19.5 357,-19.5 357,-0.5 304,-0.5"/>
<text text-anchor="middle" x="330.5" y="-7.5" font-family="Helvetica,sans-Serif" font-size="10.00">argon39</text>
</a>
</g>
</g>
<!-- Node2&#45;&gt;Node3 -->
<g id="edge2" class="edge"><title>Node2&#45;&gt;Node3</title>
<path fill="none" stroke="midnightblue" d="M278.393,-10C287.362,-10 296.127,-10 303.795,-10"/>
<polygon fill="midnightblue" stroke="midnightblue" points="278.228,-6.5001 268.228,-10 278.228,-13.5001 278.228,-6.5001"/>
</g>
</g>
</svg>
