<?xml version="1.0" encoding="UTF-8" standalone="no"?>
<!DOCTYPE svg PUBLIC "-//W3C//DTD SVG 1.1//EN"
 "http://www.w3.org/Graphics/SVG/1.1/DTD/svg11.dtd">
<!-- Generated by graphviz version 2.38.0 (20140413.2041)
 -->
<!-- Title: setup_decay_chains Pages: 1 -->
<svg width="773pt" height="370pt"
 viewBox="0.00 0.00 773.00 370.00" xmlns="http://www.w3.org/2000/svg" xmlns:xlink="http://www.w3.org/1999/xlink">
<g id="graph0" class="graph" transform="scale(1 1) rotate(0) translate(4 366)">
<title>setup_decay_chains</title>
<polygon fill="white" stroke="none" points="-4,4 -4,-366 769,-366 769,4 -4,4"/>
<!-- Node1 -->
<g id="node1" class="node"><title>Node1</title>
<polygon fill="#bfbfbf" stroke="black" points="0,-199.5 0,-218.5 108,-218.5 108,-199.5 0,-199.5"/>
<text text-anchor="middle" x="54" y="-206.5" font-family="Helvetica,sans-Serif" font-size="10.00">setup_decay_chains</text>
</g>
<!-- Node2 -->
<g id="node2" class="node"><title>Node2</title>
<g id="a_node2"><a xlink:href="decchains_8f90.html#a846040297eef709abf3f8dac36b0bdd4" target="_top" xlink:title="Gets decays chains from input file and allocates dchain(:) array. ">
<polygon fill="white" stroke="black" points="312.5,-328 312.5,-358 425.5,-358 425.5,-328 312.5,-328"/>
<text text-anchor="start" x="320.5" y="-346" font-family="Helvetica,sans-Serif" font-size="10.00">get_requested_decay</text>
<text text-anchor="middle" x="369" y="-335" font-family="Helvetica,sans-Serif" font-size="10.00">_chains</text>
</a>
</g>
</g>
<!-- Node1&#45;&gt;Node2 -->
<g id="edge1" class="edge"><title>Node1&#45;&gt;Node2</title>
<path fill="none" stroke="midnightblue" d="M70.7282,-218.544C88.2462,-228.963 117.582,-245.789 144,-258 200.398,-284.069 267.245,-308.655 313.145,-324.614"/>
<polygon fill="midnightblue" stroke="midnightblue" points="312.016,-327.927 322.611,-327.886 314.303,-321.311 312.016,-327.927"/>
</g>
<!-- Node6 -->
<g id="node6" class="node"><title>Node6</title>
<g id="a_node6"><a xlink:href="decchains_8f90.html#af1e6b3924e08acff9381a9c85abf5f13" target="_top" xlink:title="Sets up one decay chain. ">
<polygon fill="white" stroke="black" points="154.5,-169.5 154.5,-188.5 257.5,-188.5 257.5,-169.5 154.5,-169.5"/>
<text text-anchor="middle" x="206" y="-176.5" font-family="Helvetica,sans-Serif" font-size="10.00">setup_decay_chain</text>
</a>
</g>
</g>
<!-- Node1&#45;&gt;Node6 -->
<g id="edge5" class="edge"><title>Node1&#45;&gt;Node6</title>
<path fill="none" stroke="midnightblue" d="M102.873,-199.425C117.015,-196.597 132.644,-193.471 147.334,-190.533"/>
<polygon fill="midnightblue" stroke="midnightblue" points="148.205,-193.928 157.324,-188.535 146.832,-187.064 148.205,-193.928"/>
</g>
<!-- Node22 -->
<g id="node22" class="node"><title>Node22</title>
<g id="a_node22"><a xlink:href="decchains_8f90.html#a3a5066500c84a1857b9e5983e2c9fb08" target="_top" xlink:title="Outputs parameters of decay chain ic to output file. ">
<polygon fill="white" stroke="black" points="153,-131.5 153,-150.5 259,-150.5 259,-131.5 153,-131.5"/>
<text text-anchor="middle" x="206" y="-138.5" font-family="Helvetica,sans-Serif" font-size="10.00">output_decay_chain</text>
</a>
</g>
</g>
<!-- Node1&#45;&gt;Node22 -->
<g id="edge24" class="edge"><title>Node1&#45;&gt;Node22</title>
<path fill="none" stroke="midnightblue" d="M70.2773,-199.344C87.6369,-188.67 117.061,-171.473 144,-160 149.166,-157.8 154.675,-155.727 160.188,-153.817"/>
<polygon fill="midnightblue" stroke="midnightblue" points="161.646,-157.021 170.045,-150.562 159.451,-150.374 161.646,-157.021"/>
</g>
<!-- Node23 -->
<g id="node23" class="node"><title>Node23</title>
<g id="a_node23"><a xlink:href="decchains_8f90.html#a31f59d79ebc87116c67becd7087688eb" target="_top" xlink:title="Outputs energy spectra of alphas produced in chain ic ">
<polygon fill="white" stroke="black" points="144,-229.5 144,-248.5 268,-248.5 268,-229.5 144,-229.5"/>
<text text-anchor="middle" x="206" y="-236.5" font-family="Helvetica,sans-Serif" font-size="10.00">output_alpha_e_spectra</text>
</a>
</g>
</g>
<!-- Node1&#45;&gt;Node23 -->
<g id="edge25" class="edge"><title>Node1&#45;&gt;Node23</title>
<path fill="none" stroke="midnightblue" d="M102.873,-218.575C117.015,-221.403 132.644,-224.529 147.334,-227.467"/>
<polygon fill="midnightblue" stroke="midnightblue" points="146.832,-230.936 157.324,-229.465 148.205,-224.072 146.832,-230.936"/>
</g>
<!-- Node3 -->
<g id="node3" class="node"><title>Node3</title>
<g id="a_node3"><a xlink:href="iostuff_8f90.html#af759d00c9a49b8f430c17756db8dabbb" target="_top" xlink:title="Opens external file including error handling. ">
<polygon fill="white" stroke="black" points="507.5,-304.5 507.5,-323.5 564.5,-323.5 564.5,-304.5 507.5,-304.5"/>
<text text-anchor="middle" x="536" y="-311.5" font-family="Helvetica,sans-Serif" font-size="10.00">open_file</text>
</a>
</g>
</g>
<!-- Node2&#45;&gt;Node3 -->
<g id="edge2" class="edge"><title>Node2&#45;&gt;Node3</title>
<path fill="none" stroke="midnightblue" d="M425.861,-333.182C449.483,-329.03 476.368,-324.305 497.543,-320.583"/>
<polygon fill="midnightblue" stroke="midnightblue" points="498.198,-324.022 507.441,-318.844 496.986,-317.128 498.198,-324.022"/>
</g>
<!-- Node4 -->
<g id="node4" class="node"><title>Node4</title>
<g id="a_node4"><a xlink:href="ensdf_8f90.html#a4572e087dca23cd61cb6b6e236aa5060" target="_top" xlink:title="Checks NUCID format. ">
<polygon fill="white" stroke="black" points="479,-342.5 479,-361.5 593,-361.5 593,-342.5 479,-342.5"/>
<text text-anchor="middle" x="536" y="-349.5" font-family="Helvetica,sans-Serif" font-size="10.00">validate_nucid_format</text>
</a>
</g>
</g>
<!-- Node2&#45;&gt;Node4 -->
<g id="edge3" class="edge"><title>Node2&#45;&gt;Node4</title>
<path fill="none" stroke="midnightblue" d="M425.861,-346.047C439.629,-346.798 454.505,-347.609 468.713,-348.384"/>
<polygon fill="midnightblue" stroke="midnightblue" points="468.74,-351.891 478.915,-348.941 469.121,-344.901 468.74,-351.891"/>
</g>
<!-- Node5 -->
<g id="node5" class="node"><title>Node5</title>
<g id="a_node5"><a xlink:href="ensdf_8f90.html#ac85c1610cf6186365e8b9104254d54a0" target="_top" xlink:title="Converts all alphanumeric characters in the string to upper case. ">
<polygon fill="white" stroke="black" points="677,-304.5 677,-323.5 726,-323.5 726,-304.5 677,-304.5"/>
<text text-anchor="middle" x="701.5" y="-311.5" font-family="Helvetica,sans-Serif" font-size="10.00">upcase</text>
</a>
</g>
</g>
<!-- Node4&#45;&gt;Node5 -->
<g id="edge4" class="edge"><title>Node4&#45;&gt;Node5</title>
<path fill="none" stroke="midnightblue" d="M578.258,-342.411C605.696,-336.034 641.275,-327.765 666.967,-321.794"/>
<polygon fill="midnightblue" stroke="midnightblue" points="668.029,-325.14 676.977,-319.467 666.444,-318.322 668.029,-325.14"/>
</g>
<!-- Node6&#45;&gt;Node3 -->
<g id="edge6" class="edge"><title>Node6&#45;&gt;Node3</title>
<path fill="none" stroke="midnightblue" d="M221.275,-188.641C246.062,-205.326 295.261,-238.178 304,-242 358.615,-265.887 378.595,-253.009 434,-275 451.012,-281.752 453.111,-287.944 470,-295 478.763,-298.661 488.468,-301.904 497.648,-304.627"/>
<polygon fill="midnightblue" stroke="midnightblue" points="496.758,-308.013 507.334,-307.374 498.668,-301.278 496.758,-308.013"/>
</g>
<!-- Node7 -->
<g id="node7" class="node"><title>Node7</title>
<g id="a_node7"><a xlink:href="ensdf_8f90.html#abf41713aa86fc45deb8a017daaf563ba" target="_top" xlink:title="Reads ENSDF decay dataset. ">
<polygon fill="white" stroke="black" points="310.5,-213.5 310.5,-232.5 427.5,-232.5 427.5,-213.5 310.5,-213.5"/>
<text text-anchor="middle" x="369" y="-220.5" font-family="Helvetica,sans-Serif" font-size="10.00">read_ensdf_decay_file</text>
</a>
</g>
</g>
<!-- Node6&#45;&gt;Node7 -->
<g id="edge7" class="edge"><title>Node6&#45;&gt;Node7</title>
<path fill="none" stroke="midnightblue" d="M241.935,-188.547C265.775,-195.063 297.566,-203.751 323.258,-210.772"/>
<polygon fill="midnightblue" stroke="midnightblue" points="322.565,-214.211 333.134,-213.471 324.41,-207.459 322.565,-214.211"/>
</g>
<!-- Node14 -->
<g id="node14" class="node"><title>Node14</title>
<g id="a_node14"><a xlink:href="decchains_8f90.html#a533a9c47122d882f670c3ab5fd7ea8d6" target="_top" xlink:title="Appends alpha branch adec to dchain(ic)Abranch array. ">
<polygon fill="white" stroke="black" points="313,-164 313,-194 425,-194 425,-164 313,-164"/>
<text text-anchor="start" x="321" y="-182" font-family="Helvetica,sans-Serif" font-size="10.00">append_alpha_decay</text>
<text text-anchor="middle" x="369" y="-171" font-family="Helvetica,sans-Serif" font-size="10.00">_to_chain</text>
</a>
</g>
</g>
<!-- Node6&#45;&gt;Node14 -->
<g id="edge16" class="edge"><title>Node6&#45;&gt;Node14</title>
<path fill="none" stroke="midnightblue" d="M257.941,-179C272.163,-179 287.814,-179 302.74,-179"/>
<polygon fill="midnightblue" stroke="midnightblue" points="302.931,-182.5 312.931,-179 302.931,-175.5 302.931,-182.5"/>
</g>
<!-- Node15 -->
<g id="node15" class="node"><title>Node15</title>
<g id="a_node15"><a xlink:href="decchains_8f90.html#ac3f1457cdc888bfbf46092efccffc1fa" target="_top" xlink:title="Appends beta branch bdec to dchain(ic)Bbranch array. ">
<polygon fill="white" stroke="black" points="308.5,-115 308.5,-145 429.5,-145 429.5,-115 308.5,-115"/>
<text text-anchor="start" x="316.5" y="-133" font-family="Helvetica,sans-Serif" font-size="10.00">append_beta_decay_to</text>
<text text-anchor="middle" x="369" y="-122" font-family="Helvetica,sans-Serif" font-size="10.00">_chain</text>
</a>
</g>
</g>
<!-- Node6&#45;&gt;Node15 -->
<g id="edge17" class="edge"><title>Node6&#45;&gt;Node15</title>
<path fill="none" stroke="midnightblue" d="M238.425,-169.436C258.452,-163.341 285.032,-155.251 308.904,-147.986"/>
<polygon fill="midnightblue" stroke="midnightblue" points="310.045,-151.297 318.593,-145.037 308.007,-144.6 310.045,-151.297"/>
</g>
<!-- Node16 -->
<g id="node16" class="node"><title>Node16</title>
<g id="a_node16"><a xlink:href="decchains_8f90.html#ac88a325210435f8430ff77723b4e6f56" target="_top" xlink:title="Calculates the total, including up&#45;the&#45;chain, branching of each decay branch. ">
<polygon fill="white" stroke="black" points="304,-76.5 304,-95.5 434,-95.5 434,-76.5 304,-76.5"/>
<text text-anchor="middle" x="369" y="-83.5" font-family="Helvetica,sans-Serif" font-size="10.00">calculate_total_branching</text>
</a>
</g>
</g>
<!-- Node6&#45;&gt;Node16 -->
<g id="edge18" class="edge"><title>Node6&#45;&gt;Node16</title>
<path fill="none" stroke="midnightblue" d="M250.81,-169.44C256.926,-166.971 262.865,-163.876 268,-160 291.318,-142.399 280.565,-122.445 304,-105 306.522,-103.123 309.228,-101.43 312.051,-99.9036"/>
<polygon fill="midnightblue" stroke="midnightblue" points="313.784,-102.958 321.381,-95.5736 310.837,-96.6085 313.784,-102.958"/>
</g>
<!-- Node19 -->
<g id="node19" class="node"><title>Node19</title>
<g id="a_node19"><a xlink:href="ensdf_8f90.html#a42cf66c8a060d39f6c3e1da42f56b3ed" target="_top" xlink:title="Gets A and Z from NUCID. ">
<polygon fill="white" stroke="black" points="334,-38.5 334,-57.5 404,-57.5 404,-38.5 334,-38.5"/>
<text text-anchor="middle" x="369" y="-45.5" font-family="Helvetica,sans-Serif" font-size="10.00">nucid_to_az</text>
</a>
</g>
</g>
<!-- Node6&#45;&gt;Node19 -->
<g id="edge21" class="edge"><title>Node6&#45;&gt;Node19</title>
<path fill="none" stroke="midnightblue" d="M253.752,-169.393C258.96,-166.941 263.867,-163.863 268,-160 300.378,-129.733 271.42,-97.0499 304,-67 309.623,-61.8136 316.601,-58.0386 323.861,-55.2919"/>
<polygon fill="midnightblue" stroke="midnightblue" points="325.35,-58.4923 333.835,-52.1478 323.245,-51.8162 325.35,-58.4923"/>
</g>
<!-- Node20 -->
<g id="node20" class="node"><title>Node20</title>
<g id="a_node20"><a xlink:href="elemnucl_8f90.html#a80682d75c547656792b6819000fb25ed" target="_top" xlink:title="Returns index inuc of nuclide Z,A ">
<polygon fill="white" stroke="black" points="319.5,-0.5 319.5,-19.5 418.5,-19.5 418.5,-0.5 319.5,-0.5"/>
<text text-anchor="middle" x="369" y="-7.5" font-family="Helvetica,sans-Serif" font-size="10.00">find_nuclide_index</text>
</a>
</g>
</g>
<!-- Node6&#45;&gt;Node20 -->
<g id="edge22" class="edge"><title>Node6&#45;&gt;Node20</title>
<path fill="none" stroke="midnightblue" d="M254.741,-169.486C259.656,-167.015 264.222,-163.908 268,-160 309.969,-116.59 261.742,-72.1288 304,-29 305.881,-27.0803 307.946,-25.3526 310.147,-23.7977"/>
<polygon fill="midnightblue" stroke="midnightblue" points="312.261,-26.6204 319.204,-18.617 308.786,-20.5442 312.261,-26.6204"/>
</g>
<!-- Node7&#45;&gt;Node3 -->
<g id="edge8" class="edge"><title>Node7&#45;&gt;Node3</title>
<path fill="none" stroke="midnightblue" d="M406.38,-232.599C415.93,-236.164 425.833,-240.881 434,-247 455.341,-262.99 448.079,-279.815 470,-295 478.177,-300.665 488.049,-304.66 497.603,-307.471"/>
<polygon fill="midnightblue" stroke="midnightblue" points="496.801,-310.879 507.359,-309.993 498.553,-304.102 496.801,-310.879"/>
</g>
<!-- Node8 -->
<g id="node8" class="node"><title>Node8</title>
<g id="a_node8"><a xlink:href="ensdf_8f90.html#aef08c69b5333de28d12cb2d80f47c453" target="_top" xlink:title="Reads ENSDF Identification record. ">
<polygon fill="white" stroke="black" points="492,-266.5 492,-285.5 580,-285.5 580,-266.5 492,-266.5"/>
<text text-anchor="middle" x="536" y="-273.5" font-family="Helvetica,sans-Serif" font-size="10.00">ensdf_id_record</text>
</a>
</g>
</g>
<!-- Node7&#45;&gt;Node8 -->
<g id="edge9" class="edge"><title>Node7&#45;&gt;Node8</title>
<path fill="none" stroke="midnightblue" d="M397.059,-232.555C417.119,-239.551 445.171,-249.154 470,-257 476.937,-259.192 484.317,-261.434 491.522,-263.574"/>
<polygon fill="midnightblue" stroke="midnightblue" points="490.598,-266.951 501.18,-266.415 492.574,-260.235 490.598,-266.951"/>
</g>
<!-- Node9 -->
<g id="node9" class="node"><title>Node9</title>
<g id="a_node9"><a xlink:href="ensdf_8f90.html#a662ffe3f9b4e9e979d1923db6ed6747e" target="_top" xlink:title="Reads ENSDF Parent record. ">
<polygon fill="white" stroke="black" points="493,-228.5 493,-247.5 579,-247.5 579,-228.5 493,-228.5"/>
<text text-anchor="middle" x="536" y="-235.5" font-family="Helvetica,sans-Serif" font-size="10.00">ensdf_p_record</text>
</a>
</g>
</g>
<!-- Node7&#45;&gt;Node9 -->
<g id="edge11" class="edge"><title>Node7&#45;&gt;Node9</title>
<path fill="none" stroke="midnightblue" d="M427.709,-228.246C445.654,-229.878 465.325,-231.666 482.867,-233.261"/>
<polygon fill="midnightblue" stroke="midnightblue" points="482.644,-236.755 492.92,-234.175 483.278,-229.783 482.644,-236.755"/>
</g>
<!-- Node11 -->
<g id="node11" class="node"><title>Node11</title>
<g id="a_node11"><a xlink:href="ensdf_8f90.html#a7dbd2855a294788264321f83bb6ed0d2" target="_top" xlink:title="Reads ENSDF Normalization record. ">
<polygon fill="white" stroke="black" points="493,-190.5 493,-209.5 579,-209.5 579,-190.5 493,-190.5"/>
<text text-anchor="middle" x="536" y="-197.5" font-family="Helvetica,sans-Serif" font-size="10.00">ensdf_n_record</text>
</a>
</g>
</g>
<!-- Node7&#45;&gt;Node11 -->
<g id="edge13" class="edge"><title>Node7&#45;&gt;Node11</title>
<path fill="none" stroke="midnightblue" d="M427.709,-214.956C445.654,-212.454 465.325,-209.712 482.867,-207.267"/>
<polygon fill="midnightblue" stroke="midnightblue" points="483.499,-210.713 492.92,-205.866 482.532,-203.78 483.499,-210.713"/>
</g>
<!-- Node12 -->
<g id="node12" class="node"><title>Node12</title>
<g id="a_node12"><a xlink:href="ensdf_8f90.html#a6d91f3b61ac11d378e6bda9af255ae44" target="_top" xlink:title="Reads ENSDF Alpha record. ">
<polygon fill="white" stroke="black" points="493,-152.5 493,-171.5 579,-171.5 579,-152.5 493,-152.5"/>
<text text-anchor="middle" x="536" y="-159.5" font-family="Helvetica,sans-Serif" font-size="10.00">ensdf_a_record</text>
</a>
</g>
</g>
<!-- Node7&#45;&gt;Node12 -->
<g id="edge14" class="edge"><title>Node7&#45;&gt;Node12</title>
<path fill="none" stroke="midnightblue" d="M408.544,-213.459C417.092,-210.822 425.988,-207.661 434,-204 451.27,-196.11 452.714,-188.854 470,-181 475.017,-178.72 480.377,-176.639 485.785,-174.759"/>
<polygon fill="midnightblue" stroke="midnightblue" points="487.082,-178.017 495.507,-171.593 484.915,-171.361 487.082,-178.017"/>
</g>
<!-- Node13 -->
<g id="node13" class="node"><title>Node13</title>
<g id="a_node13"><a xlink:href="ensdf_8f90.html#a649d449decd0afde48a0a49911c27617" target="_top" xlink:title="Appends alpha level to a variable of type abra (alpha decay branch) ">
<polygon fill="white" stroke="black" points="470,-114.5 470,-133.5 602,-133.5 602,-114.5 470,-114.5"/>
<text text-anchor="middle" x="536" y="-121.5" font-family="Helvetica,sans-Serif" font-size="10.00">append_level_to_abranch</text>
</a>
</g>
</g>
<!-- Node7&#45;&gt;Node13 -->
<g id="edge15" class="edge"><title>Node7&#45;&gt;Node13</title>
<path fill="none" stroke="midnightblue" d="M417.445,-213.376C423.368,-210.926 429.068,-207.853 434,-204 458.809,-184.622 445.15,-162.326 470,-143 472.427,-141.112 475.037,-139.412 477.767,-137.88"/>
<polygon fill="midnightblue" stroke="midnightblue" points="479.314,-141.02 486.817,-133.54 476.287,-134.708 479.314,-141.02"/>
</g>
<!-- Node8&#45;&gt;Node5 -->
<g id="edge10" class="edge"><title>Node8&#45;&gt;Node5</title>
<path fill="none" stroke="midnightblue" d="M578.258,-285.589C605.696,-291.966 641.275,-300.235 666.967,-306.206"/>
<polygon fill="midnightblue" stroke="midnightblue" points="666.444,-309.678 676.977,-308.533 668.029,-302.86 666.444,-309.678"/>
</g>
<!-- Node10 -->
<g id="node10" class="node"><title>Node10</title>
<g id="a_node10"><a xlink:href="ensdf_8f90.html#ab4961a9932af3496daa4d38479bd89b0" target="_top" xlink:title="Removes +X from E entries in ENSDF record. ">
<polygon fill="white" stroke="black" points="638,-228.5 638,-247.5 765,-247.5 765,-228.5 638,-228.5"/>
<text text-anchor="middle" x="701.5" y="-235.5" font-family="Helvetica,sans-Serif" font-size="10.00">remove_px_from_e_field</text>
</a>
</g>
</g>
<!-- Node9&#45;&gt;Node10 -->
<g id="edge12" class="edge"><title>Node9&#45;&gt;Node10</title>
<path fill="none" stroke="midnightblue" d="M579.105,-238C593.914,-238 611.014,-238 627.619,-238"/>
<polygon fill="midnightblue" stroke="midnightblue" points="627.869,-241.5 637.869,-238 627.869,-234.5 627.869,-241.5"/>
</g>
<!-- Node17 -->
<g id="node17" class="node"><title>Node17</title>
<g id="a_node17"><a xlink:href="decchains_8f90.html#ad2d503ba58dd9381ac3afc7f0bb6abeb" target="_top" xlink:title="Finds alpha decay in decay chain ic with daughter dnucid ">
<polygon fill="white" stroke="black" points="471.5,-76.5 471.5,-95.5 600.5,-95.5 600.5,-76.5 471.5,-76.5"/>
<text text-anchor="middle" x="536" y="-83.5" font-family="Helvetica,sans-Serif" font-size="10.00">find_adecay_to_daughter</text>
</a>
</g>
</g>
<!-- Node16&#45;&gt;Node17 -->
<g id="edge19" class="edge"><title>Node16&#45;&gt;Node17</title>
<path fill="none" stroke="midnightblue" d="M434.266,-86C443.141,-86 452.313,-86 461.342,-86"/>
<polygon fill="midnightblue" stroke="midnightblue" points="461.452,-89.5001 471.452,-86 461.452,-82.5001 461.452,-89.5001"/>
</g>
<!-- Node18 -->
<g id="node18" class="node"><title>Node18</title>
<g id="a_node18"><a xlink:href="decchains_8f90.html#a1f2f33380841cca4819f037e87037182" target="_top" xlink:title="Finds beta decay in decay chain ic with daughter dnucid ">
<polygon fill="white" stroke="black" points="471.5,-38.5 471.5,-57.5 600.5,-57.5 600.5,-38.5 471.5,-38.5"/>
<text text-anchor="middle" x="536" y="-45.5" font-family="Helvetica,sans-Serif" font-size="10.00">find_bdecay_to_daughter</text>
</a>
</g>
</g>
<!-- Node16&#45;&gt;Node18 -->
<g id="edge20" class="edge"><title>Node16&#45;&gt;Node18</title>
<path fill="none" stroke="midnightblue" d="M411.636,-76.411C433.508,-71.3739 460.506,-65.1562 483.664,-59.8229"/>
<polygon fill="midnightblue" stroke="midnightblue" points="484.704,-63.1751 493.663,-57.5201 483.133,-56.3537 484.704,-63.1751"/>
</g>
<!-- Node21 -->
<g id="node21" class="node"><title>Node21</title>
<g id="a_node21"><a xlink:href="ensdf_8f90.html#a9f343a9e65fbf1717c6c4887c0e74884" target="_top" xlink:title="Returns NUCID from Z and A compliant to ENSDF standard, i.e., mass number in cols 1&#45;3 right&#45;justied...">
<polygon fill="white" stroke="black" points="501,-0.5 501,-19.5 571,-19.5 571,-0.5 501,-0.5"/>
<text text-anchor="middle" x="536" y="-7.5" font-family="Helvetica,sans-Serif" font-size="10.00">az_to_nucid</text>
</a>
</g>
</g>
<!-- Node20&#45;&gt;Node21 -->
<g id="edge23" class="edge"><title>Node20&#45;&gt;Node21</title>
<path fill="none" stroke="midnightblue" d="M418.613,-10C441.427,-10 468.425,-10 490.672,-10"/>
<polygon fill="midnightblue" stroke="midnightblue" points="490.849,-13.5001 500.849,-10 490.849,-6.5001 490.849,-13.5001"/>
</g>
<!-- Node23&#45;&gt;Node3 -->
<g id="edge26" class="edge"><title>Node23&#45;&gt;Node3</title>
<path fill="none" stroke="midnightblue" d="M228.96,-248.504C248.373,-256.577 277.624,-267.946 304,-275 370.889,-292.888 450.969,-304.232 497.116,-309.825"/>
<polygon fill="midnightblue" stroke="midnightblue" points="496.918,-313.325 507.26,-311.027 497.742,-306.374 496.918,-313.325"/>
</g>
</g>
</svg>
