<?xml version="1.0" encoding="UTF-8" standalone="no"?>
<!DOCTYPE svg PUBLIC "-//W3C//DTD SVG 1.1//EN"
 "http://www.w3.org/Graphics/SVG/1.1/DTD/svg11.dtd">
<!-- Generated by graphviz version 2.38.0 (20140413.2041)
 -->
<!-- Title: setup_decay_chain Pages: 1 -->
<svg width="608pt" height="332pt"
 viewBox="0.00 0.00 608.00 332.00" xmlns="http://www.w3.org/2000/svg" xmlns:xlink="http://www.w3.org/1999/xlink">
<g id="graph0" class="graph" transform="scale(1 1) rotate(0) translate(4 328)">
<title>setup_decay_chain</title>
<polygon fill="white" stroke="none" points="-4,4 -4,-328 604,-328 604,4 -4,4"/>
<!-- Node1 -->
<g id="node1" class="node"><title>Node1</title>
<polygon fill="#bfbfbf" stroke="black" points="0,-120.5 0,-139.5 103,-139.5 103,-120.5 0,-120.5"/>
<text text-anchor="middle" x="51.5" y="-127.5" font-family="Helvetica,sans-Serif" font-size="10.00">setup_decay_chain</text>
</g>
<!-- Node2 -->
<g id="node2" class="node"><title>Node2</title>
<g id="a_node2"><a xlink:href="iostuff_8f90.html#af759d00c9a49b8f430c17756db8dabbb" target="_top" xlink:title="Opens external file including error handling. ">
<polygon fill="white" stroke="black" points="342.5,-304.5 342.5,-323.5 399.5,-323.5 399.5,-304.5 342.5,-304.5"/>
<text text-anchor="middle" x="371" y="-311.5" font-family="Helvetica,sans-Serif" font-size="10.00">open_file</text>
</a>
</g>
</g>
<!-- Node1&#45;&gt;Node2 -->
<g id="edge1" class="edge"><title>Node1&#45;&gt;Node2</title>
<path fill="none" stroke="midnightblue" d="M57.3294,-139.686C68.5979,-161.306 98.7562,-213.807 139,-242 198.778,-283.878 283.823,-302.077 332.299,-309.448"/>
<polygon fill="midnightblue" stroke="midnightblue" points="331.957,-312.935 342.355,-310.901 332.958,-306.007 331.957,-312.935"/>
</g>
<!-- Node3 -->
<g id="node3" class="node"><title>Node3</title>
<g id="a_node3"><a xlink:href="ensdf_8f90.html#abf41713aa86fc45deb8a017daaf563ba" target="_top" xlink:title="Reads ENSDF decay dataset. ">
<polygon fill="white" stroke="black" points="145.5,-213.5 145.5,-232.5 262.5,-232.5 262.5,-213.5 145.5,-213.5"/>
<text text-anchor="middle" x="204" y="-220.5" font-family="Helvetica,sans-Serif" font-size="10.00">read_ensdf_decay_file</text>
</a>
</g>
</g>
<!-- Node1&#45;&gt;Node3 -->
<g id="edge2" class="edge"><title>Node1&#45;&gt;Node3</title>
<path fill="none" stroke="midnightblue" d="M61.6562,-139.947C76.4842,-155.503 107.303,-185.604 139,-203 143.784,-205.625 148.961,-207.96 154.228,-210.022"/>
<polygon fill="midnightblue" stroke="midnightblue" points="153.145,-213.352 163.739,-213.443 155.514,-206.765 153.145,-213.352"/>
</g>
<!-- Node11 -->
<g id="node11" class="node"><title>Node11</title>
<g id="a_node11"><a xlink:href="decchains_8f90.html#a533a9c47122d882f670c3ab5fd7ea8d6" target="_top" xlink:title="Appends alpha branch adec to dchain(ic)Abranch array. ">
<polygon fill="white" stroke="black" points="148,-164 148,-194 260,-194 260,-164 148,-164"/>
<text text-anchor="start" x="156" y="-182" font-family="Helvetica,sans-Serif" font-size="10.00">append_alpha_decay</text>
<text text-anchor="middle" x="204" y="-171" font-family="Helvetica,sans-Serif" font-size="10.00">_to_chain</text>
</a>
</g>
</g>
<!-- Node1&#45;&gt;Node11 -->
<g id="edge11" class="edge"><title>Node1&#45;&gt;Node11</title>
<path fill="none" stroke="midnightblue" d="M81.8752,-139.564C100.43,-145.605 125.002,-153.605 147.163,-160.82"/>
<polygon fill="midnightblue" stroke="midnightblue" points="146.223,-164.195 156.815,-163.963 148.39,-157.539 146.223,-164.195"/>
</g>
<!-- Node12 -->
<g id="node12" class="node"><title>Node12</title>
<g id="a_node12"><a xlink:href="decchains_8f90.html#ac3f1457cdc888bfbf46092efccffc1fa" target="_top" xlink:title="Appends beta branch bdec to dchain(ic)Bbranch array. ">
<polygon fill="white" stroke="black" points="143.5,-115 143.5,-145 264.5,-145 264.5,-115 143.5,-115"/>
<text text-anchor="start" x="151.5" y="-133" font-family="Helvetica,sans-Serif" font-size="10.00">append_beta_decay_to</text>
<text text-anchor="middle" x="204" y="-122" font-family="Helvetica,sans-Serif" font-size="10.00">_chain</text>
</a>
</g>
</g>
<!-- Node1&#45;&gt;Node12 -->
<g id="edge12" class="edge"><title>Node1&#45;&gt;Node12</title>
<path fill="none" stroke="midnightblue" d="M103.033,-130C112.768,-130 123.124,-130 133.341,-130"/>
<polygon fill="midnightblue" stroke="midnightblue" points="133.485,-133.5 143.485,-130 133.485,-126.5 133.485,-133.5"/>
</g>
<!-- Node13 -->
<g id="node13" class="node"><title>Node13</title>
<g id="a_node13"><a xlink:href="decchains_8f90.html#ac88a325210435f8430ff77723b4e6f56" target="_top" xlink:title="Calculates the total, including up&#45;the&#45;chain, branching of each decay branch. ">
<polygon fill="white" stroke="black" points="139,-76.5 139,-95.5 269,-95.5 269,-76.5 139,-76.5"/>
<text text-anchor="middle" x="204" y="-83.5" font-family="Helvetica,sans-Serif" font-size="10.00">calculate_total_branching</text>
</a>
</g>
</g>
<!-- Node1&#45;&gt;Node13 -->
<g id="edge13" class="edge"><title>Node1&#45;&gt;Node13</title>
<path fill="none" stroke="midnightblue" d="M85.1563,-120.453C107.245,-113.995 136.634,-105.403 160.537,-98.4146"/>
<polygon fill="midnightblue" stroke="midnightblue" points="161.791,-101.694 170.407,-95.5287 159.827,-94.9755 161.791,-101.694"/>
</g>
<!-- Node16 -->
<g id="node16" class="node"><title>Node16</title>
<g id="a_node16"><a xlink:href="ensdf_8f90.html#a42cf66c8a060d39f6c3e1da42f56b3ed" target="_top" xlink:title="Gets A and Z from NUCID. ">
<polygon fill="white" stroke="black" points="169,-38.5 169,-57.5 239,-57.5 239,-38.5 169,-38.5"/>
<text text-anchor="middle" x="204" y="-45.5" font-family="Helvetica,sans-Serif" font-size="10.00">nucid_to_az</text>
</a>
</g>
</g>
<!-- Node1&#45;&gt;Node16 -->
<g id="edge16" class="edge"><title>Node1&#45;&gt;Node16</title>
<path fill="none" stroke="midnightblue" d="M63.1779,-120.329C78.7755,-106.665 109.188,-81.7347 139,-67 145.283,-63.8946 152.169,-61.1962 159.022,-58.8857"/>
<polygon fill="midnightblue" stroke="midnightblue" points="160.465,-62.1014 168.965,-55.776 158.376,-55.4205 160.465,-62.1014"/>
</g>
<!-- Node17 -->
<g id="node17" class="node"><title>Node17</title>
<g id="a_node17"><a xlink:href="elemnucl_8f90.html#a80682d75c547656792b6819000fb25ed" target="_top" xlink:title="Returns index inuc of nuclide Z,A ">
<polygon fill="white" stroke="black" points="154.5,-0.5 154.5,-19.5 253.5,-19.5 253.5,-0.5 154.5,-0.5"/>
<text text-anchor="middle" x="204" y="-7.5" font-family="Helvetica,sans-Serif" font-size="10.00">find_nuclide_index</text>
</a>
</g>
</g>
<!-- Node1&#45;&gt;Node17 -->
<g id="edge17" class="edge"><title>Node1&#45;&gt;Node17</title>
<path fill="none" stroke="midnightblue" d="M58.0863,-120.324C70.1907,-100.221 100.848,-53.7561 139,-29 142.151,-26.9555 145.53,-25.1242 149.028,-23.4848"/>
<polygon fill="midnightblue" stroke="midnightblue" points="150.584,-26.6288 158.493,-19.579 147.914,-20.158 150.584,-26.6288"/>
</g>
<!-- Node3&#45;&gt;Node2 -->
<g id="edge3" class="edge"><title>Node3&#45;&gt;Node2</title>
<path fill="none" stroke="midnightblue" d="M217.165,-232.561C239.523,-249.995 286.545,-285.989 305,-295 313.612,-299.205 323.33,-302.658 332.576,-305.413"/>
<polygon fill="midnightblue" stroke="midnightblue" points="331.778,-308.823 342.35,-308.129 333.653,-302.079 331.778,-308.823"/>
</g>
<!-- Node4 -->
<g id="node4" class="node"><title>Node4</title>
<g id="a_node4"><a xlink:href="ensdf_8f90.html#aef08c69b5333de28d12cb2d80f47c453" target="_top" xlink:title="Reads ENSDF Identification record. ">
<polygon fill="white" stroke="black" points="327,-266.5 327,-285.5 415,-285.5 415,-266.5 327,-266.5"/>
<text text-anchor="middle" x="371" y="-273.5" font-family="Helvetica,sans-Serif" font-size="10.00">ensdf_id_record</text>
</a>
</g>
</g>
<!-- Node3&#45;&gt;Node4 -->
<g id="edge4" class="edge"><title>Node3&#45;&gt;Node4</title>
<path fill="none" stroke="midnightblue" d="M232.059,-232.555C252.119,-239.551 280.171,-249.154 305,-257 311.937,-259.192 319.317,-261.434 326.522,-263.574"/>
<polygon fill="midnightblue" stroke="midnightblue" points="325.598,-266.951 336.18,-266.415 327.574,-260.235 325.598,-266.951"/>
</g>
<!-- Node6 -->
<g id="node6" class="node"><title>Node6</title>
<g id="a_node6"><a xlink:href="ensdf_8f90.html#a662ffe3f9b4e9e979d1923db6ed6747e" target="_top" xlink:title="Reads ENSDF Parent record. ">
<polygon fill="white" stroke="black" points="328,-228.5 328,-247.5 414,-247.5 414,-228.5 328,-228.5"/>
<text text-anchor="middle" x="371" y="-235.5" font-family="Helvetica,sans-Serif" font-size="10.00">ensdf_p_record</text>
</a>
</g>
</g>
<!-- Node3&#45;&gt;Node6 -->
<g id="edge6" class="edge"><title>Node3&#45;&gt;Node6</title>
<path fill="none" stroke="midnightblue" d="M262.709,-228.246C280.654,-229.878 300.325,-231.666 317.867,-233.261"/>
<polygon fill="midnightblue" stroke="midnightblue" points="317.644,-236.755 327.92,-234.175 318.278,-229.783 317.644,-236.755"/>
</g>
<!-- Node8 -->
<g id="node8" class="node"><title>Node8</title>
<g id="a_node8"><a xlink:href="ensdf_8f90.html#a7dbd2855a294788264321f83bb6ed0d2" target="_top" xlink:title="Reads ENSDF Normalization record. ">
<polygon fill="white" stroke="black" points="328,-190.5 328,-209.5 414,-209.5 414,-190.5 328,-190.5"/>
<text text-anchor="middle" x="371" y="-197.5" font-family="Helvetica,sans-Serif" font-size="10.00">ensdf_n_record</text>
</a>
</g>
</g>
<!-- Node3&#45;&gt;Node8 -->
<g id="edge8" class="edge"><title>Node3&#45;&gt;Node8</title>
<path fill="none" stroke="midnightblue" d="M262.709,-214.956C280.654,-212.454 300.325,-209.712 317.867,-207.267"/>
<polygon fill="midnightblue" stroke="midnightblue" points="318.499,-210.713 327.92,-205.866 317.532,-203.78 318.499,-210.713"/>
</g>
<!-- Node9 -->
<g id="node9" class="node"><title>Node9</title>
<g id="a_node9"><a xlink:href="ensdf_8f90.html#a6d91f3b61ac11d378e6bda9af255ae44" target="_top" xlink:title="Reads ENSDF Alpha record. ">
<polygon fill="white" stroke="black" points="328,-152.5 328,-171.5 414,-171.5 414,-152.5 328,-152.5"/>
<text text-anchor="middle" x="371" y="-159.5" font-family="Helvetica,sans-Serif" font-size="10.00">ensdf_a_record</text>
</a>
</g>
</g>
<!-- Node3&#45;&gt;Node9 -->
<g id="edge9" class="edge"><title>Node3&#45;&gt;Node9</title>
<path fill="none" stroke="midnightblue" d="M241.124,-213.411C250.379,-210.495 260.2,-206.99 269,-203 286.077,-195.256 287.852,-188.585 305,-181 310.304,-178.654 315.977,-176.507 321.68,-174.568"/>
<polygon fill="midnightblue" stroke="midnightblue" points="322.79,-177.888 331.247,-171.506 320.656,-171.221 322.79,-177.888"/>
</g>
<!-- Node10 -->
<g id="node10" class="node"><title>Node10</title>
<g id="a_node10"><a xlink:href="ensdf_8f90.html#a649d449decd0afde48a0a49911c27617" target="_top" xlink:title="Appends alpha level to a variable of type abra (alpha decay branch) ">
<polygon fill="white" stroke="black" points="305,-114.5 305,-133.5 437,-133.5 437,-114.5 305,-114.5"/>
<text text-anchor="middle" x="371" y="-121.5" font-family="Helvetica,sans-Serif" font-size="10.00">append_level_to_abranch</text>
</a>
</g>
</g>
<!-- Node3&#45;&gt;Node10 -->
<g id="edge10" class="edge"><title>Node3&#45;&gt;Node10</title>
<path fill="none" stroke="midnightblue" d="M250.448,-213.376C257.079,-210.712 263.511,-207.319 269,-203 293.441,-183.771 280.383,-162.003 305,-143 307.434,-141.121 310.05,-139.427 312.784,-137.901"/>
<polygon fill="midnightblue" stroke="midnightblue" points="314.328,-141.042 321.844,-133.574 311.311,-134.726 314.328,-141.042"/>
</g>
<!-- Node5 -->
<g id="node5" class="node"><title>Node5</title>
<g id="a_node5"><a xlink:href="ensdf_8f90.html#ac85c1610cf6186365e8b9104254d54a0" target="_top" xlink:title="Converts all alphanumeric characters in the string to upper case. ">
<polygon fill="white" stroke="black" points="512,-266.5 512,-285.5 561,-285.5 561,-266.5 512,-266.5"/>
<text text-anchor="middle" x="536.5" y="-273.5" font-family="Helvetica,sans-Serif" font-size="10.00">upcase</text>
</a>
</g>
</g>
<!-- Node4&#45;&gt;Node5 -->
<g id="edge5" class="edge"><title>Node4&#45;&gt;Node5</title>
<path fill="none" stroke="midnightblue" d="M415.386,-276C442.372,-276 476.571,-276 501.57,-276"/>
<polygon fill="midnightblue" stroke="midnightblue" points="501.672,-279.5 511.672,-276 501.672,-272.5 501.672,-279.5"/>
</g>
<!-- Node7 -->
<g id="node7" class="node"><title>Node7</title>
<g id="a_node7"><a xlink:href="ensdf_8f90.html#ab4961a9932af3496daa4d38479bd89b0" target="_top" xlink:title="Removes +X from E entries in ENSDF record. ">
<polygon fill="white" stroke="black" points="473,-228.5 473,-247.5 600,-247.5 600,-228.5 473,-228.5"/>
<text text-anchor="middle" x="536.5" y="-235.5" font-family="Helvetica,sans-Serif" font-size="10.00">remove_px_from_e_field</text>
</a>
</g>
</g>
<!-- Node6&#45;&gt;Node7 -->
<g id="edge7" class="edge"><title>Node6&#45;&gt;Node7</title>
<path fill="none" stroke="midnightblue" d="M414.105,-238C428.914,-238 446.014,-238 462.619,-238"/>
<polygon fill="midnightblue" stroke="midnightblue" points="462.869,-241.5 472.869,-238 462.869,-234.5 462.869,-241.5"/>
</g>
<!-- Node14 -->
<g id="node14" class="node"><title>Node14</title>
<g id="a_node14"><a xlink:href="decchains_8f90.html#ad2d503ba58dd9381ac3afc7f0bb6abeb" target="_top" xlink:title="Finds alpha decay in decay chain ic with daughter dnucid ">
<polygon fill="white" stroke="black" points="306.5,-76.5 306.5,-95.5 435.5,-95.5 435.5,-76.5 306.5,-76.5"/>
<text text-anchor="middle" x="371" y="-83.5" font-family="Helvetica,sans-Serif" font-size="10.00">find_adecay_to_daughter</text>
</a>
</g>
</g>
<!-- Node13&#45;&gt;Node14 -->
<g id="edge14" class="edge"><title>Node13&#45;&gt;Node14</title>
<path fill="none" stroke="midnightblue" d="M269.266,-86C278.141,-86 287.313,-86 296.342,-86"/>
<polygon fill="midnightblue" stroke="midnightblue" points="296.452,-89.5001 306.452,-86 296.452,-82.5001 296.452,-89.5001"/>
</g>
<!-- Node15 -->
<g id="node15" class="node"><title>Node15</title>
<g id="a_node15"><a xlink:href="decchains_8f90.html#a1f2f33380841cca4819f037e87037182" target="_top" xlink:title="Finds beta decay in decay chain ic with daughter dnucid ">
<polygon fill="white" stroke="black" points="306.5,-38.5 306.5,-57.5 435.5,-57.5 435.5,-38.5 306.5,-38.5"/>
<text text-anchor="middle" x="371" y="-45.5" font-family="Helvetica,sans-Serif" font-size="10.00">find_bdecay_to_daughter</text>
</a>
</g>
</g>
<!-- Node13&#45;&gt;Node15 -->
<g id="edge15" class="edge"><title>Node13&#45;&gt;Node15</title>
<path fill="none" stroke="midnightblue" d="M246.636,-76.411C268.508,-71.3739 295.506,-65.1562 318.664,-59.8229"/>
<polygon fill="midnightblue" stroke="midnightblue" points="319.704,-63.1751 328.663,-57.5201 318.133,-56.3537 319.704,-63.1751"/>
</g>
<!-- Node18 -->
<g id="node18" class="node"><title>Node18</title>
<g id="a_node18"><a xlink:href="ensdf_8f90.html#a9f343a9e65fbf1717c6c4887c0e74884" target="_top" xlink:title="Returns NUCID from Z and A compliant to ENSDF standard, i.e., mass number in cols 1&#45;3 right&#45;justied...">
<polygon fill="white" stroke="black" points="336,-0.5 336,-19.5 406,-19.5 406,-0.5 336,-0.5"/>
<text text-anchor="middle" x="371" y="-7.5" font-family="Helvetica,sans-Serif" font-size="10.00">az_to_nucid</text>
</a>
</g>
</g>
<!-- Node17&#45;&gt;Node18 -->
<g id="edge18" class="edge"><title>Node17&#45;&gt;Node18</title>
<path fill="none" stroke="midnightblue" d="M253.613,-10C276.427,-10 303.425,-10 325.672,-10"/>
<polygon fill="midnightblue" stroke="midnightblue" points="325.849,-13.5001 335.849,-10 325.849,-6.5001 325.849,-13.5001"/>
</g>
</g>
</svg>
