<?xml version="1.0" encoding="UTF-8" standalone="no"?>
<!DOCTYPE svg PUBLIC "-//W3C//DTD SVG 1.1//EN"
 "http://www.w3.org/Graphics/SVG/1.1/DTD/svg11.dtd">
<!-- Generated by graphviz version 2.38.0 (20140413.2041)
 -->
<!-- Title: find_adecay_to_daughter Pages: 1 -->
<svg width="675pt" height="28pt"
 viewBox="0.00 0.00 675.00 28.00" xmlns="http://www.w3.org/2000/svg" xmlns:xlink="http://www.w3.org/1999/xlink">
<g id="graph0" class="graph" transform="scale(1 1) rotate(0) translate(4 24)">
<title>find_adecay_to_daughter</title>
<polygon fill="white" stroke="none" points="-4,4 -4,-24 671,-24 671,4 -4,4"/>
<!-- Node1 -->
<g id="node1" class="node"><title>Node1</title>
<polygon fill="#bfbfbf" stroke="black" points="0,-0.5 0,-19.5 129,-19.5 129,-0.5 0,-0.5"/>
<text text-anchor="middle" x="64.5" y="-7.5" font-family="Helvetica,sans-Serif" font-size="10.00">find_adecay_to_daughter</text>
</g>
<!-- Node2 -->
<g id="node2" class="node"><title>Node2</title>
<g id="a_node2"><a xlink:href="decchains_8f90.html#ac88a325210435f8430ff77723b4e6f56" target="_top" xlink:title="Calculates the total, including up&#45;the&#45;chain, branching of each decay branch. ">
<polygon fill="white" stroke="black" points="165,-0.5 165,-19.5 295,-19.5 295,-0.5 165,-0.5"/>
<text text-anchor="middle" x="230" y="-7.5" font-family="Helvetica,sans-Serif" font-size="10.00">calculate_total_branching</text>
</a>
</g>
</g>
<!-- Node1&#45;&gt;Node2 -->
<g id="edge1" class="edge"><title>Node1&#45;&gt;Node2</title>
<path fill="none" stroke="midnightblue" d="M139.193,-10C147.789,-10 156.504,-10 164.954,-10"/>
<polygon fill="midnightblue" stroke="midnightblue" points="139.182,-6.5001 129.182,-10 139.182,-13.5001 139.182,-6.5001"/>
</g>
<!-- Node3 -->
<g id="node3" class="node"><title>Node3</title>
<g id="a_node3"><a xlink:href="decchains_8f90.html#af1e6b3924e08acff9381a9c85abf5f13" target="_top" xlink:title="Sets up one decay chain. ">
<polygon fill="white" stroke="black" points="331,-0.5 331,-19.5 434,-19.5 434,-0.5 331,-0.5"/>
<text text-anchor="middle" x="382.5" y="-7.5" font-family="Helvetica,sans-Serif" font-size="10.00">setup_decay_chain</text>
</a>
</g>
</g>
<!-- Node2&#45;&gt;Node3 -->
<g id="edge2" class="edge"><title>Node2&#45;&gt;Node3</title>
<path fill="none" stroke="midnightblue" d="M305.3,-10C313.88,-10 322.476,-10 330.643,-10"/>
<polygon fill="midnightblue" stroke="midnightblue" points="305.262,-6.5001 295.262,-10 305.262,-13.5001 305.262,-6.5001"/>
</g>
<!-- Node4 -->
<g id="node4" class="node"><title>Node4</title>
<g id="a_node4"><a xlink:href="decchains_8f90.html#a4fcdff641fab56d3f1873338894797d0" target="_top" xlink:title="Top subroutine to set up decay chains. ">
<polygon fill="white" stroke="black" points="470,-0.5 470,-19.5 578,-19.5 578,-0.5 470,-0.5"/>
<text text-anchor="middle" x="524" y="-7.5" font-family="Helvetica,sans-Serif" font-size="10.00">setup_decay_chains</text>
</a>
</g>
</g>
<!-- Node3&#45;&gt;Node4 -->
<g id="edge3" class="edge"><title>Node3&#45;&gt;Node4</title>
<path fill="none" stroke="midnightblue" d="M444.41,-10C452.832,-10 461.429,-10 469.698,-10"/>
<polygon fill="midnightblue" stroke="midnightblue" points="444.257,-6.5001 434.257,-10 444.257,-13.5001 444.257,-6.5001"/>
</g>
<!-- Node5 -->
<g id="node5" class="node"><title>Node5</title>
<g id="a_node5"><a xlink:href="argon39_8f90.html#a53921723df12bf3ddfe3fd2c80826bcb" target="_top" xlink:title="Main program. ">
<polygon fill="white" stroke="black" points="614,-0.5 614,-19.5 667,-19.5 667,-0.5 614,-0.5"/>
<text text-anchor="middle" x="640.5" y="-7.5" font-family="Helvetica,sans-Serif" font-size="10.00">argon39</text>
</a>
</g>
</g>
<!-- Node4&#45;&gt;Node5 -->
<g id="edge4" class="edge"><title>Node4&#45;&gt;Node5</title>
<path fill="none" stroke="midnightblue" d="M588.393,-10C597.362,-10 606.127,-10 613.795,-10"/>
<polygon fill="midnightblue" stroke="midnightblue" points="588.228,-6.5001 578.228,-10 588.228,-13.5001 588.228,-6.5001"/>
</g>
</g>
</svg>
