<?xml version="1.0" encoding="UTF-8" standalone="no"?>
<!DOCTYPE svg PUBLIC "-//W3C//DTD SVG 1.1//EN"
 "http://www.w3.org/Graphics/SVG/1.1/DTD/svg11.dtd">
<!-- Generated by graphviz version 2.38.0 (20140413.2041)
 -->
<!-- Title: calculate_total_branching Pages: 1 -->
<svg width="303pt" height="66pt"
 viewBox="0.00 0.00 303.00 66.00" xmlns="http://www.w3.org/2000/svg" xmlns:xlink="http://www.w3.org/1999/xlink">
<g id="graph0" class="graph" transform="scale(1 1) rotate(0) translate(4 62)">
<title>calculate_total_branching</title>
<polygon fill="white" stroke="none" points="-4,4 -4,-62 299,-62 299,4 -4,4"/>
<!-- Node1 -->
<g id="node1" class="node"><title>Node1</title>
<polygon fill="#bfbfbf" stroke="black" points="0,-19.5 0,-38.5 130,-38.5 130,-19.5 0,-19.5"/>
<text text-anchor="middle" x="65" y="-26.5" font-family="Helvetica,sans-Serif" font-size="10.00">calculate_total_branching</text>
</g>
<!-- Node2 -->
<g id="node2" class="node"><title>Node2</title>
<g id="a_node2"><a xlink:href="decchains_8f90.html#ad2d503ba58dd9381ac3afc7f0bb6abeb" target="_top" xlink:title="Finds alpha decay in decay chain ic with daughter dnucid ">
<polygon fill="white" stroke="black" points="166,-38.5 166,-57.5 295,-57.5 295,-38.5 166,-38.5"/>
<text text-anchor="middle" x="230.5" y="-45.5" font-family="Helvetica,sans-Serif" font-size="10.00">find_adecay_to_daughter</text>
</a>
</g>
</g>
<!-- Node1&#45;&gt;Node2 -->
<g id="edge1" class="edge"><title>Node1&#45;&gt;Node2</title>
<path fill="none" stroke="midnightblue" d="M130.15,-36.4548C138.574,-37.4337 147.259,-38.443 155.825,-39.4384"/>
<polygon fill="midnightblue" stroke="midnightblue" points="155.466,-42.9201 165.803,-40.5979 156.274,-35.9669 155.466,-42.9201"/>
</g>
<!-- Node3 -->
<g id="node3" class="node"><title>Node3</title>
<g id="a_node3"><a xlink:href="decchains_8f90.html#a1f2f33380841cca4819f037e87037182" target="_top" xlink:title="Finds beta decay in decay chain ic with daughter dnucid ">
<polygon fill="white" stroke="black" points="166,-0.5 166,-19.5 295,-19.5 295,-0.5 166,-0.5"/>
<text text-anchor="middle" x="230.5" y="-7.5" font-family="Helvetica,sans-Serif" font-size="10.00">find_bdecay_to_daughter</text>
</a>
</g>
</g>
<!-- Node1&#45;&gt;Node3 -->
<g id="edge2" class="edge"><title>Node1&#45;&gt;Node3</title>
<path fill="none" stroke="midnightblue" d="M130.15,-21.5452C138.574,-20.5663 147.259,-19.557 155.825,-18.5616"/>
<polygon fill="midnightblue" stroke="midnightblue" points="156.274,-22.0331 165.803,-17.4021 155.466,-15.0799 156.274,-22.0331"/>
</g>
</g>
</svg>
