<?xml version="1.0" encoding="UTF-8" standalone="no"?>
<!DOCTYPE svg PUBLIC "-//W3C//DTD SVG 1.1//EN"
 "http://www.w3.org/Graphics/SVG/1.1/DTD/svg11.dtd">
<!-- Generated by graphviz version 2.38.0 (20140413.2041)
 -->
<!-- Title: find_nuclide_index Pages: 1 -->
<svg width="500pt" height="104pt"
 viewBox="0.00 0.00 500.00 104.00" xmlns="http://www.w3.org/2000/svg" xmlns:xlink="http://www.w3.org/1999/xlink">
<g id="graph0" class="graph" transform="scale(1 1) rotate(0) translate(4 100)">
<title>find_nuclide_index</title>
<polygon fill="white" stroke="none" points="-4,4 -4,-100 496,-100 496,4 -4,4"/>
<!-- Node1 -->
<g id="node1" class="node"><title>Node1</title>
<polygon fill="#bfbfbf" stroke="black" points="0,-38.5 0,-57.5 99,-57.5 99,-38.5 0,-38.5"/>
<text text-anchor="middle" x="49.5" y="-45.5" font-family="Helvetica,sans-Serif" font-size="10.00">find_nuclide_index</text>
</g>
<!-- Node2 -->
<g id="node2" class="node"><title>Node2</title>
<g id="a_node2"><a xlink:href="decchains_8f90.html#af1e6b3924e08acff9381a9c85abf5f13" target="_top" xlink:title="Sets up one decay chain. ">
<polygon fill="white" stroke="black" points="138,-76.5 138,-95.5 241,-95.5 241,-76.5 138,-76.5"/>
<text text-anchor="middle" x="189.5" y="-83.5" font-family="Helvetica,sans-Serif" font-size="10.00">setup_decay_chain</text>
</a>
</g>
</g>
<!-- Node1&#45;&gt;Node2 -->
<g id="edge1" class="edge"><title>Node1&#45;&gt;Node2</title>
<path fill="none" stroke="midnightblue" d="M94.973,-60.2462C113.995,-65.484 135.875,-71.5091 153.688,-76.4141"/>
<polygon fill="midnightblue" stroke="midnightblue" points="95.8936,-56.8695 85.3232,-57.589 94.0352,-63.6183 95.8936,-56.8695"/>
</g>
<!-- Node5 -->
<g id="node5" class="node"><title>Node5</title>
<g id="a_node5"><a xlink:href="neutron_8f90.html#ad50d8fae10d3044e2a4281665df03b4c" target="_top" xlink:title="Outputs possible (alpha,n) targets, where &quot;possible&quot; means a particular target nuclide is present...">
<polygon fill="white" stroke="black" points="280,-38.5 280,-57.5 403,-57.5 403,-38.5 280,-38.5"/>
<text text-anchor="middle" x="341.5" y="-45.5" font-family="Helvetica,sans-Serif" font-size="10.00">output_possible_targets</text>
</a>
</g>
</g>
<!-- Node1&#45;&gt;Node5 -->
<g id="edge4" class="edge"><title>Node1&#45;&gt;Node5</title>
<path fill="none" stroke="midnightblue" d="M109.301,-48C158.966,-48 229.812,-48 279.962,-48"/>
<polygon fill="midnightblue" stroke="midnightblue" points="109.04,-44.5001 99.0395,-48 109.039,-51.5001 109.04,-44.5001"/>
</g>
<!-- Node6 -->
<g id="node6" class="node"><title>Node6</title>
<g id="a_node6"><a xlink:href="neutron_8f90.html#a673c2e038a4f5b55299066fedf562cc5" target="_top" xlink:title="Sets up values and pointers to target nuclide properties. ">
<polygon fill="white" stroke="black" points="135,-0.5 135,-19.5 244,-19.5 244,-0.5 135,-0.5"/>
<text text-anchor="middle" x="189.5" y="-7.5" font-family="Helvetica,sans-Serif" font-size="10.00">setup_target_nuclide</text>
</a>
</g>
</g>
<!-- Node1&#45;&gt;Node6 -->
<g id="edge6" class="edge"><title>Node1&#45;&gt;Node6</title>
<path fill="none" stroke="midnightblue" d="M94.973,-35.7538C113.995,-30.516 135.875,-24.4909 153.688,-19.5859"/>
<polygon fill="midnightblue" stroke="midnightblue" points="94.0352,-32.3817 85.3232,-38.411 95.8936,-39.1305 94.0352,-32.3817"/>
</g>
<!-- Node3 -->
<g id="node3" class="node"><title>Node3</title>
<g id="a_node3"><a xlink:href="decchains_8f90.html#a4fcdff641fab56d3f1873338894797d0" target="_top" xlink:title="Top subroutine to set up decay chains. ">
<polygon fill="white" stroke="black" points="287.5,-76.5 287.5,-95.5 395.5,-95.5 395.5,-76.5 287.5,-76.5"/>
<text text-anchor="middle" x="341.5" y="-83.5" font-family="Helvetica,sans-Serif" font-size="10.00">setup_decay_chains</text>
</a>
</g>
</g>
<!-- Node2&#45;&gt;Node3 -->
<g id="edge2" class="edge"><title>Node2&#45;&gt;Node3</title>
<path fill="none" stroke="midnightblue" d="M251.58,-86C263.475,-86 275.855,-86 287.464,-86"/>
<polygon fill="midnightblue" stroke="midnightblue" points="251.283,-82.5001 241.283,-86 251.283,-89.5001 251.283,-82.5001"/>
</g>
<!-- Node4 -->
<g id="node4" class="node"><title>Node4</title>
<g id="a_node4"><a xlink:href="argon39_8f90.html#a53921723df12bf3ddfe3fd2c80826bcb" target="_top" xlink:title="Main program. ">
<polygon fill="white" stroke="black" points="439,-38.5 439,-57.5 492,-57.5 492,-38.5 439,-38.5"/>
<text text-anchor="middle" x="465.5" y="-45.5" font-family="Helvetica,sans-Serif" font-size="10.00">argon39</text>
</a>
</g>
</g>
<!-- Node3&#45;&gt;Node4 -->
<g id="edge3" class="edge"><title>Node3&#45;&gt;Node4</title>
<path fill="none" stroke="midnightblue" d="M382.878,-73.4232C401.263,-67.6968 422.48,-61.0882 438.674,-56.0443"/>
<polygon fill="midnightblue" stroke="midnightblue" points="381.792,-70.0954 373.286,-76.411 383.874,-76.7787 381.792,-70.0954"/>
</g>
<!-- Node5&#45;&gt;Node4 -->
<g id="edge5" class="edge"><title>Node5&#45;&gt;Node4</title>
<path fill="none" stroke="midnightblue" d="M413.405,-48C422.422,-48 431.142,-48 438.749,-48"/>
<polygon fill="midnightblue" stroke="midnightblue" points="413.143,-44.5001 403.143,-48 413.143,-51.5001 413.143,-44.5001"/>
</g>
<!-- Node6&#45;&gt;Node4 -->
<g id="edge7" class="edge"><title>Node6&#45;&gt;Node4</title>
<path fill="none" stroke="midnightblue" d="M254.407,-12.2058C296.856,-14.5282 353.647,-19.2826 403,-29 414.951,-31.3531 427.875,-35.1469 438.776,-38.728"/>
<polygon fill="midnightblue" stroke="midnightblue" points="254.379,-8.69982 244.212,-11.6796 254.018,-15.6905 254.379,-8.69982"/>
</g>
</g>
</svg>
