<?xml version="1.0" encoding="UTF-8" standalone="no"?>
<!DOCTYPE svg PUBLIC "-//W3C//DTD SVG 1.1//EN"
 "http://www.w3.org/Graphics/SVG/1.1/DTD/svg11.dtd">
<!-- Generated by graphviz version 2.38.0 (20140413.2041)
 -->
<!-- Title: read_elements_nuclides Pages: 1 -->
<svg width="378pt" height="142pt"
 viewBox="0.00 0.00 378.00 142.00" xmlns="http://www.w3.org/2000/svg" xmlns:xlink="http://www.w3.org/1999/xlink">
<g id="graph0" class="graph" transform="scale(1 1) rotate(0) translate(4 138)">
<title>read_elements_nuclides</title>
<polygon fill="white" stroke="none" points="-4,4 -4,-138 374,-138 374,4 -4,4"/>
<!-- Node1 -->
<g id="node1" class="node"><title>Node1</title>
<polygon fill="#bfbfbf" stroke="black" points="0,-57.5 0,-76.5 125,-76.5 125,-57.5 0,-57.5"/>
<text text-anchor="middle" x="62.5" y="-64.5" font-family="Helvetica,sans-Serif" font-size="10.00">read_elements_nuclides</text>
</g>
<!-- Node2 -->
<g id="node2" class="node"><title>Node2</title>
<g id="a_node2"><a xlink:href="iostuff_8f90.html#af759d00c9a49b8f430c17756db8dabbb" target="_top" xlink:title="Opens external file including error handling. ">
<polygon fill="white" stroke="black" points="184,-114.5 184,-133.5 241,-133.5 241,-114.5 184,-114.5"/>
<text text-anchor="middle" x="212.5" y="-121.5" font-family="Helvetica,sans-Serif" font-size="10.00">open_file</text>
</a>
</g>
</g>
<!-- Node1&#45;&gt;Node2 -->
<g id="edge1" class="edge"><title>Node1&#45;&gt;Node2</title>
<path fill="none" stroke="midnightblue" d="M87.9114,-76.606C107.614,-84.3369 136.061,-95.4488 161,-105 165.958,-106.899 171.195,-108.888 176.345,-110.834"/>
<polygon fill="midnightblue" stroke="midnightblue" points="175.454,-114.239 186.046,-114.49 177.923,-107.688 175.454,-114.239"/>
</g>
<!-- Node3 -->
<g id="node3" class="node"><title>Node3</title>
<g id="a_node3"><a xlink:href="ensdf_8f90.html#ac85c1610cf6186365e8b9104254d54a0" target="_top" xlink:title="Converts all alphanumeric characters in the string to upper case. ">
<polygon fill="white" stroke="black" points="188,-76.5 188,-95.5 237,-95.5 237,-76.5 188,-76.5"/>
<text text-anchor="middle" x="212.5" y="-83.5" font-family="Helvetica,sans-Serif" font-size="10.00">upcase</text>
</a>
</g>
</g>
<!-- Node1&#45;&gt;Node3 -->
<g id="edge2" class="edge"><title>Node1&#45;&gt;Node3</title>
<path fill="none" stroke="midnightblue" d="M125.408,-74.9476C143.299,-77.2445 162.161,-79.6659 177.653,-81.6548"/>
<polygon fill="midnightblue" stroke="midnightblue" points="177.424,-85.154 187.788,-82.9559 178.315,-78.211 177.424,-85.154"/>
</g>
<!-- Node4 -->
<g id="node4" class="node"><title>Node4</title>
<g id="a_node4"><a xlink:href="elemnucl_8f90.html#a34c1f3496ecbc454c7857809cf1798c2" target="_top" xlink:title="Adds nuclide to the nuclide array by expanding its size. ">
<polygon fill="white" stroke="black" points="169,-38.5 169,-57.5 256,-57.5 256,-38.5 169,-38.5"/>
<text text-anchor="middle" x="212.5" y="-45.5" font-family="Helvetica,sans-Serif" font-size="10.00">append_nuclide</text>
</a>
</g>
</g>
<!-- Node1&#45;&gt;Node4 -->
<g id="edge3" class="edge"><title>Node1&#45;&gt;Node4</title>
<path fill="none" stroke="midnightblue" d="M125.408,-59.0524C136.453,-57.6344 147.867,-56.1691 158.63,-54.7873"/>
<polygon fill="midnightblue" stroke="midnightblue" points="159.244,-58.2373 168.717,-53.4924 158.353,-51.2943 159.244,-58.2373"/>
</g>
<!-- Node6 -->
<g id="node6" class="node"><title>Node6</title>
<g id="a_node6"><a xlink:href="elemnucl_8f90.html#a9431cbc73d2a2f6ee5119073ac6723f5" target="_top" xlink:title="Simply fills names of elements in element array. ">
<polygon fill="white" stroke="black" points="161,-0.5 161,-19.5 264,-19.5 264,-0.5 161,-0.5"/>
<text text-anchor="middle" x="212.5" y="-7.5" font-family="Helvetica,sans-Serif" font-size="10.00">fill_element_names</text>
</a>
</g>
</g>
<!-- Node1&#45;&gt;Node6 -->
<g id="edge5" class="edge"><title>Node1&#45;&gt;Node6</title>
<path fill="none" stroke="midnightblue" d="M87.9114,-57.394C107.614,-49.6631 136.061,-38.5512 161,-29 165.958,-27.1014 171.195,-25.1123 176.345,-23.1657"/>
<polygon fill="midnightblue" stroke="midnightblue" points="177.923,-26.3116 186.046,-19.51 175.454,-19.7613 177.923,-26.3116"/>
</g>
<!-- Node5 -->
<g id="node5" class="node"><title>Node5</title>
<g id="a_node5"><a xlink:href="ensdf_8f90.html#a9f343a9e65fbf1717c6c4887c0e74884" target="_top" xlink:title="Returns NUCID from Z and A compliant to ENSDF standard, i.e., mass number in cols 1&#45;3 right&#45;justied...">
<polygon fill="white" stroke="black" points="300,-38.5 300,-57.5 370,-57.5 370,-38.5 300,-38.5"/>
<text text-anchor="middle" x="335" y="-45.5" font-family="Helvetica,sans-Serif" font-size="10.00">az_to_nucid</text>
</a>
</g>
</g>
<!-- Node4&#45;&gt;Node5 -->
<g id="edge4" class="edge"><title>Node4&#45;&gt;Node5</title>
<path fill="none" stroke="midnightblue" d="M256.323,-48C267.088,-48 278.666,-48 289.511,-48"/>
<polygon fill="midnightblue" stroke="midnightblue" points="289.633,-51.5001 299.633,-48 289.633,-44.5001 289.633,-51.5001"/>
</g>
</g>
</svg>
