<?xml version="1.0" encoding="UTF-8" standalone="no"?>
<!DOCTYPE svg PUBLIC "-//W3C//DTD SVG 1.1//EN"
 "http://www.w3.org/Graphics/SVG/1.1/DTD/svg11.dtd">
<!-- Generated by graphviz version 2.38.0 (20140413.2041)
 -->
<!-- Title: fill_element_names Pages: 1 -->
<svg width="365pt" height="66pt"
 viewBox="0.00 0.00 365.00 66.00" xmlns="http://www.w3.org/2000/svg" xmlns:xlink="http://www.w3.org/1999/xlink">
<g id="graph0" class="graph" transform="scale(1 1) rotate(0) translate(4 62)">
<title>fill_element_names</title>
<polygon fill="white" stroke="none" points="-4,4 -4,-62 361,-62 361,4 -4,4"/>
<!-- Node1 -->
<g id="node1" class="node"><title>Node1</title>
<polygon fill="#bfbfbf" stroke="black" points="0,-19.5 0,-38.5 103,-38.5 103,-19.5 0,-19.5"/>
<text text-anchor="middle" x="51.5" y="-26.5" font-family="Helvetica,sans-Serif" font-size="10.00">fill_element_names</text>
</g>
<!-- Node2 -->
<g id="node2" class="node"><title>Node2</title>
<g id="a_node2"><a xlink:href="elemnucl_8f90.html#ad8eafb0d250e2592d19a8690599a6343" target="_top" xlink:title="Sets up element and nuclide data structures from input files. ">
<polygon fill="white" stroke="black" points="139,-19.5 139,-38.5 264,-38.5 264,-19.5 139,-19.5"/>
<text text-anchor="middle" x="201.5" y="-26.5" font-family="Helvetica,sans-Serif" font-size="10.00">read_elements_nuclides</text>
</a>
</g>
</g>
<!-- Node1&#45;&gt;Node2 -->
<g id="edge1" class="edge"><title>Node1&#45;&gt;Node2</title>
<path fill="none" stroke="midnightblue" d="M113.223,-29C121.711,-29 130.441,-29 138.945,-29"/>
<polygon fill="midnightblue" stroke="midnightblue" points="113.019,-25.5001 103.019,-29 113.019,-32.5001 113.019,-25.5001"/>
</g>
<!-- Node3 -->
<g id="node3" class="node"><title>Node3</title>
<g id="a_node3"><a xlink:href="argon39_8f90.html#a53921723df12bf3ddfe3fd2c80826bcb" target="_top" xlink:title="Main program. ">
<polygon fill="white" stroke="black" points="302,-38.5 302,-57.5 355,-57.5 355,-38.5 302,-38.5"/>
<text text-anchor="middle" x="328.5" y="-45.5" font-family="Helvetica,sans-Serif" font-size="10.00">argon39</text>
</a>
</g>
</g>
<!-- Node2&#45;&gt;Node3 -->
<g id="edge2" class="edge"><title>Node2&#45;&gt;Node3</title>
<path fill="none" stroke="midnightblue" d="M274.203,-39.8988C284.071,-41.3988 293.626,-42.8512 301.856,-44.102"/>
<polygon fill="midnightblue" stroke="midnightblue" points="274.68,-36.4312 264.268,-38.3887 273.628,-43.3518 274.68,-36.4312"/>
</g>
<!-- Node4 -->
<g id="node4" class="node"><title>Node4</title>
<g id="a_node4"><a xlink:href="talysprep_8f90.html#a5e6c4dd9c50d176cf07a5dffda6ffa74" target="_top" xlink:title="This program prepares input files and batch execution file for running TALYS. ">
<polygon fill="white" stroke="black" points="300,-0.5 300,-19.5 357,-19.5 357,-0.5 300,-0.5"/>
<text text-anchor="middle" x="328.5" y="-7.5" font-family="Helvetica,sans-Serif" font-size="10.00">talysprep</text>
</a>
</g>
</g>
<!-- Node2&#45;&gt;Node4 -->
<g id="edge3" class="edge"><title>Node2&#45;&gt;Node4</title>
<path fill="none" stroke="midnightblue" d="M274.428,-18.0669C283.364,-16.7087 292.037,-15.3904 299.693,-14.2267"/>
<polygon fill="midnightblue" stroke="midnightblue" points="273.628,-14.6482 264.268,-19.6113 274.68,-21.5688 273.628,-14.6482"/>
</g>
</g>
</svg>
