<?xml version="1.0" encoding="UTF-8" standalone="no"?>
<!DOCTYPE svg PUBLIC "-//W3C//DTD SVG 1.1//EN"
 "http://www.w3.org/Graphics/SVG/1.1/DTD/svg11.dtd">
<!-- Generated by graphviz version 2.38.0 (20140413.2041)
 -->
<!-- Title: az_to_nucid Pages: 1 -->
<svg width="622pt" height="166pt"
 viewBox="0.00 0.00 622.00 166.48" xmlns="http://www.w3.org/2000/svg" xmlns:xlink="http://www.w3.org/1999/xlink">
<g id="graph0" class="graph" transform="scale(1 1) rotate(0) translate(4 162.483)">
<title>az_to_nucid</title>
<polygon fill="white" stroke="none" points="-4,4 -4,-162.483 618,-162.483 618,4 -4,4"/>
<!-- Node1 -->
<g id="node1" class="node"><title>Node1</title>
<polygon fill="#bfbfbf" stroke="black" points="0,-75.5 0,-94.5 70,-94.5 70,-75.5 0,-75.5"/>
<text text-anchor="middle" x="35" y="-82.5" font-family="Helvetica,sans-Serif" font-size="10.00">az_to_nucid</text>
</g>
<!-- Node2 -->
<g id="node2" class="node"><title>Node2</title>
<g id="a_node2"><a xlink:href="elemnucl_8f90.html#a34c1f3496ecbc454c7857809cf1798c2" target="_top" xlink:title="Adds nuclide to the nuclide array by expanding its size. ">
<polygon fill="white" stroke="black" points="112,-104.5 112,-123.5 199,-123.5 199,-104.5 112,-104.5"/>
<text text-anchor="middle" x="155.5" y="-111.5" font-family="Helvetica,sans-Serif" font-size="10.00">append_nuclide</text>
</a>
</g>
</g>
<!-- Node1&#45;&gt;Node2 -->
<g id="edge1" class="edge"><title>Node1&#45;&gt;Node2</title>
<path fill="none" stroke="midnightblue" d="M80.1525,-95.8052C91.6865,-98.6279 104.038,-101.651 115.296,-104.406"/>
<polygon fill="midnightblue" stroke="midnightblue" points="80.8205,-92.3655 70.2751,-93.388 79.1565,-99.1649 80.8205,-92.3655"/>
</g>
<!-- Node6 -->
<g id="node6" class="node"><title>Node6</title>
<g id="a_node6"><a xlink:href="elemnucl_8f90.html#a80682d75c547656792b6819000fb25ed" target="_top" xlink:title="Returns index inuc of nuclide Z,A ">
<polygon fill="white" stroke="black" points="106,-47.5 106,-66.5 205,-66.5 205,-47.5 106,-47.5"/>
<text text-anchor="middle" x="155.5" y="-54.5" font-family="Helvetica,sans-Serif" font-size="10.00">find_nuclide_index</text>
</a>
</g>
</g>
<!-- Node1&#45;&gt;Node6 -->
<g id="edge5" class="edge"><title>Node1&#45;&gt;Node6</title>
<path fill="none" stroke="midnightblue" d="M80.1966,-74.5569C91.2836,-71.9372 103.124,-69.1396 114.019,-66.565"/>
<polygon fill="midnightblue" stroke="midnightblue" points="79.2023,-71.1954 70.2751,-76.9012 80.812,-78.0078 79.2023,-71.1954"/>
</g>
<!-- Node3 -->
<g id="node3" class="node"><title>Node3</title>
<g id="a_node3"><a xlink:href="elemnucl_8f90.html#ad8eafb0d250e2592d19a8690599a6343" target="_top" xlink:title="Sets up element and nuclide data structures from input files. ">
<polygon fill="white" stroke="black" points="241,-114.5 241,-133.5 366,-133.5 366,-114.5 241,-114.5"/>
<text text-anchor="middle" x="303.5" y="-121.5" font-family="Helvetica,sans-Serif" font-size="10.00">read_elements_nuclides</text>
</a>
</g>
</g>
<!-- Node2&#45;&gt;Node3 -->
<g id="edge2" class="edge"><title>Node2&#45;&gt;Node3</title>
<path fill="none" stroke="midnightblue" d="M209.168,-117.607C219.443,-118.311 230.301,-119.055 240.837,-119.776"/>
<polygon fill="midnightblue" stroke="midnightblue" points="209.338,-114.111 199.122,-116.919 208.859,-121.095 209.338,-114.111"/>
</g>
<!-- Node4 -->
<g id="node4" class="node"><title>Node4</title>
<g id="a_node4"><a xlink:href="argon39_8f90.html#a53921723df12bf3ddfe3fd2c80826bcb" target="_top" xlink:title="Main program. ">
<polygon fill="white" stroke="black" points="561,-57.5 561,-76.5 614,-76.5 614,-57.5 561,-57.5"/>
<text text-anchor="middle" x="587.5" y="-64.5" font-family="Helvetica,sans-Serif" font-size="10.00">argon39</text>
</a>
</g>
</g>
<!-- Node3&#45;&gt;Node4 -->
<g id="edge3" class="edge"><title>Node3&#45;&gt;Node4</title>
<path fill="none" stroke="midnightblue" d="M337.627,-136.893C382.472,-152.182 463.907,-172.153 525,-143 554.259,-129.038 574.092,-93.6042 582.278,-76.5104"/>
<polygon fill="midnightblue" stroke="midnightblue" points="338.699,-133.56 328.104,-133.528 336.366,-140.16 338.699,-133.56"/>
</g>
<!-- Node5 -->
<g id="node5" class="node"><title>Node5</title>
<g id="a_node5"><a xlink:href="talysprep_8f90.html#a5e6c4dd9c50d176cf07a5dffda6ffa74" target="_top" xlink:title="This program prepares input files and batch execution file for running TALYS. ">
<polygon fill="white" stroke="black" points="435,-114.5 435,-133.5 492,-133.5 492,-114.5 435,-114.5"/>
<text text-anchor="middle" x="463.5" y="-121.5" font-family="Helvetica,sans-Serif" font-size="10.00">talysprep</text>
</a>
</g>
</g>
<!-- Node3&#45;&gt;Node5 -->
<g id="edge4" class="edge"><title>Node3&#45;&gt;Node5</title>
<path fill="none" stroke="midnightblue" d="M376.161,-124C396.944,-124 418.409,-124 434.738,-124"/>
<polygon fill="midnightblue" stroke="midnightblue" points="376.039,-120.5 366.039,-124 376.039,-127.5 376.039,-120.5"/>
</g>
<!-- Node7 -->
<g id="node7" class="node"><title>Node7</title>
<g id="a_node7"><a xlink:href="decchains_8f90.html#af1e6b3924e08acff9381a9c85abf5f13" target="_top" xlink:title="Sets up one decay chain. ">
<polygon fill="white" stroke="black" points="252,-76.5 252,-95.5 355,-95.5 355,-76.5 252,-76.5"/>
<text text-anchor="middle" x="303.5" y="-83.5" font-family="Helvetica,sans-Serif" font-size="10.00">setup_decay_chain</text>
</a>
</g>
</g>
<!-- Node6&#45;&gt;Node7 -->
<g id="edge6" class="edge"><title>Node6&#45;&gt;Node7</title>
<path fill="none" stroke="midnightblue" d="M214.62,-68.5444C227.79,-71.1604 241.635,-73.9104 254.34,-76.434"/>
<polygon fill="midnightblue" stroke="midnightblue" points="215.201,-65.0914 204.71,-66.5761 213.837,-71.9573 215.201,-65.0914"/>
</g>
<!-- Node9 -->
<g id="node9" class="node"><title>Node9</title>
<g id="a_node9"><a xlink:href="neutron_8f90.html#ad50d8fae10d3044e2a4281665df03b4c" target="_top" xlink:title="Outputs possible (alpha,n) targets, where &quot;possible&quot; means a particular target nuclide is present...">
<polygon fill="white" stroke="black" points="402,-38.5 402,-57.5 525,-57.5 525,-38.5 402,-38.5"/>
<text text-anchor="middle" x="463.5" y="-45.5" font-family="Helvetica,sans-Serif" font-size="10.00">output_possible_targets</text>
</a>
</g>
</g>
<!-- Node6&#45;&gt;Node9 -->
<g id="edge9" class="edge"><title>Node6&#45;&gt;Node9</title>
<path fill="none" stroke="midnightblue" d="M215.35,-55.2691C268.892,-53.6943 347.6,-51.3794 401.733,-49.7873"/>
<polygon fill="midnightblue" stroke="midnightblue" points="215.218,-51.7714 205.325,-55.564 215.424,-58.7684 215.218,-51.7714"/>
</g>
<!-- Node10 -->
<g id="node10" class="node"><title>Node10</title>
<g id="a_node10"><a xlink:href="neutron_8f90.html#a673c2e038a4f5b55299066fedf562cc5" target="_top" xlink:title="Sets up values and pointers to target nuclide properties. ">
<polygon fill="white" stroke="black" points="249,-0.5 249,-19.5 358,-19.5 358,-0.5 249,-0.5"/>
<text text-anchor="middle" x="303.5" y="-7.5" font-family="Helvetica,sans-Serif" font-size="10.00">setup_target_nuclide</text>
</a>
</g>
</g>
<!-- Node6&#45;&gt;Node10 -->
<g id="edge11" class="edge"><title>Node6&#45;&gt;Node10</title>
<path fill="none" stroke="midnightblue" d="M195.658,-44.3943C219.888,-36.5942 250.507,-26.7376 272.748,-19.5776"/>
<polygon fill="midnightblue" stroke="midnightblue" points="194.492,-41.0928 186.045,-47.4888 196.637,-47.7561 194.492,-41.0928"/>
</g>
<!-- Node8 -->
<g id="node8" class="node"><title>Node8</title>
<g id="a_node8"><a xlink:href="decchains_8f90.html#a4fcdff641fab56d3f1873338894797d0" target="_top" xlink:title="Top subroutine to set up decay chains. ">
<polygon fill="white" stroke="black" points="409.5,-76.5 409.5,-95.5 517.5,-95.5 517.5,-76.5 409.5,-76.5"/>
<text text-anchor="middle" x="463.5" y="-83.5" font-family="Helvetica,sans-Serif" font-size="10.00">setup_decay_chains</text>
</a>
</g>
</g>
<!-- Node7&#45;&gt;Node8 -->
<g id="edge7" class="edge"><title>Node7&#45;&gt;Node8</title>
<path fill="none" stroke="midnightblue" d="M365.664,-86C380.054,-86 395.277,-86 409.285,-86"/>
<polygon fill="midnightblue" stroke="midnightblue" points="365.362,-82.5001 355.362,-86 365.362,-89.5001 365.362,-82.5001"/>
</g>
<!-- Node8&#45;&gt;Node4 -->
<g id="edge8" class="edge"><title>Node8&#45;&gt;Node4</title>
<path fill="none" stroke="midnightblue" d="M527.57,-76.1776C539.39,-74.3368 551.107,-72.5121 560.941,-70.9805"/>
<polygon fill="midnightblue" stroke="midnightblue" points="526.998,-72.7244 517.656,-77.7216 528.076,-79.641 526.998,-72.7244"/>
</g>
<!-- Node9&#45;&gt;Node4 -->
<g id="edge10" class="edge"><title>Node9&#45;&gt;Node4</title>
<path fill="none" stroke="midnightblue" d="M535.114,-58.9973C544.235,-60.4177 553.061,-61.7922 560.749,-62.9896"/>
<polygon fill="midnightblue" stroke="midnightblue" points="535.562,-55.5249 525.143,-57.4443 534.485,-62.4416 535.562,-55.5249"/>
</g>
<!-- Node10&#45;&gt;Node4 -->
<g id="edge12" class="edge"><title>Node10&#45;&gt;Node4</title>
<path fill="none" stroke="midnightblue" d="M368.199,-7.75614C413.104,-8.01818 474.071,-12.1389 525,-29 543.825,-35.2325 562.84,-48.2468 574.639,-57.2974"/>
<polygon fill="midnightblue" stroke="midnightblue" points="368.008,-4.25613 358.01,-7.76095 368.011,-11.2561 368.008,-4.25613"/>
</g>
</g>
</svg>
