<?xml version="1.0" encoding="UTF-8" standalone="no"?>
<!DOCTYPE svg PUBLIC "-//W3C//DTD SVG 1.1//EN"
 "http://www.w3.org/Graphics/SVG/1.1/DTD/svg11.dtd">
<!-- Generated by graphviz version 2.38.0 (20140413.2041)
 -->
<!-- Title: ensdf_n_record Pages: 1 -->
<svg width="619pt" height="28pt"
 viewBox="0.00 0.00 619.00 28.00" xmlns="http://www.w3.org/2000/svg" xmlns:xlink="http://www.w3.org/1999/xlink">
<g id="graph0" class="graph" transform="scale(1 1) rotate(0) translate(4 24)">
<title>ensdf_n_record</title>
<polygon fill="white" stroke="none" points="-4,4 -4,-24 615,-24 615,4 -4,4"/>
<!-- Node1 -->
<g id="node1" class="node"><title>Node1</title>
<polygon fill="#bfbfbf" stroke="black" points="0,-0.5 0,-19.5 86,-19.5 86,-0.5 0,-0.5"/>
<text text-anchor="middle" x="43" y="-7.5" font-family="Helvetica,sans-Serif" font-size="10.00">ensdf_n_record</text>
</g>
<!-- Node2 -->
<g id="node2" class="node"><title>Node2</title>
<g id="a_node2"><a xlink:href="ensdf_8f90.html#abf41713aa86fc45deb8a017daaf563ba" target="_top" xlink:title="Reads ENSDF decay dataset. ">
<polygon fill="white" stroke="black" points="122,-0.5 122,-19.5 239,-19.5 239,-0.5 122,-0.5"/>
<text text-anchor="middle" x="180.5" y="-7.5" font-family="Helvetica,sans-Serif" font-size="10.00">read_ensdf_decay_file</text>
</a>
</g>
</g>
<!-- Node1&#45;&gt;Node2 -->
<g id="edge1" class="edge"><title>Node1&#45;&gt;Node2</title>
<path fill="none" stroke="midnightblue" d="M96.2102,-10C104.643,-10 113.415,-10 121.965,-10"/>
<polygon fill="midnightblue" stroke="midnightblue" points="96.1303,-6.5001 86.1303,-10 96.1303,-13.5001 96.1303,-6.5001"/>
</g>
<!-- Node3 -->
<g id="node3" class="node"><title>Node3</title>
<g id="a_node3"><a xlink:href="decchains_8f90.html#af1e6b3924e08acff9381a9c85abf5f13" target="_top" xlink:title="Sets up one decay chain. ">
<polygon fill="white" stroke="black" points="275,-0.5 275,-19.5 378,-19.5 378,-0.5 275,-0.5"/>
<text text-anchor="middle" x="326.5" y="-7.5" font-family="Helvetica,sans-Serif" font-size="10.00">setup_decay_chain</text>
</a>
</g>
</g>
<!-- Node2&#45;&gt;Node3 -->
<g id="edge2" class="edge"><title>Node2&#45;&gt;Node3</title>
<path fill="none" stroke="midnightblue" d="M249.519,-10C258.001,-10 266.558,-10 274.715,-10"/>
<polygon fill="midnightblue" stroke="midnightblue" points="249.241,-6.5001 239.241,-10 249.241,-13.5001 249.241,-6.5001"/>
</g>
<!-- Node4 -->
<g id="node4" class="node"><title>Node4</title>
<g id="a_node4"><a xlink:href="decchains_8f90.html#a4fcdff641fab56d3f1873338894797d0" target="_top" xlink:title="Top subroutine to set up decay chains. ">
<polygon fill="white" stroke="black" points="414,-0.5 414,-19.5 522,-19.5 522,-0.5 414,-0.5"/>
<text text-anchor="middle" x="468" y="-7.5" font-family="Helvetica,sans-Serif" font-size="10.00">setup_decay_chains</text>
</a>
</g>
</g>
<!-- Node3&#45;&gt;Node4 -->
<g id="edge3" class="edge"><title>Node3&#45;&gt;Node4</title>
<path fill="none" stroke="midnightblue" d="M388.41,-10C396.832,-10 405.429,-10 413.698,-10"/>
<polygon fill="midnightblue" stroke="midnightblue" points="388.257,-6.5001 378.257,-10 388.257,-13.5001 388.257,-6.5001"/>
</g>
<!-- Node5 -->
<g id="node5" class="node"><title>Node5</title>
<g id="a_node5"><a xlink:href="argon39_8f90.html#a53921723df12bf3ddfe3fd2c80826bcb" target="_top" xlink:title="Main program. ">
<polygon fill="white" stroke="black" points="558,-0.5 558,-19.5 611,-19.5 611,-0.5 558,-0.5"/>
<text text-anchor="middle" x="584.5" y="-7.5" font-family="Helvetica,sans-Serif" font-size="10.00">argon39</text>
</a>
</g>
</g>
<!-- Node4&#45;&gt;Node5 -->
<g id="edge4" class="edge"><title>Node4&#45;&gt;Node5</title>
<path fill="none" stroke="midnightblue" d="M532.393,-10C541.362,-10 550.127,-10 557.795,-10"/>
<polygon fill="midnightblue" stroke="midnightblue" points="532.228,-6.5001 522.228,-10 532.228,-13.5001 532.228,-6.5001"/>
</g>
</g>
</svg>
