<?xml version="1.0" encoding="UTF-8" standalone="no"?>
<!DOCTYPE svg PUBLIC "-//W3C//DTD SVG 1.1//EN"
 "http://www.w3.org/Graphics/SVG/1.1/DTD/svg11.dtd">
<!-- Generated by graphviz version 2.38.0 (20140413.2041)
 -->
<!-- Title: nucid_to_az Pages: 1 -->
<svg width="480pt" height="66pt"
 viewBox="0.00 0.00 480.00 66.00" xmlns="http://www.w3.org/2000/svg" xmlns:xlink="http://www.w3.org/1999/xlink">
<g id="graph0" class="graph" transform="scale(1 1) rotate(0) translate(4 62)">
<title>nucid_to_az</title>
<polygon fill="white" stroke="none" points="-4,4 -4,-62 476,-62 476,4 -4,4"/>
<!-- Node1 -->
<g id="node1" class="node"><title>Node1</title>
<polygon fill="#bfbfbf" stroke="black" points="0,-19.5 0,-38.5 70,-38.5 70,-19.5 0,-19.5"/>
<text text-anchor="middle" x="35" y="-26.5" font-family="Helvetica,sans-Serif" font-size="10.00">nucid_to_az</text>
</g>
<!-- Node2 -->
<g id="node2" class="node"><title>Node2</title>
<g id="a_node2"><a xlink:href="decchains_8f90.html#af1e6b3924e08acff9381a9c85abf5f13" target="_top" xlink:title="Sets up one decay chain. ">
<polygon fill="white" stroke="black" points="121,-38.5 121,-57.5 224,-57.5 224,-38.5 121,-38.5"/>
<text text-anchor="middle" x="172.5" y="-45.5" font-family="Helvetica,sans-Serif" font-size="10.00">setup_decay_chain</text>
</a>
</g>
</g>
<!-- Node1&#45;&gt;Node2 -->
<g id="edge1" class="edge"><title>Node1&#45;&gt;Node2</title>
<path fill="none" stroke="midnightblue" d="M80.2844,-35.2096C93.2733,-37.0309 107.575,-39.0364 120.924,-40.9082"/>
<polygon fill="midnightblue" stroke="midnightblue" points="80.5815,-31.7171 70.1924,-33.7945 79.6094,-38.6493 80.5815,-31.7171"/>
</g>
<!-- Node5 -->
<g id="node5" class="node"><title>Node5</title>
<g id="a_node5"><a xlink:href="neutron_8f90.html#ad6e0ed18eec5bf5f64d9a725d6af05f1" target="_top" xlink:title="Gets (alpha,n) targets from input file and allocates targets(:) array. ">
<polygon fill="white" stroke="black" points="106,-0.5 106,-19.5 239,-19.5 239,-0.5 106,-0.5"/>
<text text-anchor="middle" x="172.5" y="-7.5" font-family="Helvetica,sans-Serif" font-size="10.00">get_requested_an_targets</text>
</a>
</g>
</g>
<!-- Node1&#45;&gt;Node5 -->
<g id="edge4" class="edge"><title>Node1&#45;&gt;Node5</title>
<path fill="none" stroke="midnightblue" d="M80.2648,-22.7931C88.4722,-21.6423 97.2044,-20.4178 105.89,-19.2"/>
<polygon fill="midnightblue" stroke="midnightblue" points="79.6094,-19.3507 70.1924,-24.2055 80.5815,-26.2829 79.6094,-19.3507"/>
</g>
<!-- Node3 -->
<g id="node3" class="node"><title>Node3</title>
<g id="a_node3"><a xlink:href="decchains_8f90.html#a4fcdff641fab56d3f1873338894797d0" target="_top" xlink:title="Top subroutine to set up decay chains. ">
<polygon fill="white" stroke="black" points="275,-38.5 275,-57.5 383,-57.5 383,-38.5 275,-38.5"/>
<text text-anchor="middle" x="329" y="-45.5" font-family="Helvetica,sans-Serif" font-size="10.00">setup_decay_chains</text>
</a>
</g>
</g>
<!-- Node2&#45;&gt;Node3 -->
<g id="edge2" class="edge"><title>Node2&#45;&gt;Node3</title>
<path fill="none" stroke="midnightblue" d="M234.204,-48C247.649,-48 261.794,-48 274.908,-48"/>
<polygon fill="midnightblue" stroke="midnightblue" points="234.089,-44.5001 224.089,-48 234.089,-51.5001 234.089,-44.5001"/>
</g>
<!-- Node4 -->
<g id="node4" class="node"><title>Node4</title>
<g id="a_node4"><a xlink:href="argon39_8f90.html#a53921723df12bf3ddfe3fd2c80826bcb" target="_top" xlink:title="Main program. ">
<polygon fill="white" stroke="black" points="419,-38.5 419,-57.5 472,-57.5 472,-38.5 419,-38.5"/>
<text text-anchor="middle" x="445.5" y="-45.5" font-family="Helvetica,sans-Serif" font-size="10.00">argon39</text>
</a>
</g>
</g>
<!-- Node3&#45;&gt;Node4 -->
<g id="edge3" class="edge"><title>Node3&#45;&gt;Node4</title>
<path fill="none" stroke="midnightblue" d="M393.393,-48C402.362,-48 411.127,-48 418.795,-48"/>
<polygon fill="midnightblue" stroke="midnightblue" points="393.228,-44.5001 383.228,-48 393.228,-51.5001 393.228,-44.5001"/>
</g>
</g>
</svg>
