<?xml version="1.0" encoding="UTF-8" standalone="no"?>
<!DOCTYPE svg PUBLIC "-//W3C//DTD SVG 1.1//EN"
 "http://www.w3.org/Graphics/SVG/1.1/DTD/svg11.dtd">
<!-- Generated by graphviz version 2.38.0 (20140413.2041)
 -->
<!-- Title: read_ensdf_decay_file Pages: 1 -->
<svg width="497pt" height="28pt"
 viewBox="0.00 0.00 497.00 28.00" xmlns="http://www.w3.org/2000/svg" xmlns:xlink="http://www.w3.org/1999/xlink">
<g id="graph0" class="graph" transform="scale(1 1) rotate(0) translate(4 24)">
<title>read_ensdf_decay_file</title>
<polygon fill="white" stroke="none" points="-4,4 -4,-24 493,-24 493,4 -4,4"/>
<!-- Node1 -->
<g id="node1" class="node"><title>Node1</title>
<polygon fill="#bfbfbf" stroke="black" points="0,-0.5 0,-19.5 117,-19.5 117,-0.5 0,-0.5"/>
<text text-anchor="middle" x="58.5" y="-7.5" font-family="Helvetica,sans-Serif" font-size="10.00">read_ensdf_decay_file</text>
</g>
<!-- Node2 -->
<g id="node2" class="node"><title>Node2</title>
<g id="a_node2"><a xlink:href="decchains_8f90.html#af1e6b3924e08acff9381a9c85abf5f13" target="_top" xlink:title="Sets up one decay chain. ">
<polygon fill="white" stroke="black" points="153,-0.5 153,-19.5 256,-19.5 256,-0.5 153,-0.5"/>
<text text-anchor="middle" x="204.5" y="-7.5" font-family="Helvetica,sans-Serif" font-size="10.00">setup_decay_chain</text>
</a>
</g>
</g>
<!-- Node1&#45;&gt;Node2 -->
<g id="edge1" class="edge"><title>Node1&#45;&gt;Node2</title>
<path fill="none" stroke="midnightblue" d="M127.519,-10C136.001,-10 144.558,-10 152.715,-10"/>
<polygon fill="midnightblue" stroke="midnightblue" points="127.241,-6.5001 117.241,-10 127.241,-13.5001 127.241,-6.5001"/>
</g>
<!-- Node3 -->
<g id="node3" class="node"><title>Node3</title>
<g id="a_node3"><a xlink:href="decchains_8f90.html#a4fcdff641fab56d3f1873338894797d0" target="_top" xlink:title="Top subroutine to set up decay chains. ">
<polygon fill="white" stroke="black" points="292,-0.5 292,-19.5 400,-19.5 400,-0.5 292,-0.5"/>
<text text-anchor="middle" x="346" y="-7.5" font-family="Helvetica,sans-Serif" font-size="10.00">setup_decay_chains</text>
</a>
</g>
</g>
<!-- Node2&#45;&gt;Node3 -->
<g id="edge2" class="edge"><title>Node2&#45;&gt;Node3</title>
<path fill="none" stroke="midnightblue" d="M266.41,-10C274.832,-10 283.429,-10 291.698,-10"/>
<polygon fill="midnightblue" stroke="midnightblue" points="266.257,-6.5001 256.257,-10 266.257,-13.5001 266.257,-6.5001"/>
</g>
<!-- Node4 -->
<g id="node4" class="node"><title>Node4</title>
<g id="a_node4"><a xlink:href="argon39_8f90.html#a53921723df12bf3ddfe3fd2c80826bcb" target="_top" xlink:title="Main program. ">
<polygon fill="white" stroke="black" points="436,-0.5 436,-19.5 489,-19.5 489,-0.5 436,-0.5"/>
<text text-anchor="middle" x="462.5" y="-7.5" font-family="Helvetica,sans-Serif" font-size="10.00">argon39</text>
</a>
</g>
</g>
<!-- Node3&#45;&gt;Node4 -->
<g id="edge3" class="edge"><title>Node3&#45;&gt;Node4</title>
<path fill="none" stroke="midnightblue" d="M410.393,-10C419.362,-10 428.127,-10 435.795,-10"/>
<polygon fill="midnightblue" stroke="midnightblue" points="410.228,-6.5001 400.228,-10 410.228,-13.5001 410.228,-6.5001"/>
</g>
</g>
</svg>
