<?xml version="1.0" encoding="UTF-8" standalone="no"?>
<!DOCTYPE svg PUBLIC "-//W3C//DTD SVG 1.1//EN"
 "http://www.w3.org/Graphics/SVG/1.1/DTD/svg11.dtd">
<!-- Generated by graphviz version 2.38.0 (20140413.2041)
 -->
<!-- Title: upcase Pages: 1 -->
<svg width="736pt" height="172pt"
 viewBox="0.00 0.00 736.00 172.22" xmlns="http://www.w3.org/2000/svg" xmlns:xlink="http://www.w3.org/1999/xlink">
<g id="graph0" class="graph" transform="scale(1 1) rotate(0) translate(4 168.221)">
<title>upcase</title>
<polygon fill="white" stroke="none" points="-4,4 -4,-168.221 732,-168.221 732,4 -4,4"/>
<!-- Node1 -->
<g id="node1" class="node"><title>Node1</title>
<polygon fill="#bfbfbf" stroke="black" points="0,-55.5 0,-74.5 49,-74.5 49,-55.5 0,-55.5"/>
<text text-anchor="middle" x="24.5" y="-62.5" font-family="Helvetica,sans-Serif" font-size="10.00">upcase</text>
</g>
<!-- Node2 -->
<g id="node2" class="node"><title>Node2</title>
<g id="a_node2"><a xlink:href="elemnucl_8f90.html#ad8eafb0d250e2592d19a8690599a6343" target="_top" xlink:title="Sets up element and nuclide data structures from input files. ">
<polygon fill="white" stroke="black" points="366,-126.5 366,-145.5 491,-145.5 491,-126.5 366,-126.5"/>
<text text-anchor="middle" x="428.5" y="-133.5" font-family="Helvetica,sans-Serif" font-size="10.00">read_elements_nuclides</text>
</a>
</g>
</g>
<!-- Node1&#45;&gt;Node2 -->
<g id="edge1" class="edge"><title>Node1&#45;&gt;Node2</title>
<path fill="none" stroke="midnightblue" d="M59.0698,-73.3084C67.5105,-75.2844 76.5674,-77.3082 85,-79 182.666,-98.5947 296.957,-116.643 365.714,-126.977"/>
<polygon fill="midnightblue" stroke="midnightblue" points="59.702,-69.8611 49.163,-70.9473 58.0791,-76.6704 59.702,-69.8611"/>
</g>
<!-- Node5 -->
<g id="node5" class="node"><title>Node5</title>
<g id="a_node5"><a xlink:href="ensdf_8f90.html#a4572e087dca23cd61cb6b6e236aa5060" target="_top" xlink:title="Checks NUCID format. ">
<polygon fill="white" stroke="black" points="210.5,-55.5 210.5,-74.5 324.5,-74.5 324.5,-55.5 210.5,-55.5"/>
<text text-anchor="middle" x="267.5" y="-62.5" font-family="Helvetica,sans-Serif" font-size="10.00">validate_nucid_format</text>
</a>
</g>
</g>
<!-- Node1&#45;&gt;Node5 -->
<g id="edge4" class="edge"><title>Node1&#45;&gt;Node5</title>
<path fill="none" stroke="midnightblue" d="M59.1136,-65C98.2287,-65 163.428,-65 210.287,-65"/>
<polygon fill="midnightblue" stroke="midnightblue" points="59.0469,-61.5001 49.0469,-65 59.0469,-68.5001 59.0469,-61.5001"/>
</g>
<!-- Node10 -->
<g id="node10" class="node"><title>Node10</title>
<g id="a_node10"><a xlink:href="ensdf_8f90.html#aef08c69b5333de28d12cb2d80f47c453" target="_top" xlink:title="Reads ENSDF Identification record. ">
<polygon fill="white" stroke="black" points="85,-14.5 85,-33.5 173,-33.5 173,-14.5 85,-14.5"/>
<text text-anchor="middle" x="129" y="-21.5" font-family="Helvetica,sans-Serif" font-size="10.00">ensdf_id_record</text>
</a>
</g>
</g>
<!-- Node1&#45;&gt;Node10 -->
<g id="edge13" class="edge"><title>Node1&#45;&gt;Node10</title>
<path fill="none" stroke="midnightblue" d="M58.4077,-51.8369C73.3199,-45.872 90.6188,-38.9525 104.239,-33.5044"/>
<polygon fill="midnightblue" stroke="midnightblue" points="57.0005,-48.6301 49.0156,-55.5938 59.6002,-55.1295 57.0005,-48.6301"/>
</g>
<!-- Node3 -->
<g id="node3" class="node"><title>Node3</title>
<g id="a_node3"><a xlink:href="argon39_8f90.html#a53921723df12bf3ddfe3fd2c80826bcb" target="_top" xlink:title="Main program. ">
<polygon fill="white" stroke="black" points="675,-85.5 675,-104.5 728,-104.5 728,-85.5 675,-85.5"/>
<text text-anchor="middle" x="701.5" y="-92.5" font-family="Helvetica,sans-Serif" font-size="10.00">argon39</text>
</a>
</g>
</g>
<!-- Node2&#45;&gt;Node3 -->
<g id="edge2" class="edge"><title>Node2&#45;&gt;Node3</title>
<path fill="none" stroke="midnightblue" d="M466.856,-148.398C509.926,-160.562 582.095,-174.315 639,-152 663.395,-142.433 683.889,-118.14 693.908,-104.559"/>
<polygon fill="midnightblue" stroke="midnightblue" points="467.663,-144.987 457.081,-145.522 465.687,-151.702 467.663,-144.987"/>
</g>
<!-- Node4 -->
<g id="node4" class="node"><title>Node4</title>
<g id="a_node4"><a xlink:href="talysprep_8f90.html#a5e6c4dd9c50d176cf07a5dffda6ffa74" target="_top" xlink:title="This program prepares input files and batch execution file for running TALYS. ">
<polygon fill="white" stroke="black" points="556.5,-123.5 556.5,-142.5 613.5,-142.5 613.5,-123.5 556.5,-123.5"/>
<text text-anchor="middle" x="585" y="-130.5" font-family="Helvetica,sans-Serif" font-size="10.00">talysprep</text>
</a>
</g>
</g>
<!-- Node2&#45;&gt;Node4 -->
<g id="edge3" class="edge"><title>Node2&#45;&gt;Node4</title>
<path fill="none" stroke="midnightblue" d="M501.146,-134.609C520.671,-134.23 540.676,-133.841 556.136,-133.541"/>
<polygon fill="midnightblue" stroke="midnightblue" points="500.937,-131.112 491.006,-134.806 501.073,-138.111 500.937,-131.112"/>
</g>
<!-- Node6 -->
<g id="node6" class="node"><title>Node6</title>
<g id="a_node6"><a xlink:href="decchains_8f90.html#a846040297eef709abf3f8dac36b0bdd4" target="_top" xlink:title="Gets decays chains from input file and allocates dchain(:) array. ">
<polygon fill="white" stroke="black" points="372,-39 372,-69 485,-69 485,-39 372,-39"/>
<text text-anchor="start" x="380" y="-57" font-family="Helvetica,sans-Serif" font-size="10.00">get_requested_decay</text>
<text text-anchor="middle" x="428.5" y="-46" font-family="Helvetica,sans-Serif" font-size="10.00">_chains</text>
</a>
</g>
</g>
<!-- Node5&#45;&gt;Node6 -->
<g id="edge5" class="edge"><title>Node5&#45;&gt;Node6</title>
<path fill="none" stroke="midnightblue" d="M334.807,-60.4127C347.163,-59.5579 359.957,-58.6728 371.949,-57.8432"/>
<polygon fill="midnightblue" stroke="midnightblue" points="334.292,-56.9399 324.557,-61.1218 334.775,-63.9232 334.292,-56.9399"/>
</g>
<!-- Node9 -->
<g id="node9" class="node"><title>Node9</title>
<g id="a_node9"><a xlink:href="mcnp6extract_8f90.html#acd47d7c90f820f36e4410de86184c731" target="_top" xlink:title="Gets (alpha,n) targets from input file and allocates targets(:) array. ">
<polygon fill="white" stroke="black" points="362,-88.5 362,-107.5 495,-107.5 495,-88.5 362,-88.5"/>
<text text-anchor="middle" x="428.5" y="-95.5" font-family="Helvetica,sans-Serif" font-size="10.00">get_requested_an_targets</text>
</a>
</g>
</g>
<!-- Node5&#45;&gt;Node9 -->
<g id="edge9" class="edge"><title>Node5&#45;&gt;Node9</title>
<path fill="none" stroke="midnightblue" d="M324.371,-76.5959C343.096,-80.4821 363.744,-84.7675 381.614,-88.4765"/>
<polygon fill="midnightblue" stroke="midnightblue" points="324.992,-73.1502 314.489,-74.545 323.569,-80.0042 324.992,-73.1502"/>
</g>
<!-- Node7 -->
<g id="node7" class="node"><title>Node7</title>
<g id="a_node7"><a xlink:href="decchains_8f90.html#a4fcdff641fab56d3f1873338894797d0" target="_top" xlink:title="Top subroutine to set up decay chains. ">
<polygon fill="white" stroke="black" points="531,-9.5 531,-28.5 639,-28.5 639,-9.5 531,-9.5"/>
<text text-anchor="middle" x="585" y="-16.5" font-family="Helvetica,sans-Serif" font-size="10.00">setup_decay_chains</text>
</a>
</g>
</g>
<!-- Node6&#45;&gt;Node7 -->
<g id="edge6" class="edge"><title>Node6&#45;&gt;Node7</title>
<path fill="none" stroke="midnightblue" d="M495.041,-39.1525C510.901,-35.5597 527.435,-31.8142 541.884,-28.5408"/>
<polygon fill="midnightblue" stroke="midnightblue" points="494.258,-35.7412 485.278,-41.3642 495.804,-42.5682 494.258,-35.7412"/>
</g>
<!-- Node8 -->
<g id="node8" class="node"><title>Node8</title>
<g id="a_node8"><a xlink:href="mcnp6extract_8f90.html#af0e37fb4a5ad0ed1a8cb19f09d6da825" target="_top" xlink:title="This program extracts 39Ar values from MCNP6 output files. ">
<polygon fill="white" stroke="black" points="551.5,-47.5 551.5,-66.5 618.5,-66.5 618.5,-47.5 551.5,-47.5"/>
<text text-anchor="middle" x="585" y="-54.5" font-family="Helvetica,sans-Serif" font-size="10.00">mcnp6prep</text>
</a>
</g>
</g>
<!-- Node6&#45;&gt;Node8 -->
<g id="edge8" class="edge"><title>Node6&#45;&gt;Node8</title>
<path fill="none" stroke="midnightblue" d="M495.54,-55.2823C514.797,-55.6562 535.003,-56.0486 551.235,-56.3638"/>
<polygon fill="midnightblue" stroke="midnightblue" points="495.344,-51.778 485.278,-55.0831 495.208,-58.7766 495.344,-51.778"/>
</g>
<!-- Node7&#45;&gt;Node3 -->
<g id="edge7" class="edge"><title>Node7&#45;&gt;Node3</title>
<path fill="none" stroke="midnightblue" d="M628.407,-32.4283C632.081,-34.1182 635.665,-35.9742 639,-38 660.65,-51.1497 681.281,-72.7566 692.276,-85.2494"/>
<polygon fill="midnightblue" stroke="midnightblue" points="629.756,-29.1986 619.179,-28.5675 627.054,-35.6561 629.756,-29.1986"/>
</g>
<!-- Node9&#45;&gt;Node3 -->
<g id="edge10" class="edge"><title>Node9&#45;&gt;Node3</title>
<path fill="none" stroke="midnightblue" d="M505.137,-97.1627C561.97,-96.5335 636.389,-95.7097 674.91,-95.2833"/>
<polygon fill="midnightblue" stroke="midnightblue" points="505.062,-93.6632 495.102,-97.2738 505.14,-100.663 505.062,-93.6632"/>
</g>
<!-- Node9&#45;&gt;Node4 -->
<g id="edge12" class="edge"><title>Node9&#45;&gt;Node4</title>
<path fill="none" stroke="midnightblue" d="M481.473,-109.774C506.573,-115.46 535.674,-122.052 556.445,-126.758"/>
<polygon fill="midnightblue" stroke="midnightblue" points="482.244,-106.36 471.718,-107.564 480.697,-113.187 482.244,-106.36"/>
</g>
<!-- Node9&#45;&gt;Node8 -->
<g id="edge11" class="edge"><title>Node9&#45;&gt;Node8</title>
<path fill="none" stroke="midnightblue" d="M475.114,-85.8954C499.558,-79.4085 529.112,-71.5658 551.258,-65.6888"/>
<polygon fill="midnightblue" stroke="midnightblue" points="474.101,-82.5428 465.334,-88.4907 475.897,-89.3086 474.101,-82.5428"/>
</g>
<!-- Node11 -->
<g id="node11" class="node"><title>Node11</title>
<g id="a_node11"><a xlink:href="ensdf_8f90.html#abf41713aa86fc45deb8a017daaf563ba" target="_top" xlink:title="Reads ENSDF decay dataset. ">
<polygon fill="white" stroke="black" points="209,-1.5 209,-20.5 326,-20.5 326,-1.5 209,-1.5"/>
<text text-anchor="middle" x="267.5" y="-8.5" font-family="Helvetica,sans-Serif" font-size="10.00">read_ensdf_decay_file</text>
</a>
</g>
</g>
<!-- Node10&#45;&gt;Node11 -->
<g id="edge14" class="edge"><title>Node10&#45;&gt;Node11</title>
<path fill="none" stroke="midnightblue" d="M183.171,-18.9361C191.513,-18.1416 200.171,-17.3171 208.612,-16.5132"/>
<polygon fill="midnightblue" stroke="midnightblue" points="182.813,-15.4543 173.189,-19.8867 183.476,-22.4228 182.813,-15.4543"/>
</g>
<!-- Node12 -->
<g id="node12" class="node"><title>Node12</title>
<g id="a_node12"><a xlink:href="decchains_8f90.html#af1e6b3924e08acff9381a9c85abf5f13" target="_top" xlink:title="Sets up one decay chain. ">
<polygon fill="white" stroke="black" points="377,-0.5 377,-19.5 480,-19.5 480,-0.5 377,-0.5"/>
<text text-anchor="middle" x="428.5" y="-7.5" font-family="Helvetica,sans-Serif" font-size="10.00">setup_decay_chain</text>
</a>
</g>
</g>
<!-- Node11&#45;&gt;Node12 -->
<g id="edge15" class="edge"><title>Node11&#45;&gt;Node12</title>
<path fill="none" stroke="midnightblue" d="M336.557,-10.572C350.051,-10.4871 363.994,-10.3994 376.787,-10.319"/>
<polygon fill="midnightblue" stroke="midnightblue" points="336.33,-7.07323 326.352,-10.6361 336.374,-14.0731 336.33,-7.07323"/>
</g>
<!-- Node12&#45;&gt;Node7 -->
<g id="edge16" class="edge"><title>Node12&#45;&gt;Node7</title>
<path fill="none" stroke="midnightblue" d="M490.204,-13.5362C503.649,-14.3193 517.794,-15.1434 530.908,-15.9072"/>
<polygon fill="midnightblue" stroke="midnightblue" points="490.276,-10.0345 480.089,-12.9469 489.869,-17.0226 490.276,-10.0345"/>
</g>
</g>
</svg>
