<?xml version="1.0" encoding="UTF-8" standalone="no"?>
<!DOCTYPE svg PUBLIC "-//W3C//DTD SVG 1.1//EN"
 "http://www.w3.org/Graphics/SVG/1.1/DTD/svg11.dtd">
<!-- Generated by graphviz version 2.38.0 (20140413.2041)
 -->
<!-- Title: validate_nucid_format Pages: 1 -->
<svg width="524pt" height="142pt"
 viewBox="0.00 0.00 524.00 142.00" xmlns="http://www.w3.org/2000/svg" xmlns:xlink="http://www.w3.org/1999/xlink">
<g id="graph0" class="graph" transform="scale(1 1) rotate(0) translate(4 138)">
<title>validate_nucid_format</title>
<polygon fill="white" stroke="none" points="-4,4 -4,-138 520,-138 520,4 -4,4"/>
<!-- Node1 -->
<g id="node1" class="node"><title>Node1</title>
<polygon fill="#bfbfbf" stroke="black" points="0,-60.5 0,-79.5 114,-79.5 114,-60.5 0,-60.5"/>
<text text-anchor="middle" x="57" y="-67.5" font-family="Helvetica,sans-Serif" font-size="10.00">validate_nucid_format</text>
</g>
<!-- Node2 -->
<g id="node2" class="node"><title>Node2</title>
<g id="a_node2"><a xlink:href="decchains_8f90.html#a846040297eef709abf3f8dac36b0bdd4" target="_top" xlink:title="Gets decays chains from input file and allocates dchain(:) array. ">
<polygon fill="white" stroke="black" points="160,-77 160,-107 273,-107 273,-77 160,-77"/>
<text text-anchor="start" x="168" y="-95" font-family="Helvetica,sans-Serif" font-size="10.00">get_requested_decay</text>
<text text-anchor="middle" x="216.5" y="-84" font-family="Helvetica,sans-Serif" font-size="10.00">_chains</text>
</a>
</g>
</g>
<!-- Node1&#45;&gt;Node2 -->
<g id="edge1" class="edge"><title>Node1&#45;&gt;Node2</title>
<path fill="none" stroke="midnightblue" d="M124.584,-79.3006C136.292,-80.936 148.368,-82.6228 159.742,-84.2116"/>
<polygon fill="midnightblue" stroke="midnightblue" points="124.804,-75.7975 114.416,-77.8804 123.836,-82.7302 124.804,-75.7975"/>
</g>
<!-- Node6 -->
<g id="node6" class="node"><title>Node6</title>
<g id="a_node6"><a xlink:href="mcnp6extract_8f90.html#acd47d7c90f820f36e4410de86184c731" target="_top" xlink:title="Gets (alpha,n) targets from input file and allocates targets(:) array. ">
<polygon fill="white" stroke="black" points="150,-38.5 150,-57.5 283,-57.5 283,-38.5 150,-38.5"/>
<text text-anchor="middle" x="216.5" y="-45.5" font-family="Helvetica,sans-Serif" font-size="10.00">get_requested_an_targets</text>
</a>
</g>
</g>
<!-- Node1&#45;&gt;Node6 -->
<g id="edge5" class="edge"><title>Node1&#45;&gt;Node6</title>
<path fill="none" stroke="midnightblue" d="M124.514,-60.7092C132.89,-59.5392 141.456,-58.3426 149.82,-57.1744"/>
<polygon fill="midnightblue" stroke="midnightblue" points="123.836,-57.2698 114.416,-62.1196 124.804,-64.2025 123.836,-57.2698"/>
</g>
<!-- Node3 -->
<g id="node3" class="node"><title>Node3</title>
<g id="a_node3"><a xlink:href="decchains_8f90.html#a4fcdff641fab56d3f1873338894797d0" target="_top" xlink:title="Top subroutine to set up decay chains. ">
<polygon fill="white" stroke="black" points="319,-114.5 319,-133.5 427,-133.5 427,-114.5 319,-114.5"/>
<text text-anchor="middle" x="373" y="-121.5" font-family="Helvetica,sans-Serif" font-size="10.00">setup_decay_chains</text>
</a>
</g>
</g>
<!-- Node2&#45;&gt;Node3 -->
<g id="edge2" class="edge"><title>Node2&#45;&gt;Node3</title>
<path fill="none" stroke="midnightblue" d="M283.141,-105.596C297.551,-108.58 312.513,-111.679 325.959,-114.464"/>
<polygon fill="midnightblue" stroke="midnightblue" points="283.78,-102.154 273.278,-103.553 282.36,-109.008 283.78,-102.154"/>
</g>
<!-- Node5 -->
<g id="node5" class="node"><title>Node5</title>
<g id="a_node5"><a xlink:href="mcnp6extract_8f90.html#af0e37fb4a5ad0ed1a8cb19f09d6da825" target="_top" xlink:title="This program extracts 39Ar values from MCNP6 output files. ">
<polygon fill="white" stroke="black" points="339.5,-76.5 339.5,-95.5 406.5,-95.5 406.5,-76.5 339.5,-76.5"/>
<text text-anchor="middle" x="373" y="-83.5" font-family="Helvetica,sans-Serif" font-size="10.00">mcnp6prep</text>
</a>
</g>
</g>
<!-- Node2&#45;&gt;Node5 -->
<g id="edge4" class="edge"><title>Node2&#45;&gt;Node5</title>
<path fill="none" stroke="midnightblue" d="M283.274,-89.4457C302.611,-88.6947 322.928,-87.9057 339.235,-87.2724"/>
<polygon fill="midnightblue" stroke="midnightblue" points="283.135,-85.9483 273.278,-89.8339 283.406,-92.9431 283.135,-85.9483"/>
</g>
<!-- Node4 -->
<g id="node4" class="node"><title>Node4</title>
<g id="a_node4"><a xlink:href="argon39_8f90.html#a53921723df12bf3ddfe3fd2c80826bcb" target="_top" xlink:title="Main program. ">
<polygon fill="white" stroke="black" points="463,-76.5 463,-95.5 516,-95.5 516,-76.5 463,-76.5"/>
<text text-anchor="middle" x="489.5" y="-83.5" font-family="Helvetica,sans-Serif" font-size="10.00">argon39</text>
</a>
</g>
</g>
<!-- Node3&#45;&gt;Node4 -->
<g id="edge3" class="edge"><title>Node3&#45;&gt;Node4</title>
<path fill="none" stroke="midnightblue" d="M412.797,-111.124C429.268,-105.658 448.021,-99.434 462.742,-94.5487"/>
<polygon fill="midnightblue" stroke="midnightblue" points="411.282,-107.939 402.893,-114.411 413.487,-114.583 411.282,-107.939"/>
</g>
<!-- Node6&#45;&gt;Node4 -->
<g id="edge6" class="edge"><title>Node6&#45;&gt;Node4</title>
<path fill="none" stroke="midnightblue" d="M293.338,-51.0476C333.376,-53.6179 383.164,-58.34 427,-67 438.95,-69.3607 451.873,-73.1557 462.774,-76.7355"/>
<polygon fill="midnightblue" stroke="midnightblue" points="293.309,-47.5394 283.114,-50.4241 292.883,-54.5264 293.309,-47.5394"/>
</g>
<!-- Node6&#45;&gt;Node5 -->
<g id="edge7" class="edge"><title>Node6&#45;&gt;Node5</title>
<path fill="none" stroke="midnightblue" d="M266.393,-60.0255C290.177,-65.8752 318.125,-72.7491 339.294,-77.9557"/>
<polygon fill="midnightblue" stroke="midnightblue" points="267.033,-56.5787 256.487,-57.589 265.362,-63.3762 267.033,-56.5787"/>
</g>
<!-- Node7 -->
<g id="node7" class="node"><title>Node7</title>
<g id="a_node7"><a xlink:href="talysprep_8f90.html#a5e6c4dd9c50d176cf07a5dffda6ffa74" target="_top" xlink:title="This program prepares input files and batch execution file for running TALYS. ">
<polygon fill="white" stroke="black" points="344.5,-0.5 344.5,-19.5 401.5,-19.5 401.5,-0.5 344.5,-0.5"/>
<text text-anchor="middle" x="373" y="-7.5" font-family="Helvetica,sans-Serif" font-size="10.00">talysprep</text>
</a>
</g>
</g>
<!-- Node6&#45;&gt;Node7 -->
<g id="edge8" class="edge"><title>Node6&#45;&gt;Node7</title>
<path fill="none" stroke="midnightblue" d="M266.424,-35.9669C292.102,-29.6512 322.627,-22.1435 344.234,-16.8293"/>
<polygon fill="midnightblue" stroke="midnightblue" points="265.362,-32.6238 256.487,-38.411 267.033,-39.4213 265.362,-32.6238"/>
</g>
</g>
</svg>
