<?xml version="1.0" encoding="UTF-8" standalone="no"?>
<!DOCTYPE svg PUBLIC "-//W3C//DTD SVG 1.1//EN"
 "http://www.w3.org/Graphics/SVG/1.1/DTD/svg11.dtd">
<!-- Generated by graphviz version 2.38.0 (20140413.2041)
 -->
<!-- Title: ensdf_id_record Pages: 1 -->
<svg width="621pt" height="28pt"
 viewBox="0.00 0.00 621.00 28.00" xmlns="http://www.w3.org/2000/svg" xmlns:xlink="http://www.w3.org/1999/xlink">
<g id="graph0" class="graph" transform="scale(1 1) rotate(0) translate(4 24)">
<title>ensdf_id_record</title>
<polygon fill="white" stroke="none" points="-4,4 -4,-24 617,-24 617,4 -4,4"/>
<!-- Node1 -->
<g id="node1" class="node"><title>Node1</title>
<polygon fill="#bfbfbf" stroke="black" points="0,-0.5 0,-19.5 88,-19.5 88,-0.5 0,-0.5"/>
<text text-anchor="middle" x="44" y="-7.5" font-family="Helvetica,sans-Serif" font-size="10.00">ensdf_id_record</text>
</g>
<!-- Node2 -->
<g id="node2" class="node"><title>Node2</title>
<g id="a_node2"><a xlink:href="ensdf_8f90.html#abf41713aa86fc45deb8a017daaf563ba" target="_top" xlink:title="Reads ENSDF decay dataset. ">
<polygon fill="white" stroke="black" points="124,-0.5 124,-19.5 241,-19.5 241,-0.5 124,-0.5"/>
<text text-anchor="middle" x="182.5" y="-7.5" font-family="Helvetica,sans-Serif" font-size="10.00">read_ensdf_decay_file</text>
</a>
</g>
</g>
<!-- Node1&#45;&gt;Node2 -->
<g id="edge1" class="edge"><title>Node1&#45;&gt;Node2</title>
<path fill="none" stroke="midnightblue" d="M98.4465,-10C106.703,-10 115.263,-10 123.612,-10"/>
<polygon fill="midnightblue" stroke="midnightblue" points="98.1895,-6.5001 88.1895,-10 98.1894,-13.5001 98.1895,-6.5001"/>
</g>
<!-- Node3 -->
<g id="node3" class="node"><title>Node3</title>
<g id="a_node3"><a xlink:href="decchains_8f90.html#af1e6b3924e08acff9381a9c85abf5f13" target="_top" xlink:title="Sets up one decay chain. ">
<polygon fill="white" stroke="black" points="277,-0.5 277,-19.5 380,-19.5 380,-0.5 277,-0.5"/>
<text text-anchor="middle" x="328.5" y="-7.5" font-family="Helvetica,sans-Serif" font-size="10.00">setup_decay_chain</text>
</a>
</g>
</g>
<!-- Node2&#45;&gt;Node3 -->
<g id="edge2" class="edge"><title>Node2&#45;&gt;Node3</title>
<path fill="none" stroke="midnightblue" d="M251.519,-10C260.001,-10 268.558,-10 276.715,-10"/>
<polygon fill="midnightblue" stroke="midnightblue" points="251.241,-6.5001 241.241,-10 251.241,-13.5001 251.241,-6.5001"/>
</g>
<!-- Node4 -->
<g id="node4" class="node"><title>Node4</title>
<g id="a_node4"><a xlink:href="decchains_8f90.html#a4fcdff641fab56d3f1873338894797d0" target="_top" xlink:title="Top subroutine to set up decay chains. ">
<polygon fill="white" stroke="black" points="416,-0.5 416,-19.5 524,-19.5 524,-0.5 416,-0.5"/>
<text text-anchor="middle" x="470" y="-7.5" font-family="Helvetica,sans-Serif" font-size="10.00">setup_decay_chains</text>
</a>
</g>
</g>
<!-- Node3&#45;&gt;Node4 -->
<g id="edge3" class="edge"><title>Node3&#45;&gt;Node4</title>
<path fill="none" stroke="midnightblue" d="M390.41,-10C398.832,-10 407.429,-10 415.698,-10"/>
<polygon fill="midnightblue" stroke="midnightblue" points="390.257,-6.5001 380.257,-10 390.257,-13.5001 390.257,-6.5001"/>
</g>
<!-- Node5 -->
<g id="node5" class="node"><title>Node5</title>
<g id="a_node5"><a xlink:href="argon39_8f90.html#a53921723df12bf3ddfe3fd2c80826bcb" target="_top" xlink:title="Main program. ">
<polygon fill="white" stroke="black" points="560,-0.5 560,-19.5 613,-19.5 613,-0.5 560,-0.5"/>
<text text-anchor="middle" x="586.5" y="-7.5" font-family="Helvetica,sans-Serif" font-size="10.00">argon39</text>
</a>
</g>
</g>
<!-- Node4&#45;&gt;Node5 -->
<g id="edge4" class="edge"><title>Node4&#45;&gt;Node5</title>
<path fill="none" stroke="midnightblue" d="M534.393,-10C543.362,-10 552.127,-10 559.795,-10"/>
<polygon fill="midnightblue" stroke="midnightblue" points="534.228,-6.5001 524.228,-10 534.228,-13.5001 534.228,-6.5001"/>
</g>
</g>
</svg>
