<?xml version="1.0" encoding="UTF-8" standalone="no"?>
<!DOCTYPE svg PUBLIC "-//W3C//DTD SVG 1.1//EN"
 "http://www.w3.org/Graphics/SVG/1.1/DTD/svg11.dtd">
<!-- Generated by graphviz version 2.38.0 (20140413.2041)
 -->
<!-- Title: remove_px_from_e_field Pages: 1 -->
<svg width="782pt" height="28pt"
 viewBox="0.00 0.00 782.00 28.00" xmlns="http://www.w3.org/2000/svg" xmlns:xlink="http://www.w3.org/1999/xlink">
<g id="graph0" class="graph" transform="scale(1 1) rotate(0) translate(4 24)">
<title>remove_px_from_e_field</title>
<polygon fill="white" stroke="none" points="-4,4 -4,-24 778,-24 778,4 -4,4"/>
<!-- Node1 -->
<g id="node1" class="node"><title>Node1</title>
<polygon fill="#bfbfbf" stroke="black" points="0,-0.5 0,-19.5 127,-19.5 127,-0.5 0,-0.5"/>
<text text-anchor="middle" x="63.5" y="-7.5" font-family="Helvetica,sans-Serif" font-size="10.00">remove_px_from_e_field</text>
</g>
<!-- Node2 -->
<g id="node2" class="node"><title>Node2</title>
<g id="a_node2"><a xlink:href="ensdf_8f90.html#a662ffe3f9b4e9e979d1923db6ed6747e" target="_top" xlink:title="Reads ENSDF Parent record. ">
<polygon fill="white" stroke="black" points="163,-0.5 163,-19.5 249,-19.5 249,-0.5 163,-0.5"/>
<text text-anchor="middle" x="206" y="-7.5" font-family="Helvetica,sans-Serif" font-size="10.00">ensdf_p_record</text>
</a>
</g>
</g>
<!-- Node1&#45;&gt;Node2 -->
<g id="edge1" class="edge"><title>Node1&#45;&gt;Node2</title>
<path fill="none" stroke="midnightblue" d="M137.501,-10C146.15,-10 154.744,-10 162.756,-10"/>
<polygon fill="midnightblue" stroke="midnightblue" points="137.353,-6.5001 127.353,-10 137.353,-13.5001 137.353,-6.5001"/>
</g>
<!-- Node3 -->
<g id="node3" class="node"><title>Node3</title>
<g id="a_node3"><a xlink:href="ensdf_8f90.html#abf41713aa86fc45deb8a017daaf563ba" target="_top" xlink:title="Reads ENSDF decay dataset. ">
<polygon fill="white" stroke="black" points="285,-0.5 285,-19.5 402,-19.5 402,-0.5 285,-0.5"/>
<text text-anchor="middle" x="343.5" y="-7.5" font-family="Helvetica,sans-Serif" font-size="10.00">read_ensdf_decay_file</text>
</a>
</g>
</g>
<!-- Node2&#45;&gt;Node3 -->
<g id="edge2" class="edge"><title>Node2&#45;&gt;Node3</title>
<path fill="none" stroke="midnightblue" d="M259.21,-10C267.643,-10 276.415,-10 284.965,-10"/>
<polygon fill="midnightblue" stroke="midnightblue" points="259.13,-6.5001 249.13,-10 259.13,-13.5001 259.13,-6.5001"/>
</g>
<!-- Node4 -->
<g id="node4" class="node"><title>Node4</title>
<g id="a_node4"><a xlink:href="decchains_8f90.html#af1e6b3924e08acff9381a9c85abf5f13" target="_top" xlink:title="Sets up one decay chain. ">
<polygon fill="white" stroke="black" points="438,-0.5 438,-19.5 541,-19.5 541,-0.5 438,-0.5"/>
<text text-anchor="middle" x="489.5" y="-7.5" font-family="Helvetica,sans-Serif" font-size="10.00">setup_decay_chain</text>
</a>
</g>
</g>
<!-- Node3&#45;&gt;Node4 -->
<g id="edge3" class="edge"><title>Node3&#45;&gt;Node4</title>
<path fill="none" stroke="midnightblue" d="M412.519,-10C421.001,-10 429.558,-10 437.715,-10"/>
<polygon fill="midnightblue" stroke="midnightblue" points="412.241,-6.5001 402.241,-10 412.241,-13.5001 412.241,-6.5001"/>
</g>
<!-- Node5 -->
<g id="node5" class="node"><title>Node5</title>
<g id="a_node5"><a xlink:href="decchains_8f90.html#a4fcdff641fab56d3f1873338894797d0" target="_top" xlink:title="Top subroutine to set up decay chains. ">
<polygon fill="white" stroke="black" points="577,-0.5 577,-19.5 685,-19.5 685,-0.5 577,-0.5"/>
<text text-anchor="middle" x="631" y="-7.5" font-family="Helvetica,sans-Serif" font-size="10.00">setup_decay_chains</text>
</a>
</g>
</g>
<!-- Node4&#45;&gt;Node5 -->
<g id="edge4" class="edge"><title>Node4&#45;&gt;Node5</title>
<path fill="none" stroke="midnightblue" d="M551.41,-10C559.832,-10 568.429,-10 576.698,-10"/>
<polygon fill="midnightblue" stroke="midnightblue" points="551.257,-6.5001 541.257,-10 551.257,-13.5001 551.257,-6.5001"/>
</g>
<!-- Node6 -->
<g id="node6" class="node"><title>Node6</title>
<g id="a_node6"><a xlink:href="argon39_8f90.html#a53921723df12bf3ddfe3fd2c80826bcb" target="_top" xlink:title="Main program. ">
<polygon fill="white" stroke="black" points="721,-0.5 721,-19.5 774,-19.5 774,-0.5 721,-0.5"/>
<text text-anchor="middle" x="747.5" y="-7.5" font-family="Helvetica,sans-Serif" font-size="10.00">argon39</text>
</a>
</g>
</g>
<!-- Node5&#45;&gt;Node6 -->
<g id="edge5" class="edge"><title>Node5&#45;&gt;Node6</title>
<path fill="none" stroke="midnightblue" d="M695.393,-10C704.362,-10 713.127,-10 720.795,-10"/>
<polygon fill="midnightblue" stroke="midnightblue" points="695.228,-6.5001 685.228,-10 695.228,-13.5001 695.228,-6.5001"/>
</g>
</g>
</svg>
