<?xml version="1.0" encoding="UTF-8" standalone="no"?>
<!DOCTYPE svg PUBLIC "-//W3C//DTD SVG 1.1//EN"
 "http://www.w3.org/Graphics/SVG/1.1/DTD/svg11.dtd">
<!-- Generated by graphviz version 2.38.0 (20140413.2041)
 -->
<!-- Title: read_ensdf_decay_file Pages: 1 -->
<svg width="456pt" height="218pt"
 viewBox="0.00 0.00 456.00 218.00" xmlns="http://www.w3.org/2000/svg" xmlns:xlink="http://www.w3.org/1999/xlink">
<g id="graph0" class="graph" transform="scale(1 1) rotate(0) translate(4 214)">
<title>read_ensdf_decay_file</title>
<polygon fill="white" stroke="none" points="-4,4 -4,-214 452,-214 452,4 -4,4"/>
<!-- Node1 -->
<g id="node1" class="node"><title>Node1</title>
<polygon fill="#bfbfbf" stroke="black" points="0,-95.5 0,-114.5 117,-114.5 117,-95.5 0,-95.5"/>
<text text-anchor="middle" x="58.5" y="-102.5" font-family="Helvetica,sans-Serif" font-size="10.00">read_ensdf_decay_file</text>
</g>
<!-- Node2 -->
<g id="node2" class="node"><title>Node2</title>
<g id="a_node2"><a xlink:href="iostuff_8f90.html#af759d00c9a49b8f430c17756db8dabbb" target="_top" xlink:title="Opens external file including error handling. ">
<polygon fill="white" stroke="black" points="190.5,-190.5 190.5,-209.5 247.5,-209.5 247.5,-190.5 190.5,-190.5"/>
<text text-anchor="middle" x="219" y="-197.5" font-family="Helvetica,sans-Serif" font-size="10.00">open_file</text>
</a>
</g>
</g>
<!-- Node1&#45;&gt;Node2 -->
<g id="edge1" class="edge"><title>Node1&#45;&gt;Node2</title>
<path fill="none" stroke="midnightblue" d="M68.6676,-114.624C84.4395,-130.646 118.365,-162.816 153,-181 161.485,-185.455 171.157,-188.999 180.4,-191.761"/>
<polygon fill="midnightblue" stroke="midnightblue" points="179.614,-195.175 190.184,-194.457 181.473,-188.426 179.614,-195.175"/>
</g>
<!-- Node3 -->
<g id="node3" class="node"><title>Node3</title>
<g id="a_node3"><a xlink:href="ensdf_8f90.html#aef08c69b5333de28d12cb2d80f47c453" target="_top" xlink:title="Reads ENSDF Identification record. ">
<polygon fill="white" stroke="black" points="175,-152.5 175,-171.5 263,-171.5 263,-152.5 175,-152.5"/>
<text text-anchor="middle" x="219" y="-159.5" font-family="Helvetica,sans-Serif" font-size="10.00">ensdf_id_record</text>
</a>
</g>
</g>
<!-- Node1&#45;&gt;Node3 -->
<g id="edge2" class="edge"><title>Node1&#45;&gt;Node3</title>
<path fill="none" stroke="midnightblue" d="M81.1751,-114.541C99.9738,-122.639 128.014,-134.296 153,-143 159.49,-145.261 166.405,-147.48 173.212,-149.558"/>
<polygon fill="midnightblue" stroke="midnightblue" points="172.464,-152.987 183.047,-152.491 174.465,-146.279 172.464,-152.987"/>
</g>
<!-- Node5 -->
<g id="node5" class="node"><title>Node5</title>
<g id="a_node5"><a xlink:href="ensdf_8f90.html#a662ffe3f9b4e9e979d1923db6ed6747e" target="_top" xlink:title="Reads ENSDF Parent record. ">
<polygon fill="white" stroke="black" points="176,-114.5 176,-133.5 262,-133.5 262,-114.5 176,-114.5"/>
<text text-anchor="middle" x="219" y="-121.5" font-family="Helvetica,sans-Serif" font-size="10.00">ensdf_p_record</text>
</a>
</g>
</g>
<!-- Node1&#45;&gt;Node5 -->
<g id="edge4" class="edge"><title>Node1&#45;&gt;Node5</title>
<path fill="none" stroke="midnightblue" d="M117.171,-111.913C132.999,-113.811 150.071,-115.857 165.587,-117.717"/>
<polygon fill="midnightblue" stroke="midnightblue" points="165.184,-121.194 175.53,-118.909 166.017,-114.244 165.184,-121.194"/>
</g>
<!-- Node7 -->
<g id="node7" class="node"><title>Node7</title>
<g id="a_node7"><a xlink:href="ensdf_8f90.html#a7dbd2855a294788264321f83bb6ed0d2" target="_top" xlink:title="Reads ENSDF Normalization record. ">
<polygon fill="white" stroke="black" points="176,-76.5 176,-95.5 262,-95.5 262,-76.5 176,-76.5"/>
<text text-anchor="middle" x="219" y="-83.5" font-family="Helvetica,sans-Serif" font-size="10.00">ensdf_n_record</text>
</a>
</g>
</g>
<!-- Node1&#45;&gt;Node7 -->
<g id="edge6" class="edge"><title>Node1&#45;&gt;Node7</title>
<path fill="none" stroke="midnightblue" d="M117.171,-98.0868C132.999,-96.1894 150.071,-94.1429 165.587,-92.2829"/>
<polygon fill="midnightblue" stroke="midnightblue" points="166.017,-95.7565 175.53,-91.0911 165.184,-88.8063 166.017,-95.7565"/>
</g>
<!-- Node8 -->
<g id="node8" class="node"><title>Node8</title>
<g id="a_node8"><a xlink:href="ensdf_8f90.html#a6d91f3b61ac11d378e6bda9af255ae44" target="_top" xlink:title="Reads ENSDF Alpha record. ">
<polygon fill="white" stroke="black" points="176,-38.5 176,-57.5 262,-57.5 262,-38.5 176,-38.5"/>
<text text-anchor="middle" x="219" y="-45.5" font-family="Helvetica,sans-Serif" font-size="10.00">ensdf_a_record</text>
</a>
</g>
</g>
<!-- Node1&#45;&gt;Node8 -->
<g id="edge7" class="edge"><title>Node1&#45;&gt;Node8</title>
<path fill="none" stroke="midnightblue" d="M81.1751,-95.4587C99.9738,-87.3606 128.014,-75.7038 153,-67 159.49,-64.7393 166.405,-62.5204 173.212,-60.442"/>
<polygon fill="midnightblue" stroke="midnightblue" points="174.465,-63.7209 183.047,-57.5091 172.464,-57.0129 174.465,-63.7209"/>
</g>
<!-- Node9 -->
<g id="node9" class="node"><title>Node9</title>
<g id="a_node9"><a xlink:href="ensdf_8f90.html#a649d449decd0afde48a0a49911c27617" target="_top" xlink:title="Appends alpha level to a variable of type abra (alpha decay branch) ">
<polygon fill="white" stroke="black" points="153,-0.5 153,-19.5 285,-19.5 285,-0.5 153,-0.5"/>
<text text-anchor="middle" x="219" y="-7.5" font-family="Helvetica,sans-Serif" font-size="10.00">append_level_to_abranch</text>
</a>
</g>
</g>
<!-- Node1&#45;&gt;Node9 -->
<g id="edge8" class="edge"><title>Node1&#45;&gt;Node9</title>
<path fill="none" stroke="midnightblue" d="M68.6676,-95.3757C84.4395,-79.3545 118.365,-47.1835 153,-29 157.265,-26.761 161.829,-24.7521 166.488,-22.9569"/>
<polygon fill="midnightblue" stroke="midnightblue" points="167.848,-26.1888 176.118,-19.5669 165.523,-19.5859 167.848,-26.1888"/>
</g>
<!-- Node4 -->
<g id="node4" class="node"><title>Node4</title>
<g id="a_node4"><a xlink:href="ensdf_8f90.html#ac85c1610cf6186365e8b9104254d54a0" target="_top" xlink:title="Converts all alphanumeric characters in the string to upper case. ">
<polygon fill="white" stroke="black" points="360,-152.5 360,-171.5 409,-171.5 409,-152.5 360,-152.5"/>
<text text-anchor="middle" x="384.5" y="-159.5" font-family="Helvetica,sans-Serif" font-size="10.00">upcase</text>
</a>
</g>
</g>
<!-- Node3&#45;&gt;Node4 -->
<g id="edge3" class="edge"><title>Node3&#45;&gt;Node4</title>
<path fill="none" stroke="midnightblue" d="M263.386,-162C290.372,-162 324.571,-162 349.57,-162"/>
<polygon fill="midnightblue" stroke="midnightblue" points="349.672,-165.5 359.672,-162 349.672,-158.5 349.672,-165.5"/>
</g>
<!-- Node6 -->
<g id="node6" class="node"><title>Node6</title>
<g id="a_node6"><a xlink:href="ensdf_8f90.html#ab4961a9932af3496daa4d38479bd89b0" target="_top" xlink:title="Removes +X from E entries in ENSDF record. ">
<polygon fill="white" stroke="black" points="321,-114.5 321,-133.5 448,-133.5 448,-114.5 321,-114.5"/>
<text text-anchor="middle" x="384.5" y="-121.5" font-family="Helvetica,sans-Serif" font-size="10.00">remove_px_from_e_field</text>
</a>
</g>
</g>
<!-- Node5&#45;&gt;Node6 -->
<g id="edge5" class="edge"><title>Node5&#45;&gt;Node6</title>
<path fill="none" stroke="midnightblue" d="M262.105,-124C276.914,-124 294.014,-124 310.619,-124"/>
<polygon fill="midnightblue" stroke="midnightblue" points="310.869,-127.5 320.869,-124 310.869,-120.5 310.869,-127.5"/>
</g>
</g>
</svg>
