<?xml version="1.0" encoding="UTF-8" standalone="no"?>
<!DOCTYPE svg PUBLIC "-//W3C//DTD SVG 1.1//EN"
 "http://www.w3.org/Graphics/SVG/1.1/DTD/svg11.dtd">
<!-- Generated by graphviz version 2.38.0 (20140413.2041)
 -->
<!-- Title: interpolate_tab_func Pages: 1 -->
<svg width="673pt" height="223pt"
 viewBox="0.00 0.00 673.00 223.29" xmlns="http://www.w3.org/2000/svg" xmlns:xlink="http://www.w3.org/1999/xlink">
<g id="graph0" class="graph" transform="scale(1 1) rotate(0) translate(4 219.29)">
<title>interpolate_tab_func</title>
<polygon fill="white" stroke="none" points="-4,4 -4,-219.29 669,-219.29 669,4 -4,4"/>
<!-- Node1 -->
<g id="node1" class="node"><title>Node1</title>
<polygon fill="#bfbfbf" stroke="black" points="0,-104.5 0,-123.5 107,-123.5 107,-104.5 0,-104.5"/>
<text text-anchor="middle" x="53.5" y="-111.5" font-family="Helvetica,sans-Serif" font-size="10.00">interpolate_tab_func</text>
</g>
<!-- Node2 -->
<g id="node2" class="node"><title>Node2</title>
<g id="a_node2"><a xlink:href="neutron_8f90.html#a5110672e8691955a1f3abff1f54c4039" target="_top" xlink:title="Top subroutine to calculate (a,n) neutron yield from each alpha decay branch of each chain...">
<polygon fill="white" stroke="black" points="461.5,-159 461.5,-189 573.5,-189 573.5,-159 461.5,-159"/>
<text text-anchor="start" x="469.5" y="-177" font-family="Helvetica,sans-Serif" font-size="10.00">calculate_an_neutron</text>
<text text-anchor="middle" x="517.5" y="-166" font-family="Helvetica,sans-Serif" font-size="10.00">_yield</text>
</a>
</g>
</g>
<!-- Node1&#45;&gt;Node2 -->
<g id="edge1" class="edge"><title>Node1&#45;&gt;Node2</title>
<path fill="none" stroke="midnightblue" d="M67.6391,-131.735C83.1606,-151.038 110.96,-180.78 143,-193 252.197,-234.648 392.488,-208.335 466.162,-189.041"/>
<polygon fill="midnightblue" stroke="midnightblue" points="70.2983,-129.453 61.4005,-123.702 64.7696,-133.746 70.2983,-129.453"/>
</g>
<!-- Node4 -->
<g id="node4" class="node"><title>Node4</title>
<g id="a_node4"><a xlink:href="neutron_8f90.html#ac47eda82ac82a65036682cf5844bef84" target="_top" xlink:title="Function (a,n)_cross_section / linear_stopping_power provided for integration of neutron production f...">
<polygon fill="white" stroke="black" points="166.5,-164.5 166.5,-183.5 221.5,-183.5 221.5,-164.5 166.5,-164.5"/>
<text text-anchor="middle" x="194" y="-171.5" font-family="Helvetica,sans-Serif" font-size="10.00">func_npf</text>
</a>
</g>
</g>
<!-- Node1&#45;&gt;Node4 -->
<g id="edge3" class="edge"><title>Node1&#45;&gt;Node4</title>
<path fill="none" stroke="midnightblue" d="M83.4734,-128.052C100.645,-136.222 122.909,-146.541 143,-155 150.703,-158.243 159.169,-161.554 166.911,-164.485"/>
<polygon fill="midnightblue" stroke="midnightblue" points="84.5377,-124.681 74.0066,-123.521 81.5153,-130.995 84.5377,-124.681"/>
</g>
<!-- Node6 -->
<g id="node6" class="node"><title>Node6</title>
<g id="a_node6"><a xlink:href="neutron_8f90.html#af083fdc779ff8ce842f616732a568f27" target="_top" xlink:title="Function (a,n)_cross_section_spectrum / linear_stopping_power at a given neutron energy provided for ...">
<polygon fill="white" stroke="black" points="157,-126.5 157,-145.5 231,-145.5 231,-126.5 157,-126.5"/>
<text text-anchor="middle" x="194" y="-133.5" font-family="Helvetica,sans-Serif" font-size="10.00">func_dnpf_nj</text>
</a>
</g>
</g>
<!-- Node1&#45;&gt;Node6 -->
<g id="edge6" class="edge"><title>Node1&#45;&gt;Node6</title>
<path fill="none" stroke="midnightblue" d="M117.449,-123.999C130.903,-126.136 144.678,-128.324 156.718,-130.237"/>
<polygon fill="midnightblue" stroke="midnightblue" points="117.681,-120.492 107.256,-122.38 116.583,-127.406 117.681,-120.492"/>
</g>
<!-- Node9 -->
<g id="node9" class="node"><title>Node9</title>
<g id="a_node9"><a xlink:href="neutron_8f90.html#a7f3c8c1b9fb42e2ecdd3f4cfe4646aa4" target="_top" xlink:title="Retrieves TALYS differential neutron production cross section (n spectrum) and interpolates to Enspec...">
<polygon fill="white" stroke="black" points="143,-77 143,-107 245,-107 245,-77 143,-77"/>
<text text-anchor="start" x="151" y="-95" font-family="Helvetica,sans-Serif" font-size="10.00">retrieve_interpolate</text>
<text text-anchor="middle" x="194" y="-84" font-family="Helvetica,sans-Serif" font-size="10.00">_talys_spectrum</text>
</a>
</g>
</g>
<!-- Node1&#45;&gt;Node9 -->
<g id="edge10" class="edge"><title>Node1&#45;&gt;Node9</title>
<path fill="none" stroke="midnightblue" d="M117.185,-104.043C125.722,-102.687 134.393,-101.309 142.674,-99.994"/>
<polygon fill="midnightblue" stroke="midnightblue" points="116.583,-100.594 107.256,-105.62 117.681,-107.508 116.583,-100.594"/>
</g>
<!-- Node10 -->
<g id="node10" class="node"><title>Node10</title>
<g id="a_node10"><a xlink:href="neutron_8f90.html#aeed8bee0f91f7d8def5a34d0cf7d95c5" target="_top" xlink:title="Calculates neutron spectrum nspec from (a,n) with alpha of energy E0 uses simple reaction kinematics...">
<polygon fill="white" stroke="black" points="299.5,-39 299.5,-69 404.5,-69 404.5,-39 299.5,-39"/>
<text text-anchor="start" x="307.5" y="-57" font-family="Helvetica,sans-Serif" font-size="10.00">local_an_differential</text>
<text text-anchor="middle" x="352" y="-46" font-family="Helvetica,sans-Serif" font-size="10.00">_npf_for_alpha_e</text>
</a>
</g>
</g>
<!-- Node1&#45;&gt;Node10 -->
<g id="edge12" class="edge"><title>Node1&#45;&gt;Node10</title>
<path fill="none" stroke="midnightblue" d="M76.8555,-98.6652C94.0987,-87.7205 118.986,-73.7835 143,-67 194.706,-52.394 256.415,-50.3588 299.124,-51.2252"/>
<polygon fill="midnightblue" stroke="midnightblue" points="74.5748,-95.9743 68.1165,-104.373 78.4028,-101.835 74.5748,-95.9743"/>
</g>
<!-- Node11 -->
<g id="node11" class="node"><title>Node11</title>
<g id="a_node11"><a xlink:href="stoppow_8f90.html#a9fbcbf8e4672f621ffcfcfe00abd9238" target="_top" xlink:title="Function 1 / linear_stopping_power provided for integration of alpha range. ">
<polygon fill="white" stroke="black" points="318.5,-0.5 318.5,-19.5 385.5,-19.5 385.5,-0.5 318.5,-0.5"/>
<text text-anchor="middle" x="352" y="-7.5" font-family="Helvetica,sans-Serif" font-size="10.00">func_range</text>
</a>
</g>
</g>
<!-- Node1&#45;&gt;Node11 -->
<g id="edge14" class="edge"><title>Node1&#45;&gt;Node11</title>
<path fill="none" stroke="midnightblue" d="M71.8423,-97.5304C88.6831,-82.4979 115.648,-60.8691 143,-49 201.476,-23.625 276.229,-14.7314 318.337,-11.6345"/>
<polygon fill="midnightblue" stroke="midnightblue" points="69.4482,-94.9769 64.4309,-104.308 74.1724,-100.142 69.4482,-94.9769"/>
</g>
<!-- Node3 -->
<g id="node3" class="node"><title>Node3</title>
<g id="a_node3"><a xlink:href="argon39_8f90.html#a53921723df12bf3ddfe3fd2c80826bcb" target="_top" xlink:title="Main program. ">
<polygon fill="white" stroke="black" points="612,-68.5 612,-87.5 665,-87.5 665,-68.5 612,-68.5"/>
<text text-anchor="middle" x="638.5" y="-75.5" font-family="Helvetica,sans-Serif" font-size="10.00">argon39</text>
</a>
</g>
</g>
<!-- Node2&#45;&gt;Node3 -->
<g id="edge2" class="edge"><title>Node2&#45;&gt;Node3</title>
<path fill="none" stroke="midnightblue" d="M545.419,-152.284C570.59,-131.978 607.009,-102.598 625.602,-87.598"/>
<polygon fill="midnightblue" stroke="midnightblue" points="542.941,-149.786 537.356,-158.789 547.337,-155.234 542.941,-149.786"/>
</g>
<!-- Node5 -->
<g id="node5" class="node"><title>Node5</title>
<g id="a_node5"><a xlink:href="neutron_8f90.html#ab150153b0d7ccb063bd1ec88e79e1534" target="_top" xlink:title="Tabulates neutron production function. ">
<polygon fill="white" stroke="black" points="281,-164.5 281,-183.5 423,-183.5 423,-164.5 281,-164.5"/>
<text text-anchor="middle" x="352" y="-171.5" font-family="Helvetica,sans-Serif" font-size="10.00">tabulate_neutron_prod_func</text>
</a>
</g>
</g>
<!-- Node4&#45;&gt;Node5 -->
<g id="edge4" class="edge"><title>Node4&#45;&gt;Node5</title>
<path fill="none" stroke="midnightblue" d="M231.984,-174C246.668,-174 264.062,-174 280.954,-174"/>
<polygon fill="midnightblue" stroke="midnightblue" points="231.817,-170.5 221.817,-174 231.817,-177.5 231.817,-170.5"/>
</g>
<!-- Node5&#45;&gt;Node2 -->
<g id="edge5" class="edge"><title>Node5&#45;&gt;Node2</title>
<path fill="none" stroke="midnightblue" d="M433.413,-174C442.774,-174 452.158,-174 461.075,-174"/>
<polygon fill="midnightblue" stroke="midnightblue" points="433.288,-170.5 423.288,-174 433.288,-177.5 433.288,-170.5"/>
</g>
<!-- Node7 -->
<g id="node7" class="node"><title>Node7</title>
<g id="a_node7"><a xlink:href="neutron_8f90.html#aee8287f8ab14cf717b431e223ad40d28" target="_top" xlink:title="Tabulates TALYS differential neutron production function. ">
<polygon fill="white" stroke="black" points="299,-88 299,-118 405,-118 405,-88 299,-88"/>
<text text-anchor="start" x="307" y="-106" font-family="Helvetica,sans-Serif" font-size="10.00">tabulate_differential</text>
<text text-anchor="middle" x="352" y="-95" font-family="Helvetica,sans-Serif" font-size="10.00">_neutron_prod_func</text>
</a>
</g>
</g>
<!-- Node6&#45;&gt;Node7 -->
<g id="edge7" class="edge"><title>Node6&#45;&gt;Node7</title>
<path fill="none" stroke="midnightblue" d="M241.195,-126.228C259.282,-122.402 280.124,-117.993 298.756,-114.052"/>
<polygon fill="midnightblue" stroke="midnightblue" points="240.241,-122.852 231.182,-128.346 241.69,-129.701 240.241,-122.852"/>
</g>
<!-- Node8 -->
<g id="node8" class="node"><title>Node8</title>
<g id="a_node8"><a xlink:href="neutron_8f90.html#ac9afffbf2d4d8afc896dcbe976991b28" target="_top" xlink:title="Top subroutine to calculate (a,n) neutron energy spectra from each decay chain. ">
<polygon fill="white" stroke="black" points="461.5,-63 461.5,-93 573.5,-93 573.5,-63 461.5,-63"/>
<text text-anchor="start" x="469.5" y="-81" font-family="Helvetica,sans-Serif" font-size="10.00">calculate_an_neutron</text>
<text text-anchor="middle" x="517.5" y="-70" font-family="Helvetica,sans-Serif" font-size="10.00">_spectrum</text>
</a>
</g>
</g>
<!-- Node7&#45;&gt;Node8 -->
<g id="edge8" class="edge"><title>Node7&#45;&gt;Node8</title>
<path fill="none" stroke="midnightblue" d="M415.479,-93.4466C430.609,-91.1332 446.672,-88.6771 461.431,-86.4203"/>
<polygon fill="midnightblue" stroke="midnightblue" points="414.538,-90.0498 405.182,-95.0211 415.596,-96.9693 414.538,-90.0498"/>
</g>
<!-- Node8&#45;&gt;Node3 -->
<g id="edge9" class="edge"><title>Node8&#45;&gt;Node3</title>
<path fill="none" stroke="midnightblue" d="M584.063,-78C593.86,-78 603.435,-78 611.711,-78"/>
<polygon fill="midnightblue" stroke="midnightblue" points="583.82,-74.5001 573.819,-78 583.819,-81.5001 583.82,-74.5001"/>
</g>
<!-- Node9&#45;&gt;Node7 -->
<g id="edge11" class="edge"><title>Node9&#45;&gt;Node7</title>
<path fill="none" stroke="midnightblue" d="M255.498,-96.2659C269.859,-97.2785 285.054,-98.35 298.998,-99.3332"/>
<polygon fill="midnightblue" stroke="midnightblue" points="255.44,-92.7532 245.218,-95.541 254.947,-99.7358 255.44,-92.7532"/>
</g>
<!-- Node10&#45;&gt;Node8 -->
<g id="edge13" class="edge"><title>Node10&#45;&gt;Node8</title>
<path fill="none" stroke="midnightblue" d="M414.661,-63.0511C430.028,-65.3069 446.405,-67.7108 461.431,-69.9165"/>
<polygon fill="midnightblue" stroke="midnightblue" points="415.135,-59.5833 404.732,-61.5938 414.118,-66.5091 415.135,-59.5833"/>
</g>
<!-- Node12 -->
<g id="node12" class="node"><title>Node12</title>
<g id="a_node12"><a xlink:href="stoppow_8f90.html#a65317bfea168be8b9cae828b00d5ae38" target="_top" xlink:title="Calculate and output alpha particle range. ">
<polygon fill="white" stroke="black" points="459,-24.5 459,-43.5 576,-43.5 576,-24.5 459,-24.5"/>
<text text-anchor="middle" x="517.5" y="-31.5" font-family="Helvetica,sans-Serif" font-size="10.00">calculate_alpha_range</text>
</a>
</g>
</g>
<!-- Node11&#45;&gt;Node12 -->
<g id="edge15" class="edge"><title>Node11&#45;&gt;Node12</title>
<path fill="none" stroke="midnightblue" d="M395.67,-16.2636C414.919,-19.089 437.947,-22.4693 458.712,-25.5174"/>
<polygon fill="midnightblue" stroke="midnightblue" points="396.096,-12.7886 385.694,-14.7991 395.079,-19.7144 396.096,-12.7886"/>
</g>
<!-- Node12&#45;&gt;Node3 -->
<g id="edge16" class="edge"><title>Node12&#45;&gt;Node3</title>
<path fill="none" stroke="midnightblue" d="M558.518,-46.8402C564.403,-48.8393 570.374,-50.9298 576,-53 589.088,-57.8163 603.543,-63.6648 615.149,-68.4938"/>
<polygon fill="midnightblue" stroke="midnightblue" points="559.366,-43.4335 548.772,-43.5819 557.146,-50.0723 559.366,-43.4335"/>
</g>
</g>
</svg>
