<?xml version="1.0" encoding="UTF-8" standalone="no"?>
<!DOCTYPE svg PUBLIC "-//W3C//DTD SVG 1.1//EN"
 "http://www.w3.org/Graphics/SVG/1.1/DTD/svg11.dtd">
<!-- Generated by graphviz version 2.38.0 (20140413.2041)
 -->
<!-- Title: open_file Pages: 1 -->
<svg width="639pt" height="905pt"
 viewBox="0.00 0.00 639.00 905.07" xmlns="http://www.w3.org/2000/svg" xmlns:xlink="http://www.w3.org/1999/xlink">
<g id="graph0" class="graph" transform="scale(1 1) rotate(0) translate(4 901.066)">
<title>open_file</title>
<polygon fill="white" stroke="none" points="-4,4 -4,-901.066 635,-901.066 635,4 -4,4"/>
<!-- Node1 -->
<g id="node1" class="node"><title>Node1</title>
<polygon fill="#bfbfbf" stroke="black" points="0,-448.066 0,-467.066 57,-467.066 57,-448.066 0,-448.066"/>
<text text-anchor="middle" x="28.5" y="-455.066" font-family="Helvetica,sans-Serif" font-size="10.00">open_file</text>
</g>
<!-- Node2 -->
<g id="node2" class="node"><title>Node2</title>
<g id="a_node2"><a xlink:href="decchains_8f90.html#a846040297eef709abf3f8dac36b0bdd4" target="_top" xlink:title="Gets decays chains from input file and allocates dchain(:) array. ">
<polygon fill="white" stroke="black" points="103,-866.566 103,-896.566 216,-896.566 216,-866.566 103,-866.566"/>
<text text-anchor="start" x="111" y="-884.566" font-family="Helvetica,sans-Serif" font-size="10.00">get_requested_decay</text>
<text text-anchor="middle" x="159.5" y="-873.566" font-family="Helvetica,sans-Serif" font-size="10.00">_chains</text>
</a>
</g>
</g>
<!-- Node1&#45;&gt;Node2 -->
<g id="edge1" class="edge"><title>Node1&#45;&gt;Node2</title>
<path fill="none" stroke="midnightblue" d="M30.1009,-477.535C32.6593,-549.9 44.8348,-797.248 93,-856.566 96.1457,-860.44 99.9638,-863.715 104.158,-866.482"/>
<polygon fill="midnightblue" stroke="midnightblue" points="33.5859,-477.019 29.7585,-467.139 26.5897,-477.249 33.5859,-477.019"/>
</g>
<!-- Node5 -->
<g id="node5" class="node"><title>Node5</title>
<g id="a_node5"><a xlink:href="mcnp6extract_8f90.html#af0e37fb4a5ad0ed1a8cb19f09d6da825" target="_top" xlink:title="This program extracts 39Ar values from MCNP6 output files. ">
<polygon fill="white" stroke="black" points="290.5,-790.066 290.5,-809.066 357.5,-809.066 357.5,-790.066 290.5,-790.066"/>
<text text-anchor="middle" x="324" y="-797.066" font-family="Helvetica,sans-Serif" font-size="10.00">mcnp6prep</text>
</a>
</g>
</g>
<!-- Node1&#45;&gt;Node5 -->
<g id="edge26" class="edge"><title>Node1&#45;&gt;Node5</title>
<path fill="none" stroke="midnightblue" d="M30.3779,-477.352C33.647,-541.167 47.3778,-739.775 93,-780.566 147.51,-829.304 241.19,-818.208 290.489,-807.819"/>
<polygon fill="midnightblue" stroke="midnightblue" points="33.86,-476.894 29.8839,-467.073 26.8681,-477.23 33.86,-476.894"/>
</g>
<!-- Node6 -->
<g id="node6" class="node"><title>Node6</title>
<g id="a_node6"><a xlink:href="decchains_8f90.html#af1e6b3924e08acff9381a9c85abf5f13" target="_top" xlink:title="Sets up one decay chain. ">
<polygon fill="white" stroke="black" points="272.5,-714.066 272.5,-733.066 375.5,-733.066 375.5,-714.066 272.5,-714.066"/>
<text text-anchor="middle" x="324" y="-721.066" font-family="Helvetica,sans-Serif" font-size="10.00">setup_decay_chain</text>
</a>
</g>
</g>
<!-- Node1&#45;&gt;Node6 -->
<g id="edge5" class="edge"><title>Node1&#45;&gt;Node6</title>
<path fill="none" stroke="midnightblue" d="M31.9511,-477.213C38.7921,-528.708 59.7968,-665.608 93,-694.566 141.985,-737.289 220.701,-737.649 272.141,-732.093"/>
<polygon fill="midnightblue" stroke="midnightblue" points="35.3944,-476.549 30.6428,-467.079 28.452,-477.445 35.3944,-476.549"/>
</g>
<!-- Node7 -->
<g id="node7" class="node"><title>Node7</title>
<g id="a_node7"><a xlink:href="decchains_8f90.html#a31f59d79ebc87116c67becd7087688eb" target="_top" xlink:title="Outputs energy spectra of alphas produced in chain ic ">
<polygon fill="white" stroke="black" points="262,-676.066 262,-695.066 386,-695.066 386,-676.066 262,-676.066"/>
<text text-anchor="middle" x="324" y="-683.066" font-family="Helvetica,sans-Serif" font-size="10.00">output_alpha_e_spectra</text>
</a>
</g>
</g>
<!-- Node1&#45;&gt;Node7 -->
<g id="edge7" class="edge"><title>Node1&#45;&gt;Node7</title>
<path fill="none" stroke="midnightblue" d="M29.0558,-477.421C29.3132,-518.987 36.3549,-615.147 93,-661.566 142.84,-702.408 220.591,-701.472 271.665,-695.089"/>
<polygon fill="midnightblue" stroke="midnightblue" points="32.557,-477.256 29.1275,-467.232 25.5572,-477.207 32.557,-477.256"/>
</g>
<!-- Node8 -->
<g id="node8" class="node"><title>Node8</title>
<g id="a_node8"><a xlink:href="elemnucl_8f90.html#ad8eafb0d250e2592d19a8690599a6343" target="_top" xlink:title="Sets up element and nuclide data structures from input files. ">
<polygon fill="white" stroke="black" points="97,-562.066 97,-581.066 222,-581.066 222,-562.066 97,-562.066"/>
<text text-anchor="middle" x="159.5" y="-569.066" font-family="Helvetica,sans-Serif" font-size="10.00">read_elements_nuclides</text>
</a>
</g>
</g>
<!-- Node1&#45;&gt;Node8 -->
<g id="edge9" class="edge"><title>Node1&#45;&gt;Node8</title>
<path fill="none" stroke="midnightblue" d="M37.3931,-476.709C47.26,-498.292 66.1758,-532.928 93,-552.566 98.2545,-556.413 104.275,-559.484 110.489,-561.935"/>
<polygon fill="midnightblue" stroke="midnightblue" points="40.4883,-475.051 33.2813,-467.285 34.0724,-477.85 40.4883,-475.051"/>
</g>
<!-- Node9 -->
<g id="node9" class="node"><title>Node9</title>
<g id="a_node9"><a xlink:href="talysprep_8f90.html#a5e6c4dd9c50d176cf07a5dffda6ffa74" target="_top" xlink:title="This program prepares input files and batch execution file for running TALYS. ">
<polygon fill="white" stroke="black" points="295.5,-491.066 295.5,-510.066 352.5,-510.066 352.5,-491.066 295.5,-491.066"/>
<text text-anchor="middle" x="324" y="-498.066" font-family="Helvetica,sans-Serif" font-size="10.00">talysprep</text>
</a>
</g>
</g>
<!-- Node1&#45;&gt;Node9 -->
<g id="edge50" class="edge"><title>Node1&#45;&gt;Node9</title>
<path fill="none" stroke="midnightblue" d="M66.751,-469.975C75.299,-472.468 84.4031,-474.847 93,-476.566 165.24,-491.011 252.091,-497.079 295.49,-499.357"/>
<polygon fill="midnightblue" stroke="midnightblue" points="67.621,-466.581 57.0356,-467.028 65.589,-473.28 67.621,-466.581"/>
</g>
<!-- Node10 -->
<g id="node10" class="node"><title>Node10</title>
<g id="a_node10"><a xlink:href="elemnucl_8f90.html#a34a7c0381935af30e589aa4b0734163a" target="_top" xlink:title="Reads rock composition from input file. ">
<polygon fill="white" stroke="black" points="433.5,-633.066 433.5,-652.066 530.5,-652.066 530.5,-633.066 433.5,-633.066"/>
<text text-anchor="middle" x="482" y="-640.066" font-family="Helvetica,sans-Serif" font-size="10.00">read_abundances</text>
</a>
</g>
</g>
<!-- Node1&#45;&gt;Node10 -->
<g id="edge12" class="edge"><title>Node1&#45;&gt;Node10</title>
<path fill="none" stroke="midnightblue" d="M30.1731,-477.493C32.6153,-514.412 43.6629,-592.921 93,-628.566 146.066,-666.905 341.996,-655.122 433.429,-647.207"/>
<polygon fill="midnightblue" stroke="midnightblue" points="33.6469,-476.885 29.645,-467.075 26.6559,-477.24 33.6469,-476.885"/>
</g>
<!-- Node11 -->
<g id="node11" class="node"><title>Node11</title>
<g id="a_node11"><a xlink:href="ensdf_8f90.html#abf41713aa86fc45deb8a017daaf563ba" target="_top" xlink:title="Reads ENSDF decay dataset. ">
<polygon fill="white" stroke="black" points="101,-752.066 101,-771.066 218,-771.066 218,-752.066 101,-752.066"/>
<text text-anchor="middle" x="159.5" y="-759.066" font-family="Helvetica,sans-Serif" font-size="10.00">read_ensdf_decay_file</text>
</a>
</g>
</g>
<!-- Node1&#45;&gt;Node11 -->
<g id="edge14" class="edge"><title>Node1&#45;&gt;Node11</title>
<path fill="none" stroke="midnightblue" d="M31.5635,-477.607C37.8435,-534.979 58.4334,-698.257 93,-737.566 98.5982,-743.932 106.032,-748.611 113.88,-752.05"/>
<polygon fill="midnightblue" stroke="midnightblue" points="35.0087,-476.906 30.4694,-467.332 28.0481,-477.647 35.0087,-476.906"/>
</g>
<!-- Node12 -->
<g id="node12" class="node"><title>Node12</title>
<g id="a_node12"><a xlink:href="fission_8f90.html#a3c6ac74dedece146555620d34c97ebf3" target="_top" xlink:title="calculate_sf_neutron\l_production">
<polygon fill="white" stroke="black" points="427.5,-328.566 427.5,-358.566 536.5,-358.566 536.5,-328.566 427.5,-328.566"/>
<text text-anchor="start" x="435.5" y="-346.566" font-family="Helvetica,sans-Serif" font-size="10.00">calculate_sf_neutron</text>
<text text-anchor="middle" x="482" y="-335.566" font-family="Helvetica,sans-Serif" font-size="10.00">_production</text>
</a>
</g>
</g>
<!-- Node1&#45;&gt;Node12 -->
<g id="edge16" class="edge"><title>Node1&#45;&gt;Node12</title>
<path fill="none" stroke="midnightblue" d="M38.245,-438.684C48.3985,-419.159 67.1236,-389.604 93,-375.566 200.087,-317.47 348.728,-325.321 427.317,-335.053"/>
<polygon fill="midnightblue" stroke="midnightblue" points="35.0111,-437.328 33.7243,-447.845 41.2884,-440.426 35.0111,-437.328"/>
</g>
<!-- Node13 -->
<g id="node13" class="node"><title>Node13</title>
<g id="a_node13"><a xlink:href="iostuff_8f90.html#a6d3fdd9af1f968e4b407c599e712c2dc" target="_top" xlink:title="Starts outputfile after calling get_inputs. ">
<polygon fill="white" stroke="black" points="263.5,-378.066 263.5,-397.066 384.5,-397.066 384.5,-378.066 263.5,-378.066"/>
<text text-anchor="middle" x="324" y="-385.066" font-family="Helvetica,sans-Serif" font-size="10.00">get_inputs_start_output</text>
</a>
</g>
</g>
<!-- Node1&#45;&gt;Node13 -->
<g id="edge18" class="edge"><title>Node1&#45;&gt;Node13</title>
<path fill="none" stroke="midnightblue" d="M43.1998,-440.023C54.8394,-426.576 72.8358,-408.949 93,-400.566 147.472,-377.921 215.528,-377.055 263.43,-380.389"/>
<polygon fill="midnightblue" stroke="midnightblue" points="40.4953,-437.801 36.8114,-447.735 45.886,-442.267 40.4953,-437.801"/>
</g>
<!-- Node14 -->
<g id="node14" class="node"><title>Node14</title>
<g id="a_node14"><a xlink:href="iostuff_8f90.html#a38e224d9341ed418ce42515c2cad9052" target="_top" xlink:title="Gets inputs from inputfile. ">
<polygon fill="white" stroke="black" points="128,-524.066 128,-543.066 191,-543.066 191,-524.066 128,-524.066"/>
<text text-anchor="middle" x="159.5" y="-531.066" font-family="Helvetica,sans-Serif" font-size="10.00">get_inputs</text>
</a>
</g>
</g>
<!-- Node1&#45;&gt;Node14 -->
<g id="edge20" class="edge"><title>Node1&#45;&gt;Node14</title>
<path fill="none" stroke="midnightblue" d="M46.6189,-474.282C58.7734,-485.443 75.9072,-499.809 93,-509.566 103.833,-515.75 116.553,-520.843 127.886,-524.722"/>
<polygon fill="midnightblue" stroke="midnightblue" points="48.7404,-471.472 39.0614,-467.163 43.9407,-476.567 48.7404,-471.472"/>
</g>
<!-- Node15 -->
<g id="node15" class="node"><title>Node15</title>
<g id="a_node15"><a xlink:href="iostuff_8f90.html#a59df1b192d6920203b1a945ffd3ab950" target="_top" xlink:title="Closes output file and prints final message on stdout. ">
<polygon fill="white" stroke="black" points="441.5,-290.066 441.5,-309.066 522.5,-309.066 522.5,-290.066 441.5,-290.066"/>
<text text-anchor="middle" x="482" y="-297.066" font-family="Helvetica,sans-Serif" font-size="10.00">finalize_output</text>
</a>
</g>
</g>
<!-- Node1&#45;&gt;Node15 -->
<g id="edge24" class="edge"><title>Node1&#45;&gt;Node15</title>
<path fill="none" stroke="midnightblue" d="M33.1932,-437.829C39.7194,-409.06 56.2403,-356.346 93,-331.566 149.045,-293.786 354.336,-295.506 441.469,-298.066"/>
<polygon fill="midnightblue" stroke="midnightblue" points="29.7086,-437.395 31.0987,-447.898 36.5619,-438.821 29.7086,-437.395"/>
</g>
<!-- Node16 -->
<g id="node16" class="node"><title>Node16</title>
<g id="a_node16"><a xlink:href="mcnp6extract_8f90.html#a6368bcd90e8cffb3935f2c895e978cf3" target="_top" xlink:title="Writes MCNP6 input file. ">
<polygon fill="white" stroke="black" points="94,-828.066 94,-847.066 225,-847.066 225,-828.066 94,-828.066"/>
<text text-anchor="middle" x="159.5" y="-835.066" font-family="Helvetica,sans-Serif" font-size="10.00">read_from_mcnp6_output</text>
</a>
</g>
</g>
<!-- Node1&#45;&gt;Node16 -->
<g id="edge27" class="edge"><title>Node1&#45;&gt;Node16</title>
<path fill="none" stroke="midnightblue" d="M30.4744,-477.116C34.1745,-543.884 49.4204,-761.621 93,-813.566 98.2931,-819.875 105.396,-824.526 112.973,-827.954"/>
<polygon fill="midnightblue" stroke="midnightblue" points="33.9683,-476.906 29.9449,-467.105 26.9781,-477.276 33.9683,-476.906"/>
</g>
<!-- Node17 -->
<g id="node17" class="node"><title>Node17</title>
<g id="a_node17"><a xlink:href="mcnp6extract_8f90.html#acd47d7c90f820f36e4410de86184c731" target="_top" xlink:title="Gets (alpha,n) targets from input file and allocates targets(:) array. ">
<polygon fill="white" stroke="black" points="93,-600.066 93,-619.066 226,-619.066 226,-600.066 93,-600.066"/>
<text text-anchor="middle" x="159.5" y="-607.066" font-family="Helvetica,sans-Serif" font-size="10.00">get_requested_an_targets</text>
</a>
</g>
</g>
<!-- Node1&#45;&gt;Node17 -->
<g id="edge29" class="edge"><title>Node1&#45;&gt;Node17</title>
<path fill="none" stroke="midnightblue" d="M33.4763,-477.033C40.4224,-506.054 57.5415,-560.466 93,-590.566 97.6036,-594.474 102.972,-597.579 108.619,-600.046"/>
<polygon fill="midnightblue" stroke="midnightblue" points="36.8889,-476.255 31.2952,-467.257 30.0569,-477.779 36.8889,-476.255"/>
</g>
<!-- Node18 -->
<g id="node18" class="node"><title>Node18</title>
<g id="a_node18"><a xlink:href="mcnp6prep_8f90.html#a035febd3c26a8696ce1efdc27e47a51c" target="_top" xlink:title="Writes MCNP6 input file. ">
<polygon fill="white" stroke="black" points="109.5,-258.066 109.5,-277.066 209.5,-277.066 209.5,-258.066 109.5,-258.066"/>
<text text-anchor="middle" x="159.5" y="-265.066" font-family="Helvetica,sans-Serif" font-size="10.00">write_mcnp6_input</text>
</a>
</g>
</g>
<!-- Node1&#45;&gt;Node18 -->
<g id="edge33" class="edge"><title>Node1&#45;&gt;Node18</title>
<path fill="none" stroke="midnightblue" d="M31.7641,-437.641C36.7033,-403.231 51.5447,-332.44 93,-291.566 99.3817,-285.274 107.547,-280.614 115.932,-277.169"/>
<polygon fill="midnightblue" stroke="midnightblue" points="28.2593,-437.453 30.4446,-447.82 35.2012,-438.353 28.2593,-437.453"/>
</g>
<!-- Node20 -->
<g id="node20" class="node"><title>Node20</title>
<g id="a_node20"><a xlink:href="neutron_8f90.html#ac1e14a79afff201a9f50533f971052e7" target="_top" xlink:title="Reads (a,n) cross section. ">
<polygon fill="white" stroke="black" points="422,-236.066 422,-255.066 542,-255.066 542,-236.066 422,-236.066"/>
<text text-anchor="middle" x="482" y="-243.066" font-family="Helvetica,sans-Serif" font-size="10.00">read_an_cross_section</text>
</a>
</g>
</g>
<!-- Node1&#45;&gt;Node20 -->
<g id="edge35" class="edge"><title>Node1&#45;&gt;Node20</title>
<path fill="none" stroke="midnightblue" d="M32.4973,-437.836C40.1599,-390.307 62.0652,-271.684 93,-248.566 143.318,-210.963 326.246,-226.556 421.862,-237.795"/>
<polygon fill="midnightblue" stroke="midnightblue" points="29.0247,-437.389 30.9317,-447.811 35.9401,-438.474 29.0247,-437.389"/>
</g>
<!-- Node21 -->
<g id="node21" class="node"><title>Node21</title>
<g id="a_node21"><a xlink:href="neutron_8f90.html#a7f3c8c1b9fb42e2ecdd3f4cfe4646aa4" target="_top" xlink:title="Retrieves TALYS differential neutron production cross section (n spectrum) and interpolates to Enspec...">
<polygon fill="white" stroke="black" points="108.5,-170.566 108.5,-200.566 210.5,-200.566 210.5,-170.566 108.5,-170.566"/>
<text text-anchor="start" x="116.5" y="-188.566" font-family="Helvetica,sans-Serif" font-size="10.00">retrieve_interpolate</text>
<text text-anchor="middle" x="159.5" y="-177.566" font-family="Helvetica,sans-Serif" font-size="10.00">_talys_spectrum</text>
</a>
</g>
</g>
<!-- Node1&#45;&gt;Node21 -->
<g id="edge37" class="edge"><title>Node1&#45;&gt;Node21</title>
<path fill="none" stroke="midnightblue" d="M29.2582,-437.804C29.7492,-392.965 36.953,-282.249 93,-215.566 98.07,-209.534 104.611,-204.654 111.593,-200.724"/>
<polygon fill="midnightblue" stroke="midnightblue" points="25.7582,-437.943 29.2548,-447.944 32.7582,-437.945 25.7582,-437.943"/>
</g>
<!-- Node24 -->
<g id="node24" class="node"><title>Node24</title>
<g id="a_node24"><a xlink:href="neutron_8f90.html#a8260069a5794c466c25d4040fc4fa599" target="_top" xlink:title="Outputs neutron production table :) ">
<polygon fill="white" stroke="black" points="269.5,-82.5661 269.5,-112.566 378.5,-112.566 378.5,-82.5661 269.5,-82.5661"/>
<text text-anchor="start" x="277.5" y="-100.566" font-family="Helvetica,sans-Serif" font-size="10.00">output_neutron_prod</text>
<text text-anchor="middle" x="324" y="-89.5661" font-family="Helvetica,sans-Serif" font-size="10.00">_func_table</text>
</a>
</g>
</g>
<!-- Node1&#45;&gt;Node24 -->
<g id="edge41" class="edge"><title>Node1&#45;&gt;Node24</title>
<path fill="none" stroke="midnightblue" d="M30.2479,-437.876C33.1603,-372.569 46.0255,-164.803 93,-121.566 139.967,-78.3356 217.317,-79.5473 269.19,-86.6721"/>
<polygon fill="midnightblue" stroke="midnightblue" points="26.7441,-437.895 29.8257,-448.032 33.7381,-438.186 26.7441,-437.895"/>
</g>
<!-- Node26 -->
<g id="node26" class="node"><title>Node26</title>
<g id="a_node26"><a xlink:href="neutron_8f90.html#adbcdb83427ac7bfe40a2debbe73e43b4" target="_top" xlink:title="Outputs neutron spectra, user&#45;friendly xy file + for MCNP6 input. ">
<polygon fill="white" stroke="black" points="263,-132.066 263,-151.066 385,-151.066 385,-132.066 263,-132.066"/>
<text text-anchor="middle" x="324" y="-139.066" font-family="Helvetica,sans-Serif" font-size="10.00">output_neutron_spectra</text>
</a>
</g>
</g>
<!-- Node1&#45;&gt;Node26 -->
<g id="edge44" class="edge"><title>Node1&#45;&gt;Node26</title>
<path fill="none" stroke="midnightblue" d="M30.7441,-437.802C34.9767,-377.469 50.9654,-197.529 93,-160.566 145.353,-114.529 232.793,-122.296 283.438,-131.995"/>
<polygon fill="midnightblue" stroke="midnightblue" points="27.2435,-437.696 30.0684,-447.907 34.2279,-438.163 27.2435,-437.696"/>
</g>
<!-- Node27 -->
<g id="node27" class="node"><title>Node27</title>
<g id="a_node27"><a xlink:href="stoppow_8f90.html#a76170db348b32b123b2759b1a9184622" target="_top" xlink:title="Read in stopping power from input file. ">
<polygon fill="white" stroke="black" points="425.5,-54.0661 425.5,-73.0661 538.5,-73.0661 538.5,-54.0661 425.5,-54.0661"/>
<text text-anchor="middle" x="482" y="-61.0661" font-family="Helvetica,sans-Serif" font-size="10.00">read_stopping_power</text>
</a>
</g>
</g>
<!-- Node1&#45;&gt;Node27 -->
<g id="edge46" class="edge"><title>Node1&#45;&gt;Node27</title>
<path fill="none" stroke="midnightblue" d="M29.696,-437.637C30.8479,-366.594 38.7571,-127.418 93,-79.5661 140.84,-37.363 329.991,-48.8138 425.377,-57.6544"/>
<polygon fill="midnightblue" stroke="midnightblue" points="26.1932,-437.831 29.5596,-447.877 33.1926,-437.925 26.1932,-437.831"/>
</g>
<!-- Node28 -->
<g id="node28" class="node"><title>Node28</title>
<g id="a_node28"><a xlink:href="stoppow_8f90.html#a65317bfea168be8b9cae828b00d5ae38" target="_top" xlink:title="Calculate and output alpha particle range. ">
<polygon fill="white" stroke="black" points="265.5,-6.06606 265.5,-25.0661 382.5,-25.0661 382.5,-6.06606 265.5,-6.06606"/>
<text text-anchor="middle" x="324" y="-13.0661" font-family="Helvetica,sans-Serif" font-size="10.00">calculate_alpha_range</text>
</a>
</g>
</g>
<!-- Node1&#45;&gt;Node28 -->
<g id="edge48" class="edge"><title>Node1&#45;&gt;Node28</title>
<path fill="none" stroke="midnightblue" d="M29.451,-437.652C29.7081,-362.166 34.7806,-95.1232 93,-39.5661 142.521,7.69077 228.101,2.64587 279.742,-5.99526"/>
<polygon fill="midnightblue" stroke="midnightblue" points="25.9508,-438.058 29.4437,-448.06 32.9508,-438.063 25.9508,-438.058"/>
</g>
<!-- Node29 -->
<g id="node29" class="node"><title>Node29</title>
<g id="a_node29"><a xlink:href="talysprep_8f90.html#acbad3d82303b0aea55728ac168bc13be" target="_top" xlink:title="Writes TALYS input file. ">
<polygon fill="white" stroke="black" points="114,-448.066 114,-467.066 205,-467.066 205,-448.066 114,-448.066"/>
<text text-anchor="middle" x="159.5" y="-455.066" font-family="Helvetica,sans-Serif" font-size="10.00">write_talys_input</text>
</a>
</g>
</g>
<!-- Node1&#45;&gt;Node29 -->
<g id="edge51" class="edge"><title>Node1&#45;&gt;Node29</title>
<path fill="none" stroke="midnightblue" d="M67.3463,-457.566C81.927,-457.566 98.7128,-457.566 113.875,-457.566"/>
<polygon fill="midnightblue" stroke="midnightblue" points="67.1738,-454.066 57.1737,-457.566 67.1737,-461.066 67.1738,-454.066"/>
</g>
<!-- Node30 -->
<g id="node30" class="node"><title>Node30</title>
<g id="a_node30"><a xlink:href="talysprep_8f90.html#ab30623fafbb63833b7ca862b063e0844" target="_top" xlink:title="Writes TALYS energy file. ">
<polygon fill="white" stroke="black" points="109.5,-410.066 109.5,-429.066 209.5,-429.066 209.5,-410.066 109.5,-410.066"/>
<text text-anchor="middle" x="159.5" y="-417.066" font-family="Helvetica,sans-Serif" font-size="10.00">write_talys_erange</text>
</a>
</g>
</g>
<!-- Node1&#45;&gt;Node30 -->
<g id="edge53" class="edge"><title>Node1&#45;&gt;Node30</title>
<path fill="none" stroke="midnightblue" d="M67.0282,-446.28C75.5621,-443.73 84.5904,-441.044 93,-438.566 103.563,-435.454 115.095,-432.095 125.499,-429.08"/>
<polygon fill="midnightblue" stroke="midnightblue" points="65.8799,-442.97 57.3039,-449.192 67.8877,-449.676 65.8799,-442.97"/>
</g>
<!-- Node3 -->
<g id="node3" class="node"><title>Node3</title>
<g id="a_node3"><a xlink:href="decchains_8f90.html#a4fcdff641fab56d3f1873338894797d0" target="_top" xlink:title="Top subroutine to set up decay chains. ">
<polygon fill="white" stroke="black" points="428,-680.066 428,-699.066 536,-699.066 536,-680.066 428,-680.066"/>
<text text-anchor="middle" x="482" y="-687.066" font-family="Helvetica,sans-Serif" font-size="10.00">setup_decay_chains</text>
</a>
</g>
</g>
<!-- Node2&#45;&gt;Node3 -->
<g id="edge2" class="edge"><title>Node2&#45;&gt;Node3</title>
<path fill="none" stroke="midnightblue" d="M226.191,-874.782C273.976,-867.239 338.375,-851.445 386,-818.566 432.693,-786.33 465.295,-723.554 476.613,-699.381"/>
<polygon fill="midnightblue" stroke="midnightblue" points="225.63,-871.327 216.259,-876.269 226.667,-878.249 225.63,-871.327"/>
</g>
<!-- Node2&#45;&gt;Node5 -->
<g id="edge4" class="edge"><title>Node2&#45;&gt;Node5</title>
<path fill="none" stroke="midnightblue" d="M212.614,-862.59C217.183,-860.651 221.701,-858.632 226,-856.566 256.281,-842.015 289.66,-821.286 308.304,-809.25"/>
<polygon fill="midnightblue" stroke="midnightblue" points="211.142,-859.41 203.218,-866.444 213.799,-865.887 211.142,-859.41"/>
</g>
<!-- Node4 -->
<g id="node4" class="node"><title>Node4</title>
<g id="a_node4"><a xlink:href="argon39_8f90.html#a53921723df12bf3ddfe3fd2c80826bcb" target="_top" xlink:title="Main program. ">
<polygon fill="white" stroke="black" points="578,-312.066 578,-331.066 631,-331.066 631,-312.066 578,-312.066"/>
<text text-anchor="middle" x="604.5" y="-319.066" font-family="Helvetica,sans-Serif" font-size="10.00">argon39</text>
</a>
</g>
</g>
<!-- Node3&#45;&gt;Node4 -->
<g id="edge3" class="edge"><title>Node3&#45;&gt;Node4</title>
<path fill="none" stroke="midnightblue" d="M525.989,-675.281C532.098,-671.641 537.74,-667.131 542,-661.566 583.474,-607.384 599.803,-380.991 602.925,-331.255"/>
<polygon fill="midnightblue" stroke="midnightblue" points="524.095,-672.32 516.811,-680.013 527.303,-678.541 524.095,-672.32"/>
</g>
<!-- Node6&#45;&gt;Node3 -->
<g id="edge6" class="edge"><title>Node6&#45;&gt;Node3</title>
<path fill="none" stroke="midnightblue" d="M378.897,-711.819C397.933,-707.671 419.092,-703.059 437.189,-699.115"/>
<polygon fill="midnightblue" stroke="midnightblue" points="377.895,-708.455 368.87,-714.005 379.386,-715.295 377.895,-708.455"/>
</g>
<!-- Node7&#45;&gt;Node3 -->
<g id="edge8" class="edge"><title>Node7&#45;&gt;Node3</title>
<path fill="none" stroke="midnightblue" d="M396.232,-687.393C406.767,-687.663 417.469,-687.937 427.559,-688.196"/>
<polygon fill="midnightblue" stroke="midnightblue" points="396.294,-683.893 386.208,-687.135 396.115,-690.891 396.294,-683.893"/>
</g>
<!-- Node8&#45;&gt;Node4 -->
<g id="edge10" class="edge"><title>Node8&#45;&gt;Node4</title>
<path fill="none" stroke="midnightblue" d="M232.475,-563.428C278.19,-556.248 337.639,-543.108 386,-519.566 484.712,-471.514 571.03,-364.517 596.146,-331.478"/>
<polygon fill="midnightblue" stroke="midnightblue" points="231.715,-560.003 222.349,-564.956 232.76,-566.924 231.715,-560.003"/>
</g>
<!-- Node8&#45;&gt;Node9 -->
<g id="edge11" class="edge"><title>Node8&#45;&gt;Node9</title>
<path fill="none" stroke="midnightblue" d="M210.095,-558.83C215.544,-556.945 220.945,-554.857 226,-552.566 243.294,-544.73 245.394,-538.771 262,-529.566 274.717,-522.517 289.426,-515.492 301.214,-510.123"/>
<polygon fill="midnightblue" stroke="midnightblue" points="208.735,-555.591 200.298,-561.999 210.89,-562.251 208.735,-555.591"/>
</g>
<!-- Node10&#45;&gt;Node4 -->
<g id="edge13" class="edge"><title>Node10&#45;&gt;Node4</title>
<path fill="none" stroke="midnightblue" d="M515.142,-628.081C525.115,-622.123 535.249,-614.301 542,-604.566 605.174,-513.461 605.147,-369.345 603.925,-331.127"/>
<polygon fill="midnightblue" stroke="midnightblue" points="513.21,-625.149 506.129,-633.03 516.579,-631.285 513.21,-625.149"/>
</g>
<!-- Node11&#45;&gt;Node6 -->
<g id="edge15" class="edge"><title>Node11&#45;&gt;Node6</title>
<path fill="none" stroke="midnightblue" d="M211.371,-749.67C234.212,-744.329 260.795,-738.112 282.289,-733.086"/>
<polygon fill="midnightblue" stroke="midnightblue" points="210.446,-746.292 201.506,-751.977 212.04,-753.108 210.446,-746.292"/>
</g>
<!-- Node12&#45;&gt;Node4 -->
<g id="edge17" class="edge"><title>Node12&#45;&gt;Node4</title>
<path fill="none" stroke="midnightblue" d="M546.673,-331.941C557.691,-329.93 568.555,-327.946 577.786,-326.261"/>
<polygon fill="midnightblue" stroke="midnightblue" points="545.764,-328.549 536.555,-333.788 547.021,-335.435 545.764,-328.549"/>
</g>
<!-- Node13&#45;&gt;Node4 -->
<g id="edge19" class="edge"><title>Node13&#45;&gt;Node4</title>
<path fill="none" stroke="midnightblue" d="M394.767,-390.656C438.425,-390.306 495.087,-385.603 542,-367.566 562.908,-359.527 582.86,-342.229 594.107,-331.286"/>
<polygon fill="midnightblue" stroke="midnightblue" points="394.528,-387.156 384.53,-390.661 394.531,-394.156 394.528,-387.156"/>
</g>
<!-- Node14&#45;&gt;Node5 -->
<g id="edge22" class="edge"><title>Node14&#45;&gt;Node5</title>
<path fill="none" stroke="midnightblue" d="M200.962,-537.971C210.316,-540.809 219.438,-545.349 226,-552.566 283.817,-616.159 220.549,-667.276 262,-742.566 273.115,-762.754 293.954,-779.853 308.151,-789.912"/>
<polygon fill="midnightblue" stroke="midnightblue" points="201.772,-534.566 191.227,-535.588 200.108,-541.365 201.772,-534.566"/>
</g>
<!-- Node14&#45;&gt;Node9 -->
<g id="edge23" class="edge"><title>Node14&#45;&gt;Node9</title>
<path fill="none" stroke="midnightblue" d="M201.022,-525.337C230.409,-519.369 269.383,-511.454 295.282,-506.195"/>
<polygon fill="midnightblue" stroke="midnightblue" points="200.168,-521.939 191.065,-527.359 201.562,-528.799 200.168,-521.939"/>
</g>
<!-- Node14&#45;&gt;Node13 -->
<g id="edge21" class="edge"><title>Node14&#45;&gt;Node13</title>
<path fill="none" stroke="midnightblue" d="M179.586,-517.188C192.715,-505.866 210.509,-490.409 226,-476.566 257.868,-448.088 294.937,-413.726 312.604,-397.271"/>
<polygon fill="midnightblue" stroke="midnightblue" points="177,-514.796 171.704,-523.973 181.566,-520.102 177,-514.796"/>
</g>
<!-- Node15&#45;&gt;Node4 -->
<g id="edge25" class="edge"><title>Node15&#45;&gt;Node4</title>
<path fill="none" stroke="midnightblue" d="M532.772,-308.653C548.238,-311.477 564.655,-314.474 577.774,-316.869"/>
<polygon fill="midnightblue" stroke="midnightblue" points="533.256,-305.184 522.79,-306.831 531.999,-312.07 533.256,-305.184"/>
</g>
<!-- Node16&#45;&gt;Node5 -->
<g id="edge28" class="edge"><title>Node16&#45;&gt;Node5</title>
<path fill="none" stroke="midnightblue" d="M211.501,-825.64C237.306,-819.605 267.859,-812.46 290.451,-807.177"/>
<polygon fill="midnightblue" stroke="midnightblue" points="210.446,-822.292 201.506,-827.977 212.04,-829.108 210.446,-822.292"/>
</g>
<!-- Node17&#45;&gt;Node4 -->
<g id="edge30" class="edge"><title>Node17&#45;&gt;Node4</title>
<path fill="none" stroke="midnightblue" d="M236.134,-601.064C322.657,-587.268 462.587,-551.84 542,-462.566 578.388,-421.66 595.935,-355.851 601.483,-331.254"/>
<polygon fill="midnightblue" stroke="midnightblue" points="235.468,-597.625 226.115,-602.603 236.531,-604.544 235.468,-597.625"/>
</g>
<!-- Node17&#45;&gt;Node5 -->
<g id="edge31" class="edge"><title>Node17&#45;&gt;Node5</title>
<path fill="none" stroke="midnightblue" d="M172.81,-627.61C191.069,-653.907 226.956,-703.844 262,-742.566 278.145,-760.405 299.001,-779.076 311.669,-789.999"/>
<polygon fill="midnightblue" stroke="midnightblue" points="175.674,-625.598 167.117,-619.351 169.911,-629.571 175.674,-625.598"/>
</g>
<!-- Node17&#45;&gt;Node9 -->
<g id="edge32" class="edge"><title>Node17&#45;&gt;Node9</title>
<path fill="none" stroke="midnightblue" d="M213.528,-596.542C217.854,-594.776 222.069,-592.792 226,-590.566 264.583,-568.723 300.122,-528.661 315.278,-510.266"/>
<polygon fill="midnightblue" stroke="midnightblue" points="212.123,-593.329 203.946,-600.066 214.54,-599.899 212.123,-593.329"/>
</g>
<!-- Node19 -->
<g id="node19" class="node"><title>Node19</title>
<g id="a_node19"><a xlink:href="mcnp6prep_8f90.html#af0e37fb4a5ad0ed1a8cb19f09d6da825" target="_top" xlink:title="This program prepares input files and batch execution file for running MCNP6. ">
<polygon fill="white" stroke="black" points="290.5,-258.066 290.5,-277.066 357.5,-277.066 357.5,-258.066 290.5,-258.066"/>
<text text-anchor="middle" x="324" y="-265.066" font-family="Helvetica,sans-Serif" font-size="10.00">mcnp6prep</text>
</a>
</g>
</g>
<!-- Node18&#45;&gt;Node19 -->
<g id="edge34" class="edge"><title>Node18&#45;&gt;Node19</title>
<path fill="none" stroke="midnightblue" d="M219.726,-267.566C243.581,-267.566 270.176,-267.566 290.403,-267.566"/>
<polygon fill="midnightblue" stroke="midnightblue" points="219.696,-264.066 209.696,-267.566 219.696,-271.066 219.696,-264.066"/>
</g>
<!-- Node20&#45;&gt;Node4 -->
<g id="edge36" class="edge"><title>Node20&#45;&gt;Node4</title>
<path fill="none" stroke="midnightblue" d="M508.361,-260.217C518.849,-266.377 531.085,-273.697 542,-280.566 558.508,-290.955 577.094,-303.461 589.47,-311.908"/>
<polygon fill="midnightblue" stroke="midnightblue" points="510.072,-257.163 499.671,-255.142 506.541,-263.208 510.072,-257.163"/>
</g>
<!-- Node22 -->
<g id="node22" class="node"><title>Node22</title>
<g id="a_node22"><a xlink:href="neutron_8f90.html#aee8287f8ab14cf717b431e223ad40d28" target="_top" xlink:title="Tabulates TALYS differential neutron production function. ">
<polygon fill="white" stroke="black" points="271,-170.566 271,-200.566 377,-200.566 377,-170.566 271,-170.566"/>
<text text-anchor="start" x="279" y="-188.566" font-family="Helvetica,sans-Serif" font-size="10.00">tabulate_differential</text>
<text text-anchor="middle" x="324" y="-177.566" font-family="Helvetica,sans-Serif" font-size="10.00">_neutron_prod_func</text>
</a>
</g>
</g>
<!-- Node21&#45;&gt;Node22 -->
<g id="edge38" class="edge"><title>Node21&#45;&gt;Node22</title>
<path fill="none" stroke="midnightblue" d="M220.652,-185.566C237.128,-185.566 254.847,-185.566 270.836,-185.566"/>
<polygon fill="midnightblue" stroke="midnightblue" points="220.581,-182.066 210.581,-185.566 220.581,-189.066 220.581,-182.066"/>
</g>
<!-- Node23 -->
<g id="node23" class="node"><title>Node23</title>
<g id="a_node23"><a xlink:href="neutron_8f90.html#ac9afffbf2d4d8afc896dcbe976991b28" target="_top" xlink:title="Top subroutine to calculate (a,n) neutron energy spectra from each decay chain. ">
<polygon fill="white" stroke="black" points="426,-170.566 426,-200.566 538,-200.566 538,-170.566 426,-170.566"/>
<text text-anchor="start" x="434" y="-188.566" font-family="Helvetica,sans-Serif" font-size="10.00">calculate_an_neutron</text>
<text text-anchor="middle" x="482" y="-177.566" font-family="Helvetica,sans-Serif" font-size="10.00">_spectrum</text>
</a>
</g>
</g>
<!-- Node22&#45;&gt;Node23 -->
<g id="edge39" class="edge"><title>Node22&#45;&gt;Node23</title>
<path fill="none" stroke="midnightblue" d="M387.416,-185.566C400.117,-185.566 413.393,-185.566 425.822,-185.566"/>
<polygon fill="midnightblue" stroke="midnightblue" points="387.38,-182.066 377.38,-185.566 387.38,-189.066 387.38,-182.066"/>
</g>
<!-- Node23&#45;&gt;Node4 -->
<g id="edge40" class="edge"><title>Node23&#45;&gt;Node4</title>
<path fill="none" stroke="midnightblue" d="M517.706,-206.346C526.172,-212.285 534.844,-219.171 542,-226.566 568.233,-253.674 589.71,-293.557 598.809,-311.805"/>
<polygon fill="midnightblue" stroke="midnightblue" points="519.622,-203.417 509.371,-200.741 515.716,-209.226 519.622,-203.417"/>
</g>
<!-- Node25 -->
<g id="node25" class="node"><title>Node25</title>
<g id="a_node25"><a xlink:href="neutron_8f90.html#a5110672e8691955a1f3abff1f54c4039" target="_top" xlink:title="Top subroutine to calculate (a,n) neutron yield from each alpha decay branch of each chain...">
<polygon fill="white" stroke="black" points="426,-102.566 426,-132.566 538,-132.566 538,-102.566 426,-102.566"/>
<text text-anchor="start" x="434" y="-120.566" font-family="Helvetica,sans-Serif" font-size="10.00">calculate_an_neutron</text>
<text text-anchor="middle" x="482" y="-109.566" font-family="Helvetica,sans-Serif" font-size="10.00">_yield</text>
</a>
</g>
</g>
<!-- Node24&#45;&gt;Node25 -->
<g id="edge42" class="edge"><title>Node24&#45;&gt;Node25</title>
<path fill="none" stroke="midnightblue" d="M388.862,-105.754C401.145,-107.328 413.912,-108.965 425.889,-110.501"/>
<polygon fill="midnightblue" stroke="midnightblue" points="389.05,-102.249 378.686,-104.449 388.16,-109.192 389.05,-102.249"/>
</g>
<!-- Node25&#45;&gt;Node4 -->
<g id="edge43" class="edge"><title>Node25&#45;&gt;Node4</title>
<path fill="none" stroke="midnightblue" d="M518.583,-138.432C527.109,-144.707 535.59,-152.185 542,-160.566 579.81,-210 596.778,-285.389 601.812,-311.922"/>
<polygon fill="midnightblue" stroke="midnightblue" points="520.33,-135.385 510.116,-132.569 516.345,-141.139 520.33,-135.385"/>
</g>
<!-- Node26&#45;&gt;Node23 -->
<g id="edge45" class="edge"><title>Node26&#45;&gt;Node23</title>
<path fill="none" stroke="midnightblue" d="M368.651,-153.878C386.937,-159.035 408.371,-165.081 427.586,-170.501"/>
<polygon fill="midnightblue" stroke="midnightblue" points="369.424,-150.46 358.85,-151.113 367.524,-157.197 369.424,-150.46"/>
</g>
<!-- Node27&#45;&gt;Node4 -->
<g id="edge47" class="edge"><title>Node27&#45;&gt;Node4</title>
<path fill="none" stroke="midnightblue" d="M523.937,-77.9232C530.716,-81.8043 537.116,-86.6263 542,-92.5661 598.735,-161.566 603.475,-278.131 603.603,-312.045"/>
<polygon fill="midnightblue" stroke="midnightblue" points="525.068,-74.574 514.563,-73.1973 521.917,-80.8245 525.068,-74.574"/>
</g>
<!-- Node28&#45;&gt;Node4 -->
<g id="edge49" class="edge"><title>Node28&#45;&gt;Node4</title>
<path fill="none" stroke="midnightblue" d="M392.98,-5.93436C440.572,-3.20004 502.477,-8.29048 542,-44.5661 582.828,-82.0401 599.395,-267.618 602.809,-312.013"/>
<polygon fill="midnightblue" stroke="midnightblue" points="392.479,-2.46083 382.749,-6.65342 392.97,-9.4436 392.479,-2.46083"/>
</g>
<!-- Node29&#45;&gt;Node9 -->
<g id="edge52" class="edge"><title>Node29&#45;&gt;Node9</title>
<path fill="none" stroke="midnightblue" d="M206.368,-469.703C235.035,-477.289 271.004,-486.807 295.362,-493.253"/>
<polygon fill="midnightblue" stroke="midnightblue" points="207.127,-466.284 196.564,-467.109 205.336,-473.051 207.127,-466.284"/>
</g>
<!-- Node30&#45;&gt;Node9 -->
<g id="edge54" class="edge"><title>Node30&#45;&gt;Node9</title>
<path fill="none" stroke="midnightblue" d="M210.096,-432.302C215.545,-434.186 220.945,-436.275 226,-438.566 258.403,-453.252 292.641,-477.49 310.497,-490.896"/>
<polygon fill="midnightblue" stroke="midnightblue" points="210.89,-428.88 200.299,-429.132 208.736,-435.54 210.89,-428.88"/>
</g>
</g>
</svg>
