<?xml version="1.0" encoding="UTF-8" standalone="no"?>
<!DOCTYPE svg PUBLIC "-//W3C//DTD SVG 1.1//EN"
 "http://www.w3.org/Graphics/SVG/1.1/DTD/svg11.dtd">
<!-- Generated by graphviz version 2.38.0 (20140413.2041)
 -->
<!-- Title: get_inputs Pages: 1 -->
<svg width="317pt" height="104pt"
 viewBox="0.00 0.00 317.00 104.00" xmlns="http://www.w3.org/2000/svg" xmlns:xlink="http://www.w3.org/1999/xlink">
<g id="graph0" class="graph" transform="scale(1 1) rotate(0) translate(4 100)">
<title>get_inputs</title>
<polygon fill="white" stroke="none" points="-4,4 -4,-100 313,-100 313,4 -4,4"/>
<!-- Node1 -->
<g id="node1" class="node"><title>Node1</title>
<polygon fill="#bfbfbf" stroke="black" points="0,-38.5 0,-57.5 63,-57.5 63,-38.5 0,-38.5"/>
<text text-anchor="middle" x="31.5" y="-45.5" font-family="Helvetica,sans-Serif" font-size="10.00">get_inputs</text>
</g>
<!-- Node2 -->
<g id="node2" class="node"><title>Node2</title>
<g id="a_node2"><a xlink:href="iostuff_8f90.html#a6d3fdd9af1f968e4b407c599e712c2dc" target="_top" xlink:title="Starts outputfile after calling get_inputs. ">
<polygon fill="white" stroke="black" points="99,-76.5 99,-95.5 220,-95.5 220,-76.5 99,-76.5"/>
<text text-anchor="middle" x="159.5" y="-83.5" font-family="Helvetica,sans-Serif" font-size="10.00">get_inputs_start_output</text>
</a>
</g>
</g>
<!-- Node1&#45;&gt;Node2 -->
<g id="edge1" class="edge"><title>Node1&#45;&gt;Node2</title>
<path fill="none" stroke="midnightblue" d="M72.9433,-60.1972C90.4373,-65.4732 110.605,-71.5554 126.964,-76.4891"/>
<polygon fill="midnightblue" stroke="midnightblue" points="73.5858,-56.7353 63.0011,-57.1987 71.5645,-63.4372 73.5858,-56.7353"/>
</g>
<!-- Node4 -->
<g id="node4" class="node"><title>Node4</title>
<g id="a_node4"><a xlink:href="mcnp6extract_8f90.html#af0e37fb4a5ad0ed1a8cb19f09d6da825" target="_top" xlink:title="This program extracts 39Ar values from MCNP6 output files. ">
<polygon fill="white" stroke="black" points="126,-38.5 126,-57.5 193,-57.5 193,-38.5 126,-38.5"/>
<text text-anchor="middle" x="159.5" y="-45.5" font-family="Helvetica,sans-Serif" font-size="10.00">mcnp6prep</text>
</a>
</g>
</g>
<!-- Node1&#45;&gt;Node4 -->
<g id="edge3" class="edge"><title>Node1&#45;&gt;Node4</title>
<path fill="none" stroke="midnightblue" d="M73.1906,-48C90.1544,-48 109.596,-48 125.631,-48"/>
<polygon fill="midnightblue" stroke="midnightblue" points="73.0011,-44.5001 63.0011,-48 73.0011,-51.5001 73.0011,-44.5001"/>
</g>
<!-- Node5 -->
<g id="node5" class="node"><title>Node5</title>
<g id="a_node5"><a xlink:href="talysprep_8f90.html#a5e6c4dd9c50d176cf07a5dffda6ffa74" target="_top" xlink:title="This program prepares input files and batch execution file for running TALYS. ">
<polygon fill="white" stroke="black" points="131,-0.5 131,-19.5 188,-19.5 188,-0.5 131,-0.5"/>
<text text-anchor="middle" x="159.5" y="-7.5" font-family="Helvetica,sans-Serif" font-size="10.00">talysprep</text>
</a>
</g>
</g>
<!-- Node1&#45;&gt;Node5 -->
<g id="edge4" class="edge"><title>Node1&#45;&gt;Node5</title>
<path fill="none" stroke="midnightblue" d="M72.5934,-35.9084C91.5811,-30.1819 113.783,-23.4862 130.859,-18.3363"/>
<polygon fill="midnightblue" stroke="midnightblue" points="71.5645,-32.5628 63.0011,-38.8013 73.5858,-39.2647 71.5645,-32.5628"/>
</g>
<!-- Node3 -->
<g id="node3" class="node"><title>Node3</title>
<g id="a_node3"><a xlink:href="argon39_8f90.html#a53921723df12bf3ddfe3fd2c80826bcb" target="_top" xlink:title="Main program. ">
<polygon fill="white" stroke="black" points="256,-76.5 256,-95.5 309,-95.5 309,-76.5 256,-76.5"/>
<text text-anchor="middle" x="282.5" y="-83.5" font-family="Helvetica,sans-Serif" font-size="10.00">argon39</text>
</a>
</g>
</g>
<!-- Node2&#45;&gt;Node3 -->
<g id="edge2" class="edge"><title>Node2&#45;&gt;Node3</title>
<path fill="none" stroke="midnightblue" d="M230.513,-86C239.498,-86 248.195,-86 255.786,-86"/>
<polygon fill="midnightblue" stroke="midnightblue" points="230.291,-82.5001 220.291,-86 230.291,-89.5001 230.291,-82.5001"/>
</g>
</g>
</svg>
