<?xml version="1.0" encoding="UTF-8" standalone="no"?>
<!DOCTYPE svg PUBLIC "-//W3C//DTD SVG 1.1//EN"
 "http://www.w3.org/Graphics/SVG/1.1/DTD/svg11.dtd">
<!-- Generated by graphviz version 2.38.0 (20140413.2041)
 -->
<!-- Title: get_inputs_start_output Pages: 1 -->
<svg width="360pt" height="78pt"
 viewBox="0.00 0.00 360.00 77.50" xmlns="http://www.w3.org/2000/svg" xmlns:xlink="http://www.w3.org/1999/xlink">
<g id="graph0" class="graph" transform="scale(1 1) rotate(0) translate(4 73.5)">
<title>get_inputs_start_output</title>
<polygon fill="white" stroke="none" points="-4,4 -4,-73.5 356,-73.5 356,4 -4,4"/>
<!-- Node1 -->
<g id="node1" class="node"><title>Node1</title>
<polygon fill="#bfbfbf" stroke="black" points="0,-19.5 0,-38.5 121,-38.5 121,-19.5 0,-19.5"/>
<text text-anchor="middle" x="60.5" y="-26.5" font-family="Helvetica,sans-Serif" font-size="10.00">get_inputs_start_output</text>
</g>
<!-- Node2 -->
<g id="node2" class="node"><title>Node2</title>
<g id="a_node2"><a xlink:href="iostuff_8f90.html#a38e224d9341ed418ce42515c2cad9052" target="_top" xlink:title="Gets inputs from inputfile. ">
<polygon fill="white" stroke="black" points="157,-38.5 157,-57.5 220,-57.5 220,-38.5 157,-38.5"/>
<text text-anchor="middle" x="188.5" y="-45.5" font-family="Helvetica,sans-Serif" font-size="10.00">get_inputs</text>
</a>
</g>
</g>
<!-- Node1&#45;&gt;Node2 -->
<g id="edge1" class="edge"><title>Node1&#45;&gt;Node2</title>
<path fill="none" stroke="midnightblue" d="M121.179,-37.9992C129.856,-39.3076 138.616,-40.6286 146.801,-41.8628"/>
<polygon fill="midnightblue" stroke="midnightblue" points="146.399,-45.3417 156.809,-43.372 147.443,-38.42 146.399,-45.3417"/>
</g>
<!-- Node4 -->
<g id="node4" class="node"><title>Node4</title>
<g id="a_node4"><a xlink:href="iostuff_8f90.html#af759d00c9a49b8f430c17756db8dabbb" target="_top" xlink:title="Opens external file including error handling. ">
<polygon fill="white" stroke="black" points="275.5,-0.5 275.5,-19.5 332.5,-19.5 332.5,-0.5 275.5,-0.5"/>
<text text-anchor="middle" x="304" y="-7.5" font-family="Helvetica,sans-Serif" font-size="10.00">open_file</text>
</a>
</g>
</g>
<!-- Node1&#45;&gt;Node4 -->
<g id="edge4" class="edge"><title>Node1&#45;&gt;Node4</title>
<path fill="none" stroke="midnightblue" d="M121.197,-24.3034C166.138,-20.7676 226.391,-16.0272 264.964,-12.9925"/>
<polygon fill="midnightblue" stroke="midnightblue" points="265.543,-16.4578 275.238,-12.1842 264.994,-9.47937 265.543,-16.4578"/>
</g>
<!-- Node3 -->
<g id="node3" class="node"><title>Node3</title>
<g id="a_node3"><a xlink:href="iostuff_8f90.html#ad77856a6e12b6bafdb9db600d0a26385" target="_top" xlink:title="Subroutine that extracts inputfile name from commnad line. ">
<polygon fill="white" stroke="black" points="256,-39 256,-69 352,-69 352,-39 256,-39"/>
<text text-anchor="start" x="264" y="-57" font-family="Helvetica,sans-Serif" font-size="10.00">get_inputfile_from</text>
<text text-anchor="middle" x="304" y="-46" font-family="Helvetica,sans-Serif" font-size="10.00">_command_line</text>
</a>
</g>
</g>
<!-- Node2&#45;&gt;Node3 -->
<g id="edge2" class="edge"><title>Node2&#45;&gt;Node3</title>
<path fill="none" stroke="midnightblue" d="M220.215,-49.6237C228.048,-50.0378 236.726,-50.4965 245.429,-50.9566"/>
<polygon fill="midnightblue" stroke="midnightblue" points="245.439,-54.4619 255.609,-51.4948 245.808,-47.4717 245.439,-54.4619"/>
</g>
<!-- Node2&#45;&gt;Node4 -->
<g id="edge3" class="edge"><title>Node2&#45;&gt;Node4</title>
<path fill="none" stroke="midnightblue" d="M218.141,-38.411C232.47,-33.6134 249.999,-27.7449 265.397,-22.5896"/>
<polygon fill="midnightblue" stroke="midnightblue" points="266.782,-25.817 275.153,-19.3232 264.559,-19.1792 266.782,-25.817"/>
</g>
</g>
</svg>
