<?xml version="1.0" encoding="UTF-8" standalone="no"?>
<!DOCTYPE svg PUBLIC "-//W3C//DTD SVG 1.1//EN"
 "http://www.w3.org/Graphics/SVG/1.1/DTD/svg11.dtd">
<!-- Generated by graphviz version 2.38.0 (20140413.2041)
 -->
<!-- Title: get_inputfile_from_command_line Pages: 1 -->
<svg width="449pt" height="104pt"
 viewBox="0.00 0.00 449.00 104.00" xmlns="http://www.w3.org/2000/svg" xmlns:xlink="http://www.w3.org/1999/xlink">
<g id="graph0" class="graph" transform="scale(1 1) rotate(0) translate(4 100)">
<title>get_inputfile_from_command_line</title>
<polygon fill="white" stroke="none" points="-4,4 -4,-100 445,-100 445,4 -4,4"/>
<!-- Node1 -->
<g id="node1" class="node"><title>Node1</title>
<polygon fill="#bfbfbf" stroke="black" points="0,-33 0,-63 96,-63 96,-33 0,-33"/>
<text text-anchor="start" x="8" y="-51" font-family="Helvetica,sans-Serif" font-size="10.00">get_inputfile_from</text>
<text text-anchor="middle" x="48" y="-40" font-family="Helvetica,sans-Serif" font-size="10.00">_command_line</text>
</g>
<!-- Node2 -->
<g id="node2" class="node"><title>Node2</title>
<g id="a_node2"><a xlink:href="iostuff_8f90.html#a38e224d9341ed418ce42515c2cad9052" target="_top" xlink:title="Gets inputs from inputfile. ">
<polygon fill="white" stroke="black" points="132,-38.5 132,-57.5 195,-57.5 195,-38.5 132,-38.5"/>
<text text-anchor="middle" x="163.5" y="-45.5" font-family="Helvetica,sans-Serif" font-size="10.00">get_inputs</text>
</a>
</g>
</g>
<!-- Node1&#45;&gt;Node2 -->
<g id="edge1" class="edge"><title>Node1&#45;&gt;Node2</title>
<path fill="none" stroke="midnightblue" d="M106.414,-48C115.194,-48 123.953,-48 131.85,-48"/>
<polygon fill="midnightblue" stroke="midnightblue" points="106.148,-44.5001 96.1482,-48 106.148,-51.5001 106.148,-44.5001"/>
</g>
<!-- Node3 -->
<g id="node3" class="node"><title>Node3</title>
<g id="a_node3"><a xlink:href="iostuff_8f90.html#a6d3fdd9af1f968e4b407c599e712c2dc" target="_top" xlink:title="Starts outputfile after calling get_inputs. ">
<polygon fill="white" stroke="black" points="231,-76.5 231,-95.5 352,-95.5 352,-76.5 231,-76.5"/>
<text text-anchor="middle" x="291.5" y="-83.5" font-family="Helvetica,sans-Serif" font-size="10.00">get_inputs_start_output</text>
</a>
</g>
</g>
<!-- Node2&#45;&gt;Node3 -->
<g id="edge2" class="edge"><title>Node2&#45;&gt;Node3</title>
<path fill="none" stroke="midnightblue" d="M204.943,-60.1972C222.437,-65.4732 242.605,-71.5554 258.964,-76.4891"/>
<polygon fill="midnightblue" stroke="midnightblue" points="205.586,-56.7353 195.001,-57.1987 203.565,-63.4372 205.586,-56.7353"/>
</g>
<!-- Node5 -->
<g id="node5" class="node"><title>Node5</title>
<g id="a_node5"><a xlink:href="mcnp6extract_8f90.html#af0e37fb4a5ad0ed1a8cb19f09d6da825" target="_top" xlink:title="This program extracts 39Ar values from MCNP6 output files. ">
<polygon fill="white" stroke="black" points="258,-38.5 258,-57.5 325,-57.5 325,-38.5 258,-38.5"/>
<text text-anchor="middle" x="291.5" y="-45.5" font-family="Helvetica,sans-Serif" font-size="10.00">mcnp6prep</text>
</a>
</g>
</g>
<!-- Node2&#45;&gt;Node5 -->
<g id="edge4" class="edge"><title>Node2&#45;&gt;Node5</title>
<path fill="none" stroke="midnightblue" d="M205.191,-48C222.154,-48 241.596,-48 257.631,-48"/>
<polygon fill="midnightblue" stroke="midnightblue" points="205.001,-44.5001 195.001,-48 205.001,-51.5001 205.001,-44.5001"/>
</g>
<!-- Node6 -->
<g id="node6" class="node"><title>Node6</title>
<g id="a_node6"><a xlink:href="talysprep_8f90.html#a5e6c4dd9c50d176cf07a5dffda6ffa74" target="_top" xlink:title="This program prepares input files and batch execution file for running TALYS. ">
<polygon fill="white" stroke="black" points="263,-0.5 263,-19.5 320,-19.5 320,-0.5 263,-0.5"/>
<text text-anchor="middle" x="291.5" y="-7.5" font-family="Helvetica,sans-Serif" font-size="10.00">talysprep</text>
</a>
</g>
</g>
<!-- Node2&#45;&gt;Node6 -->
<g id="edge5" class="edge"><title>Node2&#45;&gt;Node6</title>
<path fill="none" stroke="midnightblue" d="M204.593,-35.9084C223.581,-30.1819 245.783,-23.4862 262.859,-18.3363"/>
<polygon fill="midnightblue" stroke="midnightblue" points="203.565,-32.5628 195.001,-38.8013 205.586,-39.2647 203.565,-32.5628"/>
</g>
<!-- Node4 -->
<g id="node4" class="node"><title>Node4</title>
<g id="a_node4"><a xlink:href="argon39_8f90.html#a53921723df12bf3ddfe3fd2c80826bcb" target="_top" xlink:title="Main program. ">
<polygon fill="white" stroke="black" points="388,-76.5 388,-95.5 441,-95.5 441,-76.5 388,-76.5"/>
<text text-anchor="middle" x="414.5" y="-83.5" font-family="Helvetica,sans-Serif" font-size="10.00">argon39</text>
</a>
</g>
</g>
<!-- Node3&#45;&gt;Node4 -->
<g id="edge3" class="edge"><title>Node3&#45;&gt;Node4</title>
<path fill="none" stroke="midnightblue" d="M362.513,-86C371.498,-86 380.195,-86 387.786,-86"/>
<polygon fill="midnightblue" stroke="midnightblue" points="362.291,-82.5001 352.291,-86 362.291,-89.5001 362.291,-82.5001"/>
</g>
</g>
</svg>
