<?xml version="1.0" encoding="UTF-8" standalone="no"?>
<!DOCTYPE svg PUBLIC "-//W3C//DTD SVG 1.1//EN"
 "http://www.w3.org/Graphics/SVG/1.1/DTD/svg11.dtd">
<!-- Generated by graphviz version 2.38.0 (20140413.2041)
 -->
<!-- Title: get_requested_an_targets Pages: 1 -->
<svg width="244pt" height="104pt"
 viewBox="0.00 0.00 244.00 104.00" xmlns="http://www.w3.org/2000/svg" xmlns:xlink="http://www.w3.org/1999/xlink">
<g id="graph0" class="graph" transform="scale(1 1) rotate(0) translate(4 100)">
<title>get_requested_an_targets</title>
<polygon fill="white" stroke="none" points="-4,4 -4,-100 240,-100 240,4 -4,4"/>
<!-- Node1 -->
<g id="node1" class="node"><title>Node1</title>
<polygon fill="#bfbfbf" stroke="black" points="0,-38.5 0,-57.5 133,-57.5 133,-38.5 0,-38.5"/>
<text text-anchor="middle" x="66.5" y="-45.5" font-family="Helvetica,sans-Serif" font-size="10.00">get_requested_an_targets</text>
</g>
<!-- Node2 -->
<g id="node2" class="node"><title>Node2</title>
<g id="a_node2"><a xlink:href="argon39_8f90.html#a53921723df12bf3ddfe3fd2c80826bcb" target="_top" xlink:title="Main program. ">
<polygon fill="white" stroke="black" points="176,-76.5 176,-95.5 229,-95.5 229,-76.5 176,-76.5"/>
<text text-anchor="middle" x="202.5" y="-83.5" font-family="Helvetica,sans-Serif" font-size="10.00">argon39</text>
</a>
</g>
</g>
<!-- Node1&#45;&gt;Node2 -->
<g id="edge1" class="edge"><title>Node1&#45;&gt;Node2</title>
<path fill="none" stroke="midnightblue" d="M111.144,-60.3768C132.494,-66.4312 157.461,-73.5112 175.733,-78.6929"/>
<polygon fill="midnightblue" stroke="midnightblue" points="111.889,-56.9501 101.314,-57.589 109.98,-63.6845 111.889,-56.9501"/>
</g>
<!-- Node3 -->
<g id="node3" class="node"><title>Node3</title>
<g id="a_node3"><a xlink:href="mcnp6extract_8f90.html#af0e37fb4a5ad0ed1a8cb19f09d6da825" target="_top" xlink:title="This program extracts 39Ar values from MCNP6 output files. ">
<polygon fill="white" stroke="black" points="169,-38.5 169,-57.5 236,-57.5 236,-38.5 169,-38.5"/>
<text text-anchor="middle" x="202.5" y="-45.5" font-family="Helvetica,sans-Serif" font-size="10.00">mcnp6prep</text>
</a>
</g>
</g>
<!-- Node1&#45;&gt;Node3 -->
<g id="edge2" class="edge"><title>Node1&#45;&gt;Node3</title>
<path fill="none" stroke="midnightblue" d="M143.399,-48C152.274,-48 160.938,-48 168.751,-48"/>
<polygon fill="midnightblue" stroke="midnightblue" points="143.322,-44.5001 133.322,-48 143.322,-51.5001 143.322,-44.5001"/>
</g>
<!-- Node4 -->
<g id="node4" class="node"><title>Node4</title>
<g id="a_node4"><a xlink:href="talysprep_8f90.html#a5e6c4dd9c50d176cf07a5dffda6ffa74" target="_top" xlink:title="This program prepares input files and batch execution file for running TALYS. ">
<polygon fill="white" stroke="black" points="174,-0.5 174,-19.5 231,-19.5 231,-0.5 174,-0.5"/>
<text text-anchor="middle" x="202.5" y="-7.5" font-family="Helvetica,sans-Serif" font-size="10.00">talysprep</text>
</a>
</g>
</g>
<!-- Node1&#45;&gt;Node4 -->
<g id="edge3" class="edge"><title>Node1&#45;&gt;Node4</title>
<path fill="none" stroke="midnightblue" d="M111.084,-35.6403C131.618,-29.8174 155.508,-23.0426 173.572,-17.9198"/>
<polygon fill="midnightblue" stroke="midnightblue" points="109.98,-32.3155 101.314,-38.411 111.889,-39.0499 109.98,-32.3155"/>
</g>
</g>
</svg>
