<?xml version="1.0" encoding="UTF-8" standalone="no"?>
<!DOCTYPE svg PUBLIC "-//W3C//DTD SVG 1.1//EN"
 "http://www.w3.org/Graphics/SVG/1.1/DTD/svg11.dtd">
<!-- Generated by graphviz version 2.38.0 (20140413.2041)
 -->
<!-- Title: get_requested_an_targets Pages: 1 -->
<svg width="376pt" height="66pt"
 viewBox="0.00 0.00 376.00 66.00" xmlns="http://www.w3.org/2000/svg" xmlns:xlink="http://www.w3.org/1999/xlink">
<g id="graph0" class="graph" transform="scale(1 1) rotate(0) translate(4 62)">
<title>get_requested_an_targets</title>
<polygon fill="white" stroke="none" points="-4,4 -4,-62 372,-62 372,4 -4,4"/>
<!-- Node1 -->
<g id="node1" class="node"><title>Node1</title>
<polygon fill="#bfbfbf" stroke="black" points="0,-19.5 0,-38.5 133,-38.5 133,-19.5 0,-19.5"/>
<text text-anchor="middle" x="66.5" y="-26.5" font-family="Helvetica,sans-Serif" font-size="10.00">get_requested_an_targets</text>
</g>
<!-- Node2 -->
<g id="node2" class="node"><title>Node2</title>
<g id="a_node2"><a xlink:href="iostuff_8f90.html#af759d00c9a49b8f430c17756db8dabbb" target="_top" xlink:title="Opens external file including error handling. ">
<polygon fill="white" stroke="black" points="197.5,-38.5 197.5,-57.5 254.5,-57.5 254.5,-38.5 197.5,-38.5"/>
<text text-anchor="middle" x="226" y="-45.5" font-family="Helvetica,sans-Serif" font-size="10.00">open_file</text>
</a>
</g>
</g>
<!-- Node1&#45;&gt;Node2 -->
<g id="edge1" class="edge"><title>Node1&#45;&gt;Node2</title>
<path fill="none" stroke="midnightblue" d="M133.382,-36.9476C151.775,-39.1665 171.131,-41.5015 187.289,-43.4507"/>
<polygon fill="midnightblue" stroke="midnightblue" points="187.055,-46.9478 197.402,-44.6708 187.893,-39.9982 187.055,-46.9478"/>
</g>
<!-- Node3 -->
<g id="node3" class="node"><title>Node3</title>
<g id="a_node3"><a xlink:href="ensdf_8f90.html#a4572e087dca23cd61cb6b6e236aa5060" target="_top" xlink:title="Checks NUCID format. ">
<polygon fill="white" stroke="black" points="169,-0.5 169,-19.5 283,-19.5 283,-0.5 169,-0.5"/>
<text text-anchor="middle" x="226" y="-7.5" font-family="Helvetica,sans-Serif" font-size="10.00">validate_nucid_format</text>
</a>
</g>
</g>
<!-- Node1&#45;&gt;Node3 -->
<g id="edge2" class="edge"><title>Node1&#45;&gt;Node3</title>
<path fill="none" stroke="midnightblue" d="M133.382,-21.0524C141.772,-20.0403 150.362,-19.004 158.758,-17.9912"/>
<polygon fill="midnightblue" stroke="midnightblue" points="159.367,-21.4432 168.875,-16.7706 158.528,-14.4935 159.367,-21.4432"/>
</g>
<!-- Node4 -->
<g id="node4" class="node"><title>Node4</title>
<g id="a_node4"><a xlink:href="ensdf_8f90.html#ac85c1610cf6186365e8b9104254d54a0" target="_top" xlink:title="Converts all alphanumeric characters in the string to upper case. ">
<polygon fill="white" stroke="black" points="319,-0.5 319,-19.5 368,-19.5 368,-0.5 319,-0.5"/>
<text text-anchor="middle" x="343.5" y="-7.5" font-family="Helvetica,sans-Serif" font-size="10.00">upcase</text>
</a>
</g>
</g>
<!-- Node3&#45;&gt;Node4 -->
<g id="edge3" class="edge"><title>Node3&#45;&gt;Node4</title>
<path fill="none" stroke="midnightblue" d="M283.058,-10C291.85,-10 300.695,-10 308.775,-10"/>
<polygon fill="midnightblue" stroke="midnightblue" points="308.89,-13.5001 318.89,-10 308.89,-6.5001 308.89,-13.5001"/>
</g>
</g>
</svg>
