<?xml version="1.0" encoding="UTF-8" standalone="no"?>
<!DOCTYPE svg PUBLIC "-//W3C//DTD SVG 1.1//EN"
 "http://www.w3.org/Graphics/SVG/1.1/DTD/svg11.dtd">
<!-- Generated by graphviz version 2.38.0 (20140413.2041)
 -->
<!-- Title: get_inputs Pages: 1 -->
<svg width="203pt" height="78pt"
 viewBox="0.00 0.00 203.00 77.50" xmlns="http://www.w3.org/2000/svg" xmlns:xlink="http://www.w3.org/1999/xlink">
<g id="graph0" class="graph" transform="scale(1 1) rotate(0) translate(4 73.5)">
<title>get_inputs</title>
<polygon fill="white" stroke="none" points="-4,4 -4,-73.5 199,-73.5 199,4 -4,4"/>
<!-- Node1 -->
<g id="node1" class="node"><title>Node1</title>
<polygon fill="#bfbfbf" stroke="black" points="0,-22.5 0,-41.5 63,-41.5 63,-22.5 0,-22.5"/>
<text text-anchor="middle" x="31.5" y="-29.5" font-family="Helvetica,sans-Serif" font-size="10.00">get_inputs</text>
</g>
<!-- Node2 -->
<g id="node2" class="node"><title>Node2</title>
<g id="a_node2"><a xlink:href="iostuff_8f90.html#ad77856a6e12b6bafdb9db600d0a26385" target="_top" xlink:title="Subroutine that extracts inputfile name from commnad line. ">
<polygon fill="white" stroke="black" points="99,-39 99,-69 195,-69 195,-39 99,-39"/>
<text text-anchor="start" x="107" y="-57" font-family="Helvetica,sans-Serif" font-size="10.00">get_inputfile_from</text>
<text text-anchor="middle" x="147" y="-46" font-family="Helvetica,sans-Serif" font-size="10.00">_command_line</text>
</a>
</g>
</g>
<!-- Node1&#45;&gt;Node2 -->
<g id="edge1" class="edge"><title>Node1&#45;&gt;Node2</title>
<path fill="none" stroke="midnightblue" d="M63.2147,-37.9535C71.1329,-39.4883 79.9144,-41.1905 88.7131,-42.8959"/>
<polygon fill="midnightblue" stroke="midnightblue" points="88.1261,-46.3472 98.6094,-44.8142 89.4582,-39.4751 88.1261,-46.3472"/>
</g>
<!-- Node3 -->
<g id="node3" class="node"><title>Node3</title>
<g id="a_node3"><a xlink:href="iostuff_8f90.html#af759d00c9a49b8f430c17756db8dabbb" target="_top" xlink:title="Opens external file including error handling. ">
<polygon fill="white" stroke="black" points="118.5,-0.5 118.5,-19.5 175.5,-19.5 175.5,-0.5 118.5,-0.5"/>
<text text-anchor="middle" x="147" y="-7.5" font-family="Helvetica,sans-Serif" font-size="10.00">open_file</text>
</a>
</g>
</g>
<!-- Node1&#45;&gt;Node3 -->
<g id="edge2" class="edge"><title>Node1&#45;&gt;Node3</title>
<path fill="none" stroke="midnightblue" d="M63.2147,-26.0465C77.0559,-23.3636 93.5351,-20.1694 108.133,-17.3399"/>
<polygon fill="midnightblue" stroke="midnightblue" points="109.214,-20.6956 118.365,-15.3565 107.882,-13.8235 109.214,-20.6956"/>
</g>
</g>
</svg>
