<?xml version="1.0" encoding="UTF-8" standalone="no"?>
<!DOCTYPE svg PUBLIC "-//W3C//DTD SVG 1.1//EN"
 "http://www.w3.org/Graphics/SVG/1.1/DTD/svg11.dtd">
<!-- Generated by graphviz version 2.38.0 (20140413.2041)
 -->
<!-- Title: get_requested_decay_chains Pages: 1 -->
<svg width="356pt" height="66pt"
 viewBox="0.00 0.00 356.00 66.00" xmlns="http://www.w3.org/2000/svg" xmlns:xlink="http://www.w3.org/1999/xlink">
<g id="graph0" class="graph" transform="scale(1 1) rotate(0) translate(4 62)">
<title>get_requested_decay_chains</title>
<polygon fill="white" stroke="none" points="-4,4 -4,-62 352,-62 352,4 -4,4"/>
<!-- Node1 -->
<g id="node1" class="node"><title>Node1</title>
<polygon fill="#bfbfbf" stroke="black" points="0,-14 0,-44 113,-44 113,-14 0,-14"/>
<text text-anchor="start" x="8" y="-32" font-family="Helvetica,sans-Serif" font-size="10.00">get_requested_decay</text>
<text text-anchor="middle" x="56.5" y="-21" font-family="Helvetica,sans-Serif" font-size="10.00">_chains</text>
</g>
<!-- Node2 -->
<g id="node2" class="node"><title>Node2</title>
<g id="a_node2"><a xlink:href="iostuff_8f90.html#af759d00c9a49b8f430c17756db8dabbb" target="_top" xlink:title="Opens external file including error handling. ">
<polygon fill="white" stroke="black" points="177.5,-38.5 177.5,-57.5 234.5,-57.5 234.5,-38.5 177.5,-38.5"/>
<text text-anchor="middle" x="206" y="-45.5" font-family="Helvetica,sans-Serif" font-size="10.00">open_file</text>
</a>
</g>
</g>
<!-- Node1&#45;&gt;Node2 -->
<g id="edge1" class="edge"><title>Node1&#45;&gt;Node2</title>
<path fill="none" stroke="midnightblue" d="M113.263,-36.1831C131.198,-38.4934 150.645,-40.9983 166.998,-43.1049"/>
<polygon fill="midnightblue" stroke="midnightblue" points="166.886,-46.6192 177.251,-44.4255 167.78,-39.6766 166.886,-46.6192"/>
</g>
<!-- Node3 -->
<g id="node3" class="node"><title>Node3</title>
<g id="a_node3"><a xlink:href="ensdf_8f90.html#a4572e087dca23cd61cb6b6e236aa5060" target="_top" xlink:title="Checks NUCID format. ">
<polygon fill="white" stroke="black" points="149,-0.5 149,-19.5 263,-19.5 263,-0.5 149,-0.5"/>
<text text-anchor="middle" x="206" y="-7.5" font-family="Helvetica,sans-Serif" font-size="10.00">validate_nucid_format</text>
</a>
</g>
</g>
<!-- Node1&#45;&gt;Node3 -->
<g id="edge2" class="edge"><title>Node1&#45;&gt;Node3</title>
<path fill="none" stroke="midnightblue" d="M113.263,-21.8169C121.499,-20.756 130.054,-19.6541 138.481,-18.5685"/>
<polygon fill="midnightblue" stroke="midnightblue" points="139.197,-22.0053 148.668,-17.2564 138.303,-15.0627 139.197,-22.0053"/>
</g>
<!-- Node4 -->
<g id="node4" class="node"><title>Node4</title>
<g id="a_node4"><a xlink:href="ensdf_8f90.html#ac85c1610cf6186365e8b9104254d54a0" target="_top" xlink:title="Converts all alphanumeric characters in the string to upper case. ">
<polygon fill="white" stroke="black" points="299,-0.5 299,-19.5 348,-19.5 348,-0.5 299,-0.5"/>
<text text-anchor="middle" x="323.5" y="-7.5" font-family="Helvetica,sans-Serif" font-size="10.00">upcase</text>
</a>
</g>
</g>
<!-- Node3&#45;&gt;Node4 -->
<g id="edge3" class="edge"><title>Node3&#45;&gt;Node4</title>
<path fill="none" stroke="midnightblue" d="M263.058,-10C271.85,-10 280.695,-10 288.775,-10"/>
<polygon fill="midnightblue" stroke="midnightblue" points="288.89,-13.5001 298.89,-10 288.89,-6.5001 288.89,-13.5001"/>
</g>
</g>
</svg>
