<?xml version="1.0" encoding="UTF-8" standalone="no"?>
<!DOCTYPE svg PUBLIC "-//W3C//DTD SVG 1.1//EN"
 "http://www.w3.org/Graphics/SVG/1.1/DTD/svg11.dtd">
<!-- Generated by graphviz version 2.38.0 (20140413.2041)
 -->
<!-- Title: mcnp6prep Pages: 1 -->
<svg width="479pt" height="197pt"
 viewBox="0.00 0.00 479.00 197.00" xmlns="http://www.w3.org/2000/svg" xmlns:xlink="http://www.w3.org/1999/xlink">
<g id="graph0" class="graph" transform="scale(1 1) rotate(0) translate(4 193)">
<title>mcnp6prep</title>
<polygon fill="white" stroke="none" points="-4,4 -4,-193 475,-193 475,4 -4,4"/>
<!-- Node1 -->
<g id="node1" class="node"><title>Node1</title>
<polygon fill="#bfbfbf" stroke="black" points="0,-88 0,-107 67,-107 67,-88 0,-88"/>
<text text-anchor="middle" x="33.5" y="-95" font-family="Helvetica,sans-Serif" font-size="10.00">mcnp6prep</text>
</g>
<!-- Node2 -->
<g id="node2" class="node"><title>Node2</title>
<g id="a_node2"><a xlink:href="iostuff_8f90.html#a38e224d9341ed418ce42515c2cad9052" target="_top" xlink:title="Gets inputs from inputfile. ">
<polygon fill="white" stroke="black" points="138,-164 138,-183 201,-183 201,-164 138,-164"/>
<text text-anchor="middle" x="169.5" y="-171" font-family="Helvetica,sans-Serif" font-size="10.00">get_inputs</text>
</a>
</g>
</g>
<!-- Node1&#45;&gt;Node2 -->
<g id="edge1" class="edge"><title>Node1&#45;&gt;Node2</title>
<path fill="none" stroke="midnightblue" d="M43.7639,-107.412C56.1237,-120.079 79.2247,-141.874 103,-154.5 110.742,-158.611 119.483,-161.933 127.999,-164.579"/>
<polygon fill="midnightblue" stroke="midnightblue" points="127.243,-168.003 137.819,-167.381 129.163,-161.272 127.243,-168.003"/>
</g>
<!-- Node4 -->
<g id="node4" class="node"><title>Node4</title>
<g id="a_node4"><a xlink:href="iostuff_8f90.html#af759d00c9a49b8f430c17756db8dabbb" target="_top" xlink:title="Opens external file including error handling. ">
<polygon fill="white" stroke="black" points="300.5,-88 300.5,-107 357.5,-107 357.5,-88 300.5,-88"/>
<text text-anchor="middle" x="329" y="-95" font-family="Helvetica,sans-Serif" font-size="10.00">open_file</text>
</a>
</g>
</g>
<!-- Node1&#45;&gt;Node4 -->
<g id="edge13" class="edge"><title>Node1&#45;&gt;Node4</title>
<path fill="none" stroke="midnightblue" d="M67.031,-97.5C121.688,-97.5 231.665,-97.5 289.865,-97.5"/>
<polygon fill="midnightblue" stroke="midnightblue" points="290.105,-101 300.105,-97.5 290.105,-94.0001 290.105,-101"/>
</g>
<!-- Node5 -->
<g id="node5" class="node"><title>Node5</title>
<g id="a_node5"><a xlink:href="decchains_8f90.html#a846040297eef709abf3f8dac36b0bdd4" target="_top" xlink:title="Gets decays chains from input file and allocates dchain(:) array. ">
<polygon fill="white" stroke="black" points="113,-0.5 113,-30.5 226,-30.5 226,-0.5 113,-0.5"/>
<text text-anchor="start" x="121" y="-18.5" font-family="Helvetica,sans-Serif" font-size="10.00">get_requested_decay</text>
<text text-anchor="middle" x="169.5" y="-7.5" font-family="Helvetica,sans-Serif" font-size="10.00">_chains</text>
</a>
</g>
</g>
<!-- Node1&#45;&gt;Node5 -->
<g id="edge4" class="edge"><title>Node1&#45;&gt;Node5</title>
<path fill="none" stroke="midnightblue" d="M43.9299,-87.8858C56.4692,-75.5406 79.7641,-54.093 103,-40.5 106.447,-38.4833 110.087,-36.5729 113.813,-34.7747"/>
<polygon fill="midnightblue" stroke="midnightblue" points="115.519,-37.8445 123.193,-30.539 112.638,-31.4648 115.519,-37.8445"/>
</g>
<!-- Node8 -->
<g id="node8" class="node"><title>Node8</title>
<g id="a_node8"><a xlink:href="mcnp6extract_8f90.html#acd47d7c90f820f36e4410de86184c731" target="_top" xlink:title="Gets (alpha,n) targets from input file and allocates targets(:) array. ">
<polygon fill="white" stroke="black" points="103,-50 103,-69 236,-69 236,-50 103,-50"/>
<text text-anchor="middle" x="169.5" y="-57" font-family="Helvetica,sans-Serif" font-size="10.00">get_requested_an_targets</text>
</a>
</g>
</g>
<!-- Node1&#45;&gt;Node8 -->
<g id="edge8" class="edge"><title>Node1&#45;&gt;Node8</title>
<path fill="none" stroke="midnightblue" d="M67.2801,-88.2042C84.619,-83.2872 106.137,-77.1849 124.87,-71.8728"/>
<polygon fill="midnightblue" stroke="midnightblue" points="125.993,-75.1922 134.659,-69.0967 124.084,-68.4578 125.993,-75.1922"/>
</g>
<!-- Node9 -->
<g id="node9" class="node"><title>Node9</title>
<g id="a_node9"><a xlink:href="mcnp6extract_8f90.html#a6368bcd90e8cffb3935f2c895e978cf3" target="_top" xlink:title="Writes MCNP6 input file. ">
<polygon fill="white" stroke="black" points="104,-126 104,-145 235,-145 235,-126 104,-126"/>
<text text-anchor="middle" x="169.5" y="-133" font-family="Helvetica,sans-Serif" font-size="10.00">read_from_mcnp6_output</text>
</a>
</g>
</g>
<!-- Node1&#45;&gt;Node9 -->
<g id="edge11" class="edge"><title>Node1&#45;&gt;Node9</title>
<path fill="none" stroke="midnightblue" d="M67.2801,-106.796C84.619,-111.713 106.137,-117.815 124.87,-123.127"/>
<polygon fill="midnightblue" stroke="midnightblue" points="124.084,-126.542 134.659,-125.903 125.993,-119.808 124.084,-126.542"/>
</g>
<!-- Node3 -->
<g id="node3" class="node"><title>Node3</title>
<g id="a_node3"><a xlink:href="iostuff_8f90.html#ad77856a6e12b6bafdb9db600d0a26385" target="_top" xlink:title="Subroutine that extracts inputfile name from commnad line. ">
<polygon fill="white" stroke="black" points="281,-158.5 281,-188.5 377,-188.5 377,-158.5 281,-158.5"/>
<text text-anchor="start" x="289" y="-176.5" font-family="Helvetica,sans-Serif" font-size="10.00">get_inputfile_from</text>
<text text-anchor="middle" x="329" y="-165.5" font-family="Helvetica,sans-Serif" font-size="10.00">_command_line</text>
</a>
</g>
</g>
<!-- Node2&#45;&gt;Node3 -->
<g id="edge2" class="edge"><title>Node2&#45;&gt;Node3</title>
<path fill="none" stroke="midnightblue" d="M201.241,-173.5C220.971,-173.5 247.202,-173.5 270.681,-173.5"/>
<polygon fill="midnightblue" stroke="midnightblue" points="270.894,-177 280.894,-173.5 270.894,-170 270.894,-177"/>
</g>
<!-- Node2&#45;&gt;Node4 -->
<g id="edge3" class="edge"><title>Node2&#45;&gt;Node4</title>
<path fill="none" stroke="midnightblue" d="M201.112,-166.474C212.325,-163.421 224.965,-159.408 236,-154.5 261.438,-143.186 288.249,-125.874 306.323,-113.297"/>
<polygon fill="midnightblue" stroke="midnightblue" points="308.784,-115.843 314.924,-107.209 304.74,-110.129 308.784,-115.843"/>
</g>
<!-- Node5&#45;&gt;Node4 -->
<g id="edge5" class="edge"><title>Node5&#45;&gt;Node4</title>
<path fill="none" stroke="midnightblue" d="M213.635,-30.622C221.197,-33.651 228.91,-36.9902 236,-40.5 260.808,-52.78 287.53,-69.8029 305.749,-82.0432"/>
<polygon fill="midnightblue" stroke="midnightblue" points="304.208,-85.2281 314.445,-87.9577 308.145,-79.4399 304.208,-85.2281"/>
</g>
<!-- Node6 -->
<g id="node6" class="node"><title>Node6</title>
<g id="a_node6"><a xlink:href="ensdf_8f90.html#a4572e087dca23cd61cb6b6e236aa5060" target="_top" xlink:title="Checks NUCID format. ">
<polygon fill="white" stroke="black" points="272,-28 272,-47 386,-47 386,-28 272,-28"/>
<text text-anchor="middle" x="329" y="-35" font-family="Helvetica,sans-Serif" font-size="10.00">validate_nucid_format</text>
</a>
</g>
</g>
<!-- Node5&#45;&gt;Node6 -->
<g id="edge6" class="edge"><title>Node5&#45;&gt;Node6</title>
<path fill="none" stroke="midnightblue" d="M226.029,-23.2564C237.653,-24.8801 250.018,-26.6073 261.981,-28.2783"/>
<polygon fill="midnightblue" stroke="midnightblue" points="261.522,-31.7481 271.91,-29.6652 262.49,-24.8154 261.522,-31.7481"/>
</g>
<!-- Node7 -->
<g id="node7" class="node"><title>Node7</title>
<g id="a_node7"><a xlink:href="ensdf_8f90.html#ac85c1610cf6186365e8b9104254d54a0" target="_top" xlink:title="Converts all alphanumeric characters in the string to upper case. ">
<polygon fill="white" stroke="black" points="422,-28 422,-47 471,-47 471,-28 422,-28"/>
<text text-anchor="middle" x="446.5" y="-35" font-family="Helvetica,sans-Serif" font-size="10.00">upcase</text>
</a>
</g>
</g>
<!-- Node6&#45;&gt;Node7 -->
<g id="edge7" class="edge"><title>Node6&#45;&gt;Node7</title>
<path fill="none" stroke="midnightblue" d="M386.058,-37.5C394.85,-37.5 403.695,-37.5 411.775,-37.5"/>
<polygon fill="midnightblue" stroke="midnightblue" points="411.89,-41.0001 421.89,-37.5 411.89,-34.0001 411.89,-41.0001"/>
</g>
<!-- Node8&#45;&gt;Node4 -->
<g id="edge9" class="edge"><title>Node8&#45;&gt;Node4</title>
<path fill="none" stroke="midnightblue" d="M210.244,-69.089C234.803,-75.0144 266.134,-82.5736 290.303,-88.4048"/>
<polygon fill="midnightblue" stroke="midnightblue" points="289.64,-91.8453 300.182,-90.7884 291.282,-85.0405 289.64,-91.8453"/>
</g>
<!-- Node8&#45;&gt;Node6 -->
<g id="edge10" class="edge"><title>Node8&#45;&gt;Node6</title>
<path fill="none" stroke="midnightblue" d="M236.382,-50.2975C244.772,-49.1256 253.362,-47.9256 261.758,-46.7529"/>
<polygon fill="midnightblue" stroke="midnightblue" points="262.456,-50.1895 271.875,-45.3396 261.487,-43.2568 262.456,-50.1895"/>
</g>
<!-- Node9&#45;&gt;Node4 -->
<g id="edge12" class="edge"><title>Node9&#45;&gt;Node4</title>
<path fill="none" stroke="midnightblue" d="M210.244,-125.911C234.803,-119.986 266.134,-112.426 290.303,-106.595"/>
<polygon fill="midnightblue" stroke="midnightblue" points="291.282,-109.959 300.182,-104.212 289.64,-103.155 291.282,-109.959"/>
</g>
</g>
</svg>
