<?xml version="1.0" encoding="UTF-8" standalone="no"?>
<!DOCTYPE svg PUBLIC "-//W3C//DTD SVG 1.1//EN"
 "http://www.w3.org/Graphics/SVG/1.1/DTD/svg11.dtd">
<!-- Generated by graphviz version 2.38.0 (20140413.2041)
 -->
<!-- Title: local_an_differential_npf_for_alpha_e Pages: 1 -->
<svg width="350pt" height="39pt"
 viewBox="0.00 0.00 350.00 39.00" xmlns="http://www.w3.org/2000/svg" xmlns:xlink="http://www.w3.org/1999/xlink">
<g id="graph0" class="graph" transform="scale(1 1) rotate(0) translate(4 35)">
<title>local_an_differential_npf_for_alpha_e</title>
<polygon fill="white" stroke="none" points="-4,4 -4,-35 346,-35 346,4 -4,4"/>
<!-- Node1 -->
<g id="node1" class="node"><title>Node1</title>
<polygon fill="#bfbfbf" stroke="black" points="0,-0.5 0,-30.5 105,-30.5 105,-0.5 0,-0.5"/>
<text text-anchor="start" x="8" y="-18.5" font-family="Helvetica,sans-Serif" font-size="10.00">local_an_differential</text>
<text text-anchor="middle" x="52.5" y="-7.5" font-family="Helvetica,sans-Serif" font-size="10.00">_npf_for_alpha_e</text>
</g>
<!-- Node2 -->
<g id="node2" class="node"><title>Node2</title>
<g id="a_node2"><a xlink:href="neutron_8f90.html#ac9afffbf2d4d8afc896dcbe976991b28" target="_top" xlink:title="Top subroutine to calculate (a,n) neutron energy spectra from each decay chain. ">
<polygon fill="white" stroke="black" points="141,-0.5 141,-30.5 253,-30.5 253,-0.5 141,-0.5"/>
<text text-anchor="start" x="149" y="-18.5" font-family="Helvetica,sans-Serif" font-size="10.00">calculate_an_neutron</text>
<text text-anchor="middle" x="197" y="-7.5" font-family="Helvetica,sans-Serif" font-size="10.00">_spectrum</text>
</a>
</g>
</g>
<!-- Node1&#45;&gt;Node2 -->
<g id="edge1" class="edge"><title>Node1&#45;&gt;Node2</title>
<path fill="none" stroke="midnightblue" d="M115.436,-15.5C123.803,-15.5 132.344,-15.5 140.587,-15.5"/>
<polygon fill="midnightblue" stroke="midnightblue" points="115.349,-12.0001 105.349,-15.5 115.349,-19.0001 115.349,-12.0001"/>
</g>
<!-- Node3 -->
<g id="node3" class="node"><title>Node3</title>
<g id="a_node3"><a xlink:href="argon39_8f90.html#a53921723df12bf3ddfe3fd2c80826bcb" target="_top" xlink:title="Main program. ">
<polygon fill="white" stroke="black" points="289,-6 289,-25 342,-25 342,-6 289,-6"/>
<text text-anchor="middle" x="315.5" y="-13" font-family="Helvetica,sans-Serif" font-size="10.00">argon39</text>
</a>
</g>
</g>
<!-- Node2&#45;&gt;Node3 -->
<g id="edge2" class="edge"><title>Node2&#45;&gt;Node3</title>
<path fill="none" stroke="midnightblue" d="M263.403,-15.5C272.412,-15.5 281.189,-15.5 288.855,-15.5"/>
<polygon fill="midnightblue" stroke="midnightblue" points="263.18,-12.0001 253.179,-15.5 263.179,-19.0001 263.18,-12.0001"/>
</g>
</g>
</svg>
