<?xml version="1.0" encoding="UTF-8" standalone="no"?>
<!DOCTYPE svg PUBLIC "-//W3C//DTD SVG 1.1//EN"
 "http://www.w3.org/Graphics/SVG/1.1/DTD/svg11.dtd">
<!-- Generated by graphviz version 2.38.0 (20140413.2041)
 -->
<!-- Title: tabulate_differential_neutron_prod_func Pages: 1 -->
<svg width="395pt" height="116pt"
 viewBox="0.00 0.00 395.00 115.50" xmlns="http://www.w3.org/2000/svg" xmlns:xlink="http://www.w3.org/1999/xlink">
<g id="graph0" class="graph" transform="scale(1 1) rotate(0) translate(4 111.5)">
<title>tabulate_differential_neutron_prod_func</title>
<polygon fill="white" stroke="none" points="-4,4 -4,-111.5 391,-111.5 391,4 -4,4"/>
<!-- Node1 -->
<g id="node1" class="node"><title>Node1</title>
<polygon fill="#bfbfbf" stroke="black" points="0,-33 0,-63 106,-63 106,-33 0,-33"/>
<text text-anchor="start" x="8" y="-51" font-family="Helvetica,sans-Serif" font-size="10.00">tabulate_differential</text>
<text text-anchor="middle" x="53" y="-40" font-family="Helvetica,sans-Serif" font-size="10.00">_neutron_prod_func</text>
</g>
<!-- Node2 -->
<g id="node2" class="node"><title>Node2</title>
<g id="a_node2"><a xlink:href="neutron_8f90.html#a7f3c8c1b9fb42e2ecdd3f4cfe4646aa4" target="_top" xlink:title="Retrieves TALYS differential neutron production cross section (n spectrum) and interpolates to Enspec...">
<polygon fill="white" stroke="black" points="142,-77 142,-107 244,-107 244,-77 142,-77"/>
<text text-anchor="start" x="150" y="-95" font-family="Helvetica,sans-Serif" font-size="10.00">retrieve_interpolate</text>
<text text-anchor="middle" x="193" y="-84" font-family="Helvetica,sans-Serif" font-size="10.00">_talys_spectrum</text>
</a>
</g>
</g>
<!-- Node1&#45;&gt;Node2 -->
<g id="edge1" class="edge"><title>Node1&#45;&gt;Node2</title>
<path fill="none" stroke="midnightblue" d="M101.106,-63.0192C111.976,-66.4852 123.655,-70.2089 134.9,-73.7941"/>
<polygon fill="midnightblue" stroke="midnightblue" points="134.047,-77.1959 144.638,-76.8991 136.174,-70.5267 134.047,-77.1959"/>
</g>
<!-- Node5 -->
<g id="node5" class="node"><title>Node5</title>
<g id="a_node5"><a xlink:href="nr__dtrapzd_8f.html#ad4ab46147be364cc1164eeec24d5638f" target="_top" xlink:title="This routine computes the nth stage of refinement of an extended trapezoidal rule. ">
<polygon fill="white" stroke="black" points="171,-38.5 171,-57.5 215,-57.5 215,-38.5 171,-38.5"/>
<text text-anchor="middle" x="193" y="-45.5" font-family="Helvetica,sans-Serif" font-size="10.00">trapzd</text>
</a>
</g>
</g>
<!-- Node1&#45;&gt;Node5 -->
<g id="edge4" class="edge"><title>Node1&#45;&gt;Node5</title>
<path fill="none" stroke="midnightblue" d="M106.172,-48C124.404,-48 144.306,-48 160.351,-48"/>
<polygon fill="midnightblue" stroke="midnightblue" points="160.775,-51.5001 170.775,-48 160.775,-44.5001 160.775,-51.5001"/>
</g>
<!-- Node6 -->
<g id="node6" class="node"><title>Node6</title>
<g id="a_node6"><a xlink:href="neutron_8f90.html#af083fdc779ff8ce842f616732a568f27" target="_top" xlink:title="Function (a,n)_cross_section_spectrum / linear_stopping_power at a given neutron energy provided for ...">
<polygon fill="white" stroke="black" points="156,-0.5 156,-19.5 230,-19.5 230,-0.5 156,-0.5"/>
<text text-anchor="middle" x="193" y="-7.5" font-family="Helvetica,sans-Serif" font-size="10.00">func_dnpf_nj</text>
</a>
</g>
</g>
<!-- Node1&#45;&gt;Node6 -->
<g id="edge5" class="edge"><title>Node1&#45;&gt;Node6</title>
<path fill="none" stroke="midnightblue" d="M106.172,-33.6338C119.796,-29.8822 134.353,-25.8739 147.535,-22.2439"/>
<polygon fill="midnightblue" stroke="midnightblue" points="148.598,-25.5815 157.31,-19.5522 146.74,-18.8327 148.598,-25.5815"/>
</g>
<!-- Node3 -->
<g id="node3" class="node"><title>Node3</title>
<g id="a_node3"><a xlink:href="iostuff_8f90.html#af759d00c9a49b8f430c17756db8dabbb" target="_top" xlink:title="Opens external file including error handling. ">
<polygon fill="white" stroke="black" points="305,-82.5 305,-101.5 362,-101.5 362,-82.5 305,-82.5"/>
<text text-anchor="middle" x="333.5" y="-89.5" font-family="Helvetica,sans-Serif" font-size="10.00">open_file</text>
</a>
</g>
</g>
<!-- Node2&#45;&gt;Node3 -->
<g id="edge2" class="edge"><title>Node2&#45;&gt;Node3</title>
<path fill="none" stroke="midnightblue" d="M244.002,-92C260.622,-92 278.849,-92 294.42,-92"/>
<polygon fill="midnightblue" stroke="midnightblue" points="294.722,-95.5001 304.722,-92 294.722,-88.5001 294.722,-95.5001"/>
</g>
<!-- Node4 -->
<g id="node4" class="node"><title>Node4</title>
<g id="a_node4"><a xlink:href="general_8f90.html#ae1acc3fd1375342897df419160518e3f" target="_top" xlink:title="Interpolation of type between tabulated values of function fa at xi ">
<polygon fill="white" stroke="black" points="280,-22.5 280,-41.5 387,-41.5 387,-22.5 280,-22.5"/>
<text text-anchor="middle" x="333.5" y="-29.5" font-family="Helvetica,sans-Serif" font-size="10.00">interpolate_tab_func</text>
</a>
</g>
</g>
<!-- Node2&#45;&gt;Node4 -->
<g id="edge3" class="edge"><title>Node2&#45;&gt;Node4</title>
<path fill="none" stroke="midnightblue" d="M228.949,-76.8595C251.187,-67.2258 279.738,-54.8572 301.226,-45.5482"/>
<polygon fill="midnightblue" stroke="midnightblue" points="302.77,-48.694 310.554,-41.5072 299.987,-42.2708 302.77,-48.694"/>
</g>
<!-- Node6&#45;&gt;Node4 -->
<g id="edge6" class="edge"><title>Node6&#45;&gt;Node4</title>
<path fill="none" stroke="midnightblue" d="M230.028,-15.7228C242.282,-17.6693 256.355,-19.9048 270.068,-22.083"/>
<polygon fill="midnightblue" stroke="midnightblue" points="269.533,-25.5419 279.959,-23.6541 270.632,-18.6285 269.533,-25.5419"/>
</g>
</g>
</svg>
