<?xml version="1.0" encoding="UTF-8" standalone="no"?>
<!DOCTYPE svg PUBLIC "-//W3C//DTD SVG 1.1//EN"
 "http://www.w3.org/Graphics/SVG/1.1/DTD/svg11.dtd">
<!-- Generated by graphviz version 2.38.0 (20140413.2041)
 -->
<!-- Title: output_possible_targets Pages: 1 -->
<svg width="372pt" height="28pt"
 viewBox="0.00 0.00 372.00 28.00" xmlns="http://www.w3.org/2000/svg" xmlns:xlink="http://www.w3.org/1999/xlink">
<g id="graph0" class="graph" transform="scale(1 1) rotate(0) translate(4 24)">
<title>output_possible_targets</title>
<polygon fill="white" stroke="none" points="-4,4 -4,-24 368,-24 368,4 -4,4"/>
<!-- Node1 -->
<g id="node1" class="node"><title>Node1</title>
<polygon fill="#bfbfbf" stroke="black" points="0,-0.5 0,-19.5 123,-19.5 123,-0.5 0,-0.5"/>
<text text-anchor="middle" x="61.5" y="-7.5" font-family="Helvetica,sans-Serif" font-size="10.00">output_possible_targets</text>
</g>
<!-- Node2 -->
<g id="node2" class="node"><title>Node2</title>
<g id="a_node2"><a xlink:href="elemnucl_8f90.html#a80682d75c547656792b6819000fb25ed" target="_top" xlink:title="Returns index inuc of nuclide Z,A ">
<polygon fill="white" stroke="black" points="159,-0.5 159,-19.5 258,-19.5 258,-0.5 159,-0.5"/>
<text text-anchor="middle" x="208.5" y="-7.5" font-family="Helvetica,sans-Serif" font-size="10.00">find_nuclide_index</text>
</a>
</g>
</g>
<!-- Node1&#45;&gt;Node2 -->
<g id="edge1" class="edge"><title>Node1&#45;&gt;Node2</title>
<path fill="none" stroke="midnightblue" d="M123.153,-10C131.649,-10 140.369,-10 148.828,-10"/>
<polygon fill="midnightblue" stroke="midnightblue" points="148.984,-13.5001 158.984,-10 148.984,-6.5001 148.984,-13.5001"/>
</g>
<!-- Node3 -->
<g id="node3" class="node"><title>Node3</title>
<g id="a_node3"><a xlink:href="ensdf_8f90.html#a9f343a9e65fbf1717c6c4887c0e74884" target="_top" xlink:title="Returns NUCID from Z and A compliant to ENSDF standard, i.e., mass number in cols 1&#45;3 right&#45;justied...">
<polygon fill="white" stroke="black" points="294,-0.5 294,-19.5 364,-19.5 364,-0.5 294,-0.5"/>
<text text-anchor="middle" x="329" y="-7.5" font-family="Helvetica,sans-Serif" font-size="10.00">az_to_nucid</text>
</a>
</g>
</g>
<!-- Node2&#45;&gt;Node3 -->
<g id="edge2" class="edge"><title>Node2&#45;&gt;Node3</title>
<path fill="none" stroke="midnightblue" d="M258.04,-10C266.489,-10 275.239,-10 283.571,-10"/>
<polygon fill="midnightblue" stroke="midnightblue" points="283.847,-13.5001 293.847,-10 283.847,-6.5001 283.847,-13.5001"/>
</g>
</g>
</svg>
