<?xml version="1.0" encoding="UTF-8" standalone="no"?>
<!DOCTYPE svg PUBLIC "-//W3C//DTD SVG 1.1//EN"
 "http://www.w3.org/Graphics/SVG/1.1/DTD/svg11.dtd">
<!-- Generated by graphviz version 2.38.0 (20140413.2041)
 -->
<!-- Title: func_npf Pages: 1 -->
<svg width="478pt" height="39pt"
 viewBox="0.00 0.00 478.00 39.00" xmlns="http://www.w3.org/2000/svg" xmlns:xlink="http://www.w3.org/1999/xlink">
<g id="graph0" class="graph" transform="scale(1 1) rotate(0) translate(4 35)">
<title>func_npf</title>
<polygon fill="white" stroke="none" points="-4,4 -4,-35 474,-35 474,4 -4,4"/>
<!-- Node1 -->
<g id="node1" class="node"><title>Node1</title>
<polygon fill="#bfbfbf" stroke="black" points="0,-6 0,-25 55,-25 55,-6 0,-6"/>
<text text-anchor="middle" x="27.5" y="-13" font-family="Helvetica,sans-Serif" font-size="10.00">func_npf</text>
</g>
<!-- Node2 -->
<g id="node2" class="node"><title>Node2</title>
<g id="a_node2"><a xlink:href="neutron_8f90.html#ab150153b0d7ccb063bd1ec88e79e1534" target="_top" xlink:title="Tabulates neutron production function. ">
<polygon fill="white" stroke="black" points="91,-6 91,-25 233,-25 233,-6 91,-6"/>
<text text-anchor="middle" x="162" y="-13" font-family="Helvetica,sans-Serif" font-size="10.00">tabulate_neutron_prod_func</text>
</a>
</g>
</g>
<!-- Node1&#45;&gt;Node2 -->
<g id="edge1" class="edge"><title>Node1&#45;&gt;Node2</title>
<path fill="none" stroke="midnightblue" d="M65.3709,-15.5C73.376,-15.5 82.0988,-15.5 90.9125,-15.5"/>
<polygon fill="midnightblue" stroke="midnightblue" points="65.3134,-12.0001 55.3134,-15.5 65.3133,-19.0001 65.3134,-12.0001"/>
</g>
<!-- Node3 -->
<g id="node3" class="node"><title>Node3</title>
<g id="a_node3"><a xlink:href="neutron_8f90.html#a5110672e8691955a1f3abff1f54c4039" target="_top" xlink:title="Top subroutine to calculate (a,n) neutron yield from each alpha decay branch of each chain...">
<polygon fill="white" stroke="black" points="269,-0.5 269,-30.5 381,-30.5 381,-0.5 269,-0.5"/>
<text text-anchor="start" x="277" y="-18.5" font-family="Helvetica,sans-Serif" font-size="10.00">calculate_an_neutron</text>
<text text-anchor="middle" x="325" y="-7.5" font-family="Helvetica,sans-Serif" font-size="10.00">_yield</text>
</a>
</g>
</g>
<!-- Node2&#45;&gt;Node3 -->
<g id="edge2" class="edge"><title>Node2&#45;&gt;Node3</title>
<path fill="none" stroke="midnightblue" d="M243.207,-15.5C251.797,-15.5 260.392,-15.5 268.6,-15.5"/>
<polygon fill="midnightblue" stroke="midnightblue" points="243.149,-12.0001 233.149,-15.5 243.149,-19.0001 243.149,-12.0001"/>
</g>
<!-- Node4 -->
<g id="node4" class="node"><title>Node4</title>
<g id="a_node4"><a xlink:href="argon39_8f90.html#a53921723df12bf3ddfe3fd2c80826bcb" target="_top" xlink:title="Main program. ">
<polygon fill="white" stroke="black" points="417,-6 417,-25 470,-25 470,-6 417,-6"/>
<text text-anchor="middle" x="443.5" y="-13" font-family="Helvetica,sans-Serif" font-size="10.00">argon39</text>
</a>
</g>
</g>
<!-- Node3&#45;&gt;Node4 -->
<g id="edge3" class="edge"><title>Node3&#45;&gt;Node4</title>
<path fill="none" stroke="midnightblue" d="M391.403,-15.5C400.412,-15.5 409.189,-15.5 416.855,-15.5"/>
<polygon fill="midnightblue" stroke="midnightblue" points="391.18,-12.0001 381.179,-15.5 391.179,-19.0001 391.18,-12.0001"/>
</g>
</g>
</svg>
