<?xml version="1.0" encoding="UTF-8" standalone="no"?>
<!DOCTYPE svg PUBLIC "-//W3C//DTD SVG 1.1//EN"
 "http://www.w3.org/Graphics/SVG/1.1/DTD/svg11.dtd">
<!-- Generated by graphviz version 2.38.0 (20140413.2041)
 -->
<!-- Title: get_requested_an_targets Pages: 1 -->
<svg width="376pt" height="104pt"
 viewBox="0.00 0.00 376.00 104.00" xmlns="http://www.w3.org/2000/svg" xmlns:xlink="http://www.w3.org/1999/xlink">
<g id="graph0" class="graph" transform="scale(1 1) rotate(0) translate(4 100)">
<title>get_requested_an_targets</title>
<polygon fill="white" stroke="none" points="-4,4 -4,-100 372,-100 372,4 -4,4"/>
<!-- Node1 -->
<g id="node1" class="node"><title>Node1</title>
<polygon fill="#bfbfbf" stroke="black" points="0,-38.5 0,-57.5 133,-57.5 133,-38.5 0,-38.5"/>
<text text-anchor="middle" x="66.5" y="-45.5" font-family="Helvetica,sans-Serif" font-size="10.00">get_requested_an_targets</text>
</g>
<!-- Node2 -->
<g id="node2" class="node"><title>Node2</title>
<g id="a_node2"><a xlink:href="iostuff_8f90.html#af759d00c9a49b8f430c17756db8dabbb" target="_top" xlink:title="Opens external file including error handling. ">
<polygon fill="white" stroke="black" points="197.5,-76.5 197.5,-95.5 254.5,-95.5 254.5,-76.5 197.5,-76.5"/>
<text text-anchor="middle" x="226" y="-83.5" font-family="Helvetica,sans-Serif" font-size="10.00">open_file</text>
</a>
</g>
</g>
<!-- Node1&#45;&gt;Node2 -->
<g id="edge1" class="edge"><title>Node1&#45;&gt;Node2</title>
<path fill="none" stroke="midnightblue" d="M107.244,-57.589C131.803,-63.5144 163.134,-71.0736 187.303,-76.9048"/>
<polygon fill="midnightblue" stroke="midnightblue" points="186.64,-80.3453 197.182,-79.2884 188.282,-73.5405 186.64,-80.3453"/>
</g>
<!-- Node3 -->
<g id="node3" class="node"><title>Node3</title>
<g id="a_node3"><a xlink:href="ensdf_8f90.html#a4572e087dca23cd61cb6b6e236aa5060" target="_top" xlink:title="Checks NUCID format. ">
<polygon fill="white" stroke="black" points="169,-38.5 169,-57.5 283,-57.5 283,-38.5 169,-38.5"/>
<text text-anchor="middle" x="226" y="-45.5" font-family="Helvetica,sans-Serif" font-size="10.00">validate_nucid_format</text>
</a>
</g>
</g>
<!-- Node1&#45;&gt;Node3 -->
<g id="edge2" class="edge"><title>Node1&#45;&gt;Node3</title>
<path fill="none" stroke="midnightblue" d="M133.382,-48C141.772,-48 150.362,-48 158.758,-48"/>
<polygon fill="midnightblue" stroke="midnightblue" points="158.875,-51.5001 168.875,-48 158.875,-44.5001 158.875,-51.5001"/>
</g>
<!-- Node5 -->
<g id="node5" class="node"><title>Node5</title>
<g id="a_node5"><a xlink:href="ensdf_8f90.html#a42cf66c8a060d39f6c3e1da42f56b3ed" target="_top" xlink:title="Gets A and Z from NUCID. ">
<polygon fill="white" stroke="black" points="191,-0.5 191,-19.5 261,-19.5 261,-0.5 191,-0.5"/>
<text text-anchor="middle" x="226" y="-7.5" font-family="Helvetica,sans-Serif" font-size="10.00">nucid_to_az</text>
</a>
</g>
</g>
<!-- Node1&#45;&gt;Node5 -->
<g id="edge4" class="edge"><title>Node1&#45;&gt;Node5</title>
<path fill="none" stroke="midnightblue" d="M107.244,-38.411C129.709,-32.9908 157.84,-26.2037 180.973,-20.6225"/>
<polygon fill="midnightblue" stroke="midnightblue" points="181.979,-23.9801 190.879,-18.2323 180.337,-17.1754 181.979,-23.9801"/>
</g>
<!-- Node4 -->
<g id="node4" class="node"><title>Node4</title>
<g id="a_node4"><a xlink:href="ensdf_8f90.html#ac85c1610cf6186365e8b9104254d54a0" target="_top" xlink:title="Converts all alphanumeric characters in the string to upper case. ">
<polygon fill="white" stroke="black" points="319,-38.5 319,-57.5 368,-57.5 368,-38.5 319,-38.5"/>
<text text-anchor="middle" x="343.5" y="-45.5" font-family="Helvetica,sans-Serif" font-size="10.00">upcase</text>
</a>
</g>
</g>
<!-- Node3&#45;&gt;Node4 -->
<g id="edge3" class="edge"><title>Node3&#45;&gt;Node4</title>
<path fill="none" stroke="midnightblue" d="M283.058,-48C291.85,-48 300.695,-48 308.775,-48"/>
<polygon fill="midnightblue" stroke="midnightblue" points="308.89,-51.5001 318.89,-48 308.89,-44.5001 308.89,-51.5001"/>
</g>
</g>
</svg>
