<?xml version="1.0" encoding="UTF-8" standalone="no"?>
<!DOCTYPE svg PUBLIC "-//W3C//DTD SVG 1.1//EN"
 "http://www.w3.org/Graphics/SVG/1.1/DTD/svg11.dtd">
<!-- Generated by graphviz version 2.38.0 (20140413.2041)
 -->
<!-- Title: calculate_an_neutron_yield Pages: 1 -->
<svg width="584pt" height="192pt"
 viewBox="0.00 0.00 584.00 192.00" xmlns="http://www.w3.org/2000/svg" xmlns:xlink="http://www.w3.org/1999/xlink">
<g id="graph0" class="graph" transform="scale(1 1) rotate(0) translate(4 188)">
<title>calculate_an_neutron_yield</title>
<polygon fill="white" stroke="none" points="-4,4 -4,-188 580,-188 580,4 -4,4"/>
<!-- Node1 -->
<g id="node1" class="node"><title>Node1</title>
<polygon fill="#bfbfbf" stroke="black" points="0,-61 0,-91 112,-91 112,-61 0,-61"/>
<text text-anchor="start" x="8" y="-79" font-family="Helvetica,sans-Serif" font-size="10.00">calculate_an_neutron</text>
<text text-anchor="middle" x="56" y="-68" font-family="Helvetica,sans-Serif" font-size="10.00">_yield</text>
</g>
<!-- Node2 -->
<g id="node2" class="node"><title>Node2</title>
<g id="a_node2"><a xlink:href="neutron_8f90.html#ab150153b0d7ccb063bd1ec88e79e1534" target="_top" xlink:title="Tabulates neutron production function. ">
<polygon fill="white" stroke="black" points="148,-126.5 148,-145.5 290,-145.5 290,-126.5 148,-126.5"/>
<text text-anchor="middle" x="219" y="-133.5" font-family="Helvetica,sans-Serif" font-size="10.00">tabulate_neutron_prod_func</text>
</a>
</g>
</g>
<!-- Node1&#45;&gt;Node2 -->
<g id="edge1" class="edge"><title>Node1&#45;&gt;Node2</title>
<path fill="none" stroke="midnightblue" d="M94.0413,-91.1044C110.498,-97.6984 130.148,-105.412 148,-112 158.23,-115.775 169.371,-119.685 179.694,-123.225"/>
<polygon fill="midnightblue" stroke="midnightblue" points="178.691,-126.581 189.285,-126.49 180.947,-119.954 178.691,-126.581"/>
</g>
<!-- Node6 -->
<g id="node6" class="node"><title>Node6</title>
<g id="a_node6"><a xlink:href="general_8f90.html#ae1acc3fd1375342897df419160518e3f" target="_top" xlink:title="Interpolation of type between tabulated values of function fa at xi ">
<polygon fill="white" stroke="black" points="469,-107.5 469,-126.5 576,-126.5 576,-107.5 469,-107.5"/>
<text text-anchor="middle" x="522.5" y="-114.5" font-family="Helvetica,sans-Serif" font-size="10.00">interpolate_tab_func</text>
</a>
</g>
</g>
<!-- Node1&#45;&gt;Node6 -->
<g id="edge8" class="edge"><title>Node1&#45;&gt;Node6</title>
<path fill="none" stroke="midnightblue" d="M112.108,-80.8642C198.998,-88.5337 367.329,-103.392 458.745,-111.461"/>
<polygon fill="midnightblue" stroke="midnightblue" points="458.693,-114.97 468.962,-112.363 459.309,-107.997 458.693,-114.97"/>
</g>
<!-- Node7 -->
<g id="node7" class="node"><title>Node7</title>
<g id="a_node7"><a xlink:href="neutron_8f90.html#a8260069a5794c466c25d4040fc4fa599" target="_top" xlink:title="Outputs neutron production table :) ">
<polygon fill="white" stroke="black" points="164.5,-39 164.5,-69 273.5,-69 273.5,-39 164.5,-39"/>
<text text-anchor="start" x="172.5" y="-57" font-family="Helvetica,sans-Serif" font-size="10.00">output_neutron_prod</text>
<text text-anchor="middle" x="219" y="-46" font-family="Helvetica,sans-Serif" font-size="10.00">_func_table</text>
</a>
</g>
</g>
<!-- Node1&#45;&gt;Node7 -->
<g id="edge6" class="edge"><title>Node1&#45;&gt;Node7</title>
<path fill="none" stroke="midnightblue" d="M112.407,-68.4288C125.948,-66.5785 140.542,-64.5844 154.431,-62.6865"/>
<polygon fill="midnightblue" stroke="midnightblue" points="154.961,-66.1467 164.395,-61.325 154.013,-59.2112 154.961,-66.1467"/>
</g>
<!-- Node9 -->
<g id="node9" class="node"><title>Node9</title>
<g id="a_node9"><a xlink:href="neutron_8f90.html#afe0a678748b78733d7e0e3baf8c9e6c5" target="_top" xlink:title="Outputs neutron yield :) ">
<polygon fill="white" stroke="black" points="164,-0.5 164,-19.5 274,-19.5 274,-0.5 164,-0.5"/>
<text text-anchor="middle" x="219" y="-7.5" font-family="Helvetica,sans-Serif" font-size="10.00">output_neutron_yield</text>
</a>
</g>
</g>
<!-- Node1&#45;&gt;Node9 -->
<g id="edge9" class="edge"><title>Node1&#45;&gt;Node9</title>
<path fill="none" stroke="midnightblue" d="M82.6019,-60.9172C100.473,-50.8567 125.13,-37.8939 148,-29 154.229,-26.5774 160.885,-24.3427 167.522,-22.322"/>
<polygon fill="midnightblue" stroke="midnightblue" points="168.553,-25.6671 177.181,-19.5176 166.601,-18.9447 168.553,-25.6671"/>
</g>
<!-- Node3 -->
<g id="node3" class="node"><title>Node3</title>
<g id="a_node3"><a xlink:href="nr__dqtrap_8f.html#a694ce7543be4910a1892809a7c8a2119" target="_top" xlink:title="Returns as s the integral of the function func from a to b. ">
<polygon fill="white" stroke="black" points="360,-164.5 360,-183.5 399,-183.5 399,-164.5 360,-164.5"/>
<text text-anchor="middle" x="379.5" y="-171.5" font-family="Helvetica,sans-Serif" font-size="10.00">qtrap</text>
</a>
</g>
</g>
<!-- Node2&#45;&gt;Node3 -->
<g id="edge2" class="edge"><title>Node2&#45;&gt;Node3</title>
<path fill="none" stroke="midnightblue" d="M259.996,-145.589C287.921,-152.284 324.545,-161.065 349.645,-167.082"/>
<polygon fill="midnightblue" stroke="midnightblue" points="349.096,-170.55 359.637,-169.478 350.728,-163.743 349.096,-170.55"/>
</g>
<!-- Node5 -->
<g id="node5" class="node"><title>Node5</title>
<g id="a_node5"><a xlink:href="neutron_8f90.html#ac47eda82ac82a65036682cf5844bef84" target="_top" xlink:title="Function (a,n)_cross_section / linear_stopping_power provided for integration of neutron production f...">
<polygon fill="white" stroke="black" points="352,-126.5 352,-145.5 407,-145.5 407,-126.5 352,-126.5"/>
<text text-anchor="middle" x="379.5" y="-133.5" font-family="Helvetica,sans-Serif" font-size="10.00">func_npf</text>
</a>
</g>
</g>
<!-- Node2&#45;&gt;Node5 -->
<g id="edge4" class="edge"><title>Node2&#45;&gt;Node5</title>
<path fill="none" stroke="midnightblue" d="M290.443,-136C308.178,-136 326.508,-136 341.822,-136"/>
<polygon fill="midnightblue" stroke="midnightblue" points="341.898,-139.5 351.898,-136 341.898,-132.5 341.898,-139.5"/>
</g>
<!-- Node4 -->
<g id="node4" class="node"><title>Node4</title>
<g id="a_node4"><a xlink:href="nr__dtrapzd_8f.html#ad4ab46147be364cc1164eeec24d5638f" target="_top" xlink:title="This routine computes the nth stage of refinement of an extended trapezoidal rule. ">
<polygon fill="white" stroke="black" points="500.5,-164.5 500.5,-183.5 544.5,-183.5 544.5,-164.5 500.5,-164.5"/>
<text text-anchor="middle" x="522.5" y="-171.5" font-family="Helvetica,sans-Serif" font-size="10.00">trapzd</text>
</a>
</g>
</g>
<!-- Node3&#45;&gt;Node4 -->
<g id="edge3" class="edge"><title>Node3&#45;&gt;Node4</title>
<path fill="none" stroke="midnightblue" d="M399.224,-174C422.473,-174 462.464,-174 490.358,-174"/>
<polygon fill="midnightblue" stroke="midnightblue" points="490.397,-177.5 500.397,-174 490.397,-170.5 490.397,-177.5"/>
</g>
<!-- Node5&#45;&gt;Node6 -->
<g id="edge5" class="edge"><title>Node5&#45;&gt;Node6</title>
<path fill="none" stroke="midnightblue" d="M407.021,-132.426C421.694,-130.449 440.6,-127.901 458.803,-125.449"/>
<polygon fill="midnightblue" stroke="midnightblue" points="459.369,-128.904 468.812,-124.1 458.434,-121.967 459.369,-128.904"/>
</g>
<!-- Node8 -->
<g id="node8" class="node"><title>Node8</title>
<g id="a_node8"><a xlink:href="iostuff_8f90.html#af759d00c9a49b8f430c17756db8dabbb" target="_top" xlink:title="Opens external file including error handling. ">
<polygon fill="white" stroke="black" points="351,-44.5 351,-63.5 408,-63.5 408,-44.5 351,-44.5"/>
<text text-anchor="middle" x="379.5" y="-51.5" font-family="Helvetica,sans-Serif" font-size="10.00">open_file</text>
</a>
</g>
</g>
<!-- Node7&#45;&gt;Node8 -->
<g id="edge7" class="edge"><title>Node7&#45;&gt;Node8</title>
<path fill="none" stroke="midnightblue" d="M273.661,-54C295.585,-54 320.437,-54 340.44,-54"/>
<polygon fill="midnightblue" stroke="midnightblue" points="340.71,-57.5001 350.71,-54 340.71,-50.5001 340.71,-57.5001"/>
</g>
<!-- Node10 -->
<g id="node10" class="node"><title>Node10</title>
<g id="a_node10"><a xlink:href="neutron_8f90.html#aede472afb2836d715f208b399020b8ad" target="_top" xlink:title="Calculates various outputs. ">
<polygon fill="white" stroke="black" points="326,-0.5 326,-19.5 433,-19.5 433,-0.5 326,-0.5"/>
<text text-anchor="middle" x="379.5" y="-7.5" font-family="Helvetica,sans-Serif" font-size="10.00">calc_neutron_output</text>
</a>
</g>
</g>
<!-- Node9&#45;&gt;Node10 -->
<g id="edge10" class="edge"><title>Node9&#45;&gt;Node10</title>
<path fill="none" stroke="midnightblue" d="M274.103,-10C287.467,-10 301.895,-10 315.636,-10"/>
<polygon fill="midnightblue" stroke="midnightblue" points="315.981,-13.5001 325.981,-10 315.981,-6.5001 315.981,-13.5001"/>
</g>
</g>
</svg>
