<?xml version="1.0" encoding="UTF-8" standalone="no"?>
<!DOCTYPE svg PUBLIC "-//W3C//DTD SVG 1.1//EN"
 "http://www.w3.org/Graphics/SVG/1.1/DTD/svg11.dtd">
<!-- Generated by graphviz version 2.38.0 (20140413.2041)
 -->
<!-- Title: calculate_an_neutron_spectrum Pages: 1 -->
<svg width="596pt" height="289pt"
 viewBox="0.00 0.00 596.00 288.50" xmlns="http://www.w3.org/2000/svg" xmlns:xlink="http://www.w3.org/1999/xlink">
<g id="graph0" class="graph" transform="scale(1 1) rotate(0) translate(4 284.5)">
<title>calculate_an_neutron_spectrum</title>
<polygon fill="white" stroke="none" points="-4,4 -4,-284.5 592,-284.5 592,4 -4,4"/>
<!-- Node1 -->
<g id="node1" class="node"><title>Node1</title>
<polygon fill="#bfbfbf" stroke="black" points="0,-98.5 0,-128.5 112,-128.5 112,-98.5 0,-98.5"/>
<text text-anchor="start" x="8" y="-116.5" font-family="Helvetica,sans-Serif" font-size="10.00">calculate_an_neutron</text>
<text text-anchor="middle" x="56" y="-105.5" font-family="Helvetica,sans-Serif" font-size="10.00">_spectrum</text>
</g>
<!-- Node2 -->
<g id="node2" class="node"><title>Node2</title>
<g id="a_node2"><a xlink:href="neutron_8f90.html#aee8287f8ab14cf717b431e223ad40d28" target="_top" xlink:title="Tabulates TALYS differential neutron production function. ">
<polygon fill="white" stroke="black" points="156.5,-160.5 156.5,-190.5 262.5,-190.5 262.5,-160.5 156.5,-160.5"/>
<text text-anchor="start" x="164.5" y="-178.5" font-family="Helvetica,sans-Serif" font-size="10.00">tabulate_differential</text>
<text text-anchor="middle" x="209.5" y="-167.5" font-family="Helvetica,sans-Serif" font-size="10.00">_neutron_prod_func</text>
</a>
</g>
</g>
<!-- Node1&#45;&gt;Node2 -->
<g id="edge1" class="edge"><title>Node1&#45;&gt;Node2</title>
<path fill="none" stroke="midnightblue" d="M93.6739,-128.508C114.27,-136.937 140.175,-147.538 162.164,-156.537"/>
<polygon fill="midnightblue" stroke="midnightblue" points="161.058,-159.867 171.639,-160.415 163.709,-153.388 161.058,-159.867"/>
</g>
<!-- Node8 -->
<g id="node8" class="node"><title>Node8</title>
<g id="a_node8"><a xlink:href="neutron_8f90.html#aeed8bee0f91f7d8def5a34d0cf7d95c5" target="_top" xlink:title="Calculates neutron spectrum nspec from (a,n) with alpha of energy E0 uses simple reaction kinematics...">
<polygon fill="white" stroke="black" points="157,-98.5 157,-128.5 262,-128.5 262,-98.5 157,-98.5"/>
<text text-anchor="start" x="165" y="-116.5" font-family="Helvetica,sans-Serif" font-size="10.00">local_an_differential</text>
<text text-anchor="middle" x="209.5" y="-105.5" font-family="Helvetica,sans-Serif" font-size="10.00">_npf_for_alpha_e</text>
</a>
</g>
</g>
<!-- Node1&#45;&gt;Node8 -->
<g id="edge8" class="edge"><title>Node1&#45;&gt;Node8</title>
<path fill="none" stroke="midnightblue" d="M112.124,-113.5C123.33,-113.5 135.188,-113.5 146.611,-113.5"/>
<polygon fill="midnightblue" stroke="midnightblue" points="146.947,-117 156.947,-113.5 146.947,-110 146.947,-117"/>
</g>
<!-- Node10 -->
<g id="node10" class="node"><title>Node10</title>
<g id="a_node10"><a xlink:href="neutron_8f90.html#ad666ff40a34c5b4d8884f6f0281d0b78" target="_top" xlink:title="Interpolates differential neutron production function to alpha energy Ea ">
<polygon fill="white" stroke="black" points="157,-49.5 157,-79.5 262,-79.5 262,-49.5 157,-49.5"/>
<text text-anchor="start" x="165" y="-67.5" font-family="Helvetica,sans-Serif" font-size="10.00">talys_an_differential</text>
<text text-anchor="middle" x="209.5" y="-56.5" font-family="Helvetica,sans-Serif" font-size="10.00">_npf_for_alpha_e</text>
</a>
</g>
</g>
<!-- Node1&#45;&gt;Node10 -->
<g id="edge11" class="edge"><title>Node1&#45;&gt;Node10</title>
<path fill="none" stroke="midnightblue" d="M103.691,-98.3986C119.027,-93.4385 136.236,-87.8726 152.207,-82.7071"/>
<polygon fill="midnightblue" stroke="midnightblue" points="153.525,-85.9592 161.963,-79.5516 151.371,-79.2989 153.525,-85.9592"/>
</g>
<!-- Node11 -->
<g id="node11" class="node"><title>Node11</title>
<g id="a_node11"><a xlink:href="neutron_8f90.html#a205a6064d99449f15070e33674939409" target="_top" xlink:title="Cleans up and checks neutron spectra :) ">
<polygon fill="white" stroke="black" points="148,-0.5 148,-30.5 271,-30.5 271,-0.5 148,-0.5"/>
<text text-anchor="start" x="156" y="-18.5" font-family="Helvetica,sans-Serif" font-size="10.00">cleanup_check_neutron</text>
<text text-anchor="middle" x="209.5" y="-7.5" font-family="Helvetica,sans-Serif" font-size="10.00">_spectra</text>
</a>
</g>
</g>
<!-- Node1&#45;&gt;Node11 -->
<g id="edge12" class="edge"><title>Node1&#45;&gt;Node11</title>
<path fill="none" stroke="midnightblue" d="M72.6482,-98.241C89.9461,-82.0078 119.19,-56.3879 148,-39.5 150.778,-37.8714 153.688,-36.308 156.665,-34.8154"/>
<polygon fill="midnightblue" stroke="midnightblue" points="158.171,-37.9747 165.735,-30.5559 155.196,-31.6386 158.171,-37.9747"/>
</g>
<!-- Node12 -->
<g id="node12" class="node"><title>Node12</title>
<g id="a_node12"><a xlink:href="neutron_8f90.html#adbcdb83427ac7bfe40a2debbe73e43b4" target="_top" xlink:title="Outputs neutron spectra, user&#45;friendly xy file + for MCNP6 input. ">
<polygon fill="white" stroke="black" points="315,-261 315,-280 437,-280 437,-261 315,-261"/>
<text text-anchor="middle" x="376" y="-268" font-family="Helvetica,sans-Serif" font-size="10.00">output_neutron_spectra</text>
</a>
</g>
</g>
<!-- Node1&#45;&gt;Node12 -->
<g id="edge13" class="edge"><title>Node1&#45;&gt;Node12</title>
<path fill="none" stroke="midnightblue" d="M68.9681,-128.575C85.0215,-147.852 115.315,-181.056 148,-200.5 198.131,-230.323 262.16,-248.559 309.427,-258.909"/>
<polygon fill="midnightblue" stroke="midnightblue" points="308.739,-262.34 319.248,-260.999 310.196,-255.494 308.739,-262.34"/>
</g>
<!-- Node3 -->
<g id="node3" class="node"><title>Node3</title>
<g id="a_node3"><a xlink:href="neutron_8f90.html#a7f3c8c1b9fb42e2ecdd3f4cfe4646aa4" target="_top" xlink:title="Retrieves TALYS differential neutron production cross section (n spectrum) and interpolates to Enspec...">
<polygon fill="white" stroke="black" points="325,-211.5 325,-241.5 427,-241.5 427,-211.5 325,-211.5"/>
<text text-anchor="start" x="333" y="-229.5" font-family="Helvetica,sans-Serif" font-size="10.00">retrieve_interpolate</text>
<text text-anchor="middle" x="376" y="-218.5" font-family="Helvetica,sans-Serif" font-size="10.00">_talys_spectrum</text>
</a>
</g>
</g>
<!-- Node2&#45;&gt;Node3 -->
<g id="edge2" class="edge"><title>Node2&#45;&gt;Node3</title>
<path fill="none" stroke="midnightblue" d="M258.966,-190.526C277.124,-196.156 297.942,-202.61 316.885,-208.483"/>
<polygon fill="midnightblue" stroke="midnightblue" points="316.009,-211.875 326.597,-211.494 318.082,-205.189 316.009,-211.875"/>
</g>
<!-- Node6 -->
<g id="node6" class="node"><title>Node6</title>
<g id="a_node6"><a xlink:href="nr__dtrapzd_8f.html#ad4ab46147be364cc1164eeec24d5638f" target="_top" xlink:title="This routine computes the nth stage of refinement of an extended trapezoidal rule. ">
<polygon fill="white" stroke="black" points="354,-135 354,-154 398,-154 398,-135 354,-135"/>
<text text-anchor="middle" x="376" y="-142" font-family="Helvetica,sans-Serif" font-size="10.00">trapzd</text>
</a>
</g>
</g>
<!-- Node2&#45;&gt;Node6 -->
<g id="edge5" class="edge"><title>Node2&#45;&gt;Node6</title>
<path fill="none" stroke="midnightblue" d="M262.549,-165.691C289.322,-160.646 321.054,-154.666 343.971,-150.347"/>
<polygon fill="midnightblue" stroke="midnightblue" points="344.652,-153.781 353.831,-148.489 343.356,-146.902 344.652,-153.781"/>
</g>
<!-- Node7 -->
<g id="node7" class="node"><title>Node7</title>
<g id="a_node7"><a xlink:href="neutron_8f90.html#af083fdc779ff8ce842f616732a568f27" target="_top" xlink:title="Function (a,n)_cross_section_spectrum / linear_stopping_power at a given neutron energy provided for ...">
<polygon fill="white" stroke="black" points="339,-173 339,-192 413,-192 413,-173 339,-173"/>
<text text-anchor="middle" x="376" y="-180" font-family="Helvetica,sans-Serif" font-size="10.00">func_dnpf_nj</text>
</a>
</g>
</g>
<!-- Node2&#45;&gt;Node7 -->
<g id="edge6" class="edge"><title>Node2&#45;&gt;Node7</title>
<path fill="none" stroke="midnightblue" d="M262.549,-177.715C283.807,-178.619 308.191,-179.657 328.807,-180.534"/>
<polygon fill="midnightblue" stroke="midnightblue" points="328.76,-184.035 338.9,-180.964 329.058,-177.042 328.76,-184.035"/>
</g>
<!-- Node4 -->
<g id="node4" class="node"><title>Node4</title>
<g id="a_node4"><a xlink:href="iostuff_8f90.html#af759d00c9a49b8f430c17756db8dabbb" target="_top" xlink:title="Opens external file including error handling. ">
<polygon fill="white" stroke="black" points="506,-239 506,-258 563,-258 563,-239 506,-239"/>
<text text-anchor="middle" x="534.5" y="-246" font-family="Helvetica,sans-Serif" font-size="10.00">open_file</text>
</a>
</g>
</g>
<!-- Node3&#45;&gt;Node4 -->
<g id="edge3" class="edge"><title>Node3&#45;&gt;Node4</title>
<path fill="none" stroke="midnightblue" d="M427.379,-233.582C449.547,-236.698 475.147,-240.297 495.65,-243.179"/>
<polygon fill="midnightblue" stroke="midnightblue" points="495.173,-246.647 505.563,-244.573 496.148,-239.715 495.173,-246.647"/>
</g>
<!-- Node5 -->
<g id="node5" class="node"><title>Node5</title>
<g id="a_node5"><a xlink:href="general_8f90.html#ae1acc3fd1375342897df419160518e3f" target="_top" xlink:title="Interpolation of type between tabulated values of function fa at xi ">
<polygon fill="white" stroke="black" points="481,-173 481,-192 588,-192 588,-173 481,-173"/>
<text text-anchor="middle" x="534.5" y="-180" font-family="Helvetica,sans-Serif" font-size="10.00">interpolate_tab_func</text>
</a>
</g>
</g>
<!-- Node3&#45;&gt;Node5 -->
<g id="edge4" class="edge"><title>Node3&#45;&gt;Node5</title>
<path fill="none" stroke="midnightblue" d="M427.379,-212.336C447.467,-206.688 470.374,-200.248 489.752,-194.8"/>
<polygon fill="midnightblue" stroke="midnightblue" points="490.85,-198.127 499.53,-192.051 488.956,-191.388 490.85,-198.127"/>
</g>
<!-- Node7&#45;&gt;Node5 -->
<g id="edge7" class="edge"><title>Node7&#45;&gt;Node5</title>
<path fill="none" stroke="midnightblue" d="M413.298,-182.5C430.368,-182.5 451.22,-182.5 470.734,-182.5"/>
<polygon fill="midnightblue" stroke="midnightblue" points="470.789,-186 480.789,-182.5 470.789,-179 470.789,-186"/>
</g>
<!-- Node8&#45;&gt;Node5 -->
<g id="edge9" class="edge"><title>Node8&#45;&gt;Node5</title>
<path fill="none" stroke="midnightblue" d="M262.183,-108.636C310.632,-105.809 384.47,-106 445,-125.5 471.515,-134.042 497.831,-152.62 514.784,-166.255"/>
<polygon fill="midnightblue" stroke="midnightblue" points="512.815,-169.168 522.748,-172.854 517.282,-163.778 512.815,-169.168"/>
</g>
<!-- Node9 -->
<g id="node9" class="node"><title>Node9</title>
<g id="a_node9"><a xlink:href="neutron_8f90.html#ad113944a5f0424bfe566d3fd069a92c6" target="_top" xlink:title="Calculated nonrelativistic reaction kinematics according to Marmier &amp; Sheldon, 1969, Appendix C.4, pp.612–614. ">
<polygon fill="white" stroke="black" points="307,-59 307,-78 445,-78 445,-59 307,-59"/>
<text text-anchor="middle" x="376" y="-66" font-family="Helvetica,sans-Serif" font-size="10.00">nonrel_reaction_kinematics</text>
</a>
</g>
</g>
<!-- Node8&#45;&gt;Node9 -->
<g id="edge10" class="edge"><title>Node8&#45;&gt;Node9</title>
<path fill="none" stroke="midnightblue" d="M262.097,-99.3852C284.06,-93.3773 309.424,-86.4386 330.542,-80.6618"/>
<polygon fill="midnightblue" stroke="midnightblue" points="331.503,-84.0275 340.225,-78.0128 329.656,-77.2756 331.503,-84.0275"/>
</g>
<!-- Node12&#45;&gt;Node4 -->
<g id="edge14" class="edge"><title>Node12&#45;&gt;Node4</title>
<path fill="none" stroke="midnightblue" d="M437.059,-262.057C456.618,-259.308 477.783,-256.332 495.288,-253.872"/>
<polygon fill="midnightblue" stroke="midnightblue" points="496.252,-257.271 505.667,-252.413 495.278,-250.339 496.252,-257.271"/>
</g>
</g>
</svg>
