<?xml version="1.0" encoding="UTF-8" standalone="no"?>
<!DOCTYPE svg PUBLIC "-//W3C//DTD SVG 1.1//EN"
 "http://www.w3.org/Graphics/SVG/1.1/DTD/svg11.dtd">
<!-- Generated by graphviz version 2.38.0 (20140413.2041)
 -->
<!-- Title: output_neutron_prod_func_table Pages: 1 -->
<svg width="354pt" height="39pt"
 viewBox="0.00 0.00 354.00 39.00" xmlns="http://www.w3.org/2000/svg" xmlns:xlink="http://www.w3.org/1999/xlink">
<g id="graph0" class="graph" transform="scale(1 1) rotate(0) translate(4 35)">
<title>output_neutron_prod_func_table</title>
<polygon fill="white" stroke="none" points="-4,4 -4,-35 350,-35 350,4 -4,4"/>
<!-- Node1 -->
<g id="node1" class="node"><title>Node1</title>
<polygon fill="#bfbfbf" stroke="black" points="0,-0.5 0,-30.5 109,-30.5 109,-0.5 0,-0.5"/>
<text text-anchor="start" x="8" y="-18.5" font-family="Helvetica,sans-Serif" font-size="10.00">output_neutron_prod</text>
<text text-anchor="middle" x="54.5" y="-7.5" font-family="Helvetica,sans-Serif" font-size="10.00">_func_table</text>
</g>
<!-- Node2 -->
<g id="node2" class="node"><title>Node2</title>
<g id="a_node2"><a xlink:href="neutron_8f90.html#a5110672e8691955a1f3abff1f54c4039" target="_top" xlink:title="Top subroutine to calculate (a,n) neutron yield from each alpha decay branch of each chain...">
<polygon fill="white" stroke="black" points="145,-0.5 145,-30.5 257,-30.5 257,-0.5 145,-0.5"/>
<text text-anchor="start" x="153" y="-18.5" font-family="Helvetica,sans-Serif" font-size="10.00">calculate_an_neutron</text>
<text text-anchor="middle" x="201" y="-7.5" font-family="Helvetica,sans-Serif" font-size="10.00">_yield</text>
</a>
</g>
</g>
<!-- Node1&#45;&gt;Node2 -->
<g id="edge1" class="edge"><title>Node1&#45;&gt;Node2</title>
<path fill="none" stroke="midnightblue" d="M119.464,-15.5C127.879,-15.5 136.446,-15.5 144.701,-15.5"/>
<polygon fill="midnightblue" stroke="midnightblue" points="119.307,-12.0001 109.306,-15.5 119.306,-19.0001 119.307,-12.0001"/>
</g>
<!-- Node3 -->
<g id="node3" class="node"><title>Node3</title>
<g id="a_node3"><a xlink:href="argon39_8f90.html#a53921723df12bf3ddfe3fd2c80826bcb" target="_top" xlink:title="Main program. ">
<polygon fill="white" stroke="black" points="293,-6 293,-25 346,-25 346,-6 293,-6"/>
<text text-anchor="middle" x="319.5" y="-13" font-family="Helvetica,sans-Serif" font-size="10.00">argon39</text>
</a>
</g>
</g>
<!-- Node2&#45;&gt;Node3 -->
<g id="edge2" class="edge"><title>Node2&#45;&gt;Node3</title>
<path fill="none" stroke="midnightblue" d="M267.403,-15.5C276.412,-15.5 285.189,-15.5 292.855,-15.5"/>
<polygon fill="midnightblue" stroke="midnightblue" points="267.18,-12.0001 257.179,-15.5 267.179,-19.0001 267.18,-12.0001"/>
</g>
</g>
</svg>
