<?xml version="1.0" encoding="UTF-8" standalone="no"?>
<!DOCTYPE svg PUBLIC "-//W3C//DTD SVG 1.1//EN"
 "http://www.w3.org/Graphics/SVG/1.1/DTD/svg11.dtd">
<!-- Generated by graphviz version 2.38.0 (20140413.2041)
 -->
<!-- Title: retrieve_interpolate_talys_spectrum Pages: 1 -->
<svg width="253pt" height="66pt"
 viewBox="0.00 0.00 253.00 66.00" xmlns="http://www.w3.org/2000/svg" xmlns:xlink="http://www.w3.org/1999/xlink">
<g id="graph0" class="graph" transform="scale(1 1) rotate(0) translate(4 62)">
<title>retrieve_interpolate_talys_spectrum</title>
<polygon fill="white" stroke="none" points="-4,4 -4,-62 249,-62 249,4 -4,4"/>
<!-- Node1 -->
<g id="node1" class="node"><title>Node1</title>
<polygon fill="#bfbfbf" stroke="black" points="0,-14 0,-44 102,-44 102,-14 0,-14"/>
<text text-anchor="start" x="8" y="-32" font-family="Helvetica,sans-Serif" font-size="10.00">retrieve_interpolate</text>
<text text-anchor="middle" x="51" y="-21" font-family="Helvetica,sans-Serif" font-size="10.00">_talys_spectrum</text>
</g>
<!-- Node2 -->
<g id="node2" class="node"><title>Node2</title>
<g id="a_node2"><a xlink:href="iostuff_8f90.html#af759d00c9a49b8f430c17756db8dabbb" target="_top" xlink:title="Opens external file including error handling. ">
<polygon fill="white" stroke="black" points="163,-38.5 163,-57.5 220,-57.5 220,-38.5 163,-38.5"/>
<text text-anchor="middle" x="191.5" y="-45.5" font-family="Helvetica,sans-Serif" font-size="10.00">open_file</text>
</a>
</g>
</g>
<!-- Node1&#45;&gt;Node2 -->
<g id="edge1" class="edge"><title>Node1&#45;&gt;Node2</title>
<path fill="none" stroke="midnightblue" d="M102.002,-35.8594C118.622,-38.1395 136.849,-40.6399 152.42,-42.776"/>
<polygon fill="midnightblue" stroke="midnightblue" points="152.339,-46.2977 162.722,-44.1893 153.291,-39.3626 152.339,-46.2977"/>
</g>
<!-- Node3 -->
<g id="node3" class="node"><title>Node3</title>
<g id="a_node3"><a xlink:href="general_8f90.html#ae1acc3fd1375342897df419160518e3f" target="_top" xlink:title="Interpolation of type between tabulated values of function fa at xi ">
<polygon fill="white" stroke="black" points="138,-0.5 138,-19.5 245,-19.5 245,-0.5 138,-0.5"/>
<text text-anchor="middle" x="191.5" y="-7.5" font-family="Helvetica,sans-Serif" font-size="10.00">interpolate_tab_func</text>
</a>
</g>
</g>
<!-- Node1&#45;&gt;Node3 -->
<g id="edge2" class="edge"><title>Node1&#45;&gt;Node3</title>
<path fill="none" stroke="midnightblue" d="M102.002,-22.1406C110.355,-20.9946 119.115,-19.7929 127.739,-18.6098"/>
<polygon fill="midnightblue" stroke="midnightblue" points="128.337,-22.0606 137.769,-17.2339 127.386,-15.1256 128.337,-22.0606"/>
</g>
</g>
</svg>
