<?xml version="1.0" encoding="UTF-8" standalone="no"?>
<!DOCTYPE svg PUBLIC "-//W3C//DTD SVG 1.1//EN"
 "http://www.w3.org/Graphics/SVG/1.1/DTD/svg11.dtd">
<!-- Generated by graphviz version 2.38.0 (20140413.2041)
 -->
<!-- Title: local_an_differential_npf_for_alpha_e Pages: 1 -->
<svg width="287pt" height="66pt"
 viewBox="0.00 0.00 287.00 66.00" xmlns="http://www.w3.org/2000/svg" xmlns:xlink="http://www.w3.org/1999/xlink">
<g id="graph0" class="graph" transform="scale(1 1) rotate(0) translate(4 62)">
<title>local_an_differential_npf_for_alpha_e</title>
<polygon fill="white" stroke="none" points="-4,4 -4,-62 283,-62 283,4 -4,4"/>
<!-- Node1 -->
<g id="node1" class="node"><title>Node1</title>
<polygon fill="#bfbfbf" stroke="black" points="0,-14 0,-44 105,-44 105,-14 0,-14"/>
<text text-anchor="start" x="8" y="-32" font-family="Helvetica,sans-Serif" font-size="10.00">local_an_differential</text>
<text text-anchor="middle" x="52.5" y="-21" font-family="Helvetica,sans-Serif" font-size="10.00">_npf_for_alpha_e</text>
</g>
<!-- Node2 -->
<g id="node2" class="node"><title>Node2</title>
<g id="a_node2"><a xlink:href="general_8f90.html#ae1acc3fd1375342897df419160518e3f" target="_top" xlink:title="Interpolation of type between tabulated values of function fa at xi ">
<polygon fill="white" stroke="black" points="156.5,-38.5 156.5,-57.5 263.5,-57.5 263.5,-38.5 156.5,-38.5"/>
<text text-anchor="middle" x="210" y="-45.5" font-family="Helvetica,sans-Serif" font-size="10.00">interpolate_tab_func</text>
</a>
</g>
</g>
<!-- Node1&#45;&gt;Node2 -->
<g id="edge1" class="edge"><title>Node1&#45;&gt;Node2</title>
<path fill="none" stroke="midnightblue" d="M105.279,-35.3267C118.374,-36.9268 132.58,-38.6625 146.156,-40.3213"/>
<polygon fill="midnightblue" stroke="midnightblue" points="146.035,-43.8324 156.385,-41.5712 146.884,-36.8841 146.035,-43.8324"/>
</g>
<!-- Node3 -->
<g id="node3" class="node"><title>Node3</title>
<g id="a_node3"><a xlink:href="neutron_8f90.html#ad113944a5f0424bfe566d3fd069a92c6" target="_top" xlink:title="Calculated nonrelativistic reaction kinematics according to Marmier &amp; Sheldon, 1969, Appendix C.4, pp.612–614. ">
<polygon fill="white" stroke="black" points="141,-0.5 141,-19.5 279,-19.5 279,-0.5 141,-0.5"/>
<text text-anchor="middle" x="210" y="-7.5" font-family="Helvetica,sans-Serif" font-size="10.00">nonrel_reaction_kinematics</text>
</a>
</g>
</g>
<!-- Node1&#45;&gt;Node3 -->
<g id="edge2" class="edge"><title>Node1&#45;&gt;Node3</title>
<path fill="none" stroke="midnightblue" d="M105.279,-22.6733C113.471,-21.6724 122.097,-20.6184 130.732,-19.5633"/>
<polygon fill="midnightblue" stroke="midnightblue" points="131.345,-23.0145 140.847,-18.3274 130.496,-16.0662 131.345,-23.0145"/>
</g>
</g>
</svg>
