<?xml version="1.0" encoding="UTF-8" standalone="no"?>
<!DOCTYPE svg PUBLIC "-//W3C//DTD SVG 1.1//EN"
 "http://www.w3.org/Graphics/SVG/1.1/DTD/svg11.dtd">
<!-- Generated by graphviz version 2.38.0 (20140413.2041)
 -->
<!-- Title: tabulate_neutron_prod_func Pages: 1 -->
<svg width="384pt" height="66pt"
 viewBox="0.00 0.00 384.00 66.00" xmlns="http://www.w3.org/2000/svg" xmlns:xlink="http://www.w3.org/1999/xlink">
<g id="graph0" class="graph" transform="scale(1 1) rotate(0) translate(4 62)">
<title>tabulate_neutron_prod_func</title>
<polygon fill="white" stroke="none" points="-4,4 -4,-62 380,-62 380,4 -4,4"/>
<!-- Node1 -->
<g id="node1" class="node"><title>Node1</title>
<polygon fill="#bfbfbf" stroke="black" points="0,-19.5 0,-38.5 142,-38.5 142,-19.5 0,-19.5"/>
<text text-anchor="middle" x="71" y="-26.5" font-family="Helvetica,sans-Serif" font-size="10.00">tabulate_neutron_prod_func</text>
</g>
<!-- Node2 -->
<g id="node2" class="node"><title>Node2</title>
<g id="a_node2"><a xlink:href="nr__dqtrap_8f.html#a694ce7543be4910a1892809a7c8a2119" target="_top" xlink:title="Returns as s the integral of the function func from a to b. ">
<polygon fill="white" stroke="black" points="186,-38.5 186,-57.5 225,-57.5 225,-38.5 186,-38.5"/>
<text text-anchor="middle" x="205.5" y="-45.5" font-family="Helvetica,sans-Serif" font-size="10.00">qtrap</text>
</a>
</g>
</g>
<!-- Node1&#45;&gt;Node2 -->
<g id="edge1" class="edge"><title>Node1&#45;&gt;Node2</title>
<path fill="none" stroke="midnightblue" d="M138.638,-38.5557C151.688,-40.427 164.718,-42.2954 175.702,-43.8705"/>
<polygon fill="midnightblue" stroke="midnightblue" points="175.534,-47.3821 185.929,-45.337 176.527,-40.4529 175.534,-47.3821"/>
</g>
<!-- Node4 -->
<g id="node4" class="node"><title>Node4</title>
<g id="a_node4"><a xlink:href="neutron_8f90.html#ac47eda82ac82a65036682cf5844bef84" target="_top" xlink:title="Function (a,n)_cross_section / linear_stopping_power provided for integration of neutron production f...">
<polygon fill="white" stroke="black" points="178,-0.5 178,-19.5 233,-19.5 233,-0.5 178,-0.5"/>
<text text-anchor="middle" x="205.5" y="-7.5" font-family="Helvetica,sans-Serif" font-size="10.00">func_npf</text>
</a>
</g>
</g>
<!-- Node1&#45;&gt;Node4 -->
<g id="edge3" class="edge"><title>Node1&#45;&gt;Node4</title>
<path fill="none" stroke="midnightblue" d="M138.638,-19.4443C148.643,-18.0097 158.636,-16.5767 167.705,-15.2763"/>
<polygon fill="midnightblue" stroke="midnightblue" points="168.469,-18.7026 177.871,-13.8185 167.475,-11.7735 168.469,-18.7026"/>
</g>
<!-- Node3 -->
<g id="node3" class="node"><title>Node3</title>
<g id="a_node3"><a xlink:href="nr__dtrapzd_8f.html#ad4ab46147be364cc1164eeec24d5638f" target="_top" xlink:title="This routine computes the nth stage of refinement of an extended trapezoidal rule. ">
<polygon fill="white" stroke="black" points="300.5,-38.5 300.5,-57.5 344.5,-57.5 344.5,-38.5 300.5,-38.5"/>
<text text-anchor="middle" x="322.5" y="-45.5" font-family="Helvetica,sans-Serif" font-size="10.00">trapzd</text>
</a>
</g>
</g>
<!-- Node2&#45;&gt;Node3 -->
<g id="edge2" class="edge"><title>Node2&#45;&gt;Node3</title>
<path fill="none" stroke="midnightblue" d="M225.233,-48C242.793,-48 269.383,-48 290.171,-48"/>
<polygon fill="midnightblue" stroke="midnightblue" points="290.434,-51.5001 300.434,-48 290.434,-44.5001 290.434,-51.5001"/>
</g>
<!-- Node5 -->
<g id="node5" class="node"><title>Node5</title>
<g id="a_node5"><a xlink:href="general_8f90.html#ae1acc3fd1375342897df419160518e3f" target="_top" xlink:title="Interpolation of type between tabulated values of function fa at xi ">
<polygon fill="white" stroke="black" points="269,-0.5 269,-19.5 376,-19.5 376,-0.5 269,-0.5"/>
<text text-anchor="middle" x="322.5" y="-7.5" font-family="Helvetica,sans-Serif" font-size="10.00">interpolate_tab_func</text>
</a>
</g>
</g>
<!-- Node4&#45;&gt;Node5 -->
<g id="edge4" class="edge"><title>Node4&#45;&gt;Node5</title>
<path fill="none" stroke="midnightblue" d="M233.172,-10C240.886,-10 249.65,-10 258.59,-10"/>
<polygon fill="midnightblue" stroke="midnightblue" points="258.712,-13.5001 268.712,-10 258.712,-6.5001 258.712,-13.5001"/>
</g>
</g>
</svg>
