<?xml version="1.0" encoding="UTF-8" standalone="no"?>
<!DOCTYPE svg PUBLIC "-//W3C//DTD SVG 1.1//EN"
 "http://www.w3.org/Graphics/SVG/1.1/DTD/svg11.dtd">
<!-- Generated by graphviz version 2.38.0 (20140413.2041)
 -->
<!-- Title: output_neutron_yield Pages: 1 -->
<svg width="355pt" height="39pt"
 viewBox="0.00 0.00 355.00 39.00" xmlns="http://www.w3.org/2000/svg" xmlns:xlink="http://www.w3.org/1999/xlink">
<g id="graph0" class="graph" transform="scale(1 1) rotate(0) translate(4 35)">
<title>output_neutron_yield</title>
<polygon fill="white" stroke="none" points="-4,4 -4,-35 351,-35 351,4 -4,4"/>
<!-- Node1 -->
<g id="node1" class="node"><title>Node1</title>
<polygon fill="#bfbfbf" stroke="black" points="0,-6 0,-25 110,-25 110,-6 0,-6"/>
<text text-anchor="middle" x="55" y="-13" font-family="Helvetica,sans-Serif" font-size="10.00">output_neutron_yield</text>
</g>
<!-- Node2 -->
<g id="node2" class="node"><title>Node2</title>
<g id="a_node2"><a xlink:href="neutron_8f90.html#a5110672e8691955a1f3abff1f54c4039" target="_top" xlink:title="Top subroutine to calculate (a,n) neutron yield from each alpha decay branch of each chain...">
<polygon fill="white" stroke="black" points="146,-0.5 146,-30.5 258,-30.5 258,-0.5 146,-0.5"/>
<text text-anchor="start" x="154" y="-18.5" font-family="Helvetica,sans-Serif" font-size="10.00">calculate_an_neutron</text>
<text text-anchor="middle" x="202" y="-7.5" font-family="Helvetica,sans-Serif" font-size="10.00">_yield</text>
</a>
</g>
</g>
<!-- Node1&#45;&gt;Node2 -->
<g id="edge1" class="edge"><title>Node1&#45;&gt;Node2</title>
<path fill="none" stroke="midnightblue" d="M120.574,-15.5C128.994,-15.5 137.559,-15.5 145.807,-15.5"/>
<polygon fill="midnightblue" stroke="midnightblue" points="120.405,-12.0001 110.405,-15.5 120.405,-19.0001 120.405,-12.0001"/>
</g>
<!-- Node3 -->
<g id="node3" class="node"><title>Node3</title>
<g id="a_node3"><a xlink:href="argon39_8f90.html#a53921723df12bf3ddfe3fd2c80826bcb" target="_top" xlink:title="Main program. ">
<polygon fill="white" stroke="black" points="294,-6 294,-25 347,-25 347,-6 294,-6"/>
<text text-anchor="middle" x="320.5" y="-13" font-family="Helvetica,sans-Serif" font-size="10.00">argon39</text>
</a>
</g>
</g>
<!-- Node2&#45;&gt;Node3 -->
<g id="edge2" class="edge"><title>Node2&#45;&gt;Node3</title>
<path fill="none" stroke="midnightblue" d="M268.403,-15.5C277.412,-15.5 286.189,-15.5 293.855,-15.5"/>
<polygon fill="midnightblue" stroke="midnightblue" points="268.18,-12.0001 258.179,-15.5 268.179,-19.0001 268.18,-12.0001"/>
</g>
</g>
</svg>
