<?xml version="1.0" encoding="UTF-8" standalone="no"?>
<!DOCTYPE svg PUBLIC "-//W3C//DTD SVG 1.1//EN"
 "http://www.w3.org/Graphics/SVG/1.1/DTD/svg11.dtd">
<!-- Generated by graphviz version 2.38.0 (20140413.2041)
 -->
<!-- Title: retrieve_interpolate_talys_spectrum Pages: 1 -->
<svg width="489pt" height="39pt"
 viewBox="0.00 0.00 489.00 39.00" xmlns="http://www.w3.org/2000/svg" xmlns:xlink="http://www.w3.org/1999/xlink">
<g id="graph0" class="graph" transform="scale(1 1) rotate(0) translate(4 35)">
<title>retrieve_interpolate_talys_spectrum</title>
<polygon fill="white" stroke="none" points="-4,4 -4,-35 485,-35 485,4 -4,4"/>
<!-- Node1 -->
<g id="node1" class="node"><title>Node1</title>
<polygon fill="#bfbfbf" stroke="black" points="0,-0.5 0,-30.5 102,-30.5 102,-0.5 0,-0.5"/>
<text text-anchor="start" x="8" y="-18.5" font-family="Helvetica,sans-Serif" font-size="10.00">retrieve_interpolate</text>
<text text-anchor="middle" x="51" y="-7.5" font-family="Helvetica,sans-Serif" font-size="10.00">_talys_spectrum</text>
</g>
<!-- Node2 -->
<g id="node2" class="node"><title>Node2</title>
<g id="a_node2"><a xlink:href="neutron_8f90.html#aee8287f8ab14cf717b431e223ad40d28" target="_top" xlink:title="Tabulates TALYS differential neutron production function. ">
<polygon fill="white" stroke="black" points="138,-0.5 138,-30.5 244,-30.5 244,-0.5 138,-0.5"/>
<text text-anchor="start" x="146" y="-18.5" font-family="Helvetica,sans-Serif" font-size="10.00">tabulate_differential</text>
<text text-anchor="middle" x="191" y="-7.5" font-family="Helvetica,sans-Serif" font-size="10.00">_neutron_prod_func</text>
</a>
</g>
</g>
<!-- Node1&#45;&gt;Node2 -->
<g id="edge1" class="edge"><title>Node1&#45;&gt;Node2</title>
<path fill="none" stroke="midnightblue" d="M112.392,-15.5C120.838,-15.5 129.459,-15.5 137.737,-15.5"/>
<polygon fill="midnightblue" stroke="midnightblue" points="112.212,-12.0001 102.212,-15.5 112.212,-19.0001 112.212,-12.0001"/>
</g>
<!-- Node3 -->
<g id="node3" class="node"><title>Node3</title>
<g id="a_node3"><a xlink:href="neutron_8f90.html#ac9afffbf2d4d8afc896dcbe976991b28" target="_top" xlink:title="Top subroutine to calculate (a,n) neutron energy spectra from each decay chain. ">
<polygon fill="white" stroke="black" points="280,-0.5 280,-30.5 392,-30.5 392,-0.5 280,-0.5"/>
<text text-anchor="start" x="288" y="-18.5" font-family="Helvetica,sans-Serif" font-size="10.00">calculate_an_neutron</text>
<text text-anchor="middle" x="336" y="-7.5" font-family="Helvetica,sans-Serif" font-size="10.00">_spectrum</text>
</a>
</g>
</g>
<!-- Node2&#45;&gt;Node3 -->
<g id="edge2" class="edge"><title>Node2&#45;&gt;Node3</title>
<path fill="none" stroke="midnightblue" d="M254.296,-15.5C262.81,-15.5 271.502,-15.5 279.877,-15.5"/>
<polygon fill="midnightblue" stroke="midnightblue" points="254.031,-12.0001 244.031,-15.5 254.031,-19.0001 254.031,-12.0001"/>
</g>
<!-- Node4 -->
<g id="node4" class="node"><title>Node4</title>
<g id="a_node4"><a xlink:href="argon39_8f90.html#a53921723df12bf3ddfe3fd2c80826bcb" target="_top" xlink:title="Main program. ">
<polygon fill="white" stroke="black" points="428,-6 428,-25 481,-25 481,-6 428,-6"/>
<text text-anchor="middle" x="454.5" y="-13" font-family="Helvetica,sans-Serif" font-size="10.00">argon39</text>
</a>
</g>
</g>
<!-- Node3&#45;&gt;Node4 -->
<g id="edge3" class="edge"><title>Node3&#45;&gt;Node4</title>
<path fill="none" stroke="midnightblue" d="M402.403,-15.5C411.412,-15.5 420.189,-15.5 427.855,-15.5"/>
<polygon fill="midnightblue" stroke="midnightblue" points="402.18,-12.0001 392.179,-15.5 402.179,-19.0001 402.18,-12.0001"/>
</g>
</g>
</svg>
