<?xml version="1.0" encoding="UTF-8" standalone="no"?>
<!DOCTYPE svg PUBLIC "-//W3C//DTD SVG 1.1//EN"
 "http://www.w3.org/Graphics/SVG/1.1/DTD/svg11.dtd">
<!-- Generated by graphviz version 2.38.0 (20140413.2041)
 -->
<!-- Title: setup_target_nuclide Pages: 1 -->
<svg width="358pt" height="28pt"
 viewBox="0.00 0.00 358.00 28.00" xmlns="http://www.w3.org/2000/svg" xmlns:xlink="http://www.w3.org/1999/xlink">
<g id="graph0" class="graph" transform="scale(1 1) rotate(0) translate(4 24)">
<title>setup_target_nuclide</title>
<polygon fill="white" stroke="none" points="-4,4 -4,-24 354,-24 354,4 -4,4"/>
<!-- Node1 -->
<g id="node1" class="node"><title>Node1</title>
<polygon fill="#bfbfbf" stroke="black" points="0,-0.5 0,-19.5 109,-19.5 109,-0.5 0,-0.5"/>
<text text-anchor="middle" x="54.5" y="-7.5" font-family="Helvetica,sans-Serif" font-size="10.00">setup_target_nuclide</text>
</g>
<!-- Node2 -->
<g id="node2" class="node"><title>Node2</title>
<g id="a_node2"><a xlink:href="elemnucl_8f90.html#a80682d75c547656792b6819000fb25ed" target="_top" xlink:title="Returns index inuc of nuclide Z,A ">
<polygon fill="white" stroke="black" points="145,-0.5 145,-19.5 244,-19.5 244,-0.5 145,-0.5"/>
<text text-anchor="middle" x="194.5" y="-7.5" font-family="Helvetica,sans-Serif" font-size="10.00">find_nuclide_index</text>
</a>
</g>
</g>
<!-- Node1&#45;&gt;Node2 -->
<g id="edge1" class="edge"><title>Node1&#45;&gt;Node2</title>
<path fill="none" stroke="midnightblue" d="M109.25,-10C117.535,-10 126.13,-10 134.522,-10"/>
<polygon fill="midnightblue" stroke="midnightblue" points="134.625,-13.5001 144.625,-10 134.625,-6.5001 134.625,-13.5001"/>
</g>
<!-- Node3 -->
<g id="node3" class="node"><title>Node3</title>
<g id="a_node3"><a xlink:href="ensdf_8f90.html#a9f343a9e65fbf1717c6c4887c0e74884" target="_top" xlink:title="Returns NUCID from Z and A compliant to ENSDF standard, i.e., mass number in cols 1&#45;3 right&#45;justied...">
<polygon fill="white" stroke="black" points="280,-0.5 280,-19.5 350,-19.5 350,-0.5 280,-0.5"/>
<text text-anchor="middle" x="315" y="-7.5" font-family="Helvetica,sans-Serif" font-size="10.00">az_to_nucid</text>
</a>
</g>
</g>
<!-- Node2&#45;&gt;Node3 -->
<g id="edge2" class="edge"><title>Node2&#45;&gt;Node3</title>
<path fill="none" stroke="midnightblue" d="M244.04,-10C252.489,-10 261.239,-10 269.571,-10"/>
<polygon fill="midnightblue" stroke="midnightblue" points="269.847,-13.5001 279.847,-10 269.847,-6.5001 269.847,-13.5001"/>
</g>
</g>
</svg>
