<?xml version="1.0" encoding="UTF-8" standalone="no"?>
<!DOCTYPE svg PUBLIC "-//W3C//DTD SVG 1.1//EN"
 "http://www.w3.org/Graphics/SVG/1.1/DTD/svg11.dtd">
<!-- Generated by graphviz version 2.38.0 (20140413.2041)
 -->
<!-- Title: func_dnpf_nj Pages: 1 -->
<svg width="461pt" height="39pt"
 viewBox="0.00 0.00 461.00 39.00" xmlns="http://www.w3.org/2000/svg" xmlns:xlink="http://www.w3.org/1999/xlink">
<g id="graph0" class="graph" transform="scale(1 1) rotate(0) translate(4 35)">
<title>func_dnpf_nj</title>
<polygon fill="white" stroke="none" points="-4,4 -4,-35 457,-35 457,4 -4,4"/>
<!-- Node1 -->
<g id="node1" class="node"><title>Node1</title>
<polygon fill="#bfbfbf" stroke="black" points="0,-6 0,-25 74,-25 74,-6 0,-6"/>
<text text-anchor="middle" x="37" y="-13" font-family="Helvetica,sans-Serif" font-size="10.00">func_dnpf_nj</text>
</g>
<!-- Node2 -->
<g id="node2" class="node"><title>Node2</title>
<g id="a_node2"><a xlink:href="neutron_8f90.html#aee8287f8ab14cf717b431e223ad40d28" target="_top" xlink:title="Tabulates TALYS differential neutron production function. ">
<polygon fill="white" stroke="black" points="110,-0.5 110,-30.5 216,-30.5 216,-0.5 110,-0.5"/>
<text text-anchor="start" x="118" y="-18.5" font-family="Helvetica,sans-Serif" font-size="10.00">tabulate_differential</text>
<text text-anchor="middle" x="163" y="-7.5" font-family="Helvetica,sans-Serif" font-size="10.00">_neutron_prod_func</text>
</a>
</g>
</g>
<!-- Node1&#45;&gt;Node2 -->
<g id="edge1" class="edge"><title>Node1&#45;&gt;Node2</title>
<path fill="none" stroke="midnightblue" d="M84.4409,-15.5C92.7324,-15.5 101.421,-15.5 109.859,-15.5"/>
<polygon fill="midnightblue" stroke="midnightblue" points="84.1993,-12.0001 74.1993,-15.5 84.1992,-19.0001 84.1993,-12.0001"/>
</g>
<!-- Node3 -->
<g id="node3" class="node"><title>Node3</title>
<g id="a_node3"><a xlink:href="neutron_8f90.html#ac9afffbf2d4d8afc896dcbe976991b28" target="_top" xlink:title="Top subroutine to calculate (a,n) neutron energy spectra from each decay chain. ">
<polygon fill="white" stroke="black" points="252,-0.5 252,-30.5 364,-30.5 364,-0.5 252,-0.5"/>
<text text-anchor="start" x="260" y="-18.5" font-family="Helvetica,sans-Serif" font-size="10.00">calculate_an_neutron</text>
<text text-anchor="middle" x="308" y="-7.5" font-family="Helvetica,sans-Serif" font-size="10.00">_spectrum</text>
</a>
</g>
</g>
<!-- Node2&#45;&gt;Node3 -->
<g id="edge2" class="edge"><title>Node2&#45;&gt;Node3</title>
<path fill="none" stroke="midnightblue" d="M226.296,-15.5C234.81,-15.5 243.502,-15.5 251.877,-15.5"/>
<polygon fill="midnightblue" stroke="midnightblue" points="226.031,-12.0001 216.031,-15.5 226.031,-19.0001 226.031,-12.0001"/>
</g>
<!-- Node4 -->
<g id="node4" class="node"><title>Node4</title>
<g id="a_node4"><a xlink:href="argon39_8f90.html#a53921723df12bf3ddfe3fd2c80826bcb" target="_top" xlink:title="Main program. ">
<polygon fill="white" stroke="black" points="400,-6 400,-25 453,-25 453,-6 400,-6"/>
<text text-anchor="middle" x="426.5" y="-13" font-family="Helvetica,sans-Serif" font-size="10.00">argon39</text>
</a>
</g>
</g>
<!-- Node3&#45;&gt;Node4 -->
<g id="edge3" class="edge"><title>Node3&#45;&gt;Node4</title>
<path fill="none" stroke="midnightblue" d="M374.403,-15.5C383.412,-15.5 392.189,-15.5 399.855,-15.5"/>
<polygon fill="midnightblue" stroke="midnightblue" points="374.18,-12.0001 364.179,-15.5 374.179,-19.0001 374.18,-12.0001"/>
</g>
</g>
</svg>
