<?xml version="1.0" encoding="UTF-8" standalone="no"?>
<!DOCTYPE svg PUBLIC "-//W3C//DTD SVG 1.1//EN"
 "http://www.w3.org/Graphics/SVG/1.1/DTD/svg11.dtd">
<!-- Generated by graphviz version 2.38.0 (20140413.2041)
 -->
<!-- Title: trapzd Pages: 1 -->
<svg width="609pt" height="124pt"
 viewBox="0.00 0.00 609.00 123.50" xmlns="http://www.w3.org/2000/svg" xmlns:xlink="http://www.w3.org/1999/xlink">
<g id="graph0" class="graph" transform="scale(1 1) rotate(0) translate(4 119.5)">
<title>trapzd</title>
<polygon fill="white" stroke="none" points="-4,4 -4,-119.5 605,-119.5 605,4 -4,4"/>
<!-- Node1 -->
<g id="node1" class="node"><title>Node1</title>
<polygon fill="#bfbfbf" stroke="black" points="0,-63.5 0,-82.5 44,-82.5 44,-63.5 0,-63.5"/>
<text text-anchor="middle" x="22" y="-70.5" font-family="Helvetica,sans-Serif" font-size="10.00">trapzd</text>
</g>
<!-- Node2 -->
<g id="node2" class="node"><title>Node2</title>
<g id="a_node2"><a xlink:href="neutron_8f90.html#aee8287f8ab14cf717b431e223ad40d28" target="_top" xlink:title="Tabulates TALYS differential neutron production function. ">
<polygon fill="white" stroke="black" points="80,-81 80,-111 186,-111 186,-81 80,-81"/>
<text text-anchor="start" x="88" y="-99" font-family="Helvetica,sans-Serif" font-size="10.00">tabulate_differential</text>
<text text-anchor="middle" x="133" y="-88" font-family="Helvetica,sans-Serif" font-size="10.00">_neutron_prod_func</text>
</a>
</g>
</g>
<!-- Node1&#45;&gt;Node2 -->
<g id="edge1" class="edge"><title>Node1&#45;&gt;Node2</title>
<path fill="none" stroke="midnightblue" d="M54.0463,-79.5511C62.1059,-81.2517 71.0111,-83.1308 79.8345,-84.9926"/>
<polygon fill="midnightblue" stroke="midnightblue" points="54.5235,-76.0747 44.0163,-77.4346 53.0782,-82.9239 54.5235,-76.0747"/>
</g>
<!-- Node5 -->
<g id="node5" class="node"><title>Node5</title>
<g id="a_node5"><a xlink:href="nr__dqtrap_8f.html#a694ce7543be4910a1892809a7c8a2119" target="_top" xlink:title="Returns as s the integral of the function func from a to b. ">
<polygon fill="white" stroke="black" points="113.5,-41.5 113.5,-60.5 152.5,-60.5 152.5,-41.5 113.5,-41.5"/>
<text text-anchor="middle" x="133" y="-48.5" font-family="Helvetica,sans-Serif" font-size="10.00">qtrap</text>
</a>
</g>
</g>
<!-- Node1&#45;&gt;Node5 -->
<g id="edge4" class="edge"><title>Node1&#45;&gt;Node5</title>
<path fill="none" stroke="midnightblue" d="M54.0561,-66.7318C73.1467,-62.8786 96.9789,-58.0685 113.231,-54.7882"/>
<polygon fill="midnightblue" stroke="midnightblue" points="53.1261,-63.3488 44.0163,-68.7582 54.5111,-70.2105 53.1261,-63.3488"/>
</g>
<!-- Node3 -->
<g id="node3" class="node"><title>Node3</title>
<g id="a_node3"><a xlink:href="neutron_8f90.html#ac9afffbf2d4d8afc896dcbe976991b28" target="_top" xlink:title="Top subroutine to calculate (a,n) neutron energy spectra from each decay chain. ">
<polygon fill="white" stroke="black" points="400,-85 400,-115 512,-115 512,-85 400,-85"/>
<text text-anchor="start" x="408" y="-103" font-family="Helvetica,sans-Serif" font-size="10.00">calculate_an_neutron</text>
<text text-anchor="middle" x="456" y="-92" font-family="Helvetica,sans-Serif" font-size="10.00">_spectrum</text>
</a>
</g>
</g>
<!-- Node2&#45;&gt;Node3 -->
<g id="edge2" class="edge"><title>Node2&#45;&gt;Node3</title>
<path fill="none" stroke="midnightblue" d="M196.601,-96.7801C255.639,-97.5158 343.275,-98.6078 399.773,-99.3118"/>
<polygon fill="midnightblue" stroke="midnightblue" points="196.331,-93.2765 186.289,-96.6516 196.244,-100.276 196.331,-93.2765"/>
</g>
<!-- Node4 -->
<g id="node4" class="node"><title>Node4</title>
<g id="a_node4"><a xlink:href="argon39_8f90.html#a53921723df12bf3ddfe3fd2c80826bcb" target="_top" xlink:title="Main program. ">
<polygon fill="white" stroke="black" points="548,-41.5 548,-60.5 601,-60.5 601,-41.5 548,-41.5"/>
<text text-anchor="middle" x="574.5" y="-48.5" font-family="Helvetica,sans-Serif" font-size="10.00">argon39</text>
</a>
</g>
</g>
<!-- Node3&#45;&gt;Node4 -->
<g id="edge3" class="edge"><title>Node3&#45;&gt;Node4</title>
<path fill="none" stroke="midnightblue" d="M502.438,-80.8887C518.988,-73.9277 536.99,-66.3561 550.734,-60.5754"/>
<polygon fill="midnightblue" stroke="midnightblue" points="500.765,-77.7952 492.904,-84.8986 503.479,-84.2477 500.765,-77.7952"/>
</g>
<!-- Node6 -->
<g id="node6" class="node"><title>Node6</title>
<g id="a_node6"><a xlink:href="neutron_8f90.html#ab150153b0d7ccb063bd1ec88e79e1534" target="_top" xlink:title="Tabulates neutron production function. ">
<polygon fill="white" stroke="black" points="222,-41.5 222,-60.5 364,-60.5 364,-41.5 222,-41.5"/>
<text text-anchor="middle" x="293" y="-48.5" font-family="Helvetica,sans-Serif" font-size="10.00">tabulate_neutron_prod_func</text>
</a>
</g>
</g>
<!-- Node5&#45;&gt;Node6 -->
<g id="edge5" class="edge"><title>Node5&#45;&gt;Node6</title>
<path fill="none" stroke="midnightblue" d="M162.843,-51C179.4,-51 200.969,-51 221.725,-51"/>
<polygon fill="midnightblue" stroke="midnightblue" points="162.745,-47.5001 152.745,-51 162.745,-54.5001 162.745,-47.5001"/>
</g>
<!-- Node8 -->
<g id="node8" class="node"><title>Node8</title>
<g id="a_node8"><a xlink:href="stoppow_8f90.html#a65317bfea168be8b9cae828b00d5ae38" target="_top" xlink:title="Calculate and output alpha particle range. ">
<polygon fill="white" stroke="black" points="234.5,-0.5 234.5,-19.5 351.5,-19.5 351.5,-0.5 234.5,-0.5"/>
<text text-anchor="middle" x="293" y="-7.5" font-family="Helvetica,sans-Serif" font-size="10.00">calculate_alpha_range</text>
</a>
</g>
</g>
<!-- Node5&#45;&gt;Node8 -->
<g id="edge8" class="edge"><title>Node5&#45;&gt;Node8</title>
<path fill="none" stroke="midnightblue" d="M162.717,-43.5482C188.695,-36.8071 227.086,-26.8446 255.286,-19.527"/>
<polygon fill="midnightblue" stroke="midnightblue" points="161.545,-40.2361 152.745,-46.1358 163.304,-47.0117 161.545,-40.2361"/>
</g>
<!-- Node7 -->
<g id="node7" class="node"><title>Node7</title>
<g id="a_node7"><a xlink:href="neutron_8f90.html#a5110672e8691955a1f3abff1f54c4039" target="_top" xlink:title="Top subroutine to calculate (a,n) neutron yield from each alpha decay branch of each chain...">
<polygon fill="white" stroke="black" points="400,-36 400,-66 512,-66 512,-36 400,-36"/>
<text text-anchor="start" x="408" y="-54" font-family="Helvetica,sans-Serif" font-size="10.00">calculate_an_neutron</text>
<text text-anchor="middle" x="456" y="-43" font-family="Helvetica,sans-Serif" font-size="10.00">_yield</text>
</a>
</g>
</g>
<!-- Node6&#45;&gt;Node7 -->
<g id="edge6" class="edge"><title>Node6&#45;&gt;Node7</title>
<path fill="none" stroke="midnightblue" d="M374.207,-51C382.797,-51 391.392,-51 399.6,-51"/>
<polygon fill="midnightblue" stroke="midnightblue" points="374.149,-47.5001 364.149,-51 374.149,-54.5001 374.149,-47.5001"/>
</g>
<!-- Node7&#45;&gt;Node4 -->
<g id="edge7" class="edge"><title>Node7&#45;&gt;Node4</title>
<path fill="none" stroke="midnightblue" d="M522.403,-51C531.412,-51 540.189,-51 547.855,-51"/>
<polygon fill="midnightblue" stroke="midnightblue" points="522.18,-47.5001 512.179,-51 522.179,-54.5001 522.18,-47.5001"/>
</g>
<!-- Node8&#45;&gt;Node4 -->
<g id="edge9" class="edge"><title>Node8&#45;&gt;Node4</title>
<path fill="none" stroke="midnightblue" d="M361.823,-9.5551C405.268,-10.5945 462.567,-14.4421 512,-26 526.702,-29.4374 542.462,-35.9033 554.347,-41.398"/>
<polygon fill="midnightblue" stroke="midnightblue" points="361.719,-6.0525 351.653,-9.35674 361.582,-13.0512 361.719,-6.0525"/>
</g>
</g>
</svg>
