<?xml version="1.0" encoding="UTF-8" standalone="no"?>
<!DOCTYPE svg PUBLIC "-//W3C//DTD SVG 1.1//EN"
 "http://www.w3.org/Graphics/SVG/1.1/DTD/svg11.dtd">
<!-- Generated by graphviz version 2.38.0 (20140413.2041)
 -->
<!-- Title: qtrap Pages: 1 -->
<svg width="467pt" height="78pt"
 viewBox="0.00 0.00 467.00 77.50" xmlns="http://www.w3.org/2000/svg" xmlns:xlink="http://www.w3.org/1999/xlink">
<g id="graph0" class="graph" transform="scale(1 1) rotate(0) translate(4 73.5)">
<title>qtrap</title>
<polygon fill="white" stroke="none" points="-4,4 -4,-73.5 463,-73.5 463,4 -4,4"/>
<!-- Node1 -->
<g id="node1" class="node"><title>Node1</title>
<polygon fill="#bfbfbf" stroke="black" points="0,-22.5 0,-41.5 39,-41.5 39,-22.5 0,-22.5"/>
<text text-anchor="middle" x="19.5" y="-29.5" font-family="Helvetica,sans-Serif" font-size="10.00">qtrap</text>
</g>
<!-- Node2 -->
<g id="node2" class="node"><title>Node2</title>
<g id="a_node2"><a xlink:href="neutron_8f90.html#ab150153b0d7ccb063bd1ec88e79e1534" target="_top" xlink:title="Tabulates neutron production function. ">
<polygon fill="white" stroke="black" points="75,-42.5 75,-61.5 217,-61.5 217,-42.5 75,-42.5"/>
<text text-anchor="middle" x="146" y="-49.5" font-family="Helvetica,sans-Serif" font-size="10.00">tabulate_neutron_prod_func</text>
</a>
</g>
</g>
<!-- Node1&#45;&gt;Node2 -->
<g id="edge1" class="edge"><title>Node1&#45;&gt;Node2</title>
<path fill="none" stroke="midnightblue" d="M49.3035,-36.6271C60.1936,-38.3765 73.0261,-40.4379 85.6955,-42.4732"/>
<polygon fill="midnightblue" stroke="midnightblue" points="49.5675,-33.1247 39.1389,-34.9942 48.4572,-40.0361 49.5675,-33.1247"/>
</g>
<!-- Node5 -->
<g id="node5" class="node"><title>Node5</title>
<g id="a_node5"><a xlink:href="stoppow_8f90.html#a65317bfea168be8b9cae828b00d5ae38" target="_top" xlink:title="Calculate and output alpha particle range. ">
<polygon fill="white" stroke="black" points="253,-0.5 253,-19.5 370,-19.5 370,-0.5 253,-0.5"/>
<text text-anchor="middle" x="311.5" y="-7.5" font-family="Helvetica,sans-Serif" font-size="10.00">calculate_alpha_range</text>
</a>
</g>
</g>
<!-- Node1&#45;&gt;Node5 -->
<g id="edge4" class="edge"><title>Node1&#45;&gt;Node5</title>
<path fill="none" stroke="midnightblue" d="M49.2161,-29.8215C96.4689,-26.2368 191.498,-19.0278 252.993,-14.3626"/>
<polygon fill="midnightblue" stroke="midnightblue" points="48.7885,-26.3438 39.082,-30.5903 49.3181,-33.3238 48.7885,-26.3438"/>
</g>
<!-- Node3 -->
<g id="node3" class="node"><title>Node3</title>
<g id="a_node3"><a xlink:href="neutron_8f90.html#a5110672e8691955a1f3abff1f54c4039" target="_top" xlink:title="Top subroutine to calculate (a,n) neutron yield from each alpha decay branch of each chain...">
<polygon fill="white" stroke="black" points="255.5,-39 255.5,-69 367.5,-69 367.5,-39 255.5,-39"/>
<text text-anchor="start" x="263.5" y="-57" font-family="Helvetica,sans-Serif" font-size="10.00">calculate_an_neutron</text>
<text text-anchor="middle" x="311.5" y="-46" font-family="Helvetica,sans-Serif" font-size="10.00">_yield</text>
</a>
</g>
</g>
<!-- Node2&#45;&gt;Node3 -->
<g id="edge2" class="edge"><title>Node2&#45;&gt;Node3</title>
<path fill="none" stroke="midnightblue" d="M227.413,-52.9836C236.774,-53.0982 246.158,-53.2129 255.075,-53.322"/>
<polygon fill="midnightblue" stroke="midnightblue" points="227.33,-49.4825 217.288,-52.8598 227.244,-56.4819 227.33,-49.4825"/>
</g>
<!-- Node4 -->
<g id="node4" class="node"><title>Node4</title>
<g id="a_node4"><a xlink:href="argon39_8f90.html#a53921723df12bf3ddfe3fd2c80826bcb" target="_top" xlink:title="Main program. ">
<polygon fill="white" stroke="black" points="406,-22.5 406,-41.5 459,-41.5 459,-22.5 406,-22.5"/>
<text text-anchor="middle" x="432.5" y="-29.5" font-family="Helvetica,sans-Serif" font-size="10.00">argon39</text>
</a>
</g>
</g>
<!-- Node3&#45;&gt;Node4 -->
<g id="edge3" class="edge"><title>Node3&#45;&gt;Node4</title>
<path fill="none" stroke="midnightblue" d="M377.754,-41.9362C387.658,-40.1052 397.348,-38.3139 405.711,-36.7677"/>
<polygon fill="midnightblue" stroke="midnightblue" points="377.017,-38.5132 367.819,-43.7729 378.289,-45.3965 377.017,-38.5132"/>
</g>
<!-- Node5&#45;&gt;Node4 -->
<g id="edge5" class="edge"><title>Node5&#45;&gt;Node4</title>
<path fill="none" stroke="midnightblue" d="M373.881,-21.3477C385.141,-23.4294 396.311,-25.4945 405.776,-27.2443"/>
<polygon fill="midnightblue" stroke="midnightblue" points="374.473,-17.8979 364.003,-19.5216 373.2,-24.7813 374.473,-17.8979"/>
</g>
</g>
</svg>
