<?xml version="1.0" encoding="UTF-8" standalone="no"?>
<!DOCTYPE svg PUBLIC "-//W3C//DTD SVG 1.1//EN"
 "http://www.w3.org/Graphics/SVG/1.1/DTD/svg11.dtd">
<!-- Generated by graphviz version 2.38.0 (20140413.2041)
 -->
<!-- Title: calculate_alpha_range Pages: 1 -->
<svg width="371pt" height="104pt"
 viewBox="0.00 0.00 371.00 104.00" xmlns="http://www.w3.org/2000/svg" xmlns:xlink="http://www.w3.org/1999/xlink">
<g id="graph0" class="graph" transform="scale(1 1) rotate(0) translate(4 100)">
<title>calculate_alpha_range</title>
<polygon fill="white" stroke="none" points="-4,4 -4,-100 367,-100 367,4 -4,4"/>
<!-- Node1 -->
<g id="node1" class="node"><title>Node1</title>
<polygon fill="#bfbfbf" stroke="black" points="0,-38.5 0,-57.5 117,-57.5 117,-38.5 0,-38.5"/>
<text text-anchor="middle" x="58.5" y="-45.5" font-family="Helvetica,sans-Serif" font-size="10.00">calculate_alpha_range</text>
</g>
<!-- Node2 -->
<g id="node2" class="node"><title>Node2</title>
<g id="a_node2"><a xlink:href="iostuff_8f90.html#af759d00c9a49b8f430c17756db8dabbb" target="_top" xlink:title="Opens external file including error handling. ">
<polygon fill="white" stroke="black" points="158,-76.5 158,-95.5 215,-95.5 215,-76.5 158,-76.5"/>
<text text-anchor="middle" x="186.5" y="-83.5" font-family="Helvetica,sans-Serif" font-size="10.00">open_file</text>
</a>
</g>
</g>
<!-- Node1&#45;&gt;Node2 -->
<g id="edge1" class="edge"><title>Node1&#45;&gt;Node2</title>
<path fill="none" stroke="midnightblue" d="M91.2951,-57.589C108.642,-62.8205 130.211,-69.3254 148.331,-74.7904"/>
<polygon fill="midnightblue" stroke="midnightblue" points="147.41,-78.1682 157.995,-77.7048 149.431,-71.4663 147.41,-78.1682"/>
</g>
<!-- Node3 -->
<g id="node3" class="node"><title>Node3</title>
<g id="a_node3"><a xlink:href="nr__dqtrap_8f.html#a694ce7543be4910a1892809a7c8a2119" target="_top" xlink:title="Returns as s the integral of the function func from a to b. ">
<polygon fill="white" stroke="black" points="167,-38.5 167,-57.5 206,-57.5 206,-38.5 167,-38.5"/>
<text text-anchor="middle" x="186.5" y="-45.5" font-family="Helvetica,sans-Serif" font-size="10.00">qtrap</text>
</a>
</g>
</g>
<!-- Node1&#45;&gt;Node3 -->
<g id="edge2" class="edge"><title>Node1&#45;&gt;Node3</title>
<path fill="none" stroke="midnightblue" d="M117.337,-48C131.008,-48 145.005,-48 156.73,-48"/>
<polygon fill="midnightblue" stroke="midnightblue" points="156.785,-51.5001 166.785,-48 156.785,-44.5001 156.785,-51.5001"/>
</g>
<!-- Node5 -->
<g id="node5" class="node"><title>Node5</title>
<g id="a_node5"><a xlink:href="stoppow_8f90.html#a9fbcbf8e4672f621ffcfcfe00abd9238" target="_top" xlink:title="Function 1 / linear_stopping_power provided for integration of alpha range. ">
<polygon fill="white" stroke="black" points="153,-0.5 153,-19.5 220,-19.5 220,-0.5 153,-0.5"/>
<text text-anchor="middle" x="186.5" y="-7.5" font-family="Helvetica,sans-Serif" font-size="10.00">func_range</text>
</a>
</g>
</g>
<!-- Node1&#45;&gt;Node5 -->
<g id="edge4" class="edge"><title>Node1&#45;&gt;Node5</title>
<path fill="none" stroke="midnightblue" d="M91.2951,-38.411C107.262,-33.5956 126.807,-27.7012 143.947,-22.532"/>
<polygon fill="midnightblue" stroke="midnightblue" points="145.152,-25.8244 153.715,-19.5859 143.13,-19.1225 145.152,-25.8244"/>
</g>
<!-- Node4 -->
<g id="node4" class="node"><title>Node4</title>
<g id="a_node4"><a xlink:href="nr__dtrapzd_8f.html#ad4ab46147be364cc1164eeec24d5638f" target="_top" xlink:title="This routine computes the nth stage of refinement of an extended trapezoidal rule. ">
<polygon fill="white" stroke="black" points="287.5,-38.5 287.5,-57.5 331.5,-57.5 331.5,-38.5 287.5,-38.5"/>
<text text-anchor="middle" x="309.5" y="-45.5" font-family="Helvetica,sans-Serif" font-size="10.00">trapzd</text>
</a>
</g>
</g>
<!-- Node3&#45;&gt;Node4 -->
<g id="edge3" class="edge"><title>Node3&#45;&gt;Node4</title>
<path fill="none" stroke="midnightblue" d="M206.141,-48C225.027,-48 254.585,-48 277.093,-48"/>
<polygon fill="midnightblue" stroke="midnightblue" points="277.186,-51.5001 287.186,-48 277.186,-44.5001 277.186,-51.5001"/>
</g>
<!-- Node6 -->
<g id="node6" class="node"><title>Node6</title>
<g id="a_node6"><a xlink:href="general_8f90.html#ae1acc3fd1375342897df419160518e3f" target="_top" xlink:title="Interpolation of type between tabulated values of function fa at xi ">
<polygon fill="white" stroke="black" points="256,-0.5 256,-19.5 363,-19.5 363,-0.5 256,-0.5"/>
<text text-anchor="middle" x="309.5" y="-7.5" font-family="Helvetica,sans-Serif" font-size="10.00">interpolate_tab_func</text>
</a>
</g>
</g>
<!-- Node5&#45;&gt;Node6 -->
<g id="edge5" class="edge"><title>Node5&#45;&gt;Node6</title>
<path fill="none" stroke="midnightblue" d="M220.244,-10C228.092,-10 236.735,-10 245.449,-10"/>
<polygon fill="midnightblue" stroke="midnightblue" points="245.667,-13.5001 255.667,-10 245.667,-6.5001 245.667,-13.5001"/>
</g>
</g>
</svg>
