<?xml version="1.0" encoding="UTF-8" standalone="no"?>
<!DOCTYPE svg PUBLIC "-//W3C//DTD SVG 1.1//EN"
 "http://www.w3.org/Graphics/SVG/1.1/DTD/svg11.dtd">
<!-- Generated by graphviz version 2.38.0 (20140413.2041)
 -->
<!-- Title: nucl_type::nucl Pages: 1 -->
<svg width="213pt" height="106pt"
 viewBox="0.00 0.00 212.50 106.00" xmlns="http://www.w3.org/2000/svg" xmlns:xlink="http://www.w3.org/1999/xlink">
<g id="graph0" class="graph" transform="scale(1 1) rotate(0) translate(4 102)">
<title>nucl_type::nucl</title>
<polygon fill="white" stroke="none" points="-4,4 -4,-102 208.5,-102 208.5,4 -4,4"/>
<!-- Node1 -->
<g id="node1" class="node"><title>Node1</title>
<polygon fill="#bfbfbf" stroke="black" points="72.5,-0.5 72.5,-19.5 155.5,-19.5 155.5,-0.5 72.5,-0.5"/>
<text text-anchor="middle" x="114" y="-7.5" font-family="Helvetica,sans-Serif" font-size="10.00">nucl_type::nucl</text>
</g>
<!-- Node2 -->
<g id="node2" class="node"><title>Node2</title>
<polygon fill="white" stroke="#bfbfbf" points="0,-78.5 0,-97.5 70,-97.5 70,-78.5 0,-78.5"/>
<text text-anchor="middle" x="35" y="-85.5" font-family="Helvetica,sans-Serif" font-size="10.00">character(5)</text>
</g>
<!-- Node2&#45;&gt;Node1 -->
<g id="edge1" class="edge"><title>Node2&#45;&gt;Node1</title>
<path fill="none" stroke="#9a32cd" stroke-dasharray="5,2" d="M49.9856,-71.0725C59.3008,-61.3315 71.6292,-48.7238 83,-38 89.7499,-31.6342 97.6385,-24.771 103.769,-19.5573"/>
<polygon fill="#9a32cd" stroke="#9a32cd" points="47.3034,-68.8143 42.9567,-78.4765 52.3801,-73.6338 47.3034,-68.8143"/>
<text text-anchor="middle" x="96.5" y="-46.5" font-family="Helvetica,sans-Serif" font-size="10.00"> nucid</text>
</g>
<!-- Node3 -->
<g id="node3" class="node"><title>Node3</title>
<polygon fill="white" stroke="#bfbfbf" points="88.5,-78.5 88.5,-97.5 139.5,-97.5 139.5,-78.5 88.5,-78.5"/>
<text text-anchor="middle" x="114" y="-85.5" font-family="Helvetica,sans-Serif" font-size="10.00">real(dp)</text>
</g>
<!-- Node3&#45;&gt;Node1 -->
<g id="edge2" class="edge"><title>Node3&#45;&gt;Node1</title>
<path fill="none" stroke="#9a32cd" stroke-dasharray="5,2" d="M114,-68.2239C114,-52.6974 114,-31.3582 114,-19.6165"/>
<polygon fill="#9a32cd" stroke="#9a32cd" points="110.5,-68.2818 114,-78.2818 117.5,-68.2819 110.5,-68.2818"/>
<text text-anchor="middle" x="124" y="-52" font-family="Helvetica,sans-Serif" font-size="10.00"> nab</text>
<text text-anchor="middle" x="124" y="-41" font-family="Helvetica,sans-Serif" font-size="10.00">wt</text>
</g>
<!-- Node4 -->
<g id="node4" class="node"><title>Node4</title>
<polygon fill="white" stroke="#bfbfbf" points="157.5,-78.5 157.5,-97.5 204.5,-97.5 204.5,-78.5 157.5,-78.5"/>
<text text-anchor="middle" x="181" y="-85.5" font-family="Helvetica,sans-Serif" font-size="10.00">integer</text>
</g>
<!-- Node4&#45;&gt;Node1 -->
<g id="edge3" class="edge"><title>Node4&#45;&gt;Node1</title>
<path fill="none" stroke="#9a32cd" stroke-dasharray="5,2" d="M166.769,-70.731C158.406,-61.1832 147.619,-48.8915 138,-38 132.686,-31.983 126.686,-25.233 122.014,-19.9873"/>
<polygon fill="#9a32cd" stroke="#9a32cd" points="164.184,-73.0921 173.405,-78.3111 169.451,-68.4814 164.184,-73.0921"/>
<text text-anchor="middle" x="161" y="-52" font-family="Helvetica,sans-Serif" font-size="10.00"> z</text>
<text text-anchor="middle" x="161" y="-41" font-family="Helvetica,sans-Serif" font-size="10.00">a</text>
</g>
</g>
</svg>
