<?xml version="1.0" encoding="UTF-8" standalone="no"?>
<!DOCTYPE svg PUBLIC "-//W3C//DTD SVG 1.1//EN"
 "http://www.w3.org/Graphics/SVG/1.1/DTD/svg11.dtd">
<!-- Generated by graphviz version 2.38.0 (20140413.2041)
 -->
<!-- Title: abun_type::abun Pages: 1 -->
<svg width="124pt" height="128pt"
 viewBox="0.00 0.00 124.00 128.00" xmlns="http://www.w3.org/2000/svg" xmlns:xlink="http://www.w3.org/1999/xlink">
<g id="graph0" class="graph" transform="scale(1 1) rotate(0) translate(4 124)">
<title>abun_type::abun</title>
<polygon fill="white" stroke="none" points="-4,4 -4,-124 120,-124 120,4 -4,4"/>
<!-- Node1 -->
<g id="node1" class="node"><title>Node1</title>
<polygon fill="#bfbfbf" stroke="black" points="13,-0.5 13,-19.5 104,-19.5 104,-0.5 13,-0.5"/>
<text text-anchor="middle" x="58.5" y="-7.5" font-family="Helvetica,sans-Serif" font-size="10.00">abun_type::abun</text>
</g>
<!-- Node2 -->
<g id="node2" class="node"><title>Node2</title>
<polygon fill="white" stroke="#bfbfbf" points="0,-100.5 0,-119.5 51,-119.5 51,-100.5 0,-100.5"/>
<text text-anchor="middle" x="25.5" y="-107.5" font-family="Helvetica,sans-Serif" font-size="10.00">real(dp)</text>
</g>
<!-- Node2&#45;&gt;Node1 -->
<g id="edge1" class="edge"><title>Node2&#45;&gt;Node1</title>
<path fill="none" stroke="#9a32cd" stroke-dasharray="5,2" d="M26.6285,-89.9894C28.05,-75.2866 31.2591,-54.6909 38.5,-38 41.3788,-31.3641 46.1612,-24.822 50.3276,-19.8398"/>
<polygon fill="#9a32cd" stroke="#9a32cd" points="23.1103,-90.0901 25.8289,-100.33 30.0895,-90.6298 23.1103,-90.0901"/>
<text text-anchor="middle" x="54.5" y="-74" font-family="Helvetica,sans-Serif" font-size="10.00"> wtf</text>
<text text-anchor="middle" x="54.5" y="-63" font-family="Helvetica,sans-Serif" font-size="10.00">atcm3</text>
<text text-anchor="middle" x="54.5" y="-52" font-family="Helvetica,sans-Serif" font-size="10.00">atgram</text>
<text text-anchor="middle" x="54.5" y="-41" font-family="Helvetica,sans-Serif" font-size="10.00">atf</text>
</g>
<!-- Node3 -->
<g id="node3" class="node"><title>Node3</title>
<polygon fill="white" stroke="#bfbfbf" points="69,-100.5 69,-119.5 116,-119.5 116,-100.5 69,-100.5"/>
<text text-anchor="middle" x="92.5" y="-107.5" font-family="Helvetica,sans-Serif" font-size="10.00">integer</text>
</g>
<!-- Node3&#45;&gt;Node1 -->
<g id="edge2" class="edge"><title>Node3&#45;&gt;Node1</title>
<path fill="none" stroke="#9a32cd" stroke-dasharray="5,2" d="M87.3925,-90.4195C83.2669,-75.9768 77.0817,-55.5202 70.5,-38 68.191,-31.8535 65.191,-25.1035 62.7682,-19.8901"/>
<polygon fill="#9a32cd" stroke="#9a32cd" points="84.049,-91.4593 90.1184,-100.143 90.7892,-89.5698 84.049,-91.4593"/>
<text text-anchor="middle" x="88.5" y="-57.5" font-family="Helvetica,sans-Serif" font-size="10.00"> z</text>
</g>
</g>
</svg>
