<?xml version="1.0" encoding="UTF-8" standalone="no"?>
<!DOCTYPE svg PUBLIC "-//W3C//DTD SVG 1.1//EN"
 "http://www.w3.org/Graphics/SVG/1.1/DTD/svg11.dtd">
<!-- Generated by graphviz version 2.38.0 (20140413.2041)
 -->
<!-- Title: decch_type::decch Pages: 1 -->
<svg width="535pt" height="398pt"
 viewBox="0.00 0.00 534.76 398.00" xmlns="http://www.w3.org/2000/svg" xmlns:xlink="http://www.w3.org/1999/xlink">
<g id="graph0" class="graph" transform="scale(1 1) rotate(0) translate(4 394)">
<title>decch_type::decch</title>
<polygon fill="white" stroke="none" points="-4,4 -4,-394 530.758,-394 530.758,4 -4,4"/>
<!-- Node1 -->
<g id="node1" class="node"><title>Node1</title>
<polygon fill="#bfbfbf" stroke="black" points="223.258,-0.5 223.258,-19.5 323.258,-19.5 323.258,-0.5 223.258,-0.5"/>
<text text-anchor="middle" x="273.258" y="-7.5" font-family="Helvetica,sans-Serif" font-size="10.00">decch_type::decch</text>
</g>
<!-- Node2 -->
<g id="node2" class="node"><title>Node2</title>
<g id="a_node2"><a xlink:href="structbbra__type_1_1bbra.html" target="_top" xlink:title="bbra_type::bbra">
<polygon fill="white" stroke="black" points="8.75765,-74 8.75765,-93 95.7577,-93 95.7577,-74 8.75765,-74"/>
<text text-anchor="middle" x="52.2577" y="-81" font-family="Helvetica,sans-Serif" font-size="10.00">bbra_type::bbra</text>
</a>
</g>
</g>
<!-- Node2&#45;&gt;Node1 -->
<g id="edge1" class="edge"><title>Node2&#45;&gt;Node1</title>
<path fill="none" stroke="#9a32cd" stroke-dasharray="5,2" d="M61.2769,-64.8636C67.0921,-55.3389 75.5675,-44.2762 86.2577,-38 108.817,-24.7556 175.856,-17.5339 223.192,-13.9714"/>
<polygon fill="#9a32cd" stroke="#9a32cd" points="58.1941,-63.2055 56.3651,-73.6413 64.3027,-66.6238 58.1941,-63.2055"/>
<text text-anchor="middle" x="105.758" y="-41" font-family="Helvetica,sans-Serif" font-size="10.00"> bbranch</text>
</g>
<!-- Node3 -->
<g id="node3" class="node"><title>Node3</title>
<polygon fill="white" stroke="#bfbfbf" points="50.2577,-275 50.2577,-294 126.258,-294 126.258,-275 50.2577,-275"/>
<text text-anchor="middle" x="88.2577" y="-282" font-family="Helvetica,sans-Serif" font-size="10.00">character(30)</text>
</g>
<!-- Node3&#45;&gt;Node2 -->
<g id="edge2" class="edge"><title>Node3&#45;&gt;Node2</title>
<path fill="none" stroke="#9a32cd" stroke-dasharray="5,2" d="M68.6845,-268.151C60.3998,-260.409 51.6586,-250.272 47.2577,-239 26.9553,-187.002 42.945,-117.507 49.655,-93.2739"/>
<polygon fill="#9a32cd" stroke="#9a32cd" points="66.4879,-270.879 76.3311,-274.799 71.0805,-265.596 66.4879,-270.879"/>
<text text-anchor="middle" x="58.2577" y="-176" font-family="Helvetica,sans-Serif" font-size="10.00"> dsid</text>
</g>
<!-- Node6 -->
<g id="node6" class="node"><title>Node6</title>
<g id="a_node6"><a xlink:href="structabra__type_1_1abra.html" target="_top" xlink:title="abra_type::abra">
<polygon fill="white" stroke="black" points="301.758,-74 301.758,-93 388.758,-93 388.758,-74 301.758,-74"/>
<text text-anchor="middle" x="345.258" y="-81" font-family="Helvetica,sans-Serif" font-size="10.00">abra_type::abra</text>
</a>
</g>
</g>
<!-- Node3&#45;&gt;Node6 -->
<g id="edge8" class="edge"><title>Node3&#45;&gt;Node6</title>
<path fill="none" stroke="#9a32cd" stroke-dasharray="5,2" d="M105.881,-267.758C113.925,-259.798 123.024,-249.593 129.258,-239 157.983,-190.184 126.668,-155.339 169.258,-118 188.553,-101.083 256.089,-92.0567 301.665,-87.7769"/>
<polygon fill="#9a32cd" stroke="#9a32cd" points="103.191,-265.484 98.3339,-274.9 108.003,-270.568 103.191,-265.484"/>
<text text-anchor="middle" x="180.258" y="-176" font-family="Helvetica,sans-Serif" font-size="10.00"> dsid</text>
</g>
<!-- Node4 -->
<g id="node4" class="node"><title>Node4</title>
<polygon fill="white" stroke="#bfbfbf" points="144.258,-275 144.258,-294 214.258,-294 214.258,-275 144.258,-275"/>
<text text-anchor="middle" x="179.258" y="-282" font-family="Helvetica,sans-Serif" font-size="10.00">character(5)</text>
</g>
<!-- Node4&#45;&gt;Node1 -->
<g id="edge12" class="edge"><title>Node4&#45;&gt;Node1</title>
<path fill="none" stroke="#9a32cd" stroke-dasharray="5,2" d="M166.534,-266.611C161.329,-258.671 155.913,-248.808 153.258,-239 139.205,-187.091 131.265,-167.075 153.258,-118 174.717,-70.113 229.375,-34.8542 256.898,-19.5017"/>
<polygon fill="#9a32cd" stroke="#9a32cd" points="163.76,-268.752 172.368,-274.928 169.491,-264.732 163.76,-268.752"/>
<text text-anchor="middle" x="209.258" y="-81" font-family="Helvetica,sans-Serif" font-size="10.00"> tpnucid</text>
</g>
<!-- Node4&#45;&gt;Node2 -->
<g id="edge3" class="edge"><title>Node4&#45;&gt;Node2</title>
<path fill="none" stroke="#9a32cd" stroke-dasharray="5,2" d="M157.258,-269.393C150.336,-265.188 142.585,-260.715 135.258,-257 116.779,-247.631 105.303,-255.095 92.2577,-239 57.7904,-196.473 86.9297,-169.81 69.2577,-118 66.2257,-109.111 61.2258,-99.6227 57.4312,-93.0216"/>
<polygon fill="#9a32cd" stroke="#9a32cd" points="155.723,-272.559 166.065,-274.863 159.417,-266.613 155.723,-272.559"/>
<text text-anchor="middle" x="108.758" y="-181.5" font-family="Helvetica,sans-Serif" font-size="10.00"> dnucid</text>
<text text-anchor="middle" x="108.758" y="-170.5" font-family="Helvetica,sans-Serif" font-size="10.00">pnucid</text>
</g>
<!-- Node4&#45;&gt;Node6 -->
<g id="edge9" class="edge"><title>Node4&#45;&gt;Node6</title>
<path fill="none" stroke="#9a32cd" stroke-dasharray="5,2" d="M186.512,-265.358C189.516,-257.368 192.852,-247.811 195.258,-239 209.674,-186.192 180.93,-158.039 218.258,-118 239.405,-95.3168 273.926,-87.2799 301.643,-84.7294"/>
<polygon fill="#9a32cd" stroke="#9a32cd" points="183.216,-264.177 182.861,-274.766 189.742,-266.71 183.216,-264.177"/>
<text text-anchor="middle" x="234.758" y="-181.5" font-family="Helvetica,sans-Serif" font-size="10.00"> dnucid</text>
<text text-anchor="middle" x="234.758" y="-170.5" font-family="Helvetica,sans-Serif" font-size="10.00">pnucid</text>
</g>
<!-- Node5 -->
<g id="node5" class="node"><title>Node5</title>
<polygon fill="white" stroke="#bfbfbf" points="270.758,-370.5 270.758,-389.5 321.758,-389.5 321.758,-370.5 270.758,-370.5"/>
<text text-anchor="middle" x="296.258" y="-377.5" font-family="Helvetica,sans-Serif" font-size="10.00">real(dp)</text>
</g>
<!-- Node5&#45;&gt;Node1 -->
<g id="edge14" class="edge"><title>Node5&#45;&gt;Node1</title>
<path fill="none" stroke="#9a32cd" stroke-dasharray="5,2" d="M292.193,-360.325C286.605,-333.598 276.833,-282.821 273.258,-239 266.304,-153.783 271.085,-50.0533 272.748,-19.7183"/>
<polygon fill="#9a32cd" stroke="#9a32cd" points="288.794,-361.166 294.302,-370.217 295.64,-359.707 288.794,-361.166"/>
<text text-anchor="middle" x="294.758" y="-231" font-family="Helvetica,sans-Serif" font-size="10.00"> watta</text>
<text text-anchor="middle" x="294.758" y="-220" font-family="Helvetica,sans-Serif" font-size="10.00">wattb</text>
<text text-anchor="middle" x="294.758" y="-209" font-family="Helvetica,sans-Serif" font-size="10.00">num2rate</text>
<text text-anchor="middle" x="294.758" y="-198" font-family="Helvetica,sans-Serif" font-size="10.00">nyieldan</text>
<text text-anchor="middle" x="294.758" y="-187" font-family="Helvetica,sans-Serif" font-size="10.00">tpwtf</text>
<text text-anchor="middle" x="294.758" y="-176" font-family="Helvetica,sans-Serif" font-size="10.00">minea</text>
<text text-anchor="middle" x="294.758" y="-165" font-family="Helvetica,sans-Serif" font-size="10.00">nspecsf</text>
<text text-anchor="middle" x="294.758" y="-154" font-family="Helvetica,sans-Serif" font-size="10.00">maxea</text>
<text text-anchor="middle" x="294.758" y="-143" font-family="Helvetica,sans-Serif" font-size="10.00">sfneut</text>
<text text-anchor="middle" x="294.758" y="-132" font-family="Helvetica,sans-Serif" font-size="10.00">nspecan</text>
<text text-anchor="middle" x="294.758" y="-121" font-family="Helvetica,sans-Serif" font-size="10.00">...</text>
</g>
<!-- Node5&#45;&gt;Node2 -->
<g id="edge4" class="edge"><title>Node5&#45;&gt;Node2</title>
<path fill="none" stroke="#9a32cd" stroke-dasharray="5,2" d="M260.615,-375.649C193.29,-368.505 51.533,-349.296 22.2577,-312 -31.6119,-243.371 28.6408,-125.671 47.1829,-93.0824"/>
<polygon fill="#9a32cd" stroke="#9a32cd" points="260.446,-379.15 270.752,-376.693 261.164,-372.187 260.446,-379.15"/>
<text text-anchor="middle" x="31.7577" y="-298.5" font-family="Helvetica,sans-Serif" font-size="10.00"> tbr</text>
<text text-anchor="middle" x="31.7577" y="-287.5" font-family="Helvetica,sans-Serif" font-size="10.00">t12</text>
<text text-anchor="middle" x="31.7577" y="-276.5" font-family="Helvetica,sans-Serif" font-size="10.00">br</text>
<text text-anchor="middle" x="31.7577" y="-265.5" font-family="Helvetica,sans-Serif" font-size="10.00">qval</text>
</g>
<!-- Node5&#45;&gt;Node6 -->
<g id="edge11" class="edge"><title>Node5&#45;&gt;Node6</title>
<path fill="none" stroke="#9a32cd" stroke-dasharray="5,2" d="M299.41,-360.051C308.917,-302.915 337.06,-133.767 343.797,-93.2794"/>
<polygon fill="#9a32cd" stroke="#9a32cd" points="295.913,-359.747 297.724,-370.186 302.818,-360.896 295.913,-359.747"/>
<text text-anchor="middle" x="336.758" y="-304" font-family="Helvetica,sans-Serif" font-size="10.00"> nyieldan</text>
<text text-anchor="middle" x="336.758" y="-293" font-family="Helvetica,sans-Serif" font-size="10.00">tbr</text>
<text text-anchor="middle" x="336.758" y="-282" font-family="Helvetica,sans-Serif" font-size="10.00">t12</text>
<text text-anchor="middle" x="336.758" y="-271" font-family="Helvetica,sans-Serif" font-size="10.00">br</text>
<text text-anchor="middle" x="336.758" y="-260" font-family="Helvetica,sans-Serif" font-size="10.00">qval</text>
</g>
<!-- Node7 -->
<g id="node7" class="node"><title>Node7</title>
<g id="a_node7"><a xlink:href="structalev__type_1_1alev.html" target="_top" xlink:title="alev_type::alev">
<polygon fill="white" stroke="black" points="378.758,-275 378.758,-294 461.758,-294 461.758,-275 378.758,-275"/>
<text text-anchor="middle" x="420.258" y="-282" font-family="Helvetica,sans-Serif" font-size="10.00">alev_type::alev</text>
</a>
</g>
</g>
<!-- Node5&#45;&gt;Node7 -->
<g id="edge7" class="edge"><title>Node5&#45;&gt;Node7</title>
<path fill="none" stroke="#9a32cd" stroke-dasharray="5,2" d="M316.42,-364.411C321.901,-360.412 327.822,-356.06 333.258,-352 360.674,-331.522 392.548,-306.965 409.056,-294.189"/>
<polygon fill="#9a32cd" stroke="#9a32cd" points="314.334,-361.6 308.305,-370.312 318.451,-367.262 314.334,-361.6"/>
<text text-anchor="middle" x="365.258" y="-344" font-family="Helvetica,sans-Serif" font-size="10.00"> i</text>
<text text-anchor="middle" x="365.258" y="-333" font-family="Helvetica,sans-Serif" font-size="10.00">e</text>
</g>
<!-- Node6&#45;&gt;Node1 -->
<g id="edge5" class="edge"><title>Node6&#45;&gt;Node1</title>
<path fill="none" stroke="#9a32cd" stroke-dasharray="5,2" d="M329.113,-66.4679C314.612,-52.0672 293.855,-31.4548 282.158,-19.839"/>
<polygon fill="#9a32cd" stroke="#9a32cd" points="326.867,-69.1698 336.429,-73.7327 331.8,-64.2028 326.867,-69.1698"/>
<text text-anchor="middle" x="331.758" y="-41" font-family="Helvetica,sans-Serif" font-size="10.00"> abranch</text>
</g>
<!-- Node7&#45;&gt;Node6 -->
<g id="edge6" class="edge"><title>Node7&#45;&gt;Node6</title>
<path fill="none" stroke="#9a32cd" stroke-dasharray="5,2" d="M412.708,-265.202C409.438,-257.183 405.601,-247.648 402.258,-239 380.917,-183.8 356.82,-116.853 348.378,-93.2471"/>
<polygon fill="#9a32cd" stroke="#9a32cd" points="409.557,-266.744 416.591,-274.667 416.033,-264.087 409.557,-266.744"/>
<text text-anchor="middle" x="416.758" y="-176" font-family="Helvetica,sans-Serif" font-size="10.00"> alevel</text>
</g>
<!-- Node8 -->
<g id="node8" class="node"><title>Node8</title>
<polygon fill="white" stroke="#bfbfbf" points="479.758,-275 479.758,-294 526.758,-294 526.758,-275 479.758,-275"/>
<text text-anchor="middle" x="503.258" y="-282" font-family="Helvetica,sans-Serif" font-size="10.00">integer</text>
</g>
<!-- Node8&#45;&gt;Node1 -->
<g id="edge13" class="edge"><title>Node8&#45;&gt;Node1</title>
<path fill="none" stroke="#9a32cd" stroke-dasharray="5,2" d="M505.755,-264.78C509.111,-232.187 511.64,-164.099 482.258,-118 445.231,-59.9062 366.007,-31.8831 316.437,-19.5456"/>
<polygon fill="#9a32cd" stroke="#9a32cd" points="502.276,-264.393 504.584,-274.734 509.228,-265.211 502.276,-264.393"/>
<text text-anchor="middle" x="484.758" y="-92" font-family="Helvetica,sans-Serif" font-size="10.00"> nalpha</text>
<text text-anchor="middle" x="484.758" y="-81" font-family="Helvetica,sans-Serif" font-size="10.00">nabr</text>
<text text-anchor="middle" x="484.758" y="-70" font-family="Helvetica,sans-Serif" font-size="10.00">nbbr</text>
</g>
<!-- Node8&#45;&gt;Node6 -->
<g id="edge10" class="edge"><title>Node8&#45;&gt;Node6</title>
<path fill="none" stroke="#9a32cd" stroke-dasharray="5,2" d="M484.275,-268.076C475.756,-260.21 466.288,-249.992 460.258,-239 433.66,-190.515 467.609,-159.674 431.258,-118 420.409,-105.563 404.368,-97.7106 389.07,-92.7673"/>
<polygon fill="#9a32cd" stroke="#9a32cd" points="482.178,-270.892 492.008,-274.844 486.788,-265.624 482.178,-270.892"/>
<text text-anchor="middle" x="471.258" y="-176" font-family="Helvetica,sans-Serif" font-size="10.00"> nlev</text>
</g>
</g>
</svg>
