<?xml version="1.0" encoding="UTF-8" standalone="no"?>
<!DOCTYPE svg PUBLIC "-//W3C//DTD SVG 1.1//EN"
 "http://www.w3.org/Graphics/SVG/1.1/DTD/svg11.dtd">
<!-- Generated by graphviz version 2.38.0 (20140413.2041)
 -->
<!-- Title: alev_type::alev Pages: 1 -->
<svg width="91pt" height="106pt"
 viewBox="0.00 0.00 91.00 106.00" xmlns="http://www.w3.org/2000/svg" xmlns:xlink="http://www.w3.org/1999/xlink">
<g id="graph0" class="graph" transform="scale(1 1) rotate(0) translate(4 102)">
<title>alev_type::alev</title>
<polygon fill="white" stroke="none" points="-4,4 -4,-102 87,-102 87,4 -4,4"/>
<!-- Node1 -->
<g id="node1" class="node"><title>Node1</title>
<polygon fill="#bfbfbf" stroke="black" points="0,-0.5 0,-19.5 83,-19.5 83,-0.5 0,-0.5"/>
<text text-anchor="middle" x="41.5" y="-7.5" font-family="Helvetica,sans-Serif" font-size="10.00">alev_type::alev</text>
</g>
<!-- Node2 -->
<g id="node2" class="node"><title>Node2</title>
<polygon fill="white" stroke="#bfbfbf" points="16,-78.5 16,-97.5 67,-97.5 67,-78.5 16,-78.5"/>
<text text-anchor="middle" x="41.5" y="-85.5" font-family="Helvetica,sans-Serif" font-size="10.00">real(dp)</text>
</g>
<!-- Node2&#45;&gt;Node1 -->
<g id="edge1" class="edge"><title>Node2&#45;&gt;Node1</title>
<path fill="none" stroke="#9a32cd" stroke-dasharray="5,2" d="M41.5,-68.2239C41.5,-52.6974 41.5,-31.3582 41.5,-19.6165"/>
<polygon fill="#9a32cd" stroke="#9a32cd" points="38.0001,-68.2818 41.5,-78.2818 45.0001,-68.2819 38.0001,-68.2818"/>
<text text-anchor="middle" x="44.5" y="-52" font-family="Helvetica,sans-Serif" font-size="10.00"> i</text>
<text text-anchor="middle" x="44.5" y="-41" font-family="Helvetica,sans-Serif" font-size="10.00">e</text>
</g>
</g>
</svg>
