<?xml version="1.0" encoding="UTF-8" standalone="no"?>
<!DOCTYPE svg PUBLIC "-//W3C//DTD SVG 1.1//EN"
 "http://www.w3.org/Graphics/SVG/1.1/DTD/svg11.dtd">
<!-- Generated by graphviz version 2.38.0 (20140413.2041)
 -->
<!-- Title: abra_type::abra Pages: 1 -->
<svg width="400pt" height="219pt"
 viewBox="0.00 0.00 399.94 219.00" xmlns="http://www.w3.org/2000/svg" xmlns:xlink="http://www.w3.org/1999/xlink">
<g id="graph0" class="graph" transform="scale(1 1) rotate(0) translate(4 215)">
<title>abra_type::abra</title>
<polygon fill="white" stroke="none" points="-4,4 -4,-215 395.936,-215 395.936,4 -4,4"/>
<!-- Node1 -->
<g id="node1" class="node"><title>Node1</title>
<polygon fill="#bfbfbf" stroke="black" points="156.936,-0.5 156.936,-19.5 243.936,-19.5 243.936,-0.5 156.936,-0.5"/>
<text text-anchor="middle" x="200.436" y="-7.5" font-family="Helvetica,sans-Serif" font-size="10.00">abra_type::abra</text>
</g>
<!-- Node2 -->
<g id="node2" class="node"><title>Node2</title>
<g id="a_node2"><a xlink:href="structalev__type_1_1alev.html" target="_top" xlink:title="alev_type::alev">
<polygon fill="white" stroke="black" points="60.9361,-96 60.9361,-115 143.936,-115 143.936,-96 60.9361,-96"/>
<text text-anchor="middle" x="102.436" y="-103" font-family="Helvetica,sans-Serif" font-size="10.00">alev_type::alev</text>
</a>
</g>
</g>
<!-- Node2&#45;&gt;Node1 -->
<g id="edge1" class="edge"><title>Node2&#45;&gt;Node1</title>
<path fill="none" stroke="#9a32cd" stroke-dasharray="5,2" d="M117.695,-87.8891C130.568,-74.1219 149.685,-54.2492 167.436,-38 174.425,-31.6022 182.675,-24.8522 189.178,-19.7016"/>
<polygon fill="#9a32cd" stroke="#9a32cd" points="114.79,-85.874 110.554,-95.5851 119.921,-90.6353 114.79,-85.874"/>
<text text-anchor="middle" x="181.936" y="-46.5" font-family="Helvetica,sans-Serif" font-size="10.00"> alevel</text>
</g>
<!-- Node3 -->
<g id="node3" class="node"><title>Node3</title>
<polygon fill="white" stroke="#bfbfbf" points="8.93611,-191.5 8.93611,-210.5 59.9361,-210.5 59.9361,-191.5 8.93611,-191.5"/>
<text text-anchor="middle" x="34.4361" y="-198.5" font-family="Helvetica,sans-Serif" font-size="10.00">real(dp)</text>
</g>
<!-- Node3&#45;&gt;Node1 -->
<g id="edge6" class="edge"><title>Node3&#45;&gt;Node1</title>
<path fill="none" stroke="#9a32cd" stroke-dasharray="5,2" d="M23.434,-182.552C8.9957,-157.196 -12.0219,-109.733 10.4361,-78 43.4723,-31.3203 111.811,-16.9372 156.884,-12.6376"/>
<polygon fill="#9a32cd" stroke="#9a32cd" points="20.5836,-184.606 28.7188,-191.393 26.5919,-181.014 20.5836,-184.606"/>
<text text-anchor="middle" x="30.9361" y="-125" font-family="Helvetica,sans-Serif" font-size="10.00"> nyieldan</text>
<text text-anchor="middle" x="30.9361" y="-114" font-family="Helvetica,sans-Serif" font-size="10.00">tbr</text>
<text text-anchor="middle" x="30.9361" y="-103" font-family="Helvetica,sans-Serif" font-size="10.00">t12</text>
<text text-anchor="middle" x="30.9361" y="-92" font-family="Helvetica,sans-Serif" font-size="10.00">br</text>
<text text-anchor="middle" x="30.9361" y="-81" font-family="Helvetica,sans-Serif" font-size="10.00">qval</text>
</g>
<!-- Node3&#45;&gt;Node2 -->
<g id="edge2" class="edge"><title>Node3&#45;&gt;Node2</title>
<path fill="none" stroke="#9a32cd" stroke-dasharray="5,2" d="M46.6743,-183.172C61.2267,-163.163 84.9534,-130.539 96.1759,-115.108"/>
<polygon fill="#9a32cd" stroke="#9a32cd" points="43.7627,-181.225 40.7115,-191.371 49.4238,-185.343 43.7627,-181.225"/>
<text text-anchor="middle" x="71.4361" y="-165" font-family="Helvetica,sans-Serif" font-size="10.00"> i</text>
<text text-anchor="middle" x="71.4361" y="-154" font-family="Helvetica,sans-Serif" font-size="10.00">e</text>
</g>
<!-- Node4 -->
<g id="node4" class="node"><title>Node4</title>
<polygon fill="white" stroke="#bfbfbf" points="162.436,-96 162.436,-115 238.436,-115 238.436,-96 162.436,-96"/>
<text text-anchor="middle" x="200.436" y="-103" font-family="Helvetica,sans-Serif" font-size="10.00">character(30)</text>
</g>
<!-- Node4&#45;&gt;Node1 -->
<g id="edge3" class="edge"><title>Node4&#45;&gt;Node1</title>
<path fill="none" stroke="#9a32cd" stroke-dasharray="5,2" d="M200.436,-85.743C200.436,-65.6227 200.436,-34.5522 200.436,-19.6078"/>
<polygon fill="#9a32cd" stroke="#9a32cd" points="196.936,-85.8713 200.436,-95.8713 203.936,-85.8714 196.936,-85.8713"/>
<text text-anchor="middle" x="211.436" y="-46.5" font-family="Helvetica,sans-Serif" font-size="10.00"> dsid</text>
</g>
<!-- Node5 -->
<g id="node5" class="node"><title>Node5</title>
<polygon fill="white" stroke="#bfbfbf" points="256.436,-96 256.436,-115 326.436,-115 326.436,-96 256.436,-96"/>
<text text-anchor="middle" x="291.436" y="-103" font-family="Helvetica,sans-Serif" font-size="10.00">character(5)</text>
</g>
<!-- Node5&#45;&gt;Node1 -->
<g id="edge4" class="edge"><title>Node5&#45;&gt;Node1</title>
<path fill="none" stroke="#9a32cd" stroke-dasharray="5,2" d="M275.841,-88.4767C256.445,-68.5478 224.035,-35.2473 208.814,-19.6078"/>
<polygon fill="#9a32cd" stroke="#9a32cd" points="273.555,-91.1462 283.038,-95.8713 278.572,-86.264 273.555,-91.1462"/>
<text text-anchor="middle" x="262.936" y="-52" font-family="Helvetica,sans-Serif" font-size="10.00"> dnucid</text>
<text text-anchor="middle" x="262.936" y="-41" font-family="Helvetica,sans-Serif" font-size="10.00">pnucid</text>
</g>
<!-- Node6 -->
<g id="node6" class="node"><title>Node6</title>
<polygon fill="white" stroke="#bfbfbf" points="344.936,-96 344.936,-115 391.936,-115 391.936,-96 344.936,-96"/>
<text text-anchor="middle" x="368.436" y="-103" font-family="Helvetica,sans-Serif" font-size="10.00">integer</text>
</g>
<!-- Node6&#45;&gt;Node1 -->
<g id="edge5" class="edge"><title>Node6&#45;&gt;Node1</title>
<path fill="none" stroke="#9a32cd" stroke-dasharray="5,2" d="M349.86,-89.4709C345.168,-85.7061 340.13,-81.6892 335.436,-78 312.512,-59.9818 309.23,-51.5962 283.436,-38 268.423,-30.0863 250.659,-23.9291 235.426,-19.5063"/>
<polygon fill="#9a32cd" stroke="#9a32cd" points="347.797,-92.3036 357.781,-95.8503 352.188,-86.8519 347.797,-92.3036"/>
<text text-anchor="middle" x="325.436" y="-46.5" font-family="Helvetica,sans-Serif" font-size="10.00"> nlev</text>
</g>
</g>
</svg>
