<?xml version="1.0" encoding="UTF-8" standalone="no"?>
<!DOCTYPE svg PUBLIC "-//W3C//DTD SVG 1.1//EN"
 "http://www.w3.org/Graphics/SVG/1.1/DTD/svg11.dtd">
<!-- Generated by graphviz version 2.38.0 (20140413.2041)
 -->
<!-- Title: elem_type::elem Pages: 1 -->
<svg width="307pt" height="95pt"
 viewBox="0.00 0.00 306.50 95.00" xmlns="http://www.w3.org/2000/svg" xmlns:xlink="http://www.w3.org/1999/xlink">
<g id="graph0" class="graph" transform="scale(1 1) rotate(0) translate(4 91)">
<title>elem_type::elem</title>
<polygon fill="white" stroke="none" points="-4,4 -4,-91 302.5,-91 302.5,4 -4,4"/>
<!-- Node1 -->
<g id="node1" class="node"><title>Node1</title>
<polygon fill="#bfbfbf" stroke="black" points="122,-0.5 122,-19.5 212,-19.5 212,-0.5 122,-0.5"/>
<text text-anchor="middle" x="167" y="-7.5" font-family="Helvetica,sans-Serif" font-size="10.00">elem_type::elem</text>
</g>
<!-- Node2 -->
<g id="node2" class="node"><title>Node2</title>
<polygon fill="white" stroke="#bfbfbf" points="0,-67.5 0,-86.5 70,-86.5 70,-67.5 0,-67.5"/>
<text text-anchor="middle" x="35" y="-74.5" font-family="Helvetica,sans-Serif" font-size="10.00">character(2)</text>
</g>
<!-- Node2&#45;&gt;Node1 -->
<g id="edge1" class="edge"><title>Node2&#45;&gt;Node1</title>
<path fill="none" stroke="#9a32cd" stroke-dasharray="5,2" d="M61.5144,-62.9436C87.6597,-50.0691 126.878,-30.7573 149.399,-19.6672"/>
<polygon fill="#9a32cd" stroke="#9a32cd" points="59.9537,-59.8108 52.5286,-67.3685 63.0461,-66.0907 59.9537,-59.8108"/>
<text text-anchor="middle" x="122.5" y="-41" font-family="Helvetica,sans-Serif" font-size="10.00"> symb</text>
</g>
<!-- Node3 -->
<g id="node3" class="node"><title>Node3</title>
<polygon fill="white" stroke="#bfbfbf" points="88,-67.5 88,-86.5 164,-86.5 164,-67.5 88,-67.5"/>
<text text-anchor="middle" x="126" y="-74.5" font-family="Helvetica,sans-Serif" font-size="10.00">character(12)</text>
</g>
<!-- Node3&#45;&gt;Node1 -->
<g id="edge2" class="edge"><title>Node3&#45;&gt;Node1</title>
<path fill="none" stroke="#9a32cd" stroke-dasharray="5,2" d="M137.017,-58.5347C144.955,-45.9499 155.326,-29.5072 161.558,-19.6273"/>
<polygon fill="#9a32cd" stroke="#9a32cd" points="133.904,-56.9085 131.529,-67.2338 139.825,-60.6431 133.904,-56.9085"/>
<text text-anchor="middle" x="163" y="-41" font-family="Helvetica,sans-Serif" font-size="10.00"> name</text>
</g>
<!-- Node4 -->
<g id="node4" class="node"><title>Node4</title>
<polygon fill="white" stroke="#bfbfbf" points="182.5,-67.5 182.5,-86.5 233.5,-86.5 233.5,-67.5 182.5,-67.5"/>
<text text-anchor="middle" x="208" y="-74.5" font-family="Helvetica,sans-Serif" font-size="10.00">real(dp)</text>
</g>
<!-- Node4&#45;&gt;Node1 -->
<g id="edge3" class="edge"><title>Node4&#45;&gt;Node1</title>
<path fill="none" stroke="#9a32cd" stroke-dasharray="5,2" d="M196.983,-58.5347C189.045,-45.9499 178.674,-29.5072 172.442,-19.6273"/>
<polygon fill="#9a32cd" stroke="#9a32cd" points="194.175,-60.6431 202.471,-67.2338 200.096,-56.9085 194.175,-60.6431"/>
<text text-anchor="middle" x="196.5" y="-41" font-family="Helvetica,sans-Serif" font-size="10.00"> wt</text>
</g>
<!-- Node5 -->
<g id="node5" class="node"><title>Node5</title>
<polygon fill="white" stroke="#bfbfbf" points="251.5,-67.5 251.5,-86.5 298.5,-86.5 298.5,-67.5 251.5,-67.5"/>
<text text-anchor="middle" x="275" y="-74.5" font-family="Helvetica,sans-Serif" font-size="10.00">integer</text>
</g>
<!-- Node5&#45;&gt;Node1 -->
<g id="edge4" class="edge"><title>Node5&#45;&gt;Node1</title>
<path fill="none" stroke="#9a32cd" stroke-dasharray="5,2" d="M251.642,-61.9422C230.254,-49.0696 199.279,-30.4274 181.335,-19.6273"/>
<polygon fill="#9a32cd" stroke="#9a32cd" points="250.062,-65.0759 260.435,-67.2338 253.672,-59.0784 250.062,-65.0759"/>
<text text-anchor="middle" x="232" y="-41" font-family="Helvetica,sans-Serif" font-size="10.00"> z</text>
</g>
</g>
</svg>
