<?xml version="1.0" encoding="UTF-8" standalone="no"?>
<!DOCTYPE svg PUBLIC "-//W3C//DTD SVG 1.1//EN"
 "http://www.w3.org/Graphics/SVG/1.1/DTD/svg11.dtd">
<!-- Generated by graphviz version 2.38.0 (20140413.2041)
 -->
<!-- Title: bbra_type::bbra Pages: 1 -->
<svg width="242pt" height="128pt"
 viewBox="0.00 0.00 241.50 128.00" xmlns="http://www.w3.org/2000/svg" xmlns:xlink="http://www.w3.org/1999/xlink">
<g id="graph0" class="graph" transform="scale(1 1) rotate(0) translate(4 124)">
<title>bbra_type::bbra</title>
<polygon fill="white" stroke="none" points="-4,4 -4,-124 237.5,-124 237.5,4 -4,4"/>
<!-- Node1 -->
<g id="node1" class="node"><title>Node1</title>
<polygon fill="#bfbfbf" stroke="black" points="85.5,-0.5 85.5,-19.5 172.5,-19.5 172.5,-0.5 85.5,-0.5"/>
<text text-anchor="middle" x="129" y="-7.5" font-family="Helvetica,sans-Serif" font-size="10.00">bbra_type::bbra</text>
</g>
<!-- Node2 -->
<g id="node2" class="node"><title>Node2</title>
<polygon fill="white" stroke="#bfbfbf" points="0,-100.5 0,-119.5 76,-119.5 76,-100.5 0,-100.5"/>
<text text-anchor="middle" x="38" y="-107.5" font-family="Helvetica,sans-Serif" font-size="10.00">character(30)</text>
</g>
<!-- Node2&#45;&gt;Node1 -->
<g id="edge1" class="edge"><title>Node2&#45;&gt;Node1</title>
<path fill="none" stroke="#9a32cd" stroke-dasharray="5,2" d="M52.8212,-92.5762C65.9211,-78.1163 85.5962,-56.5354 103,-38 108.702,-31.9276 115.202,-25.1776 120.276,-19.9457"/>
<polygon fill="#9a32cd" stroke="#9a32cd" points="50.0468,-90.4259 45.9349,-100.19 55.2385,-95.1214 50.0468,-90.4259"/>
<text text-anchor="middle" x="114" y="-57.5" font-family="Helvetica,sans-Serif" font-size="10.00"> dsid</text>
</g>
<!-- Node3 -->
<g id="node3" class="node"><title>Node3</title>
<polygon fill="white" stroke="#bfbfbf" points="94,-100.5 94,-119.5 164,-119.5 164,-100.5 94,-100.5"/>
<text text-anchor="middle" x="129" y="-107.5" font-family="Helvetica,sans-Serif" font-size="10.00">character(5)</text>
</g>
<!-- Node3&#45;&gt;Node1 -->
<g id="edge2" class="edge"><title>Node3&#45;&gt;Node1</title>
<path fill="none" stroke="#9a32cd" stroke-dasharray="5,2" d="M129,-90.2203C129,-68.9514 129,-35.2197 129,-19.5374"/>
<polygon fill="#9a32cd" stroke="#9a32cd" points="125.5,-90.3031 129,-100.303 132.5,-90.3032 125.5,-90.3031"/>
<text text-anchor="middle" x="145.5" y="-63" font-family="Helvetica,sans-Serif" font-size="10.00"> dnucid</text>
<text text-anchor="middle" x="145.5" y="-52" font-family="Helvetica,sans-Serif" font-size="10.00">pnucid</text>
</g>
<!-- Node4 -->
<g id="node4" class="node"><title>Node4</title>
<polygon fill="white" stroke="#bfbfbf" points="182.5,-100.5 182.5,-119.5 233.5,-119.5 233.5,-100.5 182.5,-100.5"/>
<text text-anchor="middle" x="208" y="-107.5" font-family="Helvetica,sans-Serif" font-size="10.00">real(dp)</text>
</g>
<!-- Node4&#45;&gt;Node1 -->
<g id="edge3" class="edge"><title>Node4&#45;&gt;Node1</title>
<path fill="none" stroke="#9a32cd" stroke-dasharray="5,2" d="M199.955,-91.0828C192.558,-75.8708 180.551,-54.0226 166,-38 159.478,-30.818 150.769,-24.3493 143.439,-19.5452"/>
<polygon fill="#9a32cd" stroke="#9a32cd" points="196.906,-92.8257 204.313,-100.401 203.247,-89.8598 196.906,-92.8257"/>
<text text-anchor="middle" x="205.5" y="-74" font-family="Helvetica,sans-Serif" font-size="10.00"> tbr</text>
<text text-anchor="middle" x="205.5" y="-63" font-family="Helvetica,sans-Serif" font-size="10.00">t12</text>
<text text-anchor="middle" x="205.5" y="-52" font-family="Helvetica,sans-Serif" font-size="10.00">br</text>
<text text-anchor="middle" x="205.5" y="-41" font-family="Helvetica,sans-Serif" font-size="10.00">qval</text>
</g>
</g>
</svg>
