<?xml version="1.0" encoding="UTF-8" standalone="no"?>
<!DOCTYPE svg PUBLIC "-//W3C//DTD SVG 1.1//EN"
 "http://www.w3.org/Graphics/SVG/1.1/DTD/svg11.dtd">
<!-- Generated by graphviz version 2.38.0 (20140413.2041)
 -->
<!-- Title: talysprep Pages: 1 -->
<svg width="490pt" height="290pt"
 viewBox="0.00 0.00 490.00 289.50" xmlns="http://www.w3.org/2000/svg" xmlns:xlink="http://www.w3.org/1999/xlink">
<g id="graph0" class="graph" transform="scale(1 1) rotate(0) translate(4 285.5)">
<title>talysprep</title>
<polygon fill="white" stroke="none" points="-4,4 -4,-285.5 486,-285.5 486,4 -4,4"/>
<!-- Node1 -->
<g id="node1" class="node"><title>Node1</title>
<polygon fill="#bfbfbf" stroke="black" points="0,-161.5 0,-180.5 57,-180.5 57,-161.5 0,-161.5"/>
<text text-anchor="middle" x="28.5" y="-168.5" font-family="Helvetica,sans-Serif" font-size="10.00">talysprep</text>
</g>
<!-- Node2 -->
<g id="node2" class="node"><title>Node2</title>
<g id="a_node2"><a xlink:href="iostuff_8f90.html#a38e224d9341ed418ce42515c2cad9052" target="_top" xlink:title="Gets inputs from inputfile. ">
<polygon fill="white" stroke="black" points="128,-256.5 128,-275.5 191,-275.5 191,-256.5 128,-256.5"/>
<text text-anchor="middle" x="159.5" y="-263.5" font-family="Helvetica,sans-Serif" font-size="10.00">get_inputs</text>
</a>
</g>
</g>
<!-- Node1&#45;&gt;Node2 -->
<g id="edge1" class="edge"><title>Node1&#45;&gt;Node2</title>
<path fill="none" stroke="midnightblue" d="M35.7683,-180.635C46.0325,-195.711 67.8207,-224.915 93,-242 100.573,-247.138 109.381,-251.334 118.037,-254.696"/>
<polygon fill="midnightblue" stroke="midnightblue" points="117.076,-258.07 127.67,-258.144 119.434,-251.479 117.076,-258.07"/>
</g>
<!-- Node4 -->
<g id="node4" class="node"><title>Node4</title>
<g id="a_node4"><a xlink:href="iostuff_8f90.html#af759d00c9a49b8f430c17756db8dabbb" target="_top" xlink:title="Opens external file including error handling. ">
<polygon fill="white" stroke="black" points="290.5,-171.5 290.5,-190.5 347.5,-190.5 347.5,-171.5 290.5,-171.5"/>
<text text-anchor="middle" x="319" y="-178.5" font-family="Helvetica,sans-Serif" font-size="10.00">open_file</text>
</a>
</g>
</g>
<!-- Node1&#45;&gt;Node4 -->
<g id="edge4" class="edge"><title>Node1&#45;&gt;Node4</title>
<path fill="none" stroke="midnightblue" d="M41.2331,-180.713C53.3353,-190.05 73.1867,-203.524 93,-209 149.975,-224.746 167.533,-217.7 226,-209 245.602,-206.083 266.806,-199.851 283.912,-194.006"/>
<polygon fill="midnightblue" stroke="midnightblue" points="285.2,-197.263 293.467,-190.636 282.872,-190.661 285.2,-197.263"/>
</g>
<!-- Node5 -->
<g id="node5" class="node"><title>Node5</title>
<g id="a_node5"><a xlink:href="elemnucl_8f90.html#ad8eafb0d250e2592d19a8690599a6343" target="_top" xlink:title="Sets up element and nuclide data structures from input files. ">
<polygon fill="white" stroke="black" points="97,-66.5 97,-85.5 222,-85.5 222,-66.5 97,-66.5"/>
<text text-anchor="middle" x="159.5" y="-73.5" font-family="Helvetica,sans-Serif" font-size="10.00">read_elements_nuclides</text>
</a>
</g>
</g>
<!-- Node1&#45;&gt;Node5 -->
<g id="edge5" class="edge"><title>Node1&#45;&gt;Node5</title>
<path fill="none" stroke="midnightblue" d="M34.9856,-161.244C44.6058,-145.03 66.08,-112.581 93,-95 96.1599,-92.9363 99.5484,-91.0919 103.059,-89.4443"/>
<polygon fill="midnightblue" stroke="midnightblue" points="104.655,-92.5725 112.567,-85.5269 101.988,-86.1004 104.655,-92.5725"/>
</g>
<!-- Node10 -->
<g id="node10" class="node"><title>Node10</title>
<g id="a_node10"><a xlink:href="mcnp6extract_8f90.html#acd47d7c90f820f36e4410de86184c731" target="_top" xlink:title="Gets (alpha,n) targets from input file and allocates targets(:) array. ">
<polygon fill="white" stroke="black" points="93,-104.5 93,-123.5 226,-123.5 226,-104.5 93,-104.5"/>
<text text-anchor="middle" x="159.5" y="-111.5" font-family="Helvetica,sans-Serif" font-size="10.00">get_requested_an_targets</text>
</a>
</g>
</g>
<!-- Node1&#45;&gt;Node10 -->
<g id="edge11" class="edge"><title>Node1&#45;&gt;Node10</title>
<path fill="none" stroke="midnightblue" d="M43.0703,-161.472C55.5662,-153.047 74.8609,-140.901 93,-133 98.3547,-130.668 104.078,-128.529 109.828,-126.595"/>
<polygon fill="midnightblue" stroke="midnightblue" points="110.998,-129.896 119.472,-123.537 108.882,-123.224 110.998,-129.896"/>
</g>
<!-- Node12 -->
<g id="node12" class="node"><title>Node12</title>
<g id="a_node12"><a xlink:href="talysprep_8f90.html#acbad3d82303b0aea55728ac168bc13be" target="_top" xlink:title="Writes TALYS input file. ">
<polygon fill="white" stroke="black" points="114,-180.5 114,-199.5 205,-199.5 205,-180.5 114,-180.5"/>
<text text-anchor="middle" x="159.5" y="-187.5" font-family="Helvetica,sans-Serif" font-size="10.00">write_talys_input</text>
</a>
</g>
</g>
<!-- Node1&#45;&gt;Node12 -->
<g id="edge15" class="edge"><title>Node1&#45;&gt;Node12</title>
<path fill="none" stroke="midnightblue" d="M57.1737,-175.076C70.8454,-177.09 87.8367,-179.592 103.974,-181.969"/>
<polygon fill="midnightblue" stroke="midnightblue" points="103.471,-185.433 113.875,-183.427 104.492,-178.507 103.471,-185.433"/>
</g>
<!-- Node13 -->
<g id="node13" class="node"><title>Node13</title>
<g id="a_node13"><a xlink:href="talysprep_8f90.html#ab30623fafbb63833b7ca862b063e0844" target="_top" xlink:title="Writes TALYS energy file. ">
<polygon fill="white" stroke="black" points="109.5,-142.5 109.5,-161.5 209.5,-161.5 209.5,-142.5 109.5,-142.5"/>
<text text-anchor="middle" x="159.5" y="-149.5" font-family="Helvetica,sans-Serif" font-size="10.00">write_talys_erange</text>
</a>
</g>
</g>
<!-- Node1&#45;&gt;Node13 -->
<g id="edge17" class="edge"><title>Node1&#45;&gt;Node13</title>
<path fill="none" stroke="midnightblue" d="M57.1737,-166.924C69.5047,-165.108 84.5362,-162.894 99.2062,-160.733"/>
<polygon fill="midnightblue" stroke="midnightblue" points="99.8837,-164.171 109.267,-159.251 98.8637,-157.246 99.8837,-164.171"/>
</g>
<!-- Node3 -->
<g id="node3" class="node"><title>Node3</title>
<g id="a_node3"><a xlink:href="iostuff_8f90.html#ad77856a6e12b6bafdb9db600d0a26385" target="_top" xlink:title="Subroutine that extracts inputfile name from commnad line. ">
<polygon fill="white" stroke="black" points="271,-251 271,-281 367,-281 367,-251 271,-251"/>
<text text-anchor="start" x="279" y="-269" font-family="Helvetica,sans-Serif" font-size="10.00">get_inputfile_from</text>
<text text-anchor="middle" x="319" y="-258" font-family="Helvetica,sans-Serif" font-size="10.00">_command_line</text>
</a>
</g>
</g>
<!-- Node2&#45;&gt;Node3 -->
<g id="edge2" class="edge"><title>Node2&#45;&gt;Node3</title>
<path fill="none" stroke="midnightblue" d="M191.241,-266C210.971,-266 237.202,-266 260.681,-266"/>
<polygon fill="midnightblue" stroke="midnightblue" points="260.894,-269.5 270.894,-266 260.894,-262.5 260.894,-269.5"/>
</g>
<!-- Node2&#45;&gt;Node4 -->
<g id="edge3" class="edge"><title>Node2&#45;&gt;Node4</title>
<path fill="none" stroke="midnightblue" d="M191.125,-256.448C202.34,-252.519 214.977,-247.576 226,-242 251.864,-228.915 279.281,-209.999 297.387,-196.709"/>
<polygon fill="midnightblue" stroke="midnightblue" points="299.546,-199.465 305.48,-190.687 295.367,-193.849 299.546,-199.465"/>
</g>
<!-- Node5&#45;&gt;Node4 -->
<g id="edge6" class="edge"><title>Node5&#45;&gt;Node4</title>
<path fill="none" stroke="midnightblue" d="M207.299,-85.5084C213.899,-87.9844 220.351,-91.0952 226,-95 247.936,-110.163 242.703,-124.595 262,-143 270.983,-151.568 282.09,-159.536 292.038,-165.941"/>
<polygon fill="midnightblue" stroke="midnightblue" points="290.412,-169.051 300.753,-171.355 294.106,-163.105 290.412,-169.051"/>
</g>
<!-- Node6 -->
<g id="node6" class="node"><title>Node6</title>
<g id="a_node6"><a xlink:href="ensdf_8f90.html#ac85c1610cf6186365e8b9104254d54a0" target="_top" xlink:title="Converts all alphanumeric characters in the string to upper case. ">
<polygon fill="white" stroke="black" points="422.5,-95.5 422.5,-114.5 471.5,-114.5 471.5,-95.5 422.5,-95.5"/>
<text text-anchor="middle" x="447" y="-102.5" font-family="Helvetica,sans-Serif" font-size="10.00">upcase</text>
</a>
</g>
</g>
<!-- Node5&#45;&gt;Node6 -->
<g id="edge7" class="edge"><title>Node5&#45;&gt;Node6</title>
<path fill="none" stroke="midnightblue" d="M222.098,-82.2569C280.344,-88.1733 365.581,-96.8314 412.295,-101.576"/>
<polygon fill="midnightblue" stroke="midnightblue" points="412.176,-105.082 422.478,-102.611 412.883,-98.118 412.176,-105.082"/>
</g>
<!-- Node7 -->
<g id="node7" class="node"><title>Node7</title>
<g id="a_node7"><a xlink:href="elemnucl_8f90.html#a34c1f3496ecbc454c7857809cf1798c2" target="_top" xlink:title="Adds nuclide to the nuclide array by expanding its size. ">
<polygon fill="white" stroke="black" points="275.5,-38.5 275.5,-57.5 362.5,-57.5 362.5,-38.5 275.5,-38.5"/>
<text text-anchor="middle" x="319" y="-45.5" font-family="Helvetica,sans-Serif" font-size="10.00">append_nuclide</text>
</a>
</g>
</g>
<!-- Node5&#45;&gt;Node7 -->
<g id="edge8" class="edge"><title>Node5&#45;&gt;Node7</title>
<path fill="none" stroke="midnightblue" d="M214.262,-66.4423C230.793,-63.5035 248.962,-60.2734 265.413,-57.3488"/>
<polygon fill="midnightblue" stroke="midnightblue" points="266.171,-60.769 275.404,-55.5726 264.946,-53.877 266.171,-60.769"/>
</g>
<!-- Node9 -->
<g id="node9" class="node"><title>Node9</title>
<g id="a_node9"><a xlink:href="elemnucl_8f90.html#a9431cbc73d2a2f6ee5119073ac6723f5" target="_top" xlink:title="Simply fills names of elements in element array. ">
<polygon fill="white" stroke="black" points="267.5,-0.5 267.5,-19.5 370.5,-19.5 370.5,-0.5 267.5,-0.5"/>
<text text-anchor="middle" x="319" y="-7.5" font-family="Helvetica,sans-Serif" font-size="10.00">fill_element_names</text>
</a>
</g>
</g>
<!-- Node5&#45;&gt;Node9 -->
<g id="edge10" class="edge"><title>Node5&#45;&gt;Node9</title>
<path fill="none" stroke="midnightblue" d="M179.69,-66.3673C199.903,-56.3985 232.79,-40.6798 262,-29 267.183,-26.9274 272.691,-24.8781 278.152,-22.9356"/>
<polygon fill="midnightblue" stroke="midnightblue" points="279.549,-26.1559 287.85,-19.5727 277.255,-19.5422 279.549,-26.1559"/>
</g>
<!-- Node8 -->
<g id="node8" class="node"><title>Node8</title>
<g id="a_node8"><a xlink:href="ensdf_8f90.html#a9f343a9e65fbf1717c6c4887c0e74884" target="_top" xlink:title="Returns NUCID from Z and A compliant to ENSDF standard, i.e., mass number in cols 1&#45;3 right&#45;justied...">
<polygon fill="white" stroke="black" points="412,-38.5 412,-57.5 482,-57.5 482,-38.5 412,-38.5"/>
<text text-anchor="middle" x="447" y="-45.5" font-family="Helvetica,sans-Serif" font-size="10.00">az_to_nucid</text>
</a>
</g>
</g>
<!-- Node7&#45;&gt;Node8 -->
<g id="edge9" class="edge"><title>Node7&#45;&gt;Node8</title>
<path fill="none" stroke="midnightblue" d="M362.658,-48C375.152,-48 388.841,-48 401.45,-48"/>
<polygon fill="midnightblue" stroke="midnightblue" points="401.736,-51.5001 411.736,-48 401.736,-44.5001 401.736,-51.5001"/>
</g>
<!-- Node10&#45;&gt;Node4 -->
<g id="edge12" class="edge"><title>Node10&#45;&gt;Node4</title>
<path fill="none" stroke="midnightblue" d="M198.343,-123.591C207.516,-126.294 217.209,-129.472 226,-133 249.492,-142.427 274.911,-155.966 293.065,-166.263"/>
<polygon fill="midnightblue" stroke="midnightblue" points="291.434,-169.362 301.847,-171.313 294.923,-163.294 291.434,-169.362"/>
</g>
<!-- Node11 -->
<g id="node11" class="node"><title>Node11</title>
<g id="a_node11"><a xlink:href="ensdf_8f90.html#a4572e087dca23cd61cb6b6e236aa5060" target="_top" xlink:title="Checks NUCID format. ">
<polygon fill="white" stroke="black" points="262,-114.5 262,-133.5 376,-133.5 376,-114.5 262,-114.5"/>
<text text-anchor="middle" x="319" y="-121.5" font-family="Helvetica,sans-Serif" font-size="10.00">validate_nucid_format</text>
</a>
</g>
</g>
<!-- Node10&#45;&gt;Node11 -->
<g id="edge13" class="edge"><title>Node10&#45;&gt;Node11</title>
<path fill="none" stroke="midnightblue" d="M226.382,-118.183C234.772,-118.716 243.362,-119.261 251.758,-119.794"/>
<polygon fill="midnightblue" stroke="midnightblue" points="251.674,-123.296 261.875,-120.437 252.117,-116.31 251.674,-123.296"/>
</g>
<!-- Node11&#45;&gt;Node6 -->
<g id="edge14" class="edge"><title>Node11&#45;&gt;Node6</title>
<path fill="none" stroke="midnightblue" d="M376.366,-115.5C388.581,-113.658 401.133,-111.766 412.156,-110.103"/>
<polygon fill="midnightblue" stroke="midnightblue" points="412.83,-113.541 422.196,-108.589 411.786,-106.62 412.83,-113.541"/>
</g>
<!-- Node12&#45;&gt;Node4 -->
<g id="edge16" class="edge"><title>Node12&#45;&gt;Node4</title>
<path fill="none" stroke="midnightblue" d="M205.212,-187.445C228.765,-186.099 257.349,-184.466 279.848,-183.18"/>
<polygon fill="midnightblue" stroke="midnightblue" points="280.251,-186.663 290.035,-182.598 279.852,-179.674 280.251,-186.663"/>
</g>
<!-- Node13&#45;&gt;Node4 -->
<g id="edge18" class="edge"><title>Node13&#45;&gt;Node4</title>
<path fill="none" stroke="midnightblue" d="M209.902,-161.096C232.695,-165.293 259.316,-170.195 280.436,-174.084"/>
<polygon fill="midnightblue" stroke="midnightblue" points="279.853,-177.535 290.322,-175.904 281.121,-170.651 279.853,-177.535"/>
</g>
</g>
</svg>
